  0
SECTION
  2
HEADER
  9
$ACADVER
  1
AC1032
  9
$ACADMAINTVER
 90
4
  9
$DWGCODEPAGE
  3
ANSI_1252
  9
$LASTSAVEDBY
  1
ezdxf
  9
$REQUIREDVERSIONS
160
0
  9
$INSBASE
 10
0.0
 20
0.0
 30
0.0
  9
$EXTMIN
 10
1e+20
 20
1e+20
 30
1e+20
  9
$EXTMAX
 10
-1e+20
 20
-1e+20
 30
-1e+20
  9
$LIMMIN
 10
0.0
 20
0.0
  9
$LIMMAX
 10
420.0
 20
297.0
  9
$ORTHOMODE
 70
0
  9
$REGENMODE
 70
1
  9
$FILLMODE
 70
1
  9
$QTEXTMODE
 70
0
  9
$MIRRTEXT
 70
1
  9
$LTSCALE
 40
1.0
  9
$ATTMODE
 70
1
  9
$TEXTSIZE
 40
2.5
  9
$TRACEWID
 40
1.0
  9
$TEXTSTYLE
  7
Standard
  9
$CLAYER
  8
0
  9
$CELTYPE
  6
ByLayer
  9
$CECOLOR
 62
256
  9
$CELTSCALE
 40
1.0
  9
$DISPSILH
 70
0
  9
$DIMSCALE
 40
1.0
  9
$DIMASZ
 40
2.5
  9
$DIMEXO
 40
0.625
  9
$DIMDLI
 40
3.75
  9
$DIMRND
 40
0.0
  9
$DIMDLE
 40
0.0
  9
$DIMEXE
 40
1.25
  9
$DIMTP
 40
0.0
  9
$DIMTM
 40
0.0
  9
$DIMTXT
 40
2.5
  9
$DIMCEN
 40
2.5
  9
$DIMTSZ
 40
0.0
  9
$DIMTOL
 70
0
  9
$DIMLIM
 70
0
  9
$DIMTIH
 70
0
  9
$DIMTOH
 70
0
  9
$DIMSE1
 70
0
  9
$DIMSE2
 70
0
  9
$DIMTAD
 70
1
  9
$DIMZIN
 70
8
  9
$DIMBLK
  1

  9
$DIMASO
 70
1
  9
$DIMSHO
 70
1
  9
$DIMPOST
  1

  9
$DIMAPOST
  1

  9
$DIMALT
 70
0
  9
$DIMALTD
 70
3
  9
$DIMALTF
 40
0.03937007874
  9
$DIMLFAC
 40
1.0
  9
$DIMTOFL
 70
1
  9
$DIMTVP
 40
0.0
  9
$DIMTIX
 70
0
  9
$DIMSOXD
 70
0
  9
$DIMSAH
 70
0
  9
$DIMBLK1
  1

  9
$DIMBLK2
  1

  9
$DIMSTYLE
  2
ISO-25
  9
$DIMCLRD
 70
0
  9
$DIMCLRE
 70
0
  9
$DIMCLRT
 70
0
  9
$DIMTFAC
 40
1.0
  9
$DIMGAP
 40
0.625
  9
$DIMJUST
 70
0
  9
$DIMSD1
 70
0
  9
$DIMSD2
 70
0
  9
$DIMTOLJ
 70
0
  9
$DIMTZIN
 70
8
  9
$DIMALTZ
 70
0
  9
$DIMALTTZ
 70
0
  9
$DIMUPT
 70
0
  9
$DIMDEC
 70
2
  9
$DIMTDEC
 70
2
  9
$DIMALTU
 70
2
  9
$DIMALTTD
 70
3
  9
$DIMTXSTY
  7
Standard
  9
$DIMAUNIT
 70
0
  9
$DIMADEC
 70
0
  9
$DIMALTRND
 40
0.0
  9
$DIMAZIN
 70
0
  9
$DIMDSEP
 70
44
  9
$DIMATFIT
 70
3
  9
$DIMFRAC
 70
0
  9
$DIMLDRBLK
  1

  9
$DIMLUNIT
 70
2
  9
$DIMLWD
 70
-2
  9
$DIMLWE
 70
-2
  9
$DIMTMOVE
 70
0
  9
$DIMFXL
 40
1.0
  9
$DIMFXLON
 70
0
  9
$DIMJOGANG
 40
0.785398163397
  9
$DIMTFILL
 70
0
  9
$DIMTFILLCLR
 70
0
  9
$DIMARCSYM
 70
0
  9
$DIMLTYPE
  6

  9
$DIMLTEX1
  6

  9
$DIMLTEX2
  6

  9
$DIMTXTDIRECTION
 70
0
  9
$LUNITS
 70
2
  9
$LUPREC
 70
4
  9
$SKETCHINC
 40
1.0
  9
$FILLETRAD
 40
10.0
  9
$AUNITS
 70
0
  9
$AUPREC
 70
2
  9
$MENU
  1
.
  9
$ELEVATION
 40
0.0
  9
$PELEVATION
 40
0.0
  9
$THICKNESS
 40
0.0
  9
$LIMCHECK
 70
0
  9
$CHAMFERA
 40
0.0
  9
$CHAMFERB
 40
0.0
  9
$CHAMFERC
 40
0.0
  9
$CHAMFERD
 40
0.0
  9
$SKPOLY
 70
0
  9
$TDCREATE
 40
2461301.4407060184
  9
$TDUCREATE
 40
2458532.153996898
  9
$TDUPDATE
 40
2461301.4407060184
  9
$TDUUPDATE
 40
2458532.1544311
  9
$TDINDWG
 40
0.0
  9
$TDUSRTIMER
 40
0.0
  9
$USRTIMER
 70
1
  9
$ANGBASE
 50
0.0
  9
$ANGDIR
 70
0
  9
$PDMODE
 70
0
  9
$PDSIZE
 40
0.0
  9
$PLINEWID
 40
0.0
  9
$SPLFRAME
 70
0
  9
$SPLINETYPE
 70
6
  9
$SPLINESEGS
 70
8
  9
$HANDSEED
  5
95
  9
$SURFTAB1
 70
6
  9
$SURFTAB2
 70
6
  9
$SURFTYPE
 70
6
  9
$SURFU
 70
6
  9
$SURFV
 70
6
  9
$UCSBASE
  2

  9
$UCSNAME
  2

  9
$UCSORG
 10
0.0
 20
0.0
 30
0.0
  9
$UCSXDIR
 10
1.0
 20
0.0
 30
0.0
  9
$UCSYDIR
 10
0.0
 20
1.0
 30
0.0
  9
$UCSORTHOREF
  2

  9
$UCSORTHOVIEW
 70
0
  9
$UCSORGTOP
 10
0.0
 20
0.0
 30
0.0
  9
$UCSORGBOTTOM
 10
0.0
 20
0.0
 30
0.0
  9
$UCSORGLEFT
 10
0.0
 20
0.0
 30
0.0
  9
$UCSORGRIGHT
 10
0.0
 20
0.0
 30
0.0
  9
$UCSORGFRONT
 10
0.0
 20
0.0
 30
0.0
  9
$UCSORGBACK
 10
0.0
 20
0.0
 30
0.0
  9
$PUCSBASE
  2

  9
$PUCSNAME
  2

  9
$PUCSORG
 10
0.0
 20
0.0
 30
0.0
  9
$PUCSXDIR
 10
1.0
 20
0.0
 30
0.0
  9
$PUCSYDIR
 10
0.0
 20
1.0
 30
0.0
  9
$PUCSORTHOREF
  2

  9
$PUCSORTHOVIEW
 70
0
  9
$PUCSORGTOP
 10
0.0
 20
0.0
 30
0.0
  9
$PUCSORGBOTTOM
 10
0.0
 20
0.0
 30
0.0
  9
$PUCSORGLEFT
 10
0.0
 20
0.0
 30
0.0
  9
$PUCSORGRIGHT
 10
0.0
 20
0.0
 30
0.0
  9
$PUCSORGFRONT
 10
0.0
 20
0.0
 30
0.0
  9
$PUCSORGBACK
 10
0.0
 20
0.0
 30
0.0
  9
$USERI1
 70
0
  9
$USERI2
 70
0
  9
$USERI3
 70
0
  9
$USERI4
 70
0
  9
$USERI5
 70
0
  9
$USERR1
 40
0.0
  9
$USERR2
 40
0.0
  9
$USERR3
 40
0.0
  9
$USERR4
 40
0.0
  9
$USERR5
 40
0.0
  9
$WORLDVIEW
 70
1
  9
$SHADEDGE
 70
3
  9
$SHADEDIF
 70
70
  9
$TILEMODE
 70
1
  9
$MAXACTVP
 70
64
  9
$PINSBASE
 10
0.0
 20
0.0
 30
0.0
  9
$PLIMCHECK
 70
0
  9
$PEXTMIN
 10
1e+20
 20
1e+20
 30
1e+20
  9
$PEXTMAX
 10
-1e+20
 20
-1e+20
 30
-1e+20
  9
$PLIMMIN
 10
0.0
 20
0.0
  9
$PLIMMAX
 10
420.0
 20
297.0
  9
$UNITMODE
 70
0
  9
$VISRETAIN
 70
1
  9
$PLINEGEN
 70
0
  9
$PSLTSCALE
 70
1
  9
$TREEDEPTH
 70
3020
  9
$CMLSTYLE
  2
Standard
  9
$CMLJUST
 70
0
  9
$CMLSCALE
 40
20.0
  9
$PROXYGRAPHICS
 70
1
  9
$MEASUREMENT
 70
1
  9
$CELWEIGHT
370
-1
  9
$ENDCAPS
280
0
  9
$JOINSTYLE
280
0
  9
$LWDISPLAY
290
0
  9
$INSUNITS
 70
4
  9
$HYPERLINKBASE
  1

  9
$STYLESHEET
  1

  9
$XEDIT
290
1
  9
$CEPSNTYPE
380
0
  9
$PSTYLEMODE
290
1
  9
$FINGERPRINTGUID
  2
{FFC57357-3327-4152-88EA-4F3ABB8D4FAC}
  9
$VERSIONGUID
  2
{75EB1E08-200D-4A6B-A124-97BB2B976AC0}
  9
$EXTNAMES
290
1
  9
$PSVPSCALE
 40
0.0
  9
$OLESTARTUP
290
0
  9
$SORTENTS
280
127
  9
$INDEXCTL
280
0
  9
$HIDETEXT
280
1
  9
$XCLIPFRAME
280
1
  9
$HALOGAP
280
0
  9
$OBSCOLOR
 70
257
  9
$OBSLTYPE
280
0
  9
$INTERSECTIONDISPLAY
280
0
  9
$INTERSECTIONCOLOR
 70
257
  9
$DIMASSOC
280
2
  9
$PROJECTNAME
  1

  9
$CAMERADISPLAY
290
0
  9
$LENSLENGTH
 40
50.0
  9
$CAMERAHEIGHT
 40
0.0
  9
$STEPSPERSEC
 40
24.0
  9
$STEPSIZE
 40
100.0
  9
$3DDWFPREC
 40
2.0
  9
$PSOLWIDTH
 40
0.005
  9
$PSOLHEIGHT
 40
0.08
  9
$LOFTANG1
 40
1.570796326795
  9
$LOFTANG2
 40
1.570796326795
  9
$LOFTMAG1
 40
0.0
  9
$LOFTMAG2
 40
0.0
  9
$LOFTPARAM
 70
7
  9
$LOFTNORMALS
280
1
  9
$LATITUDE
 40
37.795
  9
$LONGITUDE
 40
-122.394
  9
$NORTHDIRECTION
 40
0.0
  9
$TIMEZONE
 70
-8000
  9
$LIGHTGLYPHDISPLAY
280
1
  9
$TILEMODELIGHTSYNCH
280
1
  9
$CMATERIAL
347
20
  9
$SOLIDHIST
280
0
  9
$SHOWHIST
280
1
  9
$DWFFRAME
280
2
  9
$DGNFRAME
280
2
  9
$REALWORLDSCALE
290
1
  9
$INTERFERECOLOR
 62
256
  9
$CSHADOW
280
0
  9
$SHADOWPLANELOCATION
 40
0.0
  0
ENDSEC
  0
SECTION
  2
CLASSES
  0
CLASS
  1
ACDBDICTIONARYWDFLT
  2
AcDbDictionaryWithDefault
  3
ObjectDBX Classes
 90
0
 91
0
280
0
281
0
  0
CLASS
  1
SUN
  2
AcDbSun
  3
SCENEOE
 90
1153
 91
0
280
0
281
0
  0
CLASS
  1
VISUALSTYLE
  2
AcDbVisualStyle
  3
ObjectDBX Classes
 90
4095
 91
0
280
0
281
0
  0
CLASS
  1
MATERIAL
  2
AcDbMaterial
  3
ObjectDBX Classes
 90
1153
 91
0
280
0
281
0
  0
CLASS
  1
SCALE
  2
AcDbScale
  3
ObjectDBX Classes
 90
1153
 91
0
280
0
281
0
  0
CLASS
  1
TABLESTYLE
  2
AcDbTableStyle
  3
ObjectDBX Classes
 90
4095
 91
0
280
0
281
0
  0
CLASS
  1
MLEADERSTYLE
  2
AcDbMLeaderStyle
  3
ACDB_MLEADERSTYLE_CLASS
 90
4095
 91
0
280
0
281
0
  0
CLASS
  1
DICTIONARYVAR
  2
AcDbDictionaryVar
  3
ObjectDBX Classes
 90
0
 91
0
280
0
281
0
  0
CLASS
  1
CELLSTYLEMAP
  2
AcDbCellStyleMap
  3
ObjectDBX Classes
 90
1152
 91
0
280
0
281
0
  0
CLASS
  1
MENTALRAYRENDERSETTINGS
  2
AcDbMentalRayRenderSettings
  3
SCENEOE
 90
1024
 91
0
280
0
281
0
  0
CLASS
  1
ACDBDETAILVIEWSTYLE
  2
AcDbDetailViewStyle
  3
ObjectDBX Classes
 90
1025
 91
0
280
0
281
0
  0
CLASS
  1
ACDBSECTIONVIEWSTYLE
  2
AcDbSectionViewStyle
  3
ObjectDBX Classes
 90
1025
 91
0
280
0
281
0
  0
CLASS
  1
RASTERVARIABLES
  2
AcDbRasterVariables
  3
ISM
 90
0
 91
0
280
0
281
0
  0
CLASS
  1
LAYOUT
  2
AcDbLayout
  3
ObjectDBX Classes
 90
0
 91
0
280
0
281
0
  0
CLASS
  1
ACDBPLACEHOLDER
  2
AcDbPlaceHolder
  3
ObjectDBX Classes
 90
0
 91
0
280
0
281
0
  0
ENDSEC
  0
SECTION
  2
TABLES
  0
TABLE
  2
VPORT
  5
8
330
0
100
AcDbSymbolTable
 70
1
  0
VPORT
  5
23
330
8
100
AcDbSymbolTableRecord
100
AcDbViewportTableRecord
  2
*Active
 70
0
 10
0.0
 20
0.0
 11
1.0
 21
1.0
 12
0.0
 22
0.0
 13
0.0
 23
0.0
 14
0.5
 24
0.5
 15
0.5
 25
0.5
 16
0.0
 26
0.0
 36
1.0
 17
0.0
 27
0.0
 37
0.0
 40
1000.0
 41
1.34
 42
50.0
 43
0.0
 44
0.0
 50
0.0
 51
0.0
 71
0
 72
1000
 73
1
 74
3
 75
0
 76
0
 77
0
 78
0
281
0
 65
0
146
0.0
  0
ENDTAB
  0
TABLE
  2
LTYPE
  5
2
330
0
100
AcDbSymbolTable
 70
3
  0
LTYPE
  5
24
330
2
100
AcDbSymbolTableRecord
100
AcDbLinetypeTableRecord
  2
ByBlock
 70
0
  3

 72
65
 73
0
 40
0.0
  0
LTYPE
  5
25
330
2
100
AcDbSymbolTableRecord
100
AcDbLinetypeTableRecord
  2
ByLayer
 70
0
  3

 72
65
 73
0
 40
0.0
  0
LTYPE
  5
26
330
2
100
AcDbSymbolTableRecord
100
AcDbLinetypeTableRecord
  2
Continuous
 70
0
  3

 72
65
 73
0
 40
0.0
  0
ENDTAB
  0
TABLE
  2
LAYER
  5
1
330
0
100
AcDbSymbolTable
 70
7
  0
LAYER
  5
27
330
1
100
AcDbSymbolTableRecord
100
AcDbLayerTableRecord
  2
0
 70
0
 62
7
  6
Continuous
370
-3
390
13
347
21
  0
LAYER
  5
28
330
1
100
AcDbSymbolTableRecord
100
AcDbLayerTableRecord
  2
Defpoints
 70
0
 62
7
  6
Continuous
290
0
370
-3
390
13
347
21
  0
LAYER
  5
2F
330
1
100
AcDbSymbolTableRecord
100
AcDbLayerTableRecord
  2
CNC_BOUNDARY
 70
0
 62
1
  6
Continuous
370
-3
390
13
347
21
  0
LAYER
  5
30
330
1
100
AcDbSymbolTableRecord
100
AcDbLayerTableRecord
  2
CUT
 70
0
 62
7
  6
Continuous
370
-3
390
13
347
21
  0
LAYER
  5
31
330
1
100
AcDbSymbolTableRecord
100
AcDbLayerTableRecord
  2
ETCH
 70
0
 62
2
  6
Continuous
370
-3
390
13
347
21
  0
LAYER
  5
32
330
1
100
AcDbSymbolTableRecord
100
AcDbLayerTableRecord
  2
OFFCUT
 70
0
 62
4
  6
Continuous
370
-3
390
13
347
21
  0
LAYER
  5
33
330
1
100
AcDbSymbolTableRecord
100
AcDbLayerTableRecord
  2
INFO
 70
0
 62
8
  6
Continuous
370
-3
390
13
347
21
  0
ENDTAB
  0
TABLE
  2
STYLE
  5
5
330
0
100
AcDbSymbolTable
 70
1
  0
STYLE
  5
29
330
5
100
AcDbSymbolTableRecord
100
AcDbTextStyleTableRecord
  2
Standard
 70
0
 40
0.0
 41
1.0
 50
0.0
 71
0
 42
2.5
  3
txt
  4

  0
ENDTAB
  0
TABLE
  2
VIEW
  5
7
330
0
100
AcDbSymbolTable
 70
0
  0
ENDTAB
  0
TABLE
  2
UCS
  5
6
330
0
100
AcDbSymbolTable
 70
0
  0
ENDTAB
  0
TABLE
  2
APPID
  5
3
330
0
100
AcDbSymbolTable
 70
3
  0
APPID
  5
2A
330
3
100
AcDbSymbolTableRecord
100
AcDbRegAppTableRecord
  2
ACAD
 70
0
  0
APPID
  5
92
330
3
100
AcDbSymbolTableRecord
100
AcDbRegAppTableRecord
  2
HATCHBACKGROUNDCOLOR
 70
0
  0
APPID
  5
93
330
3
100
AcDbSymbolTableRecord
100
AcDbRegAppTableRecord
  2
EZDXF
 70
0
  0
ENDTAB
  0
TABLE
  2
DIMSTYLE
  5
4
330
0
100
AcDbSymbolTable
 70
1
100
AcDbDimStyleTable
  0
DIMSTYLE
105
2B
330
4
100
AcDbSymbolTableRecord
100
AcDbDimStyleTableRecord
  2
Standard
 70
0
 40
1.0
 41
2.5
 42
0.625
 43
3.75
 44
1.25
 45
0.0
 46
0.0
 47
0.0
 48
0.0
 49
2.5
140
2.5
141
2.5
142
0.0
143
0.03937007874
144
1.0
145
0.0
146
1.0
147
0.625
148
0.0
 69
0
 70
0
 71
0
 72
0
 73
0
 74
0
 75
0
 76
0
 77
1
 78
8
 79
3
170
0
171
3
172
1
173
0
174
0
175
0
176
0
177
0
178
0
179
2
271
2
272
2
273
2
274
3
275
0
276
0
277
2
278
44
279
0
280
0
281
0
282
0
283
0
284
8
285
0
286
0
288
0
289
3
290
0
371
-2
372
-2
  0
ENDTAB
  0
TABLE
  2
BLOCK_RECORD
  5
9
330
0
100
AcDbSymbolTable
 70
2
  0
BLOCK_RECORD
  5
17
330
9
100
AcDbSymbolTableRecord
100
AcDbBlockTableRecord
  2
*Model_Space
340
1A
 70
0
280
1
281
0
  0
BLOCK_RECORD
  5
1B
330
9
100
AcDbSymbolTableRecord
100
AcDbBlockTableRecord
  2
*Paper_Space
340
1E
 70
0
280
1
281
0
  0
ENDTAB
  0
ENDSEC
  0
SECTION
  2
BLOCKS
  0
BLOCK
  5
18
330
17
100
AcDbEntity
  8
0
100
AcDbBlockBegin
  2
*Model_Space
 70
0
 10
0.0
 20
0.0
 30
0.0
  3
*Model_Space
  1

  0
ENDBLK
  5
19
330
17
100
AcDbEntity
  8
0
100
AcDbBlockEnd
  0
BLOCK
  5
1C
330
1B
100
AcDbEntity
  8
0
100
AcDbBlockBegin
  2
*Paper_Space
 70
0
 10
0.0
 20
0.0
 30
0.0
  3
*Paper_Space
  1

  0
ENDBLK
  5
1D
330
1B
100
AcDbEntity
  8
0
100
AcDbBlockEnd
  0
ENDSEC
  0
SECTION
  2
ENTITIES
  0
LWPOLYLINE
  5
34
330
17
100
AcDbEntity
  8
CNC_BOUNDARY
100
AcDbPolyline
 90
4
 70
1
 10
0.0
 20
0.0
 10
1220.0
 20
0.0
 10
1220.0
 20
2440.0
 10
0.0
 20
2440.0
  0
LWPOLYLINE
  5
35
330
17
100
AcDbEntity
  8
CUT
100
AcDbPolyline
 90
5
 70
1
 10
17.0
 20
17.0
 10
617.0
 20
17.0
 10
617.0
 20
817.0
 10
17.0
 20
817.0
 10
17.0
 20
17.0
  0
LWPOLYLINE
  5
36
330
17
100
AcDbEntity
  8
CUT
100
AcDbPolyline
 90
17
 70
1
 10
69.5
 20
67.0
 10
69.3035
 20
66.0269
 10
68.7678
 20
65.2322
 10
67.9731
 20
64.6965
 10
67.0
 20
64.5
 10
66.0269
 20
64.6965
 10
65.2322
 20
65.2322
 10
64.6965
 20
66.0269
 10
64.5
 20
67.0
 10
64.6965
 20
67.9731
 10
65.2322
 20
68.7678
 10
66.0269
 20
69.3035
 10
67.0
 20
69.5
 10
67.9731
 20
69.3035
 10
68.7678
 20
68.7678
 10
69.3035
 20
67.9731
 10
69.5
 20
67.0
  0
LWPOLYLINE
  5
37
330
17
100
AcDbEntity
  8
CUT
100
AcDbPolyline
 90
17
 70
1
 10
569.5
 20
67.0
 10
569.3035
 20
66.0269
 10
568.7678
 20
65.2322
 10
567.9731
 20
64.6965
 10
567.0
 20
64.5
 10
566.0269
 20
64.6965
 10
565.2322
 20
65.2322
 10
564.6965
 20
66.0269
 10
564.5
 20
67.0
 10
564.6965
 20
67.9731
 10
565.2322
 20
68.7678
 10
566.0269
 20
69.3035
 10
567.0
 20
69.5
 10
567.9731
 20
69.3035
 10
568.7678
 20
68.7678
 10
569.3035
 20
67.9731
 10
569.5
 20
67.0
  0
LWPOLYLINE
  5
38
330
17
100
AcDbEntity
  8
CUT
100
AcDbPolyline
 90
17
 70
1
 10
69.5
 20
767.0
 10
69.3035
 20
766.0269
 10
68.7678
 20
765.2322
 10
67.9731
 20
764.6965
 10
67.0
 20
764.5
 10
66.0269
 20
764.6965
 10
65.2322
 20
765.2322
 10
64.6965
 20
766.0269
 10
64.5
 20
767.0
 10
64.6965
 20
767.9731
 10
65.2322
 20
768.7678
 10
66.0269
 20
769.3035
 10
67.0
 20
769.5
 10
67.9731
 20
769.3035
 10
68.7678
 20
768.7678
 10
69.3035
 20
767.9731
 10
69.5
 20
767.0
  0
LWPOLYLINE
  5
39
330
17
100
AcDbEntity
  8
CUT
100
AcDbPolyline
 90
17
 70
1
 10
569.5
 20
767.0
 10
569.3035
 20
766.0269
 10
568.7678
 20
765.2322
 10
567.9731
 20
764.6965
 10
567.0
 20
764.5
 10
566.0269
 20
764.6965
 10
565.2322
 20
765.2322
 10
564.6965
 20
766.0269
 10
564.5
 20
767.0
 10
564.6965
 20
767.9731
 10
565.2322
 20
768.7678
 10
566.0269
 20
769.3035
 10
567.0
 20
769.5
 10
567.9731
 20
769.3035
 10
568.7678
 20
768.7678
 10
569.3035
 20
767.9731
 10
569.5
 20
767.0
  0
TEXT
  5
3A
330
17
100
AcDbEntity
  8
ETCH
100
AcDbText
 10
317.0
 20
417.0
 30
0.0
 40
24.0
  1
P004
 72
1
 11
317.0
 21
417.0
 31
0.0
100
AcDbText
 73
2
  0
LWPOLYLINE
  5
3B
330
17
100
AcDbEntity
  8
CUT
100
AcDbPolyline
 90
5
 70
1
 10
17.0
 20
831.0
 10
617.0
 20
831.0
 10
617.0
 20
1631.0
 10
17.0
 20
1631.0
 10
17.0
 20
831.0
  0
LWPOLYLINE
  5
3C
330
17
100
AcDbEntity
  8
CUT
100
AcDbPolyline
 90
17
 70
1
 10
69.5
 20
881.0
 10
69.3035
 20
880.0269
 10
68.7678
 20
879.2322
 10
67.9731
 20
878.6965
 10
67.0
 20
878.5
 10
66.0269
 20
878.6965
 10
65.2322
 20
879.2322
 10
64.6965
 20
880.0269
 10
64.5
 20
881.0
 10
64.6965
 20
881.9731
 10
65.2322
 20
882.7678
 10
66.0269
 20
883.3035
 10
67.0
 20
883.5
 10
67.9731
 20
883.3035
 10
68.7678
 20
882.7678
 10
69.3035
 20
881.9731
 10
69.5
 20
881.0
  0
LWPOLYLINE
  5
3D
330
17
100
AcDbEntity
  8
CUT
100
AcDbPolyline
 90
17
 70
1
 10
569.5
 20
881.0
 10
569.3035
 20
880.0269
 10
568.7678
 20
879.2322
 10
567.9731
 20
878.6965
 10
567.0
 20
878.5
 10
566.0269
 20
878.6965
 10
565.2322
 20
879.2322
 10
564.6965
 20
880.0269
 10
564.5
 20
881.0
 10
564.6965
 20
881.9731
 10
565.2322
 20
882.7678
 10
566.0269
 20
883.3035
 10
567.0
 20
883.5
 10
567.9731
 20
883.3035
 10
568.7678
 20
882.7678
 10
569.3035
 20
881.9731
 10
569.5
 20
881.0
  0
LWPOLYLINE
  5
3E
330
17
100
AcDbEntity
  8
CUT
100
AcDbPolyline
 90
17
 70
1
 10
69.5
 20
1581.0
 10
69.3035
 20
1580.0269
 10
68.7678
 20
1579.2322
 10
67.9731
 20
1578.6965
 10
67.0
 20
1578.5
 10
66.0269
 20
1578.6965
 10
65.2322
 20
1579.2322
 10
64.6965
 20
1580.0269
 10
64.5
 20
1581.0
 10
64.6965
 20
1581.9731
 10
65.2322
 20
1582.7678
 10
66.0269
 20
1583.3035
 10
67.0
 20
1583.5
 10
67.9731
 20
1583.3035
 10
68.7678
 20
1582.7678
 10
69.3035
 20
1581.9731
 10
69.5
 20
1581.0
  0
LWPOLYLINE
  5
3F
330
17
100
AcDbEntity
  8
CUT
100
AcDbPolyline
 90
17
 70
1
 10
569.5
 20
1581.0
 10
569.3035
 20
1580.0269
 10
568.7678
 20
1579.2322
 10
567.9731
 20
1578.6965
 10
567.0
 20
1578.5
 10
566.0269
 20
1578.6965
 10
565.2322
 20
1579.2322
 10
564.6965
 20
1580.0269
 10
564.5
 20
1581.0
 10
564.6965
 20
1581.9731
 10
565.2322
 20
1582.7678
 10
566.0269
 20
1583.3035
 10
567.0
 20
1583.5
 10
567.9731
 20
1583.3035
 10
568.7678
 20
1582.7678
 10
569.3035
 20
1581.9731
 10
569.5
 20
1581.0
  0
TEXT
  5
40
330
17
100
AcDbEntity
  8
ETCH
100
AcDbText
 10
317.0
 20
1231.0
 30
0.0
 40
24.0
  1
P004
 72
1
 11
317.0
 21
1231.0
 31
0.0
100
AcDbText
 73
2
  0
LWPOLYLINE
  5
41
330
17
100
AcDbEntity
  8
CUT
100
AcDbPolyline
 90
5
 70
1
 10
817.0
 20
1645.0
 10
817.0
 20
2245.0
 10
17.0
 20
2245.0
 10
17.0
 20
1645.0
 10
817.0
 20
1645.0
  0
LWPOLYLINE
  5
42
330
17
100
AcDbEntity
  8
CUT
100
AcDbPolyline
 90
17
 70
1
 10
767.0
 20
1697.5
 10
767.9731
 20
1697.3035
 10
768.7678
 20
1696.7678
 10
769.3035
 20
1695.9731
 10
769.5
 20
1695.0
 10
769.3035
 20
1694.0269
 10
768.7678
 20
1693.2322
 10
767.9731
 20
1692.6965
 10
767.0
 20
1692.5
 10
766.0269
 20
1692.6965
 10
765.2322
 20
1693.2322
 10
764.6965
 20
1694.0269
 10
764.5
 20
1695.0
 10
764.6965
 20
1695.9731
 10
765.2322
 20
1696.7678
 10
766.0269
 20
1697.3035
 10
767.0
 20
1697.5
  0
LWPOLYLINE
  5
43
330
17
100
AcDbEntity
  8
CUT
100
AcDbPolyline
 90
17
 70
1
 10
767.0
 20
2197.5
 10
767.9731
 20
2197.3035
 10
768.7678
 20
2196.7678
 10
769.3035
 20
2195.9731
 10
769.5
 20
2195.0
 10
769.3035
 20
2194.0269
 10
768.7678
 20
2193.2322
 10
767.9731
 20
2192.6965
 10
767.0
 20
2192.5
 10
766.0269
 20
2192.6965
 10
765.2322
 20
2193.2322
 10
764.6965
 20
2194.0269
 10
764.5
 20
2195.0
 10
764.6965
 20
2195.9731
 10
765.2322
 20
2196.7678
 10
766.0269
 20
2197.3035
 10
767.0
 20
2197.5
  0
LWPOLYLINE
  5
44
330
17
100
AcDbEntity
  8
CUT
100
AcDbPolyline
 90
17
 70
1
 10
67.0
 20
1697.5
 10
67.9731
 20
1697.3035
 10
68.7678
 20
1696.7678
 10
69.3035
 20
1695.9731
 10
69.5
 20
1695.0
 10
69.3035
 20
1694.0269
 10
68.7678
 20
1693.2322
 10
67.9731
 20
1692.6965
 10
67.0
 20
1692.5
 10
66.0269
 20
1692.6965
 10
65.2322
 20
1693.2322
 10
64.6965
 20
1694.0269
 10
64.5
 20
1695.0
 10
64.6965
 20
1695.9731
 10
65.2322
 20
1696.7678
 10
66.0269
 20
1697.3035
 10
67.0
 20
1697.5
  0
LWPOLYLINE
  5
45
330
17
100
AcDbEntity
  8
CUT
100
AcDbPolyline
 90
17
 70
1
 10
67.0
 20
2197.5
 10
67.9731
 20
2197.3035
 10
68.7678
 20
2196.7678
 10
69.3035
 20
2195.9731
 10
69.5
 20
2195.0
 10
69.3035
 20
2194.0269
 10
68.7678
 20
2193.2322
 10
67.9731
 20
2192.6965
 10
67.0
 20
2192.5
 10
66.0269
 20
2192.6965
 10
65.2322
 20
2193.2322
 10
64.6965
 20
2194.0269
 10
64.5
 20
2195.0
 10
64.6965
 20
2195.9731
 10
65.2322
 20
2196.7678
 10
66.0269
 20
2197.3035
 10
67.0
 20
2197.5
  0
TEXT
  5
46
330
17
100
AcDbEntity
  8
ETCH
100
AcDbText
 10
417.0
 20
1945.0
 30
0.0
 40
24.0
  1
P004
 72
1
 11
417.0
 21
1945.0
 31
0.0
100
AcDbText
 73
2
  0
LWPOLYLINE
  5
47
330
17
100
AcDbEntity
  8
CUT
100
AcDbPolyline
 90
5
 70
1
 10
1131.0
 20
17.0
 10
1131.0
 20
597.0
 10
631.0
 20
597.0
 10
631.0
 20
17.0
 10
1131.0
 20
17.0
  0
TEXT
  5
48
330
17
100
AcDbEntity
  8
ETCH
100
AcDbText
 10
881.0
 20
307.0
 30
0.0
 40
24.0
  1
P005
 72
1
 11
881.0
 21
307.0
 31
0.0
100
AcDbText
 73
2
  0
LWPOLYLINE
  5
49
330
17
100
AcDbEntity
  8
CUT
100
AcDbPolyline
 90
5
 70
1
 10
1131.0
 20
611.0
 10
1131.0
 20
1191.0
 10
631.0
 20
1191.0
 10
631.0
 20
611.0
 10
1131.0
 20
611.0
  0
TEXT
  5
4A
330
17
100
AcDbEntity
  8
ETCH
100
AcDbText
 10
881.0
 20
901.0
 30
0.0
 40
24.0
  1
P005
 72
1
 11
881.0
 21
901.0
 31
0.0
100
AcDbText
 73
2
  0
LWPOLYLINE
  5
4B
330
17
100
AcDbEntity
  8
CUT
100
AcDbPolyline
 90
68
 70
1
 10
1131.0
 20
1205.0
 10
1131.0
 20
1605.0
 10
831.0
 20
1605.0
 10
820.708
 20
1604.7398
 10
810.5512
 20
1603.9674
 10
800.542
 20
1602.6956
 10
790.693
 20
1600.9367
 10
781.0169
 20
1598.7035
 10
771.5261
 20
1596.0084
 10
762.2333
 20
1592.8641
 10
753.151
 20
1589.283
 10
744.2917
 20
1585.2778
 10
735.6681
 20
1580.8611
 10
727.2927
 20
1576.0453
 10
719.1781
 20
1570.8431
 10
711.3368
 20
1565.2671
 10
703.7814
 20
1559.3297
 10
696.5245
 20
1553.0436
 10
689.5786
 20
1546.4214
 10
682.9564
 20
1539.4755
 10
676.6703
 20
1532.2186
 10
670.7329
 20
1524.6632
 10
665.1569
 20
1516.8219
 10
659.9547
 20
1508.7073
 10
655.1389
 20
1500.3319
 10
650.7222
 20
1491.7083
 10
646.717
 20
1482.849
 10
643.1359
 20
1473.7667
 10
639.9916
 20
1464.4739
 10
637.2965
 20
1454.9831
 10
635.0633
 20
1445.307
 10
633.3044
 20
1435.458
 10
632.0326
 20
1425.4488
 10
631.2602
 20
1415.292
 10
631.0
 20
1405.0
 10
631.2602
 20
1394.708
 10
632.0326
 20
1384.5512
 10
633.3044
 20
1374.542
 10
635.0633
 20
1364.693
 10
637.2965
 20
1355.0169
 10
639.9916
 20
1345.5261
 10
643.1359
 20
1336.2333
 10
646.717
 20
1327.151
 10
650.7222
 20
1318.2917
 10
655.1389
 20
1309.6681
 10
659.9547
 20
1301.2927
 10
665.1569
 20
1293.1781
 10
670.7329
 20
1285.3368
 10
676.6703
 20
1277.7814
 10
682.9564
 20
1270.5245
 10
689.5786
 20
1263.5786
 10
696.5245
 20
1256.9564
 10
703.7814
 20
1250.6703
 10
711.3368
 20
1244.7329
 10
719.1781
 20
1239.1569
 10
727.2927
 20
1233.9547
 10
735.6681
 20
1229.1389
 10
744.2917
 20
1224.7222
 10
753.151
 20
1220.717
 10
762.2333
 20
1217.1359
 10
771.5261
 20
1213.9916
 10
781.0169
 20
1211.2965
 10
790.693
 20
1209.0633
 10
800.542
 20
1207.3044
 10
810.5512
 20
1206.0326
 10
820.708
 20
1205.2602
 10
831.0
 20
1205.0
 10
1131.0
 20
1205.0
  0
TEXT
  5
4C
330
17
100
AcDbEntity
  8
ETCH
100
AcDbText
 10
881.0650596897365
 20
1410.1459867363349
 30
0.0
 40
24.0
  1
P001
 72
1
 11
881.0650596897365
 21
1410.1459867363349
 31
0.0
100
AcDbText
 73
2
  0
LWPOLYLINE
  5
4D
330
17
100
AcDbEntity
  8
CUT
100
AcDbPolyline
 90
5
 70
1
 10
1128.0
 20
1619.0
 10
1128.0
 20
2016.0
 10
831.0
 20
2016.0
 10
831.0
 20
1619.0
 10
1128.0
 20
1619.0
  0
TEXT
  5
4E
330
17
100
AcDbEntity
  8
ETCH
100
AcDbText
 10
979.5
 20
1817.5
 30
0.0
 40
24.0
  1
P002
 72
1
 11
979.5
 21
1817.5
 31
0.0
100
AcDbText
 73
2
  0
LWPOLYLINE
  5
4F
330
17
100
AcDbEntity
  8
CUT
100
AcDbPolyline
 90
5
 70
1
 10
817.0
 20
2259.0
 10
817.0
 20
2359.0
 10
17.0
 20
2359.0
 10
17.0
 20
2259.0
 10
817.0
 20
2259.0
  0
TEXT
  5
50
330
17
100
AcDbEntity
  8
ETCH
100
AcDbText
 10
417.0
 20
2309.0
 30
0.0
 40
12.0
  1
P003
 72
1
 11
417.0
 21
2309.0
 31
0.0
100
AcDbText
 73
2
  0
LWPOLYLINE
  5
51
330
17
100
AcDbEntity
  8
OFFCUT
100
AcDbPolyline
 90
5
 70
1
 10
10.0
 20
10.0
 10
10.0
 20
2430.0
 10
1210.0
 20
2430.0
 10
1210.0
 20
10.0
 10
10.0
 20
10.0
  0
LWPOLYLINE
  5
52
330
17
100
AcDbEntity
  8
OFFCUT
100
AcDbPolyline
 90
5
 70
1
 10
631.0
 20
597.0
 10
631.0
 20
17.0
 10
1131.0
 20
17.0
 10
1131.0
 20
597.0
 10
631.0
 20
597.0
  0
LWPOLYLINE
  5
53
330
17
100
AcDbEntity
  8
OFFCUT
100
AcDbPolyline
 90
5
 70
1
 10
617.0
 20
817.0
 10
17.0
 20
817.0
 10
17.0
 20
17.0
 10
617.0
 20
17.0
 10
617.0
 20
817.0
  0
LWPOLYLINE
  5
54
330
17
100
AcDbEntity
  8
OFFCUT
100
AcDbPolyline
 90
5
 70
1
 10
631.0
 20
1191.0
 10
631.0
 20
611.0
 10
1131.0
 20
611.0
 10
1131.0
 20
1191.0
 10
631.0
 20
1191.0
  0
LWPOLYLINE
  5
55
330
17
100
AcDbEntity
  8
OFFCUT
100
AcDbPolyline
 90
5
 70
1
 10
617.0
 20
1631.0
 10
17.0
 20
1631.0
 10
17.0
 20
831.0
 10
617.0
 20
831.0
 10
617.0
 20
1631.0
  0
LWPOLYLINE
  5
56
330
17
100
AcDbEntity
  8
OFFCUT
100
AcDbPolyline
 90
68
 70
1
 10
820.708
 20
1205.2602
 10
831.0
 20
1205.0
 10
1131.0
 20
1205.0
 10
1131.0
 20
1605.0
 10
831.0
 20
1605.0
 10
820.708
 20
1604.7398
 10
810.5512
 20
1603.9674
 10
800.542
 20
1602.6956
 10
790.693
 20
1600.9367
 10
781.0169
 20
1598.7035
 10
771.5261
 20
1596.0084
 10
762.2333
 20
1592.8641
 10
753.151
 20
1589.283
 10
744.2917
 20
1585.2778
 10
735.6681
 20
1580.8611
 10
727.2927
 20
1576.0453
 10
719.1781
 20
1570.8431
 10
711.3368
 20
1565.2671
 10
703.7814
 20
1559.3297
 10
696.5245
 20
1553.0436
 10
689.5786
 20
1546.4214
 10
682.9564
 20
1539.4755
 10
676.6703
 20
1532.2186
 10
670.7329
 20
1524.6632
 10
665.1569
 20
1516.8219
 10
659.9547
 20
1508.7073
 10
655.1389
 20
1500.3319
 10
650.7222
 20
1491.7083
 10
646.717
 20
1482.849
 10
643.1359
 20
1473.7667
 10
639.9916
 20
1464.4739
 10
637.2965
 20
1454.9831
 10
635.0633
 20
1445.307
 10
633.3044
 20
1435.458
 10
632.0326
 20
1425.4488
 10
631.2602
 20
1415.292
 10
631.0
 20
1405.0
 10
631.2602
 20
1394.708
 10
632.0326
 20
1384.5512
 10
633.3044
 20
1374.542
 10
635.0633
 20
1364.693
 10
637.2965
 20
1355.0169
 10
639.9916
 20
1345.5261
 10
643.1359
 20
1336.2333
 10
646.717
 20
1327.151
 10
650.7222
 20
1318.2917
 10
655.1389
 20
1309.6681
 10
659.9547
 20
1301.2927
 10
665.1569
 20
1293.1781
 10
670.7329
 20
1285.3368
 10
676.6703
 20
1277.7814
 10
682.9564
 20
1270.5245
 10
689.5786
 20
1263.5786
 10
696.5245
 20
1256.9564
 10
703.7814
 20
1250.6703
 10
711.3368
 20
1244.7329
 10
719.1781
 20
1239.1569
 10
727.2927
 20
1233.9547
 10
735.6681
 20
1229.1389
 10
744.2917
 20
1224.7222
 10
753.151
 20
1220.717
 10
762.2333
 20
1217.1359
 10
771.5261
 20
1213.9916
 10
781.0169
 20
1211.2965
 10
790.693
 20
1209.0633
 10
800.542
 20
1207.3044
 10
810.5512
 20
1206.0326
 10
820.708
 20
1205.2602
  0
LWPOLYLINE
  5
57
330
17
100
AcDbEntity
  8
OFFCUT
100
AcDbPolyline
 90
5
 70
1
 10
831.0
 20
2016.0
 10
831.0
 20
1619.0
 10
1128.0
 20
1619.0
 10
1128.0
 20
2016.0
 10
831.0
 20
2016.0
  0
LWPOLYLINE
  5
58
330
17
100
AcDbEntity
  8
OFFCUT
100
AcDbPolyline
 90
5
 70
1
 10
17.0
 20
2245.0
 10
17.0
 20
1645.0
 10
817.0
 20
1645.0
 10
817.0
 20
2245.0
 10
17.0
 20
2245.0
  0
LWPOLYLINE
  5
59
330
17
100
AcDbEntity
  8
OFFCUT
100
AcDbPolyline
 90
5
 70
1
 10
17.0
 20
2359.0
 10
17.0
 20
2259.0
 10
817.0
 20
2259.0
 10
817.0
 20
2359.0
 10
17.0
 20
2359.0
  0
LWPOLYLINE
  5
5A
330
17
100
AcDbEntity
  8
OFFCUT
100
AcDbPolyline
 90
5
 70
1
 10
631.0
 20
597.0
 10
631.0
 20
17.0
 10
1131.0
 20
17.0
 10
1131.0
 20
597.0
 10
631.0
 20
597.0
  0
LWPOLYLINE
  5
5B
330
17
100
AcDbEntity
  8
OFFCUT
100
AcDbPolyline
 90
5
 70
1
 10
617.0
 20
817.0
 10
17.0
 20
817.0
 10
17.0
 20
17.0
 10
617.0
 20
17.0
 10
617.0
 20
817.0
  0
LWPOLYLINE
  5
5C
330
17
100
AcDbEntity
  8
OFFCUT
100
AcDbPolyline
 90
5
 70
1
 10
631.0
 20
1191.0
 10
631.0
 20
611.0
 10
1131.0
 20
611.0
 10
1131.0
 20
1191.0
 10
631.0
 20
1191.0
  0
LWPOLYLINE
  5
5D
330
17
100
AcDbEntity
  8
OFFCUT
100
AcDbPolyline
 90
5
 70
1
 10
617.0
 20
1631.0
 10
17.0
 20
1631.0
 10
17.0
 20
831.0
 10
617.0
 20
831.0
 10
617.0
 20
1631.0
  0
LWPOLYLINE
  5
5E
330
17
100
AcDbEntity
  8
OFFCUT
100
AcDbPolyline
 90
68
 70
1
 10
820.708
 20
1205.2602
 10
831.0
 20
1205.0
 10
1131.0
 20
1205.0
 10
1131.0
 20
1605.0
 10
831.0
 20
1605.0
 10
820.708
 20
1604.7398
 10
810.5512
 20
1603.9674
 10
800.542
 20
1602.6956
 10
790.693
 20
1600.9367
 10
781.0169
 20
1598.7035
 10
771.5261
 20
1596.0084
 10
762.2333
 20
1592.8641
 10
753.151
 20
1589.283
 10
744.2917
 20
1585.2778
 10
735.6681
 20
1580.8611
 10
727.2927
 20
1576.0453
 10
719.1781
 20
1570.8431
 10
711.3368
 20
1565.2671
 10
703.7814
 20
1559.3297
 10
696.5245
 20
1553.0436
 10
689.5786
 20
1546.4214
 10
682.9564
 20
1539.4755
 10
676.6703
 20
1532.2186
 10
670.7329
 20
1524.6632
 10
665.1569
 20
1516.8219
 10
659.9547
 20
1508.7073
 10
655.1389
 20
1500.3319
 10
650.7222
 20
1491.7083
 10
646.717
 20
1482.849
 10
643.1359
 20
1473.7667
 10
639.9916
 20
1464.4739
 10
637.2965
 20
1454.9831
 10
635.0633
 20
1445.307
 10
633.3044
 20
1435.458
 10
632.0326
 20
1425.4488
 10
631.2602
 20
1415.292
 10
631.0
 20
1405.0
 10
631.2602
 20
1394.708
 10
632.0326
 20
1384.5512
 10
633.3044
 20
1374.542
 10
635.0633
 20
1364.693
 10
637.2965
 20
1355.0169
 10
639.9916
 20
1345.5261
 10
643.1359
 20
1336.2333
 10
646.717
 20
1327.151
 10
650.7222
 20
1318.2917
 10
655.1389
 20
1309.6681
 10
659.9547
 20
1301.2927
 10
665.1569
 20
1293.1781
 10
670.7329
 20
1285.3368
 10
676.6703
 20
1277.7814
 10
682.9564
 20
1270.5245
 10
689.5786
 20
1263.5786
 10
696.5245
 20
1256.9564
 10
703.7814
 20
1250.6703
 10
711.3368
 20
1244.7329
 10
719.1781
 20
1239.1569
 10
727.2927
 20
1233.9547
 10
735.6681
 20
1229.1389
 10
744.2917
 20
1224.7222
 10
753.151
 20
1220.717
 10
762.2333
 20
1217.1359
 10
771.5261
 20
1213.9916
 10
781.0169
 20
1211.2965
 10
790.693
 20
1209.0633
 10
800.542
 20
1207.3044
 10
810.5512
 20
1206.0326
 10
820.708
 20
1205.2602
  0
LWPOLYLINE
  5
5F
330
17
100
AcDbEntity
  8
OFFCUT
100
AcDbPolyline
 90
5
 70
1
 10
831.0
 20
2016.0
 10
831.0
 20
1619.0
 10
1128.0
 20
1619.0
 10
1128.0
 20
2016.0
 10
831.0
 20
2016.0
  0
LWPOLYLINE
  5
60
330
17
100
AcDbEntity
  8
OFFCUT
100
AcDbPolyline
 90
5
 70
1
 10
17.0
 20
2245.0
 10
17.0
 20
1645.0
 10
817.0
 20
1645.0
 10
817.0
 20
2245.0
 10
17.0
 20
2245.0
  0
LWPOLYLINE
  5
61
330
17
100
AcDbEntity
  8
OFFCUT
100
AcDbPolyline
 90
5
 70
1
 10
17.0
 20
2359.0
 10
17.0
 20
2259.0
 10
817.0
 20
2259.0
 10
817.0
 20
2359.0
 10
17.0
 20
2359.0
  0
TEXT
  5
62
330
17
100
AcDbEntity
  8
INFO
100
AcDbText
 10
0.0
 20
2480.0
 30
0.0
 40
25.0
  1
WASTE-FIRST - SHEET 1 - furniture_parts.dxf
 11
0.0
 21
2480.0
 31
0.0
100
AcDbText
  0
LWPOLYLINE
  5
63
330
17
100
AcDbEntity
  8
CNC_BOUNDARY
100
AcDbPolyline
 90
4
 70
1
 10
1320.0
 20
0.0
 10
2540.0
 20
0.0
 10
2540.0
 20
2440.0
 10
1320.0
 20
2440.0
  0
LWPOLYLINE
  5
64
330
17
100
AcDbEntity
  8
CUT
100
AcDbPolyline
 90
5
 70
1
 10
1337.0
 20
17.0
 10
1937.0
 20
17.0
 10
1937.0
 20
817.0
 10
1337.0
 20
817.0
 10
1337.0
 20
17.0
  0
LWPOLYLINE
  5
65
330
17
100
AcDbEntity
  8
CUT
100
AcDbPolyline
 90
17
 70
1
 10
1389.5
 20
67.0
 10
1389.3035
 20
66.0269
 10
1388.7678
 20
65.2322
 10
1387.9731
 20
64.6965
 10
1387.0
 20
64.5
 10
1386.0269
 20
64.6965
 10
1385.2322
 20
65.2322
 10
1384.6965
 20
66.0269
 10
1384.5
 20
67.0
 10
1384.6965
 20
67.9731
 10
1385.2322
 20
68.7678
 10
1386.0269
 20
69.3035
 10
1387.0
 20
69.5
 10
1387.9731
 20
69.3035
 10
1388.7678
 20
68.7678
 10
1389.3035
 20
67.9731
 10
1389.5
 20
67.0
  0
LWPOLYLINE
  5
66
330
17
100
AcDbEntity
  8
CUT
100
AcDbPolyline
 90
17
 70
1
 10
1889.5
 20
67.0
 10
1889.3035
 20
66.0269
 10
1888.7678
 20
65.2322
 10
1887.9731
 20
64.6965
 10
1887.0
 20
64.5
 10
1886.0269
 20
64.6965
 10
1885.2322
 20
65.2322
 10
1884.6965
 20
66.0269
 10
1884.5
 20
67.0
 10
1884.6965
 20
67.9731
 10
1885.2322
 20
68.7678
 10
1886.0269
 20
69.3035
 10
1887.0
 20
69.5
 10
1887.9731
 20
69.3035
 10
1888.7678
 20
68.7678
 10
1889.3035
 20
67.9731
 10
1889.5
 20
67.0
  0
LWPOLYLINE
  5
67
330
17
100
AcDbEntity
  8
CUT
100
AcDbPolyline
 90
17
 70
1
 10
1389.5
 20
767.0
 10
1389.3035
 20
766.0269
 10
1388.7678
 20
765.2322
 10
1387.9731
 20
764.6965
 10
1387.0
 20
764.5
 10
1386.0269
 20
764.6965
 10
1385.2322
 20
765.2322
 10
1384.6965
 20
766.0269
 10
1384.5
 20
767.0
 10
1384.6965
 20
767.9731
 10
1385.2322
 20
768.7678
 10
1386.0269
 20
769.3035
 10
1387.0
 20
769.5
 10
1387.9731
 20
769.3035
 10
1388.7678
 20
768.7678
 10
1389.3035
 20
767.9731
 10
1389.5
 20
767.0
  0
LWPOLYLINE
  5
68
330
17
100
AcDbEntity
  8
CUT
100
AcDbPolyline
 90
17
 70
1
 10
1889.5
 20
767.0
 10
1889.3035
 20
766.0269
 10
1888.7678
 20
765.2322
 10
1887.9731
 20
764.6965
 10
1887.0
 20
764.5
 10
1886.0269
 20
764.6965
 10
1885.2322
 20
765.2322
 10
1884.6965
 20
766.0269
 10
1884.5
 20
767.0
 10
1884.6965
 20
767.9731
 10
1885.2322
 20
768.7678
 10
1886.0269
 20
769.3035
 10
1887.0
 20
769.5
 10
1887.9731
 20
769.3035
 10
1888.7678
 20
768.7678
 10
1889.3035
 20
767.9731
 10
1889.5
 20
767.0
  0
TEXT
  5
69
330
17
100
AcDbEntity
  8
ETCH
100
AcDbText
 10
1637.0
 20
417.0
 30
0.0
 40
24.0
  1
P004
 72
1
 11
1637.0
 21
417.0
 31
0.0
100
AcDbText
 73
2
  0
LWPOLYLINE
  5
6A
330
17
100
AcDbEntity
  8
CUT
100
AcDbPolyline
 90
5
 70
1
 10
2451.0
 20
17.0
 10
2451.0
 20
597.0
 10
1951.0
 20
597.0
 10
1951.0
 20
17.0
 10
2451.0
 20
17.0
  0
TEXT
  5
6B
330
17
100
AcDbEntity
  8
ETCH
100
AcDbText
 10
2201.0
 20
307.0
 30
0.0
 40
24.0
  1
P005
 72
1
 11
2201.0
 21
307.0
 31
0.0
100
AcDbText
 73
2
  0
LWPOLYLINE
  5
6C
330
17
100
AcDbEntity
  8
CUT
100
AcDbPolyline
 90
5
 70
1
 10
2451.0
 20
611.0
 10
2451.0
 20
1191.0
 10
1951.0
 20
1191.0
 10
1951.0
 20
611.0
 10
2451.0
 20
611.0
  0
TEXT
  5
6D
330
17
100
AcDbEntity
  8
ETCH
100
AcDbText
 10
2201.0
 20
901.0
 30
0.0
 40
24.0
  1
P005
 72
1
 11
2201.0
 21
901.0
 31
0.0
100
AcDbText
 73
2
  0
LWPOLYLINE
  5
6E
330
17
100
AcDbEntity
  8
CUT
100
AcDbPolyline
 90
5
 70
1
 10
1337.0
 20
831.0
 10
1917.0
 20
831.0
 10
1917.0
 20
1331.0
 10
1337.0
 20
1331.0
 10
1337.0
 20
831.0
  0
TEXT
  5
6F
330
17
100
AcDbEntity
  8
ETCH
100
AcDbText
 10
1627.0
 20
1081.0
 30
0.0
 40
24.0
  1
P005
 72
1
 11
1627.0
 21
1081.0
 31
0.0
100
AcDbText
 73
2
  0
LWPOLYLINE
  5
70
330
17
100
AcDbEntity
  8
CUT
100
AcDbPolyline
 90
5
 70
1
 10
1931.0
 20
1205.0
 10
2511.0
 20
1205.0
 10
2511.0
 20
1705.0
 10
1931.0
 20
1705.0
 10
1931.0
 20
1205.0
  0
TEXT
  5
71
330
17
100
AcDbEntity
  8
ETCH
100
AcDbText
 10
2221.0
 20
1455.0
 30
0.0
 40
24.0
  1
P005
 72
1
 11
2221.0
 21
1455.0
 31
0.0
100
AcDbText
 73
2
  0
LWPOLYLINE
  5
72
330
17
100
AcDbEntity
  8
CUT
100
AcDbPolyline
 90
68
 70
1
 10
1337.0
 20
1345.0
 10
1737.0
 20
1345.0
 10
1737.0
 20
1645.0
 10
1736.7398
 20
1655.292
 10
1735.9674
 20
1665.4488
 10
1734.6956
 20
1675.458
 10
1732.9367
 20
1685.307
 10
1730.7035
 20
1694.9831
 10
1728.0084
 20
1704.4739
 10
1724.8641
 20
1713.7667
 10
1721.283
 20
1722.849
 10
1717.2778
 20
1731.7083
 10
1712.8611
 20
1740.3319
 10
1708.0453
 20
1748.7073
 10
1702.8431
 20
1756.8219
 10
1697.2671
 20
1764.6632
 10
1691.3297
 20
1772.2186
 10
1685.0436
 20
1779.4755
 10
1678.4214
 20
1786.4214
 10
1671.4755
 20
1793.0436
 10
1664.2186
 20
1799.3297
 10
1656.6632
 20
1805.2671
 10
1648.8219
 20
1810.8431
 10
1640.7073
 20
1816.0453
 10
1632.3319
 20
1820.8611
 10
1623.7083
 20
1825.2778
 10
1614.849
 20
1829.283
 10
1605.7667
 20
1832.8641
 10
1596.4739
 20
1836.0084
 10
1586.9831
 20
1838.7035
 10
1577.307
 20
1840.9367
 10
1567.458
 20
1842.6956
 10
1557.4488
 20
1843.9674
 10
1547.292
 20
1844.7398
 10
1537.0
 20
1845.0
 10
1526.708
 20
1844.7398
 10
1516.5512
 20
1843.9674
 10
1506.542
 20
1842.6956
 10
1496.693
 20
1840.9367
 10
1487.0169
 20
1838.7035
 10
1477.5261
 20
1836.0084
 10
1468.2333
 20
1832.8641
 10
1459.151
 20
1829.283
 10
1450.2917
 20
1825.2778
 10
1441.6681
 20
1820.8611
 10
1433.2927
 20
1816.0453
 10
1425.1781
 20
1810.8431
 10
1417.3368
 20
1805.2671
 10
1409.7814
 20
1799.3297
 10
1402.5245
 20
1793.0436
 10
1395.5786
 20
1786.4214
 10
1388.9564
 20
1779.4755
 10
1382.6703
 20
1772.2186
 10
1376.7329
 20
1764.6632
 10
1371.1569
 20
1756.8219
 10
1365.9547
 20
1748.7073
 10
1361.1389
 20
1740.3319
 10
1356.7222
 20
1731.7083
 10
1352.717
 20
1722.849
 10
1349.1359
 20
1713.7667
 10
1345.9916
 20
1704.4739
 10
1343.2965
 20
1694.9831
 10
1341.0633
 20
1685.307
 10
1339.3044
 20
1675.458
 10
1338.0326
 20
1665.4488
 10
1337.2602
 20
1655.292
 10
1337.0
 20
1645.0
 10
1337.0
 20
1345.0
  0
TEXT
  5
73
330
17
100
AcDbEntity
  8
ETCH
100
AcDbText
 10
1537.0
 20
1495.0
 30
0.0
 40
24.0
  1
P001
 72
1
 11
1537.0
 21
1495.0
 31
0.0
100
AcDbText
 73
2
  0
LWPOLYLINE
  5
74
330
17
100
AcDbEntity
  8
CUT
100
AcDbPolyline
 90
5
 70
1
 10
1751.0
 20
1719.0
 10
2148.0
 20
1719.0
 10
2148.0
 20
2016.0
 10
1751.0
 20
2016.0
 10
1751.0
 20
1719.0
  0
TEXT
  5
75
330
17
100
AcDbEntity
  8
ETCH
100
AcDbText
 10
1949.5
 20
1867.5
 30
0.0
 40
24.0
  1
P002
 72
1
 11
1949.5
 21
1867.5
 31
0.0
100
AcDbText
 73
2
  0
LWPOLYLINE
  5
76
330
17
100
AcDbEntity
  8
CUT
100
AcDbPolyline
 90
5
 70
1
 10
1337.0
 20
1859.0
 10
1734.0
 20
1859.0
 10
1734.0
 20
2156.0
 10
1337.0
 20
2156.0
 10
1337.0
 20
1859.0
  0
TEXT
  5
77
330
17
100
AcDbEntity
  8
ETCH
100
AcDbText
 10
1535.5
 20
2007.5
 30
0.0
 40
24.0
  1
P002
 72
1
 11
1535.5
 21
2007.5
 31
0.0
100
AcDbText
 73
2
  0
LWPOLYLINE
  5
78
330
17
100
AcDbEntity
  8
CUT
100
AcDbPolyline
 90
5
 70
1
 10
2459.0
 20
1719.0
 10
2459.0
 20
2116.0
 10
2162.0
 20
2116.0
 10
2162.0
 20
1719.0
 10
2459.0
 20
1719.0
  0
TEXT
  5
79
330
17
100
AcDbEntity
  8
ETCH
100
AcDbText
 10
2310.5
 20
1917.5
 30
0.0
 40
24.0
  1
P002
 72
1
 11
2310.5
 21
1917.5
 31
0.0
100
AcDbText
 73
2
  0
LWPOLYLINE
  5
7A
330
17
100
AcDbEntity
  8
CUT
100
AcDbPolyline
 90
5
 70
1
 10
2137.0
 20
2170.0
 10
2137.0
 20
2270.0
 10
1337.0
 20
2270.0
 10
1337.0
 20
2170.0
 10
2137.0
 20
2170.0
  0
TEXT
  5
7B
330
17
100
AcDbEntity
  8
ETCH
100
AcDbText
 10
1737.0
 20
2220.0
 30
0.0
 40
12.0
  1
P003
 72
1
 11
1737.0
 21
2220.0
 31
0.0
100
AcDbText
 73
2
  0
LWPOLYLINE
  5
7C
330
17
100
AcDbEntity
  8
OFFCUT
100
AcDbPolyline
 90
5
 70
1
 10
1330.0
 20
10.0
 10
1330.0
 20
2430.0
 10
2530.0
 20
2430.0
 10
2530.0
 20
10.0
 10
1330.0
 20
10.0
  0
LWPOLYLINE
  5
7D
330
17
100
AcDbEntity
  8
OFFCUT
100
AcDbPolyline
 90
5
 70
1
 10
1951.0
 20
597.0
 10
1951.0
 20
17.0
 10
2451.0
 20
17.0
 10
2451.0
 20
597.0
 10
1951.0
 20
597.0
  0
LWPOLYLINE
  5
7E
330
17
100
AcDbEntity
  8
OFFCUT
100
AcDbPolyline
 90
5
 70
1
 10
1937.0
 20
817.0
 10
1337.0
 20
817.0
 10
1337.0
 20
17.0
 10
1937.0
 20
17.0
 10
1937.0
 20
817.0
  0
LWPOLYLINE
  5
7F
330
17
100
AcDbEntity
  8
OFFCUT
100
AcDbPolyline
 90
5
 70
1
 10
1951.0
 20
1191.0
 10
1951.0
 20
611.0
 10
2451.0
 20
611.0
 10
2451.0
 20
1191.0
 10
1951.0
 20
1191.0
  0
LWPOLYLINE
  5
80
330
17
100
AcDbEntity
  8
OFFCUT
100
AcDbPolyline
 90
5
 70
1
 10
1917.0
 20
831.0
 10
1917.0
 20
1331.0
 10
1337.0
 20
1331.0
 10
1337.0
 20
831.0
 10
1917.0
 20
831.0
  0
LWPOLYLINE
  5
81
330
17
100
AcDbEntity
  8
OFFCUT
100
AcDbPolyline
 90
5
 70
1
 10
2511.0
 20
1205.0
 10
2511.0
 20
1705.0
 10
1931.0
 20
1705.0
 10
1931.0
 20
1205.0
 10
2511.0
 20
1205.0
  0
LWPOLYLINE
  5
82
330
17
100
AcDbEntity
  8
OFFCUT
100
AcDbPolyline
 90
68
 70
1
 10
1337.2602
 20
1655.292
 10
1337.0
 20
1645.0
 10
1337.0
 20
1345.0
 10
1737.0
 20
1345.0
 10
1737.0
 20
1645.0
 10
1736.7398
 20
1655.292
 10
1735.9674
 20
1665.4488
 10
1734.6956
 20
1675.458
 10
1732.9367
 20
1685.307
 10
1730.7035
 20
1694.9831
 10
1728.0084
 20
1704.4739
 10
1724.8641
 20
1713.7667
 10
1721.283
 20
1722.849
 10
1717.2778
 20
1731.7083
 10
1712.8611
 20
1740.3319
 10
1708.0453
 20
1748.7073
 10
1702.8431
 20
1756.8219
 10
1697.2671
 20
1764.6632
 10
1691.3297
 20
1772.2186
 10
1685.0436
 20
1779.4755
 10
1678.4214
 20
1786.4214
 10
1671.4755
 20
1793.0436
 10
1664.2186
 20
1799.3297
 10
1656.6632
 20
1805.2671
 10
1648.8219
 20
1810.8431
 10
1640.7073
 20
1816.0453
 10
1632.3319
 20
1820.8611
 10
1623.7083
 20
1825.2778
 10
1614.849
 20
1829.283
 10
1605.7667
 20
1832.8641
 10
1596.4739
 20
1836.0084
 10
1586.9831
 20
1838.7035
 10
1577.307
 20
1840.9367
 10
1567.458
 20
1842.6956
 10
1557.4488
 20
1843.9674
 10
1547.292
 20
1844.7398
 10
1537.0
 20
1845.0
 10
1526.708
 20
1844.7398
 10
1516.5512
 20
1843.9674
 10
1506.542
 20
1842.6956
 10
1496.693
 20
1840.9367
 10
1487.0169
 20
1838.7035
 10
1477.5261
 20
1836.0084
 10
1468.2333
 20
1832.8641
 10
1459.151
 20
1829.283
 10
1450.2917
 20
1825.2778
 10
1441.6681
 20
1820.8611
 10
1433.2927
 20
1816.0453
 10
1425.1781
 20
1810.8431
 10
1417.3368
 20
1805.2671
 10
1409.7814
 20
1799.3297
 10
1402.5245
 20
1793.0436
 10
1395.5786
 20
1786.4214
 10
1388.9564
 20
1779.4755
 10
1382.6703
 20
1772.2186
 10
1376.7329
 20
1764.6632
 10
1371.1569
 20
1756.8219
 10
1365.9547
 20
1748.7073
 10
1361.1389
 20
1740.3319
 10
1356.7222
 20
1731.7083
 10
1352.717
 20
1722.849
 10
1349.1359
 20
1713.7667
 10
1345.9916
 20
1704.4739
 10
1343.2965
 20
1694.9831
 10
1341.0633
 20
1685.307
 10
1339.3044
 20
1675.458
 10
1338.0326
 20
1665.4488
 10
1337.2602
 20
1655.292
  0
LWPOLYLINE
  5
83
330
17
100
AcDbEntity
  8
OFFCUT
100
AcDbPolyline
 90
5
 70
1
 10
2148.0
 20
2016.0
 10
1751.0
 20
2016.0
 10
1751.0
 20
1719.0
 10
2148.0
 20
1719.0
 10
2148.0
 20
2016.0
  0
LWPOLYLINE
  5
84
330
17
100
AcDbEntity
  8
OFFCUT
100
AcDbPolyline
 90
5
 70
1
 10
2162.0
 20
2116.0
 10
2162.0
 20
1719.0
 10
2459.0
 20
1719.0
 10
2459.0
 20
2116.0
 10
2162.0
 20
2116.0
  0
LWPOLYLINE
  5
85
330
17
100
AcDbEntity
  8
OFFCUT
100
AcDbPolyline
 90
5
 70
1
 10
1734.0
 20
1859.0
 10
1734.0
 20
2156.0
 10
1337.0
 20
2156.0
 10
1337.0
 20
1859.0
 10
1734.0
 20
1859.0
  0
LWPOLYLINE
  5
86
330
17
100
AcDbEntity
  8
OFFCUT
100
AcDbPolyline
 90
5
 70
1
 10
2137.0
 20
2270.0
 10
1337.0
 20
2270.0
 10
1337.0
 20
2170.0
 10
2137.0
 20
2170.0
 10
2137.0
 20
2270.0
  0
LWPOLYLINE
  5
87
330
17
100
AcDbEntity
  8
OFFCUT
100
AcDbPolyline
 90
5
 70
1
 10
631.0
 20
597.0
 10
631.0
 20
17.0
 10
1131.0
 20
17.0
 10
1131.0
 20
597.0
 10
631.0
 20
597.0
  0
LWPOLYLINE
  5
88
330
17
100
AcDbEntity
  8
OFFCUT
100
AcDbPolyline
 90
5
 70
1
 10
617.0
 20
817.0
 10
17.0
 20
817.0
 10
17.0
 20
17.0
 10
617.0
 20
17.0
 10
617.0
 20
817.0
  0
LWPOLYLINE
  5
89
330
17
100
AcDbEntity
  8
OFFCUT
100
AcDbPolyline
 90
5
 70
1
 10
631.0
 20
1191.0
 10
631.0
 20
611.0
 10
1131.0
 20
611.0
 10
1131.0
 20
1191.0
 10
631.0
 20
1191.0
  0
LWPOLYLINE
  5
8A
330
17
100
AcDbEntity
  8
OFFCUT
100
AcDbPolyline
 90
5
 70
1
 10
597.0
 20
831.0
 10
597.0
 20
1331.0
 10
17.0
 20
1331.0
 10
17.0
 20
831.0
 10
597.0
 20
831.0
  0
LWPOLYLINE
  5
8B
330
17
100
AcDbEntity
  8
OFFCUT
100
AcDbPolyline
 90
5
 70
1
 10
1191.0
 20
1205.0
 10
1191.0
 20
1705.0
 10
611.0
 20
1705.0
 10
611.0
 20
1205.0
 10
1191.0
 20
1205.0
  0
LWPOLYLINE
  5
8C
330
17
100
AcDbEntity
  8
OFFCUT
100
AcDbPolyline
 90
68
 70
1
 10
17.2602
 20
1655.292
 10
17.0
 20
1645.0
 10
17.0
 20
1345.0
 10
417.0
 20
1345.0
 10
417.0
 20
1645.0
 10
416.7398
 20
1655.292
 10
415.9674
 20
1665.4488
 10
414.6956
 20
1675.458
 10
412.9367
 20
1685.307
 10
410.7035
 20
1694.9831
 10
408.0084
 20
1704.4739
 10
404.8641
 20
1713.7667
 10
401.283
 20
1722.849
 10
397.2778
 20
1731.7083
 10
392.8611
 20
1740.3319
 10
388.0453
 20
1748.7073
 10
382.8431
 20
1756.8219
 10
377.2671
 20
1764.6632
 10
371.3297
 20
1772.2186
 10
365.0436
 20
1779.4755
 10
358.4214
 20
1786.4214
 10
351.4755
 20
1793.0436
 10
344.2186
 20
1799.3297
 10
336.6632
 20
1805.2671
 10
328.8219
 20
1810.8431
 10
320.7073
 20
1816.0453
 10
312.3319
 20
1820.8611
 10
303.7083
 20
1825.2778
 10
294.849
 20
1829.283
 10
285.7667
 20
1832.8641
 10
276.4739
 20
1836.0084
 10
266.9831
 20
1838.7035
 10
257.307
 20
1840.9367
 10
247.458
 20
1842.6956
 10
237.4488
 20
1843.9674
 10
227.292
 20
1844.7398
 10
217.0
 20
1845.0
 10
206.708
 20
1844.7398
 10
196.5512
 20
1843.9674
 10
186.542
 20
1842.6956
 10
176.693
 20
1840.9367
 10
167.0169
 20
1838.7035
 10
157.5261
 20
1836.0084
 10
148.2333
 20
1832.8641
 10
139.151
 20
1829.283
 10
130.2917
 20
1825.2778
 10
121.6681
 20
1820.8611
 10
113.2927
 20
1816.0453
 10
105.1781
 20
1810.8431
 10
97.3368
 20
1805.2671
 10
89.7814
 20
1799.3297
 10
82.5245
 20
1793.0436
 10
75.5786
 20
1786.4214
 10
68.9564
 20
1779.4755
 10
62.6703
 20
1772.2186
 10
56.7329
 20
1764.6632
 10
51.1569
 20
1756.8219
 10
45.9547
 20
1748.7073
 10
41.1389
 20
1740.3319
 10
36.7222
 20
1731.7083
 10
32.717
 20
1722.849
 10
29.1359
 20
1713.7667
 10
25.9916
 20
1704.4739
 10
23.2965
 20
1694.9831
 10
21.0633
 20
1685.307
 10
19.3044
 20
1675.458
 10
18.0326
 20
1665.4488
 10
17.2602
 20
1655.292
  0
LWPOLYLINE
  5
8D
330
17
100
AcDbEntity
  8
OFFCUT
100
AcDbPolyline
 90
5
 70
1
 10
828.0
 20
2016.0
 10
431.0
 20
2016.0
 10
431.0
 20
1719.0
 10
828.0
 20
1719.0
 10
828.0
 20
2016.0
  0
LWPOLYLINE
  5
8E
330
17
100
AcDbEntity
  8
OFFCUT
100
AcDbPolyline
 90
5
 70
1
 10
842.0
 20
2116.0
 10
842.0
 20
1719.0
 10
1139.0
 20
1719.0
 10
1139.0
 20
2116.0
 10
842.0
 20
2116.0
  0
LWPOLYLINE
  5
8F
330
17
100
AcDbEntity
  8
OFFCUT
100
AcDbPolyline
 90
5
 70
1
 10
414.0
 20
1859.0
 10
414.0
 20
2156.0
 10
17.0
 20
2156.0
 10
17.0
 20
1859.0
 10
414.0
 20
1859.0
  0
LWPOLYLINE
  5
90
330
17
100
AcDbEntity
  8
OFFCUT
100
AcDbPolyline
 90
5
 70
1
 10
817.0
 20
2270.0
 10
17.0
 20
2270.0
 10
17.0
 20
2170.0
 10
817.0
 20
2170.0
 10
817.0
 20
2270.0
  0
TEXT
  5
91
330
17
100
AcDbEntity
  8
INFO
100
AcDbText
 10
1320.0
 20
2480.0
 30
0.0
 40
25.0
  1
WASTE-FIRST - SHEET 2 - furniture_parts.dxf
 11
1320.0
 21
2480.0
 31
0.0
100
AcDbText
  0
ENDSEC
  0
SECTION
  2
OBJECTS
  0
DICTIONARY
  5
A
330
0
100
AcDbDictionary
281
1
  3
ACAD_COLOR
350
B
  3
ACAD_GROUP
350
C
  3
ACAD_LAYOUT
350
D
  3
ACAD_MATERIAL
350
E
  3
ACAD_MLEADERSTYLE
350
F
  3
ACAD_MLINESTYLE
350
10
  3
ACAD_PLOTSETTINGS
350
11
  3
ACAD_PLOTSTYLENAME
350
12
  3
ACAD_SCALELIST
350
14
  3
ACAD_TABLESTYLE
350
15
  3
ACAD_VISUALSTYLE
350
16
  3
EZDXF_META
350
2D
  0
DICTIONARY
  5
B
330
A
100
AcDbDictionary
281
1
  0
DICTIONARY
  5
C
330
A
100
AcDbDictionary
281
1
  0
DICTIONARY
  5
D
330
A
100
AcDbDictionary
281
1
  3
Model
350
1A
  3
Layout1
350
1E
  0
DICTIONARY
  5
E
330
A
100
AcDbDictionary
281
1
  3
ByBlock
350
1F
  3
ByLayer
350
20
  3
Global
350
21
  0
DICTIONARY
  5
F
330
A
100
AcDbDictionary
281
1
  3
Standard
350
2C
  0
DICTIONARY
  5
10
330
A
100
AcDbDictionary
281
1
  3
Standard
350
22
  0
DICTIONARY
  5
11
330
A
100
AcDbDictionary
281
1
  0
ACDBDICTIONARYWDFLT
  5
12
330
A
100
AcDbDictionary
281
1
  3
Normal
350
13
100
AcDbDictionaryWithDefault
340
13
  0
ACDBPLACEHOLDER
  5
13
330
12
  0
DICTIONARY
  5
14
330
A
100
AcDbDictionary
281
1
  0
DICTIONARY
  5
15
330
A
100
AcDbDictionary
281
1
  0
DICTIONARY
  5
16
330
A
100
AcDbDictionary
281
1
  0
LAYOUT
  5
1A
330
D
100
AcDbPlotSettings
  1

  4
A3
  6

 40
7.5
 41
20.0
 42
7.5
 43
20.0
 44
420.0
 45
297.0
 46
0.0
 47
0.0
 48
0.0
 49
0.0
140
0.0
141
0.0
142
1.0
143
1.0
 70
1024
 72
1
 73
0
 74
5
  7

 75
16
 76
0
 77
2
 78
300
147
1.0
148
0.0
149
0.0
100
AcDbLayout
  1
Model
 70
1
 71
0
 10
0.0
 20
0.0
 11
420.0
 21
297.0
 12
0.0
 22
0.0
 32
0.0
 14
1e+20
 24
1e+20
 34
1e+20
 15
-1e+20
 25
-1e+20
 35
-1e+20
146
0.0
 13
0.0
 23
0.0
 33
0.0
 16
1.0
 26
0.0
 36
0.0
 17
0.0
 27
1.0
 37
0.0
 76
1
330
17
  0
LAYOUT
  5
1E
330
D
100
AcDbPlotSettings
  1

  4
A3
  6

 40
7.5
 41
20.0
 42
7.5
 43
20.0
 44
420.0
 45
297.0
 46
0.0
 47
0.0
 48
0.0
 49
0.0
140
0.0
141
0.0
142
1.0
143
1.0
 70
0
 72
1
 73
0
 74
5
  7

 75
16
 76
0
 77
2
 78
300
147
1.0
148
0.0
149
0.0
100
AcDbLayout
  1
Layout1
 70
1
 71
1
 10
0.0
 20
0.0
 11
420.0
 21
297.0
 12
0.0
 22
0.0
 32
0.0
 14
1e+20
 24
1e+20
 34
1e+20
 15
-1e+20
 25
-1e+20
 35
-1e+20
146
0.0
 13
0.0
 23
0.0
 33
0.0
 16
1.0
 26
0.0
 36
0.0
 17
0.0
 27
1.0
 37
0.0
 76
1
330
1B
  0
MATERIAL
  5
1F
102
{ACAD_REACTORS
330
E
102
}
330
E
100
AcDbMaterial
  1
ByBlock
  2

 70
0
 40
1.0
 71
1
 41
1.0
 91
-1023410177
 42
1.0
 72
1
  3

 73
1
 74
1
 75
1
 44
0.5
 73
0
 45
1.0
 46
1.0
 77
1
  4

 78
1
 79
1
170
1
 48
1.0
171
1
  6

172
1
173
1
174
1
140
1.0
141
1.0
175
1
  7

176
1
177
1
178
1
143
1.0
179
1
  8

270
1
271
1
272
1
145
1.0
146
1.0
273
1
  9

274
1
275
1
276
1
 42
1.0
 72
1
  3

 73
1
 74
1
 75
1
 94
63
  0
MATERIAL
  5
20
102
{ACAD_REACTORS
330
E
102
}
330
E
100
AcDbMaterial
  1
ByLayer
  2

 70
0
 40
1.0
 71
1
 41
1.0
 91
-1023410177
 42
1.0
 72
1
  3

 73
1
 74
1
 75
1
 44
0.5
 73
0
 45
1.0
 46
1.0
 77
1
  4

 78
1
 79
1
170
1
 48
1.0
171
1
  6

172
1
173
1
174
1
140
1.0
141
1.0
175
1
  7

176
1
177
1
178
1
143
1.0
179
1
  8

270
1
271
1
272
1
145
1.0
146
1.0
273
1
  9

274
1
275
1
276
1
 42
1.0
 72
1
  3

 73
1
 74
1
 75
1
 94
63
  0
MATERIAL
  5
21
102
{ACAD_REACTORS
330
E
102
}
330
E
100
AcDbMaterial
  1
Global
  2

 70
0
 40
1.0
 71
1
 41
1.0
 91
-1023410177
 42
1.0
 72
1
  3

 73
1
 74
1
 75
1
 44
0.5
 73
0
 45
1.0
 46
1.0
 77
1
  4

 78
1
 79
1
170
1
 48
1.0
171
1
  6

172
1
173
1
174
1
140
1.0
141
1.0
175
1
  7

176
1
177
1
178
1
143
1.0
179
1
  8

270
1
271
1
272
1
145
1.0
146
1.0
273
1
  9

274
1
275
1
276
1
 42
1.0
 72
1
  3

 73
1
 74
1
 75
1
 94
63
  0
MLINESTYLE
  5
22
102
{ACAD_REACTORS
330
10
102
}
330
10
100
AcDbMlineStyle
  2
Standard
 70
0
  3

 62
256
 51
90.0
 52
90.0
 71
2
 49
0.5
 62
256
  6
BYLAYER
 49
-0.5
 62
256
  6
BYLAYER
  0
MLEADERSTYLE
  5
2C
102
{ACAD_REACTORS
330
F
102
}
330
F
100
AcDbMLeaderStyle
179
2
170
2
171
1
172
0
 90
2
 40
0.0
 41
0.0
173
1
 91
-1056964608
 92
-2
290
1
 42
2.0
291
1
 43
8.0
  3
Standard
 44
4.0
300

342
29
174
1
175
1
176
0
178
1
 93
-1056964608
 45
4.0
292
0
297
0
 46
4.0
 94
-1056964608
 47
1.0
 49
1.0
140
1.0
294
1
141
0.0
177
0
142
1.0
295
0
296
0
143
3.75
271
0
272
9
273
9
  0
DICTIONARY
  5
2D
330
A
100
AcDbDictionary
280
1
281
1
  3
CREATED_BY_EZDXF
350
2E
  3
WRITTEN_BY_EZDXF
350
94
  0
DICTIONARYVAR
  5
2E
330
2D
100
DictionaryVariables
280
0
  1
1.4.4 @ 2026-09-17T10:34:37.340468+00:00
  0
DICTIONARYVAR
  5
94
330
2D
100
DictionaryVariables
280
0
  1
1.4.4 @ 2026-09-17T10:34:37.354820+00:00
  0
ENDSEC
  0
EOF
