  0
SECTION
  2
HEADER
  9
$ACADVER
  1
AC1032
  9
$ACADMAINTVER
 90
4
  9
$DWGCODEPAGE
  3
ANSI_1252
  9
$LASTSAVEDBY
  1
ezdxf
  9
$REQUIREDVERSIONS
160
0
  9
$INSBASE
 10
0.0
 20
0.0
 30
0.0
  9
$EXTMIN
 10
1e+20
 20
1e+20
 30
1e+20
  9
$EXTMAX
 10
-1e+20
 20
-1e+20
 30
-1e+20
  9
$LIMMIN
 10
0.0
 20
0.0
  9
$LIMMAX
 10
420.0
 20
297.0
  9
$ORTHOMODE
 70
0
  9
$REGENMODE
 70
1
  9
$FILLMODE
 70
1
  9
$QTEXTMODE
 70
0
  9
$MIRRTEXT
 70
1
  9
$LTSCALE
 40
1.0
  9
$ATTMODE
 70
1
  9
$TEXTSIZE
 40
2.5
  9
$TRACEWID
 40
1.0
  9
$TEXTSTYLE
  7
Standard
  9
$CLAYER
  8
0
  9
$CELTYPE
  6
ByLayer
  9
$CECOLOR
 62
256
  9
$CELTSCALE
 40
1.0
  9
$DISPSILH
 70
0
  9
$DIMSCALE
 40
1.0
  9
$DIMASZ
 40
2.5
  9
$DIMEXO
 40
0.625
  9
$DIMDLI
 40
3.75
  9
$DIMRND
 40
0.0
  9
$DIMDLE
 40
0.0
  9
$DIMEXE
 40
1.25
  9
$DIMTP
 40
0.0
  9
$DIMTM
 40
0.0
  9
$DIMTXT
 40
2.5
  9
$DIMCEN
 40
2.5
  9
$DIMTSZ
 40
0.0
  9
$DIMTOL
 70
0
  9
$DIMLIM
 70
0
  9
$DIMTIH
 70
0
  9
$DIMTOH
 70
0
  9
$DIMSE1
 70
0
  9
$DIMSE2
 70
0
  9
$DIMTAD
 70
1
  9
$DIMZIN
 70
8
  9
$DIMBLK
  1

  9
$DIMASO
 70
1
  9
$DIMSHO
 70
1
  9
$DIMPOST
  1

  9
$DIMAPOST
  1

  9
$DIMALT
 70
0
  9
$DIMALTD
 70
3
  9
$DIMALTF
 40
0.03937007874
  9
$DIMLFAC
 40
1.0
  9
$DIMTOFL
 70
1
  9
$DIMTVP
 40
0.0
  9
$DIMTIX
 70
0
  9
$DIMSOXD
 70
0
  9
$DIMSAH
 70
0
  9
$DIMBLK1
  1

  9
$DIMBLK2
  1

  9
$DIMSTYLE
  2
ISO-25
  9
$DIMCLRD
 70
0
  9
$DIMCLRE
 70
0
  9
$DIMCLRT
 70
0
  9
$DIMTFAC
 40
1.0
  9
$DIMGAP
 40
0.625
  9
$DIMJUST
 70
0
  9
$DIMSD1
 70
0
  9
$DIMSD2
 70
0
  9
$DIMTOLJ
 70
0
  9
$DIMTZIN
 70
8
  9
$DIMALTZ
 70
0
  9
$DIMALTTZ
 70
0
  9
$DIMUPT
 70
0
  9
$DIMDEC
 70
2
  9
$DIMTDEC
 70
2
  9
$DIMALTU
 70
2
  9
$DIMALTTD
 70
3
  9
$DIMTXSTY
  7
Standard
  9
$DIMAUNIT
 70
0
  9
$DIMADEC
 70
0
  9
$DIMALTRND
 40
0.0
  9
$DIMAZIN
 70
0
  9
$DIMDSEP
 70
44
  9
$DIMATFIT
 70
3
  9
$DIMFRAC
 70
0
  9
$DIMLDRBLK
  1

  9
$DIMLUNIT
 70
2
  9
$DIMLWD
 70
-2
  9
$DIMLWE
 70
-2
  9
$DIMTMOVE
 70
0
  9
$DIMFXL
 40
1.0
  9
$DIMFXLON
 70
0
  9
$DIMJOGANG
 40
0.785398163397
  9
$DIMTFILL
 70
0
  9
$DIMTFILLCLR
 70
0
  9
$DIMARCSYM
 70
0
  9
$DIMLTYPE
  6

  9
$DIMLTEX1
  6

  9
$DIMLTEX2
  6

  9
$DIMTXTDIRECTION
 70
0
  9
$LUNITS
 70
2
  9
$LUPREC
 70
4
  9
$SKETCHINC
 40
1.0
  9
$FILLETRAD
 40
10.0
  9
$AUNITS
 70
0
  9
$AUPREC
 70
2
  9
$MENU
  1
.
  9
$ELEVATION
 40
0.0
  9
$PELEVATION
 40
0.0
  9
$THICKNESS
 40
0.0
  9
$LIMCHECK
 70
0
  9
$CHAMFERA
 40
0.0
  9
$CHAMFERB
 40
0.0
  9
$CHAMFERC
 40
0.0
  9
$CHAMFERD
 40
0.0
  9
$SKPOLY
 70
0
  9
$TDCREATE
 40
2461301.3985069445
  9
$TDUCREATE
 40
2458532.153996898
  9
$TDUPDATE
 40
2461301.3985069445
  9
$TDUUPDATE
 40
2458532.1544311
  9
$TDINDWG
 40
0.0
  9
$TDUSRTIMER
 40
0.0
  9
$USRTIMER
 70
1
  9
$ANGBASE
 50
0.0
  9
$ANGDIR
 70
0
  9
$PDMODE
 70
0
  9
$PDSIZE
 40
0.0
  9
$PLINEWID
 40
0.0
  9
$SPLFRAME
 70
0
  9
$SPLINETYPE
 70
6
  9
$SPLINESEGS
 70
8
  9
$HANDSEED
  5
1C3
  9
$SURFTAB1
 70
6
  9
$SURFTAB2
 70
6
  9
$SURFTYPE
 70
6
  9
$SURFU
 70
6
  9
$SURFV
 70
6
  9
$UCSBASE
  2

  9
$UCSNAME
  2

  9
$UCSORG
 10
0.0
 20
0.0
 30
0.0
  9
$UCSXDIR
 10
1.0
 20
0.0
 30
0.0
  9
$UCSYDIR
 10
0.0
 20
1.0
 30
0.0
  9
$UCSORTHOREF
  2

  9
$UCSORTHOVIEW
 70
0
  9
$UCSORGTOP
 10
0.0
 20
0.0
 30
0.0
  9
$UCSORGBOTTOM
 10
0.0
 20
0.0
 30
0.0
  9
$UCSORGLEFT
 10
0.0
 20
0.0
 30
0.0
  9
$UCSORGRIGHT
 10
0.0
 20
0.0
 30
0.0
  9
$UCSORGFRONT
 10
0.0
 20
0.0
 30
0.0
  9
$UCSORGBACK
 10
0.0
 20
0.0
 30
0.0
  9
$PUCSBASE
  2

  9
$PUCSNAME
  2

  9
$PUCSORG
 10
0.0
 20
0.0
 30
0.0
  9
$PUCSXDIR
 10
1.0
 20
0.0
 30
0.0
  9
$PUCSYDIR
 10
0.0
 20
1.0
 30
0.0
  9
$PUCSORTHOREF
  2

  9
$PUCSORTHOVIEW
 70
0
  9
$PUCSORGTOP
 10
0.0
 20
0.0
 30
0.0
  9
$PUCSORGBOTTOM
 10
0.0
 20
0.0
 30
0.0
  9
$PUCSORGLEFT
 10
0.0
 20
0.0
 30
0.0
  9
$PUCSORGRIGHT
 10
0.0
 20
0.0
 30
0.0
  9
$PUCSORGFRONT
 10
0.0
 20
0.0
 30
0.0
  9
$PUCSORGBACK
 10
0.0
 20
0.0
 30
0.0
  9
$USERI1
 70
0
  9
$USERI2
 70
0
  9
$USERI3
 70
0
  9
$USERI4
 70
0
  9
$USERI5
 70
0
  9
$USERR1
 40
0.0
  9
$USERR2
 40
0.0
  9
$USERR3
 40
0.0
  9
$USERR4
 40
0.0
  9
$USERR5
 40
0.0
  9
$WORLDVIEW
 70
1
  9
$SHADEDGE
 70
3
  9
$SHADEDIF
 70
70
  9
$TILEMODE
 70
1
  9
$MAXACTVP
 70
64
  9
$PINSBASE
 10
0.0
 20
0.0
 30
0.0
  9
$PLIMCHECK
 70
0
  9
$PEXTMIN
 10
1e+20
 20
1e+20
 30
1e+20
  9
$PEXTMAX
 10
-1e+20
 20
-1e+20
 30
-1e+20
  9
$PLIMMIN
 10
0.0
 20
0.0
  9
$PLIMMAX
 10
420.0
 20
297.0
  9
$UNITMODE
 70
0
  9
$VISRETAIN
 70
1
  9
$PLINEGEN
 70
0
  9
$PSLTSCALE
 70
1
  9
$TREEDEPTH
 70
3020
  9
$CMLSTYLE
  2
Standard
  9
$CMLJUST
 70
0
  9
$CMLSCALE
 40
20.0
  9
$PROXYGRAPHICS
 70
1
  9
$MEASUREMENT
 70
1
  9
$CELWEIGHT
370
-1
  9
$ENDCAPS
280
0
  9
$JOINSTYLE
280
0
  9
$LWDISPLAY
290
0
  9
$INSUNITS
 70
4
  9
$HYPERLINKBASE
  1

  9
$STYLESHEET
  1

  9
$XEDIT
290
1
  9
$CEPSNTYPE
380
0
  9
$PSTYLEMODE
290
1
  9
$FINGERPRINTGUID
  2
{A1EC69CE-BE5A-496D-929D-E1FC6875E686}
  9
$VERSIONGUID
  2
{C8139FCF-50E3-42FA-BFD4-9D6B856EB3F2}
  9
$EXTNAMES
290
1
  9
$PSVPSCALE
 40
0.0
  9
$OLESTARTUP
290
0
  9
$SORTENTS
280
127
  9
$INDEXCTL
280
0
  9
$HIDETEXT
280
1
  9
$XCLIPFRAME
280
1
  9
$HALOGAP
280
0
  9
$OBSCOLOR
 70
257
  9
$OBSLTYPE
280
0
  9
$INTERSECTIONDISPLAY
280
0
  9
$INTERSECTIONCOLOR
 70
257
  9
$DIMASSOC
280
2
  9
$PROJECTNAME
  1

  9
$CAMERADISPLAY
290
0
  9
$LENSLENGTH
 40
50.0
  9
$CAMERAHEIGHT
 40
0.0
  9
$STEPSPERSEC
 40
24.0
  9
$STEPSIZE
 40
100.0
  9
$3DDWFPREC
 40
2.0
  9
$PSOLWIDTH
 40
0.005
  9
$PSOLHEIGHT
 40
0.08
  9
$LOFTANG1
 40
1.570796326795
  9
$LOFTANG2
 40
1.570796326795
  9
$LOFTMAG1
 40
0.0
  9
$LOFTMAG2
 40
0.0
  9
$LOFTPARAM
 70
7
  9
$LOFTNORMALS
280
1
  9
$LATITUDE
 40
37.795
  9
$LONGITUDE
 40
-122.394
  9
$NORTHDIRECTION
 40
0.0
  9
$TIMEZONE
 70
-8000
  9
$LIGHTGLYPHDISPLAY
280
1
  9
$TILEMODELIGHTSYNCH
280
1
  9
$CMATERIAL
347
20
  9
$SOLIDHIST
280
0
  9
$SHOWHIST
280
1
  9
$DWFFRAME
280
2
  9
$DGNFRAME
280
2
  9
$REALWORLDSCALE
290
1
  9
$INTERFERECOLOR
 62
256
  9
$CSHADOW
280
0
  9
$SHADOWPLANELOCATION
 40
0.0
  0
ENDSEC
  0
SECTION
  2
CLASSES
  0
CLASS
  1
ACDBDICTIONARYWDFLT
  2
AcDbDictionaryWithDefault
  3
ObjectDBX Classes
 90
0
 91
0
280
0
281
0
  0
CLASS
  1
SUN
  2
AcDbSun
  3
SCENEOE
 90
1153
 91
0
280
0
281
0
  0
CLASS
  1
VISUALSTYLE
  2
AcDbVisualStyle
  3
ObjectDBX Classes
 90
4095
 91
0
280
0
281
0
  0
CLASS
  1
MATERIAL
  2
AcDbMaterial
  3
ObjectDBX Classes
 90
1153
 91
0
280
0
281
0
  0
CLASS
  1
SCALE
  2
AcDbScale
  3
ObjectDBX Classes
 90
1153
 91
0
280
0
281
0
  0
CLASS
  1
TABLESTYLE
  2
AcDbTableStyle
  3
ObjectDBX Classes
 90
4095
 91
0
280
0
281
0
  0
CLASS
  1
MLEADERSTYLE
  2
AcDbMLeaderStyle
  3
ACDB_MLEADERSTYLE_CLASS
 90
4095
 91
0
280
0
281
0
  0
CLASS
  1
DICTIONARYVAR
  2
AcDbDictionaryVar
  3
ObjectDBX Classes
 90
0
 91
0
280
0
281
0
  0
CLASS
  1
CELLSTYLEMAP
  2
AcDbCellStyleMap
  3
ObjectDBX Classes
 90
1152
 91
0
280
0
281
0
  0
CLASS
  1
MENTALRAYRENDERSETTINGS
  2
AcDbMentalRayRenderSettings
  3
SCENEOE
 90
1024
 91
0
280
0
281
0
  0
CLASS
  1
ACDBDETAILVIEWSTYLE
  2
AcDbDetailViewStyle
  3
ObjectDBX Classes
 90
1025
 91
0
280
0
281
0
  0
CLASS
  1
ACDBSECTIONVIEWSTYLE
  2
AcDbSectionViewStyle
  3
ObjectDBX Classes
 90
1025
 91
0
280
0
281
0
  0
CLASS
  1
RASTERVARIABLES
  2
AcDbRasterVariables
  3
ISM
 90
0
 91
0
280
0
281
0
  0
CLASS
  1
LAYOUT
  2
AcDbLayout
  3
ObjectDBX Classes
 90
0
 91
0
280
0
281
0
  0
CLASS
  1
ACDBPLACEHOLDER
  2
AcDbPlaceHolder
  3
ObjectDBX Classes
 90
0
 91
0
280
0
281
0
  0
ENDSEC
  0
SECTION
  2
TABLES
  0
TABLE
  2
VPORT
  5
8
330
0
100
AcDbSymbolTable
 70
1
  0
VPORT
  5
23
330
8
100
AcDbSymbolTableRecord
100
AcDbViewportTableRecord
  2
*Active
 70
0
 10
0.0
 20
0.0
 11
1.0
 21
1.0
 12
0.0
 22
0.0
 13
0.0
 23
0.0
 14
0.5
 24
0.5
 15
0.5
 25
0.5
 16
0.0
 26
0.0
 36
1.0
 17
0.0
 27
0.0
 37
0.0
 40
1000.0
 41
1.34
 42
50.0
 43
0.0
 44
0.0
 50
0.0
 51
0.0
 71
0
 72
1000
 73
1
 74
3
 75
0
 76
0
 77
0
 78
0
281
0
 65
0
146
0.0
  0
ENDTAB
  0
TABLE
  2
LTYPE
  5
2
330
0
100
AcDbSymbolTable
 70
3
  0
LTYPE
  5
24
330
2
100
AcDbSymbolTableRecord
100
AcDbLinetypeTableRecord
  2
ByBlock
 70
0
  3

 72
65
 73
0
 40
0.0
  0
LTYPE
  5
25
330
2
100
AcDbSymbolTableRecord
100
AcDbLinetypeTableRecord
  2
ByLayer
 70
0
  3

 72
65
 73
0
 40
0.0
  0
LTYPE
  5
26
330
2
100
AcDbSymbolTableRecord
100
AcDbLinetypeTableRecord
  2
Continuous
 70
0
  3

 72
65
 73
0
 40
0.0
  0
ENDTAB
  0
TABLE
  2
LAYER
  5
1
330
0
100
AcDbSymbolTable
 70
3
  0
LAYER
  5
27
330
1
100
AcDbSymbolTableRecord
100
AcDbLayerTableRecord
  2
0
 70
0
 62
7
  6
Continuous
370
-3
390
13
347
21
  0
LAYER
  5
28
330
1
100
AcDbSymbolTableRecord
100
AcDbLayerTableRecord
  2
Defpoints
 70
0
 62
7
  6
Continuous
290
0
370
-3
390
13
347
21
  0
LAYER
  5
2F
330
1
100
AcDbSymbolTableRecord
100
AcDbLayerTableRecord
  2
PARTS
 70
0
 62
7
  6
Continuous
370
-3
390
13
347
21
  0
ENDTAB
  0
TABLE
  2
STYLE
  5
5
330
0
100
AcDbSymbolTable
 70
1
  0
STYLE
  5
29
330
5
100
AcDbSymbolTableRecord
100
AcDbTextStyleTableRecord
  2
Standard
 70
0
 40
0.0
 41
1.0
 50
0.0
 71
0
 42
2.5
  3
txt
  4

  0
ENDTAB
  0
TABLE
  2
VIEW
  5
7
330
0
100
AcDbSymbolTable
 70
0
  0
ENDTAB
  0
TABLE
  2
UCS
  5
6
330
0
100
AcDbSymbolTable
 70
0
  0
ENDTAB
  0
TABLE
  2
APPID
  5
3
330
0
100
AcDbSymbolTable
 70
3
  0
APPID
  5
2A
330
3
100
AcDbSymbolTableRecord
100
AcDbRegAppTableRecord
  2
ACAD
 70
0
  0
APPID
  5
1C0
330
3
100
AcDbSymbolTableRecord
100
AcDbRegAppTableRecord
  2
HATCHBACKGROUNDCOLOR
 70
0
  0
APPID
  5
1C1
330
3
100
AcDbSymbolTableRecord
100
AcDbRegAppTableRecord
  2
EZDXF
 70
0
  0
ENDTAB
  0
TABLE
  2
DIMSTYLE
  5
4
330
0
100
AcDbSymbolTable
 70
1
100
AcDbDimStyleTable
  0
DIMSTYLE
105
2B
330
4
100
AcDbSymbolTableRecord
100
AcDbDimStyleTableRecord
  2
Standard
 70
0
 40
1.0
 41
2.5
 42
0.625
 43
3.75
 44
1.25
 45
0.0
 46
0.0
 47
0.0
 48
0.0
 49
2.5
140
2.5
141
2.5
142
0.0
143
0.03937007874
144
1.0
145
0.0
146
1.0
147
0.625
148
0.0
 69
0
 70
0
 71
0
 72
0
 73
0
 74
0
 75
0
 76
0
 77
1
 78
8
 79
3
170
0
171
3
172
1
173
0
174
0
175
0
176
0
177
0
178
0
179
2
271
2
272
2
273
2
274
3
275
0
276
0
277
2
278
44
279
0
280
0
281
0
282
0
283
0
284
8
285
0
286
0
288
0
289
3
290
0
371
-2
372
-2
  0
ENDTAB
  0
TABLE
  2
BLOCK_RECORD
  5
9
330
0
100
AcDbSymbolTable
 70
2
  0
BLOCK_RECORD
  5
17
330
9
100
AcDbSymbolTableRecord
100
AcDbBlockTableRecord
  2
*Model_Space
340
1A
 70
0
280
1
281
0
  0
BLOCK_RECORD
  5
1B
330
9
100
AcDbSymbolTableRecord
100
AcDbBlockTableRecord
  2
*Paper_Space
340
1E
 70
0
280
1
281
0
  0
ENDTAB
  0
ENDSEC
  0
SECTION
  2
BLOCKS
  0
BLOCK
  5
18
330
17
100
AcDbEntity
  8
0
100
AcDbBlockBegin
  2
*Model_Space
 70
0
 10
0.0
 20
0.0
 30
0.0
  3
*Model_Space
  1

  0
ENDBLK
  5
19
330
17
100
AcDbEntity
  8
0
100
AcDbBlockEnd
  0
BLOCK
  5
1C
330
1B
100
AcDbEntity
  8
0
100
AcDbBlockBegin
  2
*Paper_Space
 70
0
 10
0.0
 20
0.0
 30
0.0
  3
*Paper_Space
  1

  0
ENDBLK
  5
1D
330
1B
100
AcDbEntity
  8
0
100
AcDbBlockEnd
  0
ENDSEC
  0
SECTION
  2
ENTITIES
  0
LWPOLYLINE
  5
30
330
17
100
AcDbEntity
  8
PARTS
100
AcDbPolyline
 90
4
 70
1
 10
0.0
 20
0.0
 10
216.0097612299282
 20
0.0
 10
216.0097612299282
 20
173.5264878331912
 10
0.0
 20
173.5264878331912
  0
LWPOLYLINE
  5
31
330
17
100
AcDbEntity
  8
PARTS
100
AcDbPolyline
 90
4
 70
1
 10
900.0
 20
0.0
 10
1253.3924786767386
 20
0.0
 10
1253.3924786767386
 20
124.91049773387651
 10
900.0
 20
124.91049773387651
  0
LWPOLYLINE
  5
32
330
17
100
AcDbEntity
  8
PARTS
100
AcDbPolyline
 90
4
 70
1
 10
1800.0
 20
0.0
 10
2105.0704418088094
 20
0.0
 10
2105.0704418088094
 20
306.72712848580306
 10
1800.0
 20
306.72712848580306
  0
LWPOLYLINE
  5
33
330
17
100
AcDbEntity
  8
PARTS
100
AcDbPolyline
 90
4
 70
1
 10
2700.0
 20
0.0
 10
2804.3595484053767
 20
0.0
 10
2804.3595484053767
 20
394.61015457744054
 10
2700.0
 20
394.61015457744054
  0
LWPOLYLINE
  5
34
330
17
100
AcDbEntity
  8
PARTS
100
AcDbPolyline
 90
4
 70
1
 10
3600.0
 20
0.0
 10
3695.7481765456337
 20
0.0
 10
3695.7481765456337
 20
348.8603238706792
 10
3600.0
 20
348.8603238706792
  0
LWPOLYLINE
  5
35
330
17
100
AcDbEntity
  8
PARTS
100
AcDbPolyline
 90
4
 70
1
 10
4500.0
 20
0.0
 10
4609.33927790134
 20
0.0
 10
4609.33927790134
 20
136.24206827319634
 10
4500.0
 20
136.24206827319634
  0
LWPOLYLINE
  5
36
330
17
100
AcDbEntity
  8
PARTS
100
AcDbPolyline
 90
4
 70
1
 10
5400.0
 20
0.0
 10
5658.298059439856
 20
0.0
 10
5658.298059439856
 20
592.6483172966635
 10
5400.0
 20
592.6483172966635
  0
LWPOLYLINE
  5
37
330
17
100
AcDbEntity
  8
PARTS
100
AcDbPolyline
 90
4
 70
1
 10
6300.0
 20
0.0
 10
6431.996823682851
 20
0.0
 10
6431.996823682851
 20
218.408158056349
 10
6300.0
 20
218.408158056349
  0
LWPOLYLINE
  5
38
330
17
100
AcDbEntity
  8
PARTS
100
AcDbPolyline
 90
4
 70
1
 10
7200.0
 20
0.0
 10
7543.521953410347
 20
0.0
 10
7543.521953410347
 20
667.5795443233435
 10
7200.0
 20
667.5795443233435
  0
LWPOLYLINE
  5
39
330
17
100
AcDbEntity
  8
PARTS
100
AcDbPolyline
 90
4
 70
1
 10
8100.0
 20
0.0
 10
8422.38323841935
 20
0.0
 10
8422.38323841935
 20
325.9418942834837
 10
8100.0
 20
325.9418942834837
  0
LWPOLYLINE
  5
3A
330
17
100
AcDbEntity
  8
PARTS
100
AcDbPolyline
 90
4
 70
1
 10
9000.0
 20
0.0
 10
9490.027144349026
 20
0.0
 10
9490.027144349026
 20
108.8812619830089
 10
9000.0
 20
108.8812619830089
  0
LWPOLYLINE
  5
3B
330
17
100
AcDbEntity
  8
PARTS
100
AcDbPolyline
 90
4
 70
1
 10
9900.0
 20
0.0
 10
10340.556752800445
 20
0.0
 10
10340.556752800445
 20
259.5577575256393
 10
9900.0
 20
259.5577575256393
  0
LWPOLYLINE
  5
3C
330
17
100
AcDbEntity
  8
PARTS
100
AcDbPolyline
 90
4
 70
1
 10
10800.0
 20
0.0
 10
10940.587135010124
 20
0.0
 10
10940.587135010124
 20
153.03118760858837
 10
10800.0
 20
153.03118760858837
  0
LWPOLYLINE
  5
3D
330
17
100
AcDbEntity
  8
PARTS
100
AcDbPolyline
 90
4
 70
1
 10
11700.0
 20
0.0
 10
11909.562366122813
 20
0.0
 10
11909.562366122813
 20
585.9983426544195
 10
11700.0
 20
585.9983426544195
  0
LWPOLYLINE
  5
3E
330
17
100
AcDbEntity
  8
PARTS
100
AcDbPolyline
 90
4
 70
1
 10
12600.0
 20
0.0
 10
12755.905079568054
 20
0.0
 10
12755.905079568054
 20
440.59210147072906
 10
12600.0
 20
440.59210147072906
  0
LWPOLYLINE
  5
3F
330
17
100
AcDbEntity
  8
PARTS
100
AcDbPolyline
 90
4
 70
1
 10
13500.0
 20
0.0
 10
13848.343656948997
 20
0.0
 10
13848.343656948997
 20
310.88647648995334
 10
13500.0
 20
310.88647648995334
  0
LWPOLYLINE
  5
40
330
17
100
AcDbEntity
  8
PARTS
100
AcDbPolyline
 90
4
 70
1
 10
14400.0
 20
0.0
 10
14710.052675598014
 20
0.0
 10
14710.052675598014
 20
118.92916448346034
 10
14400.0
 20
118.92916448346034
  0
LWPOLYLINE
  5
41
330
17
100
AcDbEntity
  8
PARTS
100
AcDbPolyline
 90
4
 70
1
 10
15300.0
 20
0.0
 10
15405.032491385819
 20
0.0
 10
15405.032491385819
 20
207.69440194798244
 10
15300.0
 20
207.69440194798244
  0
LWPOLYLINE
  5
42
330
17
100
AcDbEntity
  8
PARTS
100
AcDbPolyline
 90
4
 70
1
 10
16200.0
 20
0.0
 10
16565.76798873635
 20
0.0
 10
16565.76798873635
 20
345.10722951502976
 10
16200.0
 20
345.10722951502976
  0
LWPOLYLINE
  5
43
330
17
100
AcDbEntity
  8
PARTS
100
AcDbPolyline
 90
4
 70
1
 10
17100.0
 20
0.0
 10
17311.941811558252
 20
0.0
 10
17311.941811558252
 20
443.048355374736
 10
17100.0
 20
443.048355374736
  0
LWPOLYLINE
  5
44
330
17
100
AcDbEntity
  8
PARTS
100
AcDbPolyline
 90
4
 70
1
 10
18000.0
 20
0.0
 10
18270.337438075727
 20
0.0
 10
18270.337438075727
 20
265.85553805548307
 10
18000.0
 20
265.85553805548307
  0
LWPOLYLINE
  5
45
330
17
100
AcDbEntity
  8
PARTS
100
AcDbPolyline
 90
4
 70
1
 10
18900.0
 20
0.0
 10
19313.639382239446
 20
0.0
 10
19313.639382239446
 20
513.3765489123341
 10
18900.0
 20
513.3765489123341
  0
LWPOLYLINE
  5
46
330
17
100
AcDbEntity
  8
PARTS
100
AcDbPolyline
 90
4
 70
1
 10
19800.0
 20
0.0
 10
19982.520534503303
 20
0.0
 10
19982.520534503303
 20
436.142700360376
 10
19800.0
 20
436.142700360376
  0
LWPOLYLINE
  5
47
330
17
100
AcDbEntity
  8
PARTS
100
AcDbPolyline
 90
4
 70
1
 10
20700.0
 20
0.0
 10
21000.58253160081
 20
0.0
 10
21000.58253160081
 20
622.5852472555259
 10
20700.0
 20
622.5852472555259
  0
LWPOLYLINE
  5
48
330
17
100
AcDbEntity
  8
PARTS
100
AcDbPolyline
 90
4
 70
1
 10
21600.0
 20
0.0
 10
21986.36702156447
 20
0.0
 10
21986.36702156447
 20
258.5214142319156
 10
21600.0
 20
258.5214142319156
  0
LWPOLYLINE
  5
49
330
17
100
AcDbEntity
  8
PARTS
100
AcDbPolyline
 90
4
 70
1
 10
22500.0
 20
0.0
 10
22991.673435946883
 20
0.0
 10
22991.673435946883
 20
153.2007825180765
 10
22500.0
 20
153.2007825180765
  0
LWPOLYLINE
  5
4A
330
17
100
AcDbEntity
  8
PARTS
100
AcDbPolyline
 90
4
 70
1
 10
23400.0
 20
0.0
 10
23655.611585149796
 20
0.0
 10
23655.611585149796
 20
549.4273763304545
 10
23400.0
 20
549.4273763304545
  0
LWPOLYLINE
  5
4B
330
17
100
AcDbEntity
  8
PARTS
100
AcDbPolyline
 90
4
 70
1
 10
24300.0
 20
0.0
 10
24443.833504557413
 20
0.0
 10
24443.833504557413
 20
383.15712229499945
 10
24300.0
 20
383.15712229499945
  0
LWPOLYLINE
  5
4C
330
17
100
AcDbEntity
  8
PARTS
100
AcDbPolyline
 90
4
 70
1
 10
25200.0
 20
0.0
 10
25296.467047959923
 20
0.0
 10
25296.467047959923
 20
494.293831051325
 10
25200.0
 20
494.293831051325
  0
LWPOLYLINE
  5
4D
330
17
100
AcDbEntity
  8
PARTS
100
AcDbPolyline
 90
4
 70
1
 10
26100.0
 20
0.0
 10
26501.11976380938
 20
0.0
 10
26501.11976380938
 20
435.27608297197804
 10
26100.0
 20
435.27608297197804
  0
LWPOLYLINE
  5
4E
330
17
100
AcDbEntity
  8
PARTS
100
AcDbPolyline
 90
4
 70
1
 10
27000.0
 20
0.0
 10
27447.700680968974
 20
0.0
 10
27447.700680968974
 20
274.52345796582
 10
27000.0
 20
274.52345796582
  0
LWPOLYLINE
  5
4F
330
17
100
AcDbEntity
  8
PARTS
100
AcDbPolyline
 90
4
 70
1
 10
27900.0
 20
0.0
 10
28272.024053834935
 20
0.0
 10
28272.024053834935
 20
448.5093238051114
 10
27900.0
 20
448.5093238051114
  0
LWPOLYLINE
  5
50
330
17
100
AcDbEntity
  8
PARTS
100
AcDbPolyline
 90
4
 70
1
 10
28800.0
 20
0.0
 10
29123.555985798648
 20
0.0
 10
29123.555985798648
 20
362.8473054068761
 10
28800.0
 20
362.8473054068761
  0
LWPOLYLINE
  5
51
330
17
100
AcDbEntity
  8
PARTS
100
AcDbPolyline
 90
4
 70
1
 10
29700.0
 20
0.0
 10
30132.78646781527
 20
0.0
 10
30132.78646781527
 20
665.7022789669212
 10
29700.0
 20
665.7022789669212
  0
LWPOLYLINE
  5
52
330
17
100
AcDbEntity
  8
PARTS
100
AcDbPolyline
 90
4
 70
1
 10
30600.0
 20
0.0
 10
30879.12130171625
 20
0.0
 10
30879.12130171625
 20
491.77436739429817
 10
30600.0
 20
491.77436739429817
  0
LWPOLYLINE
  5
53
330
17
100
AcDbEntity
  8
PARTS
100
AcDbPolyline
 90
4
 70
1
 10
31500.0
 20
0.0
 10
31605.481159590832
 20
0.0
 10
31605.481159590832
 20
514.9250532087428
 10
31500.0
 20
514.9250532087428
  0
LWPOLYLINE
  5
54
330
17
100
AcDbEntity
  8
PARTS
100
AcDbPolyline
 90
4
 70
1
 10
32400.0
 20
0.0
 10
32751.79411890162
 20
0.0
 10
32751.79411890162
 20
695.7194824693131
 10
32400.0
 20
695.7194824693131
  0
LWPOLYLINE
  5
55
330
17
100
AcDbEntity
  8
PARTS
100
AcDbPolyline
 90
4
 70
1
 10
33300.0
 20
0.0
 10
33725.20841037608
 20
0.0
 10
33725.20841037608
 20
256.44922989837255
 10
33300.0
 20
256.44922989837255
  0
LWPOLYLINE
  5
56
330
17
100
AcDbEntity
  8
PARTS
100
AcDbPolyline
 90
4
 70
1
 10
34200.0
 20
0.0
 10
34442.03240582762
 20
0.0
 10
34442.03240582762
 20
494.5646838481967
 10
34200.0
 20
494.5646838481967
  0
LWPOLYLINE
  5
57
330
17
100
AcDbEntity
  8
PARTS
100
AcDbPolyline
 90
4
 70
1
 10
35100.0
 20
0.0
 10
35189.476429783346
 20
0.0
 10
35189.476429783346
 20
366.2510775058548
 10
35100.0
 20
366.2510775058548
  0
LWPOLYLINE
  5
58
330
17
100
AcDbEntity
  8
PARTS
100
AcDbPolyline
 90
4
 70
1
 10
0.0
 20
900.0
 10
150.5803191407487
 20
900.0
 10
150.5803191407487
 20
1052.5993925786738
 10
0.0
 20
1052.5993925786738
  0
LWPOLYLINE
  5
59
330
17
100
AcDbEntity
  8
PARTS
100
AcDbPolyline
 90
4
 70
1
 10
900.0
 20
900.0
 10
1004.7608561191504
 20
900.0
 10
1004.7608561191504
 20
1456.3044528529629
 10
900.0
 20
1456.3044528529629
  0
LWPOLYLINE
  5
5A
330
17
100
AcDbEntity
  8
PARTS
100
AcDbPolyline
 90
4
 70
1
 10
1800.0
 20
900.0
 10
1934.3228932478473
 20
900.0
 10
1934.3228932478473
 20
1133.521196892087
 10
1800.0
 20
1133.521196892087
  0
LWPOLYLINE
  5
5B
330
17
100
AcDbEntity
  8
PARTS
100
AcDbPolyline
 90
4
 70
1
 10
2700.0
 20
900.0
 10
2944.1988753159553
 20
900.0
 10
2944.1988753159553
 20
1520.2816239583058
 10
2700.0
 20
1520.2816239583058
  0
LWPOLYLINE
  5
5C
330
17
100
AcDbEntity
  8
PARTS
100
AcDbPolyline
 90
4
 70
1
 10
3600.0
 20
900.0
 10
3713.8441465040582
 20
900.0
 10
3713.8441465040582
 20
1258.4961885885853
 10
3600.0
 20
1258.4961885885853
  0
LWPOLYLINE
  5
5D
330
17
100
AcDbEntity
  8
PARTS
100
AcDbPolyline
 90
4
 70
1
 10
4500.0
 20
900.0
 10
4810.764761840495
 20
900.0
 10
4810.764761840495
 20
1527.6979723937377
 10
4500.0
 20
1527.6979723937377
  0
LWPOLYLINE
  5
5E
330
17
100
AcDbEntity
  8
PARTS
100
AcDbPolyline
 90
4
 70
1
 10
5400.0
 20
900.0
 10
5824.097531891011
 20
900.0
 10
5824.097531891011
 20
1515.6703712130793
 10
5400.0
 20
1515.6703712130793
  0
LWPOLYLINE
  5
5F
330
17
100
AcDbEntity
  8
PARTS
100
AcDbPolyline
 90
4
 70
1
 10
6300.0
 20
900.0
 10
6496.936847095837
 20
900.0
 10
6496.936847095837
 20
1237.4838406712531
 10
6300.0
 20
1237.4838406712531
  0
LWPOLYLINE
  5
60
330
17
100
AcDbEntity
  8
PARTS
100
AcDbPolyline
 90
4
 70
1
 10
7200.0
 20
900.0
 10
7430.683889439282
 20
900.0
 10
7430.683889439282
 20
1528.1995528628945
 10
7200.0
 20
1528.1995528628945
  0
LWPOLYLINE
  5
61
330
17
100
AcDbEntity
  8
PARTS
100
AcDbPolyline
 90
4
 70
1
 10
8100.0
 20
900.0
 10
8582.247105664876
 20
900.0
 10
8582.247105664876
 20
1073.5709615904875
 10
8100.0
 20
1073.5709615904875
  0
LWPOLYLINE
  5
62
330
17
100
AcDbEntity
  8
PARTS
100
AcDbPolyline
 90
4
 70
1
 10
9000.0
 20
900.0
 10
9154.011445965956
 20
900.0
 10
9154.011445965956
 20
1123.8132574281121
 10
9000.0
 20
1123.8132574281121
  0
LWPOLYLINE
  5
63
330
17
100
AcDbEntity
  8
PARTS
100
AcDbPolyline
 90
4
 70
1
 10
9900.0
 20
900.0
 10
10078.001155145961
 20
900.0
 10
10078.001155145961
 20
1280.6768928116412
 10
9900.0
 20
1280.6768928116412
  0
LWPOLYLINE
  5
64
330
17
100
AcDbEntity
  8
PARTS
100
AcDbPolyline
 90
4
 70
1
 10
10800.0
 20
900.0
 10
11127.431871567547
 20
900.0
 10
11127.431871567547
 20
1142.9029039650936
 10
10800.0
 20
1142.9029039650936
  0
LWPOLYLINE
  5
65
330
17
100
AcDbEntity
  8
PARTS
100
AcDbPolyline
 90
4
 70
1
 10
11700.0
 20
900.0
 10
11781.719313421727
 20
900.0
 10
11781.719313421727
 20
1239.7468306977034
 10
11700.0
 20
1239.7468306977034
  0
LWPOLYLINE
  5
66
330
17
100
AcDbEntity
  8
PARTS
100
AcDbPolyline
 90
4
 70
1
 10
12600.0
 20
900.0
 10
12835.086500615786
 20
900.0
 10
12835.086500615786
 20
1331.131558697963
 10
12600.0
 20
1331.131558697963
  0
LWPOLYLINE
  5
67
330
17
100
AcDbEntity
  8
PARTS
100
AcDbPolyline
 90
4
 70
1
 10
13500.0
 20
900.0
 10
13980.30112872054
 20
900.0
 10
13980.30112872054
 20
1408.1060674243063
 10
13500.0
 20
1408.1060674243063
  0
LWPOLYLINE
  5
68
330
17
100
AcDbEntity
  8
PARTS
100
AcDbPolyline
 90
4
 70
1
 10
14400.0
 20
900.0
 10
14696.506401889726
 20
900.0
 10
14696.506401889726
 20
1362.907504633659
 10
14400.0
 20
1362.907504633659
  0
LWPOLYLINE
  5
69
330
17
100
AcDbEntity
  8
PARTS
100
AcDbPolyline
 90
4
 70
1
 10
15300.0
 20
900.0
 10
15664.00403462879
 20
900.0
 10
15664.00403462879
 20
1013.47559379875
 10
15300.0
 20
1013.47559379875
  0
LWPOLYLINE
  5
6A
330
17
100
AcDbEntity
  8
PARTS
100
AcDbPolyline
 90
4
 70
1
 10
16200.0
 20
900.0
 10
16657.80386422434
 20
900.0
 10
16657.80386422434
 20
1463.581084237765
 10
16200.0
 20
1463.581084237765
  0
LWPOLYLINE
  5
6B
330
17
100
AcDbEntity
  8
PARTS
100
AcDbPolyline
 90
4
 70
1
 10
17100.0
 20
900.0
 10
17547.29553733648
 20
900.0
 10
17547.29553733648
 20
1474.681335141871
 10
17100.0
 20
1474.681335141871
  0
LWPOLYLINE
  5
6C
330
17
100
AcDbEntity
  8
PARTS
100
AcDbPolyline
 90
4
 70
1
 10
18000.0
 20
900.0
 10
18244.799140894334
 20
900.0
 10
18244.799140894334
 20
1227.3668760385692
 10
18000.0
 20
1227.3668760385692
  0
LWPOLYLINE
  5
6D
330
17
100
AcDbEntity
  8
PARTS
100
AcDbPolyline
 90
4
 70
1
 10
18900.0
 20
900.0
 10
19023.485579358337
 20
900.0
 10
19023.485579358337
 20
1373.2595307251395
 10
18900.0
 20
1373.2595307251395
  0
LWPOLYLINE
  5
6E
330
17
100
AcDbEntity
  8
PARTS
100
AcDbPolyline
 90
4
 70
1
 10
19800.0
 20
900.0
 10
19906.14408507985
 20
900.0
 10
19906.14408507985
 20
1021.7555218226754
 10
19800.0
 20
1021.7555218226754
  0
LWPOLYLINE
  5
6F
330
17
100
AcDbEntity
  8
PARTS
100
AcDbPolyline
 90
4
 70
1
 10
20700.0
 20
900.0
 10
20867.68053788739
 20
900.0
 10
20867.68053788739
 20
1080.6279764187004
 10
20700.0
 20
1080.6279764187004
  0
LWPOLYLINE
  5
70
330
17
100
AcDbEntity
  8
PARTS
100
AcDbPolyline
 90
4
 70
1
 10
21600.0
 20
900.0
 10
21822.822533937586
 20
900.0
 10
21822.822533937586
 20
1012.5968744119655
 10
21600.0
 20
1012.5968744119655
  0
LWPOLYLINE
  5
71
330
17
100
AcDbEntity
  8
PARTS
100
AcDbPolyline
 90
4
 70
1
 10
22500.0
 20
900.0
 10
22580.09797839857
 20
900.0
 10
22580.09797839857
 20
1073.7842580132453
 10
22500.0
 20
1073.7842580132453
  0
LWPOLYLINE
  5
72
330
17
100
AcDbEntity
  8
PARTS
100
AcDbPolyline
 90
4
 70
1
 10
23400.0
 20
900.0
 10
23522.61503456949
 20
900.0
 10
23522.61503456949
 20
1205.438151661434
 10
23400.0
 20
1205.438151661434
  0
LWPOLYLINE
  5
73
330
17
100
AcDbEntity
  8
PARTS
100
AcDbPolyline
 90
4
 70
1
 10
24300.0
 20
900.0
 10
24390.710372399782
 20
900.0
 10
24390.710372399782
 20
1522.0860739717682
 10
24300.0
 20
1522.0860739717682
  0
LWPOLYLINE
  5
74
330
17
100
AcDbEntity
  8
PARTS
100
AcDbPolyline
 90
4
 70
1
 10
25200.0
 20
900.0
 10
25537.90897487116
 20
900.0
 10
25537.90897487116
 20
1072.1013009051526
 10
25200.0
 20
1072.1013009051526
  0
LWPOLYLINE
  5
75
330
17
100
AcDbEntity
  8
PARTS
100
AcDbPolyline
 90
4
 70
1
 10
26100.0
 20
900.0
 10
26285.94825775397
 20
900.0
 10
26285.94825775397
 20
1195.3815185532949
 10
26100.0
 20
1195.3815185532949
  0
LWPOLYLINE
  5
76
330
17
100
AcDbEntity
  8
PARTS
100
AcDbPolyline
 90
4
 70
1
 10
27000.0
 20
900.0
 10
27232.94864460188
 20
900.0
 10
27232.94864460188
 20
1056.1621830725608
 10
27000.0
 20
1056.1621830725608
  0
LWPOLYLINE
  5
77
330
17
100
AcDbEntity
  8
PARTS
100
AcDbPolyline
 90
4
 70
1
 10
27900.0
 20
900.0
 10
28336.55350912354
 20
900.0
 10
28336.55350912354
 20
1595.7236874569226
 10
27900.0
 20
1595.7236874569226
  0
LWPOLYLINE
  5
78
330
17
100
AcDbEntity
  8
PARTS
100
AcDbPolyline
 90
4
 70
1
 10
28800.0
 20
900.0
 10
29075.715572847173
 20
900.0
 10
29075.715572847173
 20
1279.977486978087
 10
28800.0
 20
1279.977486978087
  0
LWPOLYLINE
  5
79
330
17
100
AcDbEntity
  8
PARTS
100
AcDbPolyline
 90
4
 70
1
 10
29700.0
 20
900.0
 10
29816.07155785359
 20
900.0
 10
29816.07155785359
 20
1043.3563223838644
 10
29700.0
 20
1043.3563223838644
  0
LWPOLYLINE
  5
7A
330
17
100
AcDbEntity
  8
PARTS
100
AcDbPolyline
 90
4
 70
1
 10
30600.0
 20
900.0
 10
30823.90705206206
 20
900.0
 10
30823.90705206206
 20
1144.1492728646517
 10
30600.0
 20
1144.1492728646517
  0
LWPOLYLINE
  5
7B
330
17
100
AcDbEntity
  8
PARTS
100
AcDbPolyline
 90
4
 70
1
 10
31500.0
 20
900.0
 10
31928.119258811057
 20
900.0
 10
31928.119258811057
 20
1080.0919385263876
 10
31500.0
 20
1080.0919385263876
  0
LWPOLYLINE
  5
7C
330
17
100
AcDbEntity
  8
PARTS
100
AcDbPolyline
 90
4
 70
1
 10
32400.0
 20
900.0
 10
32489.700202839005
 20
900.0
 10
32489.700202839005
 20
1569.6110551823153
 10
32400.0
 20
1569.6110551823153
  0
LWPOLYLINE
  5
7D
330
17
100
AcDbEntity
  8
PARTS
100
AcDbPolyline
 90
4
 70
1
 10
33300.0
 20
900.0
 10
33601.86810591769
 20
900.0
 10
33601.86810591769
 20
1070.8935741174362
 10
33300.0
 20
1070.8935741174362
  0
LWPOLYLINE
  5
7E
330
17
100
AcDbEntity
  8
PARTS
100
AcDbPolyline
 90
4
 70
1
 10
34200.0
 20
900.0
 10
34508.13241887049
 20
900.0
 10
34508.13241887049
 20
996.7663446817445
 10
34200.0
 20
996.7663446817445
  0
LWPOLYLINE
  5
7F
330
17
100
AcDbEntity
  8
PARTS
100
AcDbPolyline
 90
4
 70
1
 10
35100.0
 20
900.0
 10
35401.805965194086
 20
900.0
 10
35401.805965194086
 20
1586.6707704857631
 10
35100.0
 20
1586.6707704857631
  0
LWPOLYLINE
  5
80
330
17
100
AcDbEntity
  8
PARTS
100
AcDbPolyline
 90
4
 70
1
 10
0.0
 20
1800.0
 10
442.59651272166093
 20
1800.0
 10
442.59651272166093
 20
2311.642007262837
 10
0.0
 20
2311.642007262837
  0
LWPOLYLINE
  5
81
330
17
100
AcDbEntity
  8
PARTS
100
AcDbPolyline
 90
4
 70
1
 10
900.0
 20
1800.0
 10
1089.668382836332
 20
1800.0
 10
1089.668382836332
 20
2107.353870891931
 10
900.0
 20
2107.353870891931
  0
LWPOLYLINE
  5
82
330
17
100
AcDbEntity
  8
PARTS
100
AcDbPolyline
 90
4
 70
1
 10
1800.0
 20
1800.0
 10
1950.1576545044213
 20
1800.0
 10
1950.1576545044213
 20
2358.601503209259
 10
1800.0
 20
2358.601503209259
  0
LWPOLYLINE
  5
83
330
17
100
AcDbEntity
  8
PARTS
100
AcDbPolyline
 90
4
 70
1
 10
2700.0
 20
1800.0
 10
3003.688806947009
 20
1800.0
 10
3003.688806947009
 20
2363.0140326296696
 10
2700.0
 20
2363.0140326296696
  0
LWPOLYLINE
  5
84
330
17
100
AcDbEntity
  8
PARTS
100
AcDbPolyline
 90
4
 70
1
 10
3600.0
 20
1800.0
 10
3818.45929792006
 20
1800.0
 10
3818.45929792006
 20
2018.2858373239749
 10
3600.0
 20
2018.2858373239749
  0
LWPOLYLINE
  5
85
330
17
100
AcDbEntity
  8
PARTS
100
AcDbPolyline
 90
4
 70
1
 10
4500.0
 20
1800.0
 10
4920.83472364491
 20
1800.0
 10
4920.83472364491
 20
2490.6541513663524
 10
4500.0
 20
2490.6541513663524
  0
LWPOLYLINE
  5
86
330
17
100
AcDbEntity
  8
PARTS
100
AcDbPolyline
 90
4
 70
1
 10
5400.0
 20
1800.0
 10
5838.104095473597
 20
1800.0
 10
5838.104095473597
 20
2379.768722567114
 10
5400.0
 20
2379.768722567114
  0
LWPOLYLINE
  5
87
330
17
100
AcDbEntity
  8
PARTS
100
AcDbPolyline
 90
4
 70
1
 10
6300.0
 20
1800.0
 10
6723.699836196657
 20
1800.0
 10
6723.699836196657
 20
2338.7212726329426
 10
6300.0
 20
2338.7212726329426
  0
LWPOLYLINE
  5
88
330
17
100
AcDbEntity
  8
PARTS
100
AcDbPolyline
 90
4
 70
1
 10
7200.0
 20
1800.0
 10
7375.230585813266
 20
1800.0
 10
7375.230585813266
 20
2200.9360090309733
 10
7200.0
 20
2200.9360090309733
  0
LWPOLYLINE
  5
89
330
17
100
AcDbEntity
  8
PARTS
100
AcDbPolyline
 90
4
 70
1
 10
8100.0
 20
1800.0
 10
8329.336268209083
 20
1800.0
 10
8329.336268209083
 20
1897.9676934596466
 10
8100.0
 20
1897.9676934596466
  0
LWPOLYLINE
  5
8A
330
17
100
AcDbEntity
  8
PARTS
100
AcDbPolyline
 90
4
 70
1
 10
9000.0
 20
1800.0
 10
9091.733571677267
 20
1800.0
 10
9091.733571677267
 20
2053.2394942103983
 10
9000.0
 20
2053.2394942103983
  0
LWPOLYLINE
  5
8B
330
17
100
AcDbEntity
  8
PARTS
100
AcDbPolyline
 90
4
 70
1
 10
9900.0
 20
1800.0
 10
10088.853232572457
 20
1800.0
 10
10088.853232572457
 20
2309.3636038540762
 10
9900.0
 20
2309.3636038540762
  0
LWPOLYLINE
  5
8C
330
17
100
AcDbEntity
  8
PARTS
100
AcDbPolyline
 90
4
 70
1
 10
10800.0
 20
1800.0
 10
11281.736332063361
 20
1800.0
 10
11281.736332063361
 20
2157.2811602153683
 10
10800.0
 20
2157.2811602153683
  0
LWPOLYLINE
  5
8D
330
17
100
AcDbEntity
  8
PARTS
100
AcDbPolyline
 90
4
 70
1
 10
11700.0
 20
1800.0
 10
12173.548904536021
 20
1800.0
 10
12173.548904536021
 20
2492.583596085773
 10
11700.0
 20
2492.583596085773
  0
LWPOLYLINE
  5
8E
330
17
100
AcDbEntity
  8
PARTS
100
AcDbPolyline
 90
4
 70
1
 10
12600.0
 20
1800.0
 10
13081.10026515496
 20
1800.0
 10
13081.10026515496
 20
2106.074248924357
 10
12600.0
 20
2106.074248924357
  0
LWPOLYLINE
  5
8F
330
17
100
AcDbEntity
  8
PARTS
100
AcDbPolyline
 90
4
 70
1
 10
13500.0
 20
1800.0
 10
13672.59417565842
 20
1800.0
 10
13672.59417565842
 20
2020.6444125730513
 10
13500.0
 20
2020.6444125730513
  0
LWPOLYLINE
  5
90
330
17
100
AcDbEntity
  8
PARTS
100
AcDbPolyline
 90
4
 70
1
 10
14400.0
 20
1800.0
 10
14562.616588636114
 20
1800.0
 10
14562.616588636114
 20
2006.7114852312584
 10
14400.0
 20
2006.7114852312584
  0
LWPOLYLINE
  5
91
330
17
100
AcDbEntity
  8
PARTS
100
AcDbPolyline
 90
4
 70
1
 10
15300.0
 20
1800.0
 10
15642.107886923885
 20
1800.0
 10
15642.107886923885
 20
2438.191169488151
 10
15300.0
 20
2438.191169488151
  0
LWPOLYLINE
  5
92
330
17
100
AcDbEntity
  8
PARTS
100
AcDbPolyline
 90
4
 70
1
 10
16200.0
 20
1800.0
 10
16632.9829214573
 20
1800.0
 10
16632.9829214573
 20
2177.2735242821536
 10
16200.0
 20
2177.2735242821536
  0
LWPOLYLINE
  5
93
330
17
100
AcDbEntity
  8
PARTS
100
AcDbPolyline
 90
4
 70
1
 10
17100.0
 20
1800.0
 10
17454.250777993224
 20
1800.0
 10
17454.250777993224
 20
2375.7791218067896
 10
17100.0
 20
2375.7791218067896
  0
LWPOLYLINE
  5
94
330
17
100
AcDbEntity
  8
PARTS
100
AcDbPolyline
 90
4
 70
1
 10
18000.0
 20
1800.0
 10
18115.60696430916
 20
1800.0
 10
18115.60696430916
 20
2289.5631031270345
 10
18000.0
 20
2289.5631031270345
  0
LWPOLYLINE
  5
95
330
17
100
AcDbEntity
  8
PARTS
100
AcDbPolyline
 90
4
 70
1
 10
18900.0
 20
1800.0
 10
19362.106397771724
 20
1800.0
 10
19362.106397771724
 20
2365.0277881408156
 10
18900.0
 20
2365.0277881408156
  0
LWPOLYLINE
  5
96
330
17
100
AcDbEntity
  8
PARTS
100
AcDbPolyline
 90
4
 70
1
 10
19800.0
 20
1800.0
 10
20195.058993128794
 20
1800.0
 10
20195.058993128794
 20
2176.3803016482802
 10
19800.0
 20
2176.3803016482802
  0
LWPOLYLINE
  5
97
330
17
100
AcDbEntity
  8
PARTS
100
AcDbPolyline
 90
4
 70
1
 10
20700.0
 20
1800.0
 10
20854.97912170178
 20
1800.0
 10
20854.97912170178
 20
2369.2639672325713
 10
20700.0
 20
2369.2639672325713
  0
LWPOLYLINE
  5
98
330
17
100
AcDbEntity
  8
PARTS
100
AcDbPolyline
 90
4
 70
1
 10
21600.0
 20
1800.0
 10
21819.657223943137
 20
1800.0
 10
21819.657223943137
 20
2376.5106127159484
 10
21600.0
 20
2376.5106127159484
  0
LWPOLYLINE
  5
99
330
17
100
AcDbEntity
  8
PARTS
100
AcDbPolyline
 90
4
 70
1
 10
22500.0
 20
1800.0
 10
22988.096061372507
 20
1800.0
 10
22988.096061372507
 20
2125.419866943058
 10
22500.0
 20
2125.419866943058
  0
LWPOLYLINE
  5
9A
330
17
100
AcDbEntity
  8
PARTS
100
AcDbPolyline
 90
4
 70
1
 10
23400.0
 20
1800.0
 10
23648.582463504434
 20
1800.0
 10
23648.582463504434
 20
2467.0141440082334
 10
23400.0
 20
2467.0141440082334
  0
LWPOLYLINE
  5
9B
330
17
100
AcDbEntity
  8
PARTS
100
AcDbPolyline
 90
4
 70
1
 10
24300.0
 20
1800.0
 10
24684.41543956637
 20
1800.0
 10
24684.41543956637
 20
1985.4022691825753
 10
24300.0
 20
1985.4022691825753
  0
LWPOLYLINE
  5
9C
330
17
100
AcDbEntity
  8
PARTS
100
AcDbPolyline
 90
4
 70
1
 10
25200.0
 20
1800.0
 10
25333.3561142651
 20
1800.0
 10
25333.3561142651
 20
1973.7134342365237
 10
25200.0
 20
1973.7134342365237
  0
LWPOLYLINE
  5
9D
330
17
100
AcDbEntity
  8
PARTS
100
AcDbPolyline
 90
4
 70
1
 10
26100.0
 20
1800.0
 10
26560.03788020796
 20
1800.0
 10
26560.03788020796
 20
2380.0312288599616
 10
26100.0
 20
2380.0312288599616
  0
LWPOLYLINE
  5
9E
330
17
100
AcDbEntity
  8
PARTS
100
AcDbPolyline
 90
4
 70
1
 10
27000.0
 20
1800.0
 10
27141.393209672427
 20
1800.0
 10
27141.393209672427
 20
2392.43649668574
 10
27000.0
 20
2392.43649668574
  0
LWPOLYLINE
  5
9F
330
17
100
AcDbEntity
  8
PARTS
100
AcDbPolyline
 90
4
 70
1
 10
27900.0
 20
1800.0
 10
28391.728496247753
 20
1800.0
 10
28391.728496247753
 20
2287.5063414963324
 10
27900.0
 20
2287.5063414963324
  0
LWPOLYLINE
  5
A0
330
17
100
AcDbEntity
  8
PARTS
100
AcDbPolyline
 90
4
 70
1
 10
28800.0
 20
1800.0
 10
29027.171155106153
 20
1800.0
 10
29027.171155106153
 20
2220.1692272718033
 10
28800.0
 20
2220.1692272718033
  0
LWPOLYLINE
  5
A1
330
17
100
AcDbEntity
  8
PARTS
100
AcDbPolyline
 90
4
 70
1
 10
29700.0
 20
1800.0
 10
29835.01321784397
 20
1800.0
 10
29835.01321784397
 20
1888.8306216567855
 10
29700.0
 20
1888.8306216567855
  0
LWPOLYLINE
  5
A2
330
17
100
AcDbEntity
  8
PARTS
100
AcDbPolyline
 90
4
 70
1
 10
30600.0
 20
1800.0
 10
31087.77387443986
 20
1800.0
 10
31087.77387443986
 20
2282.798295197775
 10
30600.0
 20
2282.798295197775
  0
LWPOLYLINE
  5
A3
330
17
100
AcDbEntity
  8
PARTS
100
AcDbPolyline
 90
4
 70
1
 10
31500.0
 20
1800.0
 10
31801.164039781605
 20
1800.0
 10
31801.164039781605
 20
2458.8473791356046
 10
31500.0
 20
2458.8473791356046
  0
LWPOLYLINE
  5
A4
330
17
100
AcDbEntity
  8
PARTS
100
AcDbPolyline
 90
4
 70
1
 10
32400.0
 20
1800.0
 10
32662.199963438143
 20
1800.0
 10
32662.199963438143
 20
2420.4806153534305
 10
32400.0
 20
2420.4806153534305
  0
LWPOLYLINE
  5
A5
330
17
100
AcDbEntity
  8
PARTS
100
AcDbPolyline
 90
4
 70
1
 10
33300.0
 20
1800.0
 10
33726.985205762394
 20
1800.0
 10
33726.985205762394
 20
2010.8462491434523
 10
33300.0
 20
2010.8462491434523
  0
LWPOLYLINE
  5
A6
330
17
100
AcDbEntity
  8
PARTS
100
AcDbPolyline
 90
4
 70
1
 10
34200.0
 20
1800.0
 10
34385.77062077349
 20
1800.0
 10
34385.77062077349
 20
2061.639324655536
 10
34200.0
 20
2061.639324655536
  0
LWPOLYLINE
  5
A7
330
17
100
AcDbEntity
  8
PARTS
100
AcDbPolyline
 90
4
 70
1
 10
35100.0
 20
1800.0
 10
35281.0265448745
 20
1800.0
 10
35281.0265448745
 20
2243.5910442628965
 10
35100.0
 20
2243.5910442628965
  0
LWPOLYLINE
  5
A8
330
17
100
AcDbEntity
  8
PARTS
100
AcDbPolyline
 90
4
 70
1
 10
0.0
 20
2700.0
 10
188.93321401348828
 20
2700.0
 10
188.93321401348828
 20
3039.787782707817
 10
0.0
 20
3039.787782707817
  0
LWPOLYLINE
  5
A9
330
17
100
AcDbEntity
  8
PARTS
100
AcDbPolyline
 90
4
 70
1
 10
900.0
 20
2700.0
 10
1035.050944131463
 20
2700.0
 10
1035.050944131463
 20
3344.210574915645
 10
900.0
 20
3344.210574915645
  0
LWPOLYLINE
  5
AA
330
17
100
AcDbEntity
  8
PARTS
100
AcDbPolyline
 90
4
 70
1
 10
1800.0
 20
2700.0
 10
2028.5892900603687
 20
2700.0
 10
2028.5892900603687
 20
3064.0598116124747
 10
1800.0
 20
3064.0598116124747
  0
LWPOLYLINE
  5
AB
330
17
100
AcDbEntity
  8
PARTS
100
AcDbPolyline
 90
4
 70
1
 10
2700.0
 20
2700.0
 10
3025.006484257577
 20
2700.0
 10
3025.006484257577
 20
3340.664000216065
 10
2700.0
 20
3340.664000216065
  0
LWPOLYLINE
  5
AC
330
17
100
AcDbEntity
  8
PARTS
100
AcDbPolyline
 90
4
 70
1
 10
3600.0
 20
2700.0
 10
3856.6638736978075
 20
2700.0
 10
3856.6638736978075
 20
3348.987072292452
 10
3600.0
 20
3348.987072292452
  0
LWPOLYLINE
  5
AD
330
17
100
AcDbEntity
  8
PARTS
100
AcDbPolyline
 90
4
 70
1
 10
4500.0
 20
2700.0
 10
4790.692555270497
 20
2700.0
 10
4790.692555270497
 20
3109.731476710279
 10
4500.0
 20
3109.731476710279
  0
LWPOLYLINE
  5
AE
330
17
100
AcDbEntity
  8
PARTS
100
AcDbPolyline
 90
4
 70
1
 10
5400.0
 20
2700.0
 10
5699.872765946609
 20
2700.0
 10
5699.872765946609
 20
2791.5970181013604
 10
5400.0
 20
2791.5970181013604
  0
LWPOLYLINE
  5
AF
330
17
100
AcDbEntity
  8
PARTS
100
AcDbPolyline
 90
4
 70
1
 10
6300.0
 20
2700.0
 10
6564.852463201676
 20
2700.0
 10
6564.852463201676
 20
2893.5268901087634
 10
6300.0
 20
2893.5268901087634
  0
LWPOLYLINE
  5
B0
330
17
100
AcDbEntity
  8
PARTS
100
AcDbPolyline
 90
4
 70
1
 10
7200.0
 20
2700.0
 10
7281.65164236677
 20
2700.0
 10
7281.65164236677
 20
3275.4856793051777
 10
7200.0
 20
3275.4856793051777
  0
LWPOLYLINE
  5
B1
330
17
100
AcDbEntity
  8
PARTS
100
AcDbPolyline
 90
4
 70
1
 10
8100.0
 20
2700.0
 10
8252.385619129649
 20
2700.0
 10
8252.385619129649
 20
3073.565618126413
 10
8100.0
 20
3073.565618126413
  0
LWPOLYLINE
  5
B2
330
17
100
AcDbEntity
  8
PARTS
100
AcDbPolyline
 90
4
 70
1
 10
9000.0
 20
2700.0
 10
9384.581173587898
 20
2700.0
 10
9384.581173587898
 20
3125.014887439372
 10
9000.0
 20
3125.014887439372
  0
LWPOLYLINE
  5
B3
330
17
100
AcDbEntity
  8
PARTS
100
AcDbPolyline
 90
4
 70
1
 10
9900.0
 20
2700.0
 10
10116.912503440522
 20
2700.0
 10
10116.912503440522
 20
3101.376201875883
 10
9900.0
 20
3101.376201875883
  0
LWPOLYLINE
  5
B4
330
17
100
AcDbEntity
  8
PARTS
100
AcDbPolyline
 90
4
 70
1
 10
10800.0
 20
2700.0
 10
11113.285587449704
 20
2700.0
 10
11113.285587449704
 20
3266.2489347265946
 10
10800.0
 20
3266.2489347265946
  0
LWPOLYLINE
  5
B5
330
17
100
AcDbEntity
  8
PARTS
100
AcDbPolyline
 90
4
 70
1
 10
11700.0
 20
2700.0
 10
11824.565955184069
 20
2700.0
 10
11824.565955184069
 20
3127.3836028220503
 10
11700.0
 20
3127.3836028220503
  0
LWPOLYLINE
  5
B6
330
17
100
AcDbEntity
  8
PARTS
100
AcDbPolyline
 90
4
 70
1
 10
12600.0
 20
2700.0
 10
12784.367614838098
 20
2700.0
 10
12784.367614838098
 20
2951.6885836881647
 10
12600.0
 20
2951.6885836881647
  0
LWPOLYLINE
  5
B7
330
17
100
AcDbEntity
  8
PARTS
100
AcDbPolyline
 90
4
 70
1
 10
13500.0
 20
2700.0
 10
13904.349661477305
 20
2700.0
 10
13904.349661477305
 20
3094.7826749112387
 10
13500.0
 20
3094.7826749112387
  0
LWPOLYLINE
  5
B8
330
17
100
AcDbEntity
  8
PARTS
100
AcDbPolyline
 90
4
 70
1
 10
14400.0
 20
2700.0
 10
14715.92634239572
 20
2700.0
 10
14715.92634239572
 20
3251.1957484058103
 10
14400.0
 20
3251.1957484058103
  0
LWPOLYLINE
  5
B9
330
17
100
AcDbEntity
  8
PARTS
100
AcDbPolyline
 90
4
 70
1
 10
15300.0
 20
2700.0
 10
15763.244975258522
 20
2700.0
 10
15763.244975258522
 20
3054.814004018012
 10
15300.0
 20
3054.814004018012
  0
LWPOLYLINE
  5
BA
330
17
100
AcDbEntity
  8
PARTS
100
AcDbPolyline
 90
4
 70
1
 10
16200.0
 20
2700.0
 10
16537.261711424675
 20
2700.0
 10
16537.261711424675
 20
3093.4429411277574
 10
16200.0
 20
3093.4429411277574
  0
LWPOLYLINE
  5
BB
330
17
100
AcDbEntity
  8
PARTS
100
AcDbPolyline
 90
4
 70
1
 10
17100.0
 20
2700.0
 10
17395.107818422835
 20
2700.0
 10
17395.107818422835
 20
3209.493221579902
 10
17100.0
 20
3209.493221579902
  0
LWPOLYLINE
  5
BC
330
17
100
AcDbEntity
  8
PARTS
100
AcDbPolyline
 90
4
 70
1
 10
18000.0
 20
2700.0
 10
18269.985232751264
 20
2700.0
 10
18269.985232751264
 20
3110.636971299086
 10
18000.0
 20
3110.636971299086
  0
LWPOLYLINE
  5
BD
330
17
100
AcDbEntity
  8
PARTS
100
AcDbPolyline
 90
4
 70
1
 10
18900.0
 20
2700.0
 10
19180.775253573476
 20
2700.0
 10
19180.775253573476
 20
3363.7306990738703
 10
18900.0
 20
3363.7306990738703
  0
LWPOLYLINE
  5
BE
330
17
100
AcDbEntity
  8
PARTS
100
AcDbPolyline
 90
4
 70
1
 10
19800.0
 20
2700.0
 10
20173.67151051572
 20
2700.0
 10
20173.67151051572
 20
3323.451998703968
 10
19800.0
 20
3323.451998703968
  0
LWPOLYLINE
  5
BF
330
17
100
AcDbEntity
  8
PARTS
100
AcDbPolyline
 90
4
 70
1
 10
20700.0
 20
2700.0
 10
21175.7158470875
 20
2700.0
 10
21175.7158470875
 20
2940.9472223529683
 10
20700.0
 20
2940.9472223529683
  0
LWPOLYLINE
  5
C0
330
17
100
AcDbEntity
  8
PARTS
100
AcDbPolyline
 90
4
 70
1
 10
21600.0
 20
2700.0
 10
21914.99579872904
 20
2700.0
 10
21914.99579872904
 20
3364.82556108836
 10
21600.0
 20
3364.82556108836
  0
LWPOLYLINE
  5
C1
330
17
100
AcDbEntity
  8
PARTS
100
AcDbPolyline
 90
4
 70
1
 10
22500.0
 20
2700.0
 10
22932.799909025147
 20
2700.0
 10
22932.799909025147
 20
2865.0233502560477
 10
22500.0
 20
2865.0233502560477
  0
LWPOLYLINE
  5
C2
330
17
100
AcDbEntity
  8
PARTS
100
AcDbPolyline
 90
4
 70
1
 10
23400.0
 20
2700.0
 10
23531.081220841355
 20
2700.0
 10
23531.081220841355
 20
3054.113214730527
 10
23400.0
 20
3054.113214730527
  0
LWPOLYLINE
  5
C3
330
17
100
AcDbEntity
  8
PARTS
100
AcDbPolyline
 90
4
 70
1
 10
24300.0
 20
2700.0
 10
24410.469361855725
 20
2700.0
 10
24410.469361855725
 20
2929.1960302410275
 10
24300.0
 20
2929.1960302410275
  0
LWPOLYLINE
  5
C4
330
17
100
AcDbEntity
  8
PARTS
100
AcDbPolyline
 90
4
 70
1
 10
25200.0
 20
2700.0
 10
25310.710722128522
 20
2700.0
 10
25310.710722128522
 20
3195.0727300921353
 10
25200.0
 20
3195.0727300921353
  0
LWPOLYLINE
  5
C5
330
17
100
AcDbEntity
  8
PARTS
100
AcDbPolyline
 90
4
 70
1
 10
26100.0
 20
2700.0
 10
26509.253127212723
 20
2700.0
 10
26509.253127212723
 20
3336.1563883848353
 10
26100.0
 20
3336.1563883848353
  0
LWPOLYLINE
  5
C6
330
17
100
AcDbEntity
  8
PARTS
100
AcDbPolyline
 90
4
 70
1
 10
27000.0
 20
2700.0
 10
27144.86758198285
 20
2700.0
 10
27144.86758198285
 20
3223.9943273286817
 10
27000.0
 20
3223.9943273286817
  0
LWPOLYLINE
  5
C7
330
17
100
AcDbEntity
  8
PARTS
100
AcDbPolyline
 90
4
 70
1
 10
27900.0
 20
2700.0
 10
28257.307736380375
 20
2700.0
 10
28257.307736380375
 20
2868.6469787130272
 10
27900.0
 20
2868.6469787130272
  0
LWPOLYLINE
  5
C8
330
17
100
AcDbEntity
  8
PARTS
100
AcDbPolyline
 90
4
 70
1
 10
28800.0
 20
2700.0
 10
29250.789790135972
 20
2700.0
 10
29250.789790135972
 20
3379.877765253158
 10
28800.0
 20
3379.877765253158
  0
LWPOLYLINE
  5
C9
330
17
100
AcDbEntity
  8
PARTS
100
AcDbPolyline
 90
4
 70
1
 10
29700.0
 20
2700.0
 10
29872.226888936806
 20
2700.0
 10
29872.226888936806
 20
3370.5525599297716
 10
29700.0
 20
3370.5525599297716
  0
LWPOLYLINE
  5
CA
330
17
100
AcDbEntity
  8
PARTS
100
AcDbPolyline
 90
4
 70
1
 10
30600.0
 20
2700.0
 10
30847.267887381255
 20
2700.0
 10
30847.267887381255
 20
3082.1016804943456
 10
30600.0
 20
3082.1016804943456
  0
LWPOLYLINE
  5
CB
330
17
100
AcDbEntity
  8
PARTS
100
AcDbPolyline
 90
4
 70
1
 10
31500.0
 20
2700.0
 10
31995.7460109926
 20
2700.0
 10
31995.7460109926
 20
3296.1156950794275
 10
31500.0
 20
3296.1156950794275
  0
LWPOLYLINE
  5
CC
330
17
100
AcDbEntity
  8
PARTS
100
AcDbPolyline
 90
4
 70
1
 10
32400.0
 20
2700.0
 10
32547.81574514997
 20
2700.0
 10
32547.81574514997
 20
3047.543527158536
 10
32400.0
 20
3047.543527158536
  0
LWPOLYLINE
  5
CD
330
17
100
AcDbEntity
  8
PARTS
100
AcDbPolyline
 90
4
 70
1
 10
33300.0
 20
2700.0
 10
33596.55412427783
 20
2700.0
 10
33596.55412427783
 20
2990.2520094900683
 10
33300.0
 20
2990.2520094900683
  0
LWPOLYLINE
  5
CE
330
17
100
AcDbEntity
  8
PARTS
100
AcDbPolyline
 90
4
 70
1
 10
34200.0
 20
2700.0
 10
34362.21275977625
 20
2700.0
 10
34362.21275977625
 20
2977.48585236937
 10
34200.0
 20
2977.48585236937
  0
LWPOLYLINE
  5
CF
330
17
100
AcDbEntity
  8
PARTS
100
AcDbPolyline
 90
4
 70
1
 10
35100.0
 20
2700.0
 10
35483.3033507593
 20
2700.0
 10
35483.3033507593
 20
2792.079415392484
 10
35100.0
 20
2792.079415392484
  0
LWPOLYLINE
  5
D0
330
17
100
AcDbEntity
  8
PARTS
100
AcDbPolyline
 90
4
 70
1
 10
0.0
 20
3600.0
 10
312.7011040794978
 20
3600.0
 10
312.7011040794978
 20
3953.0840231176753
 10
0.0
 20
3953.0840231176753
  0
LWPOLYLINE
  5
D1
330
17
100
AcDbEntity
  8
PARTS
100
AcDbPolyline
 90
4
 70
1
 10
900.0
 20
3600.0
 10
987.5944319473558
 20
3600.0
 10
987.5944319473558
 20
3885.528691268034
 10
900.0
 20
3885.528691268034
  0
LWPOLYLINE
  5
D2
330
17
100
AcDbEntity
  8
PARTS
100
AcDbPolyline
 90
4
 70
1
 10
1800.0
 20
3600.0
 10
2142.0493710345827
 20
3600.0
 10
2142.0493710345827
 20
3997.6026163673423
 10
1800.0
 20
3997.6026163673423
  0
LWPOLYLINE
  5
D3
330
17
100
AcDbEntity
  8
PARTS
100
AcDbPolyline
 90
4
 70
1
 10
2700.0
 20
3600.0
 10
2807.0021328881157
 20
3600.0
 10
2807.0021328881157
 20
4290.751611363142
 10
2700.0
 20
4290.751611363142
  0
LWPOLYLINE
  5
D4
330
17
100
AcDbEntity
  8
PARTS
100
AcDbPolyline
 90
4
 70
1
 10
3600.0
 20
3600.0
 10
4011.112483560984
 20
3600.0
 10
4011.112483560984
 20
4282.451494361186
 10
3600.0
 20
4282.451494361186
  0
LWPOLYLINE
  5
D5
330
17
100
AcDbEntity
  8
PARTS
100
AcDbPolyline
 90
4
 70
1
 10
4500.0
 20
3600.0
 10
4624.00742959459
 20
3600.0
 10
4624.00742959459
 20
3844.6498488529824
 10
4500.0
 20
3844.6498488529824
  0
LWPOLYLINE
  5
D6
330
17
100
AcDbEntity
  8
PARTS
100
AcDbPolyline
 90
4
 70
1
 10
5400.0
 20
3600.0
 10
5496.627039763908
 20
3600.0
 10
5496.627039763908
 20
4162.978406642093
 10
5400.0
 20
4162.978406642093
  0
LWPOLYLINE
  5
D7
330
17
100
AcDbEntity
  8
PARTS
100
AcDbPolyline
 90
4
 70
1
 10
6300.0
 20
3600.0
 10
6493.58736095895
 20
3600.0
 10
6493.58736095895
 20
3760.32444676952
 10
6300.0
 20
3760.32444676952
  0
LWPOLYLINE
  5
D8
330
17
100
AcDbEntity
  8
PARTS
100
AcDbPolyline
 90
4
 70
1
 10
7200.0
 20
3600.0
 10
7457.346756136618
 20
3600.0
 10
7457.346756136618
 20
4245.0765660338375
 10
7200.0
 20
4245.0765660338375
  0
LWPOLYLINE
  5
D9
330
17
100
AcDbEntity
  8
PARTS
100
AcDbPolyline
 90
4
 70
1
 10
8100.0
 20
3600.0
 10
8523.971171508138
 20
3600.0
 10
8523.971171508138
 20
3840.3375891721817
 10
8100.0
 20
3840.3375891721817
  0
LWPOLYLINE
  5
DA
330
17
100
AcDbEntity
  8
PARTS
100
AcDbPolyline
 90
4
 70
1
 10
9000.0
 20
3600.0
 10
9142.734537909713
 20
3600.0
 10
9142.734537909713
 20
4249.886335277299
 10
9000.0
 20
4249.886335277299
  0
LWPOLYLINE
  5
DB
330
17
100
AcDbEntity
  8
PARTS
100
AcDbPolyline
 90
4
 70
1
 10
9900.0
 20
3600.0
 10
10219.649868665167
 20
3600.0
 10
10219.649868665167
 20
4114.258816858903
 10
9900.0
 20
4114.258816858903
  0
LWPOLYLINE
  5
DC
330
17
100
AcDbEntity
  8
PARTS
100
AcDbPolyline
 90
4
 70
1
 10
10800.0
 20
3600.0
 10
10917.574127295658
 20
3600.0
 10
10917.574127295658
 20
3715.6664377133866
 10
10800.0
 20
3715.6664377133866
  0
LWPOLYLINE
  5
DD
330
17
100
AcDbEntity
  8
PARTS
100
AcDbPolyline
 90
4
 70
1
 10
11700.0
 20
3600.0
 10
12069.04633996639
 20
3600.0
 10
12069.04633996639
 20
3943.696565293348
 10
11700.0
 20
3943.696565293348
  0
LWPOLYLINE
  5
DE
330
17
100
AcDbEntity
  8
PARTS
100
AcDbPolyline
 90
4
 70
1
 10
12600.0
 20
3600.0
 10
12710.41391978374
 20
3600.0
 10
12710.41391978374
 20
4261.776819604901
 10
12600.0
 20
4261.776819604901
  0
LWPOLYLINE
  5
DF
330
17
100
AcDbEntity
  8
PARTS
100
AcDbPolyline
 90
4
 70
1
 10
13500.0
 20
3600.0
 10
13846.464592644556
 20
3600.0
 10
13846.464592644556
 20
4177.009726774262
 10
13500.0
 20
4177.009726774262
  0
LWPOLYLINE
  5
E0
330
17
100
AcDbEntity
  8
PARTS
100
AcDbPolyline
 90
4
 70
1
 10
14400.0
 20
3600.0
 10
14515.171861018498
 20
3600.0
 10
14515.171861018498
 20
4210.861754550732
 10
14400.0
 20
4210.861754550732
  0
LWPOLYLINE
  5
E1
330
17
100
AcDbEntity
  8
PARTS
100
AcDbPolyline
 90
4
 70
1
 10
15300.0
 20
3600.0
 10
15407.981464647273
 20
3600.0
 10
15407.981464647273
 20
4214.9204808133845
 10
15300.0
 20
4214.9204808133845
  0
LWPOLYLINE
  5
E2
330
17
100
AcDbEntity
  8
PARTS
100
AcDbPolyline
 90
4
 70
1
 10
16200.0
 20
3600.0
 10
16470.58487880863
 20
3600.0
 10
16470.58487880863
 20
3890.2741019164746
 10
16200.0
 20
3890.2741019164746
  0
LWPOLYLINE
  5
E3
330
17
100
AcDbEntity
  8
PARTS
100
AcDbPolyline
 90
4
 70
1
 10
17100.0
 20
3600.0
 10
17412.286929752376
 20
3600.0
 10
17412.286929752376
 20
4254.534956124161
 10
17100.0
 20
4254.534956124161
  0
LWPOLYLINE
  5
E4
330
17
100
AcDbEntity
  8
PARTS
100
AcDbPolyline
 90
4
 70
1
 10
18000.0
 20
3600.0
 10
18192.50109360453
 20
3600.0
 10
18192.50109360453
 20
3760.119375935104
 10
18000.0
 20
3760.119375935104
  0
LWPOLYLINE
  5
E5
330
17
100
AcDbEntity
  8
PARTS
100
AcDbPolyline
 90
4
 70
1
 10
18900.0
 20
3600.0
 10
19201.30431114141
 20
3600.0
 10
19201.30431114141
 20
3827.8304250660394
 10
18900.0
 20
3827.8304250660394
  0
LWPOLYLINE
  5
E6
330
17
100
AcDbEntity
  8
PARTS
100
AcDbPolyline
 90
4
 70
1
 10
19800.0
 20
3600.0
 10
19925.9696153333
 20
3600.0
 10
19925.9696153333
 20
3780.098436790519
 10
19800.0
 20
3780.098436790519
  0
LWPOLYLINE
  5
E7
330
17
100
AcDbEntity
  8
PARTS
100
AcDbPolyline
 90
4
 70
1
 10
20700.0
 20
3600.0
 10
20801.159481228005
 20
3600.0
 10
20801.159481228005
 20
3805.09631423647
 10
20700.0
 20
3805.09631423647
  0
LWPOLYLINE
  5
E8
330
17
100
AcDbEntity
  8
PARTS
100
AcDbPolyline
 90
4
 70
1
 10
21600.0
 20
3600.0
 10
21811.03680971296
 20
3600.0
 10
21811.03680971296
 20
3869.1033466851204
 10
21600.0
 20
3869.1033466851204
  0
LWPOLYLINE
  5
E9
330
17
100
AcDbEntity
  8
PARTS
100
AcDbPolyline
 90
4
 70
1
 10
22500.0
 20
3600.0
 10
22898.989267099394
 20
3600.0
 10
22898.989267099394
 20
3859.775717529102
 10
22500.0
 20
3859.775717529102
  0
LWPOLYLINE
  5
EA
330
17
100
AcDbEntity
  8
PARTS
100
AcDbPolyline
 90
4
 70
1
 10
23400.0
 20
3600.0
 10
23690.037211941974
 20
3600.0
 10
23690.037211941974
 20
3790.297928212016
 10
23400.0
 20
3790.297928212016
  0
LWPOLYLINE
  5
EB
330
17
100
AcDbEntity
  8
PARTS
100
AcDbPolyline
 90
4
 70
1
 10
24300.0
 20
3600.0
 10
24525.7404292937
 20
3600.0
 10
24525.7404292937
 20
3691.2611265226406
 10
24300.0
 20
3691.2611265226406
  0
LWPOLYLINE
  5
EC
330
17
100
AcDbEntity
  8
PARTS
100
AcDbPolyline
 90
4
 70
1
 10
25200.0
 20
3600.0
 10
25385.188477601994
 20
3600.0
 10
25385.188477601994
 20
3689.5145928221123
 10
25200.0
 20
3689.5145928221123
  0
LWPOLYLINE
  5
ED
330
17
100
AcDbEntity
  8
PARTS
100
AcDbPolyline
 90
4
 70
1
 10
26100.0
 20
3600.0
 10
26487.89376104157
 20
3600.0
 10
26487.89376104157
 20
4021.6504593669774
 10
26100.0
 20
4021.6504593669774
  0
LWPOLYLINE
  5
EE
330
17
100
AcDbEntity
  8
PARTS
100
AcDbPolyline
 90
4
 70
1
 10
27000.0
 20
3600.0
 10
27159.571728527386
 20
3600.0
 10
27159.571728527386
 20
3974.351595880995
 10
27000.0
 20
3974.351595880995
  0
LWPOLYLINE
  5
EF
330
17
100
AcDbEntity
  8
PARTS
100
AcDbPolyline
 90
4
 70
1
 10
27900.0
 20
3600.0
 10
28372.549992708588
 20
3600.0
 10
28372.549992708588
 20
3745.8944339167965
 10
27900.0
 20
3745.8944339167965
  0
LWPOLYLINE
  5
F0
330
17
100
AcDbEntity
  8
PARTS
100
AcDbPolyline
 90
4
 70
1
 10
28800.0
 20
3600.0
 10
29223.94645894352
 20
3600.0
 10
29223.94645894352
 20
3947.950103186338
 10
28800.0
 20
3947.950103186338
  0
LWPOLYLINE
  5
F1
330
17
100
AcDbEntity
  8
PARTS
100
AcDbPolyline
 90
4
 70
1
 10
29700.0
 20
3600.0
 10
29987.9006608522
 20
3600.0
 10
29987.9006608522
 20
4197.460638664738
 10
29700.0
 20
4197.460638664738
  0
LWPOLYLINE
  5
F2
330
17
100
AcDbEntity
  8
PARTS
100
AcDbPolyline
 90
4
 70
1
 10
30600.0
 20
3600.0
 10
30845.096151735866
 20
3600.0
 10
30845.096151735866
 20
3994.145290336203
 10
30600.0
 20
3994.145290336203
  0
LWPOLYLINE
  5
F3
330
17
100
AcDbEntity
  8
PARTS
100
AcDbPolyline
 90
4
 70
1
 10
31500.0
 20
3600.0
 10
31868.85152899009
 20
3600.0
 10
31868.85152899009
 20
4289.113135057174
 10
31500.0
 20
4289.113135057174
  0
LWPOLYLINE
  5
F4
330
17
100
AcDbEntity
  8
PARTS
100
AcDbPolyline
 90
4
 70
1
 10
32400.0
 20
3600.0
 10
32623.93594267534
 20
3600.0
 10
32623.93594267534
 20
4196.0176568239585
 10
32400.0
 20
4196.0176568239585
  0
LWPOLYLINE
  5
F5
330
17
100
AcDbEntity
  8
PARTS
100
AcDbPolyline
 90
4
 70
1
 10
33300.0
 20
3600.0
 10
33676.82466869141
 20
3600.0
 10
33676.82466869141
 20
4074.305708308709
 10
33300.0
 20
4074.305708308709
  0
LWPOLYLINE
  5
F6
330
17
100
AcDbEntity
  8
PARTS
100
AcDbPolyline
 90
4
 70
1
 10
34200.0
 20
3600.0
 10
34449.97303765688
 20
3600.0
 10
34449.97303765688
 20
3895.4823516962438
 10
34200.0
 20
3895.4823516962438
  0
LWPOLYLINE
  5
F7
330
17
100
AcDbEntity
  8
PARTS
100
AcDbPolyline
 90
4
 70
1
 10
35100.0
 20
3600.0
 10
35202.843185451144
 20
3600.0
 10
35202.843185451144
 20
3760.4875203135475
 10
35100.0
 20
3760.4875203135475
  0
LWPOLYLINE
  5
F8
330
17
100
AcDbEntity
  8
PARTS
100
AcDbPolyline
 90
4
 70
1
 10
0.0
 20
4500.0
 10
109.70358254528259
 20
4500.0
 10
109.70358254528259
 20
5039.351302873415
 10
0.0
 20
5039.351302873415
  0
LWPOLYLINE
  5
F9
330
17
100
AcDbEntity
  8
PARTS
100
AcDbPolyline
 90
4
 70
1
 10
900.0
 20
4500.0
 10
1087.3494282432728
 20
4500.0
 10
1087.3494282432728
 20
4681.212842571353
 10
900.0
 20
4681.212842571353
  0
LWPOLYLINE
  5
FA
330
17
100
AcDbEntity
  8
PARTS
100
AcDbPolyline
 90
4
 70
1
 10
1800.0
 20
4500.0
 10
1915.483646537331
 20
4500.0
 10
1915.483646537331
 20
5101.586768747469
 10
1800.0
 20
5101.586768747469
  0
LWPOLYLINE
  5
FB
330
17
100
AcDbEntity
  8
PARTS
100
AcDbPolyline
 90
4
 70
1
 10
2700.0
 20
4500.0
 10
3145.6258849240544
 20
4500.0
 10
3145.6258849240544
 20
4995.7368447033805
 10
2700.0
 20
4995.7368447033805
  0
LWPOLYLINE
  5
FC
330
17
100
AcDbEntity
  8
PARTS
100
AcDbPolyline
 90
4
 70
1
 10
3600.0
 20
4500.0
 10
3798.4119785687844
 20
4500.0
 10
3798.4119785687844
 20
4730.172019075341
 10
3600.0
 20
4730.172019075341
  0
LWPOLYLINE
  5
FD
330
17
100
AcDbEntity
  8
PARTS
100
AcDbPolyline
 90
4
 70
1
 10
4500.0
 20
4500.0
 10
4703.084566883741
 20
4500.0
 10
4703.084566883741
 20
4864.8608249047265
 10
4500.0
 20
4864.8608249047265
  0
LWPOLYLINE
  5
FE
330
17
100
AcDbEntity
  8
PARTS
100
AcDbPolyline
 90
4
 70
1
 10
5400.0
 20
4500.0
 10
5546.163834728266
 20
4500.0
 10
5546.163834728266
 20
4856.411257104919
 10
5400.0
 20
4856.411257104919
  0
LWPOLYLINE
  5
FF
330
17
100
AcDbEntity
  8
PARTS
100
AcDbPolyline
 90
4
 70
1
 10
6300.0
 20
4500.0
 10
6490.562088138903
 20
4500.0
 10
6490.562088138903
 20
5176.30765068482
 10
6300.0
 20
5176.30765068482
  0
LWPOLYLINE
  5
100
330
17
100
AcDbEntity
  8
PARTS
100
AcDbPolyline
 90
4
 70
1
 10
7200.0
 20
4500.0
 10
7688.501659137478
 20
4500.0
 10
7688.501659137478
 20
4919.185491953724
 10
7200.0
 20
4919.185491953724
  0
LWPOLYLINE
  5
101
330
17
100
AcDbEntity
  8
PARTS
100
AcDbPolyline
 90
4
 70
1
 10
8100.0
 20
4500.0
 10
8282.667527455595
 20
4500.0
 10
8282.667527455595
 20
5178.713397436447
 10
8100.0
 20
5178.713397436447
  0
LWPOLYLINE
  5
102
330
17
100
AcDbEntity
  8
PARTS
100
AcDbPolyline
 90
4
 70
1
 10
9000.0
 20
4500.0
 10
9210.01012542474
 20
4500.0
 10
9210.01012542474
 20
4801.082028548672
 10
9000.0
 20
4801.082028548672
  0
LWPOLYLINE
  5
103
330
17
100
AcDbEntity
  8
PARTS
100
AcDbPolyline
 90
4
 70
1
 10
9900.0
 20
4500.0
 10
9980.448944276868
 20
4500.0
 10
9980.448944276868
 20
4816.608496099801
 10
9900.0
 20
4816.608496099801
  0
LWPOLYLINE
  5
104
330
17
100
AcDbEntity
  8
PARTS
100
AcDbPolyline
 90
4
 70
1
 10
10800.0
 20
4500.0
 10
11079.350323506818
 20
4500.0
 10
11079.350323506818
 20
4891.713683953368
 10
10800.0
 20
4891.713683953368
  0
LWPOLYLINE
  5
105
330
17
100
AcDbEntity
  8
PARTS
100
AcDbPolyline
 90
4
 70
1
 10
11700.0
 20
4500.0
 10
11864.411622764434
 20
4500.0
 10
11864.411622764434
 20
4892.936096498874
 10
11700.0
 20
4892.936096498874
  0
LWPOLYLINE
  5
106
330
17
100
AcDbEntity
  8
PARTS
100
AcDbPolyline
 90
4
 70
1
 10
12600.0
 20
4500.0
 10
12682.079223231656
 20
4500.0
 10
12682.079223231656
 20
4743.784585197028
 10
12600.0
 20
4743.784585197028
  0
LWPOLYLINE
  5
107
330
17
100
AcDbEntity
  8
PARTS
100
AcDbPolyline
 90
4
 70
1
 10
13500.0
 20
4500.0
 10
13617.696427110011
 20
4500.0
 10
13617.696427110011
 20
4827.696925579134
 10
13500.0
 20
4827.696925579134
  0
LWPOLYLINE
  5
108
330
17
100
AcDbEntity
  8
PARTS
100
AcDbPolyline
 90
4
 70
1
 10
14400.0
 20
4500.0
 10
14497.500122230284
 20
4500.0
 10
14497.500122230284
 20
4593.946371121559
 10
14400.0
 20
4593.946371121559
  0
LWPOLYLINE
  5
109
330
17
100
AcDbEntity
  8
PARTS
100
AcDbPolyline
 90
4
 70
1
 10
15300.0
 20
4500.0
 10
15507.782715294223
 20
4500.0
 10
15507.782715294223
 20
4724.3419312863
 10
15300.0
 20
4724.3419312863
  0
LWPOLYLINE
  5
10A
330
17
100
AcDbEntity
  8
PARTS
100
AcDbPolyline
 90
4
 70
1
 10
16200.0
 20
4500.0
 10
16525.944979356285
 20
4500.0
 10
16525.944979356285
 20
4908.097519941728
 10
16200.0
 20
4908.097519941728
  0
LWPOLYLINE
  5
10B
330
17
100
AcDbEntity
  8
PARTS
100
AcDbPolyline
 90
4
 70
1
 10
17100.0
 20
4500.0
 10
17495.227064678118
 20
4500.0
 10
17495.227064678118
 20
4987.677077453857
 10
17100.0
 20
4987.677077453857
  0
LWPOLYLINE
  5
10C
330
17
100
AcDbEntity
  8
PARTS
100
AcDbPolyline
 90
4
 70
1
 10
18000.0
 20
4500.0
 10
18380.71724481357
 20
4500.0
 10
18380.71724481357
 20
5125.036230011781
 10
18000.0
 20
5125.036230011781
  0
LWPOLYLINE
  5
10D
330
17
100
AcDbEntity
  8
PARTS
100
AcDbPolyline
 90
4
 70
1
 10
18900.0
 20
4500.0
 10
19143.59691784539
 20
4500.0
 10
19143.59691784539
 20
4782.203547558337
 10
18900.0
 20
4782.203547558337
  0
LWPOLYLINE
  5
10E
330
17
100
AcDbEntity
  8
PARTS
100
AcDbPolyline
 90
4
 70
1
 10
19800.0
 20
4500.0
 10
20293.586215731204
 20
4500.0
 10
20293.586215731204
 20
4672.667152406197
 10
19800.0
 20
4672.667152406197
  0
LWPOLYLINE
  5
10F
330
17
100
AcDbEntity
  8
PARTS
100
AcDbPolyline
 90
4
 70
1
 10
20700.0
 20
4500.0
 10
21084.145424811966
 20
4500.0
 10
21084.145424811966
 20
4978.796058816808
 10
20700.0
 20
4978.796058816808
  0
LWPOLYLINE
  5
110
330
17
100
AcDbEntity
  8
PARTS
100
AcDbPolyline
 90
4
 70
1
 10
21600.0
 20
4500.0
 10
21698.390988010466
 20
4500.0
 10
21698.390988010466
 20
5097.879516805014
 10
21600.0
 20
5097.879516805014
  0
LWPOLYLINE
  5
111
330
17
100
AcDbEntity
  8
PARTS
100
AcDbPolyline
 90
4
 70
1
 10
22500.0
 20
4500.0
 10
22954.615789468975
 20
4500.0
 10
22954.615789468975
 20
4968.9459170857945
 10
22500.0
 20
4968.9459170857945
  0
LWPOLYLINE
  5
112
330
17
100
AcDbEntity
  8
PARTS
100
AcDbPolyline
 90
4
 70
1
 10
23400.0
 20
4500.0
 10
23788.217891860324
 20
4500.0
 10
23788.217891860324
 20
5083.575727741684
 10
23400.0
 20
5083.575727741684
  0
LWPOLYLINE
  5
113
330
17
100
AcDbEntity
  8
PARTS
100
AcDbPolyline
 90
4
 70
1
 10
24300.0
 20
4500.0
 10
24438.509196208066
 20
4500.0
 10
24438.509196208066
 20
4904.72951640768
 10
24300.0
 20
4904.72951640768
  0
LWPOLYLINE
  5
114
330
17
100
AcDbEntity
  8
PARTS
100
AcDbPolyline
 90
4
 70
1
 10
25200.0
 20
4500.0
 10
25491.835841527292
 20
4500.0
 10
25491.835841527292
 20
5097.661307930956
 10
25200.0
 20
5097.661307930956
  0
LWPOLYLINE
  5
115
330
17
100
AcDbEntity
  8
PARTS
100
AcDbPolyline
 90
4
 70
1
 10
26100.0
 20
4500.0
 10
26517.964594414483
 20
4500.0
 10
26517.964594414483
 20
5092.373655331227
 10
26100.0
 20
5092.373655331227
  0
LWPOLYLINE
  5
116
330
17
100
AcDbEntity
  8
PARTS
100
AcDbPolyline
 90
4
 70
1
 10
27000.0
 20
4500.0
 10
27325.30583705862
 20
4500.0
 10
27325.30583705862
 20
5133.554436571415
 10
27000.0
 20
5133.554436571415
  0
LWPOLYLINE
  5
117
330
17
100
AcDbEntity
  8
PARTS
100
AcDbPolyline
 90
4
 70
1
 10
27900.0
 20
4500.0
 10
28266.81605519021
 20
4500.0
 10
28266.81605519021
 20
5009.862203885553
 10
27900.0
 20
5009.862203885553
  0
LWPOLYLINE
  5
118
330
17
100
AcDbEntity
  8
PARTS
100
AcDbPolyline
 90
4
 70
1
 10
28800.0
 20
4500.0
 10
28976.575102625327
 20
4500.0
 10
28976.575102625327
 20
4599.319526299495
 10
28800.0
 20
4599.319526299495
  0
LWPOLYLINE
  5
119
330
17
100
AcDbEntity
  8
PARTS
100
AcDbPolyline
 90
4
 70
1
 10
29700.0
 20
4500.0
 10
29835.899143126535
 20
4500.0
 10
29835.899143126535
 20
4803.638635388761
 10
29700.0
 20
4803.638635388761
  0
LWPOLYLINE
  5
11A
330
17
100
AcDbEntity
  8
PARTS
100
AcDbPolyline
 90
4
 70
1
 10
30600.0
 20
4500.0
 10
30724.064917848853
 20
4500.0
 10
30724.064917848853
 20
5098.209143875982
 10
30600.0
 20
5098.209143875982
  0
LWPOLYLINE
  5
11B
330
17
100
AcDbEntity
  8
PARTS
100
AcDbPolyline
 90
4
 70
1
 10
31500.0
 20
4500.0
 10
31814.581443528292
 20
4500.0
 10
31814.581443528292
 20
4969.215607283124
 10
31500.0
 20
4969.215607283124
  0
LWPOLYLINE
  5
11C
330
17
100
AcDbEntity
  8
PARTS
100
AcDbPolyline
 90
4
 70
1
 10
32400.0
 20
4500.0
 10
32743.01511275177
 20
4500.0
 10
32743.01511275177
 20
5002.011789170108
 10
32400.0
 20
5002.011789170108
  0
LWPOLYLINE
  5
11D
330
17
100
AcDbEntity
  8
PARTS
100
AcDbPolyline
 90
4
 70
1
 10
33300.0
 20
4500.0
 10
33585.5036122411
 20
4500.0
 10
33585.5036122411
 20
4582.054882819266
 10
33300.0
 20
4582.054882819266
  0
LWPOLYLINE
  5
11E
330
17
100
AcDbEntity
  8
PARTS
100
AcDbPolyline
 90
4
 70
1
 10
34200.0
 20
4500.0
 10
34615.03297186976
 20
4500.0
 10
34615.03297186976
 20
5043.924529538697
 10
34200.0
 20
5043.924529538697
  0
LWPOLYLINE
  5
11F
330
17
100
AcDbEntity
  8
PARTS
100
AcDbPolyline
 90
4
 70
1
 10
35100.0
 20
4500.0
 10
35391.24784199223
 20
4500.0
 10
35391.24784199223
 20
4911.823884822458
 10
35100.0
 20
4911.823884822458
  0
LWPOLYLINE
  5
120
330
17
100
AcDbEntity
  8
PARTS
100
AcDbPolyline
 90
4
 70
1
 10
0.0
 20
5400.0
 10
356.905785507827
 20
5400.0
 10
356.905785507827
 20
5520.951220857734
 10
0.0
 20
5520.951220857734
  0
LWPOLYLINE
  5
121
330
17
100
AcDbEntity
  8
PARTS
100
AcDbPolyline
 90
4
 70
1
 10
900.0
 20
5400.0
 10
1289.4510979877452
 20
5400.0
 10
1289.4510979877452
 20
5636.359989506868
 10
900.0
 20
5636.359989506868
  0
LWPOLYLINE
  5
122
330
17
100
AcDbEntity
  8
PARTS
100
AcDbPolyline
 90
4
 70
1
 10
1800.0
 20
5400.0
 10
1911.268999989153
 20
5400.0
 10
1911.268999989153
 20
5644.646097761148
 10
1800.0
 20
5644.646097761148
  0
LWPOLYLINE
  5
123
330
17
100
AcDbEntity
  8
PARTS
100
AcDbPolyline
 90
4
 70
1
 10
2700.0
 20
5400.0
 10
3086.3207159765466
 20
5400.0
 10
3086.3207159765466
 20
5607.234866790894
 10
2700.0
 20
5607.234866790894
  0
LWPOLYLINE
  5
124
330
17
100
AcDbEntity
  8
PARTS
100
AcDbPolyline
 90
4
 70
1
 10
3600.0
 20
5400.0
 10
3990.7280083967116
 20
5400.0
 10
3990.7280083967116
 20
6084.955758343718
 10
3600.0
 20
6084.955758343718
  0
LWPOLYLINE
  5
125
330
17
100
AcDbEntity
  8
PARTS
100
AcDbPolyline
 90
4
 70
1
 10
4500.0
 20
5400.0
 10
4787.458487116718
 20
5400.0
 10
4787.458487116718
 20
5717.187495884141
 10
4500.0
 20
5717.187495884141
  0
LWPOLYLINE
  5
126
330
17
100
AcDbEntity
  8
PARTS
100
AcDbPolyline
 90
4
 70
1
 10
5400.0
 20
5400.0
 10
5681.184268909663
 20
5400.0
 10
5681.184268909663
 20
5903.891868875458
 10
5400.0
 20
5903.891868875458
  0
LWPOLYLINE
  5
127
330
17
100
AcDbEntity
  8
PARTS
100
AcDbPolyline
 90
4
 70
1
 10
6300.0
 20
5400.0
 10
6702.127444443359
 20
5400.0
 10
6702.127444443359
 20
5862.523889782515
 10
6300.0
 20
5862.523889782515
  0
LWPOLYLINE
  5
128
330
17
100
AcDbEntity
  8
PARTS
100
AcDbPolyline
 90
4
 70
1
 10
7200.0
 20
5400.0
 10
7549.960449660434
 20
5400.0
 10
7549.960449660434
 20
5528.032528101036
 10
7200.0
 20
5528.032528101036
  0
LWPOLYLINE
  5
129
330
17
100
AcDbEntity
  8
PARTS
100
AcDbPolyline
 90
4
 70
1
 10
8100.0
 20
5400.0
 10
8241.918530608302
 20
5400.0
 10
8241.918530608302
 20
5637.442974626655
 10
8100.0
 20
5637.442974626655
  0
CIRCLE
  5
12A
330
17
100
AcDbEntity
  8
PARTS
100
AcDbCircle
 10
9300.0
 20
5700.0
 30
0.0
 40
96.88955316215615
  0
CIRCLE
  5
12B
330
17
100
AcDbEntity
  8
PARTS
100
AcDbCircle
 10
10200.0
 20
5700.0
 30
0.0
 40
57.39754241633093
  0
CIRCLE
  5
12C
330
17
100
AcDbEntity
  8
PARTS
100
AcDbCircle
 10
11100.0
 20
5700.0
 30
0.0
 40
81.09855280823774
  0
CIRCLE
  5
12D
330
17
100
AcDbEntity
  8
PARTS
100
AcDbCircle
 10
12000.0
 20
5700.0
 30
0.0
 40
31.12222919924455
  0
CIRCLE
  5
12E
330
17
100
AcDbEntity
  8
PARTS
100
AcDbCircle
 10
12900.0
 20
5700.0
 30
0.0
 40
35.45949126572776
  0
CIRCLE
  5
12F
330
17
100
AcDbEntity
  8
PARTS
100
AcDbCircle
 10
13800.0
 20
5700.0
 30
0.0
 40
54.189548921032326
  0
CIRCLE
  5
130
330
17
100
AcDbEntity
  8
PARTS
100
AcDbCircle
 10
14700.0
 20
5700.0
 30
0.0
 40
90.48014207897123
  0
CIRCLE
  5
131
330
17
100
AcDbEntity
  8
PARTS
100
AcDbCircle
 10
15600.0
 20
5700.0
 30
0.0
 40
92.29666553134032
  0
CIRCLE
  5
132
330
17
100
AcDbEntity
  8
PARTS
100
AcDbCircle
 10
16500.0
 20
5700.0
 30
0.0
 40
90.8136891131497
  0
CIRCLE
  5
133
330
17
100
AcDbEntity
  8
PARTS
100
AcDbCircle
 10
17400.0
 20
5700.0
 30
0.0
 40
56.17708305864321
  0
CIRCLE
  5
134
330
17
100
AcDbEntity
  8
PARTS
100
AcDbCircle
 10
18300.0
 20
5700.0
 30
0.0
 40
76.48821246399669
  0
CIRCLE
  5
135
330
17
100
AcDbEntity
  8
PARTS
100
AcDbCircle
 10
19200.0
 20
5700.0
 30
0.0
 40
71.81965680368829
  0
CIRCLE
  5
136
330
17
100
AcDbEntity
  8
PARTS
100
AcDbCircle
 10
20100.0
 20
5700.0
 30
0.0
 40
71.97052388671993
  0
CIRCLE
  5
137
330
17
100
AcDbEntity
  8
PARTS
100
AcDbCircle
 10
21000.0
 20
5700.0
 30
0.0
 40
40.66525764314112
  0
CIRCLE
  5
138
330
17
100
AcDbEntity
  8
PARTS
100
AcDbCircle
 10
21900.0
 20
5700.0
 30
0.0
 40
110.42966335577432
  0
CIRCLE
  5
139
330
17
100
AcDbEntity
  8
PARTS
100
AcDbCircle
 10
22800.0
 20
5700.0
 30
0.0
 40
47.93250268735527
  0
CIRCLE
  5
13A
330
17
100
AcDbEntity
  8
PARTS
100
AcDbCircle
 10
23700.0
 20
5700.0
 30
0.0
 40
118.03131630813243
  0
CIRCLE
  5
13B
330
17
100
AcDbEntity
  8
PARTS
100
AcDbCircle
 10
24600.0
 20
5700.0
 30
0.0
 40
114.26289068583448
  0
CIRCLE
  5
13C
330
17
100
AcDbEntity
  8
PARTS
100
AcDbCircle
 10
25500.0
 20
5700.0
 30
0.0
 40
31.575401023499655
  0
CIRCLE
  5
13D
330
17
100
AcDbEntity
  8
PARTS
100
AcDbCircle
 10
26400.0
 20
5700.0
 30
0.0
 40
71.30737406672375
  0
CIRCLE
  5
13E
330
17
100
AcDbEntity
  8
PARTS
100
AcDbCircle
 10
27300.0
 20
5700.0
 30
0.0
 40
103.79079234298814
  0
CIRCLE
  5
13F
330
17
100
AcDbEntity
  8
PARTS
100
AcDbCircle
 10
28200.0
 20
5700.0
 30
0.0
 40
117.12974264856297
  0
CIRCLE
  5
140
330
17
100
AcDbEntity
  8
PARTS
100
AcDbCircle
 10
29100.0
 20
5700.0
 30
0.0
 40
70.45058726859857
  0
CIRCLE
  5
141
330
17
100
AcDbEntity
  8
PARTS
100
AcDbCircle
 10
30000.0
 20
5700.0
 30
0.0
 40
54.179151615622274
  0
CIRCLE
  5
142
330
17
100
AcDbEntity
  8
PARTS
100
AcDbCircle
 10
30900.0
 20
5700.0
 30
0.0
 40
48.88534979887254
  0
CIRCLE
  5
143
330
17
100
AcDbEntity
  8
PARTS
100
AcDbCircle
 10
31800.0
 20
5700.0
 30
0.0
 40
115.10285492053809
  0
CIRCLE
  5
144
330
17
100
AcDbEntity
  8
PARTS
100
AcDbCircle
 10
32700.0
 20
5700.0
 30
0.0
 40
48.96379177805153
  0
CIRCLE
  5
145
330
17
100
AcDbEntity
  8
PARTS
100
AcDbCircle
 10
33600.0
 20
5700.0
 30
0.0
 40
82.33251309489665
  0
CIRCLE
  5
146
330
17
100
AcDbEntity
  8
PARTS
100
AcDbCircle
 10
34500.0
 20
5700.0
 30
0.0
 40
42.756661007357806
  0
CIRCLE
  5
147
330
17
100
AcDbEntity
  8
PARTS
100
AcDbCircle
 10
35400.0
 20
5700.0
 30
0.0
 40
77.16591412993375
  0
CIRCLE
  5
148
330
17
100
AcDbEntity
  8
PARTS
100
AcDbCircle
 10
300.0
 20
6600.0
 30
0.0
 40
115.74663029879198
  0
CIRCLE
  5
149
330
17
100
AcDbEntity
  8
PARTS
100
AcDbCircle
 10
1200.0
 20
6600.0
 30
0.0
 40
41.93445655929234
  0
CIRCLE
  5
14A
330
17
100
AcDbEntity
  8
PARTS
100
AcDbCircle
 10
2100.0
 20
6600.0
 30
0.0
 40
103.81953095533056
  0
CIRCLE
  5
14B
330
17
100
AcDbEntity
  8
PARTS
100
AcDbCircle
 10
3000.0
 20
6600.0
 30
0.0
 40
75.78699182839028
  0
CIRCLE
  5
14C
330
17
100
AcDbEntity
  8
PARTS
100
AcDbCircle
 10
3900.0
 20
6600.0
 30
0.0
 40
109.81759436533585
  0
CIRCLE
  5
14D
330
17
100
AcDbEntity
  8
PARTS
100
AcDbCircle
 10
4800.0
 20
6600.0
 30
0.0
 40
93.30033349146669
  0
CIRCLE
  5
14E
330
17
100
AcDbEntity
  8
PARTS
100
AcDbCircle
 10
5700.0
 20
6600.0
 30
0.0
 40
50.82452427454229
  0
CIRCLE
  5
14F
330
17
100
AcDbEntity
  8
PARTS
100
AcDbCircle
 10
6600.0
 20
6600.0
 30
0.0
 40
110.79351260403597
  0
CIRCLE
  5
150
330
17
100
AcDbEntity
  8
PARTS
100
AcDbCircle
 10
7500.0
 20
6600.0
 30
0.0
 40
73.7526590784434
  0
CIRCLE
  5
151
330
17
100
AcDbEntity
  8
PARTS
100
AcDbCircle
 10
8400.0
 20
6600.0
 30
0.0
 40
32.235096278159865
  0
CIRCLE
  5
152
330
17
100
AcDbEntity
  8
PARTS
100
AcDbCircle
 10
9300.0
 20
6600.0
 30
0.0
 40
30.32314245027572
  0
CIRCLE
  5
153
330
17
100
AcDbEntity
  8
PARTS
100
AcDbCircle
 10
10200.0
 20
6600.0
 30
0.0
 40
74.25264985369839
  0
CIRCLE
  5
154
330
17
100
AcDbEntity
  8
PARTS
100
AcDbCircle
 10
11100.0
 20
6600.0
 30
0.0
 40
70.56842704480692
  0
CIRCLE
  5
155
330
17
100
AcDbEntity
  8
PARTS
100
AcDbCircle
 10
12000.0
 20
6600.0
 30
0.0
 40
57.175593714762094
  0
CIRCLE
  5
156
330
17
100
AcDbEntity
  8
PARTS
100
AcDbCircle
 10
12900.0
 20
6600.0
 30
0.0
 40
42.66364982319107
  0
CIRCLE
  5
157
330
17
100
AcDbEntity
  8
PARTS
100
AcDbCircle
 10
13800.0
 20
6600.0
 30
0.0
 40
60.956413178515085
  0
CIRCLE
  5
158
330
17
100
AcDbEntity
  8
PARTS
100
AcDbCircle
 10
14700.0
 20
6600.0
 30
0.0
 40
58.44702408374728
  0
CIRCLE
  5
159
330
17
100
AcDbEntity
  8
PARTS
100
AcDbCircle
 10
15600.0
 20
6600.0
 30
0.0
 40
105.62079302831881
  0
CIRCLE
  5
15A
330
17
100
AcDbEntity
  8
PARTS
100
AcDbCircle
 10
16500.0
 20
6600.0
 30
0.0
 40
30.156724372575294
  0
CIRCLE
  5
15B
330
17
100
AcDbEntity
  8
PARTS
100
AcDbCircle
 10
17400.0
 20
6600.0
 30
0.0
 40
97.56606370541853
  0
CIRCLE
  5
15C
330
17
100
AcDbEntity
  8
PARTS
100
AcDbCircle
 10
18300.0
 20
6600.0
 30
0.0
 40
105.51997151854157
  0
CIRCLE
  5
15D
330
17
100
AcDbEntity
  8
PARTS
100
AcDbCircle
 10
19200.0
 20
6600.0
 30
0.0
 40
40.803721283296426
  0
CIRCLE
  5
15E
330
17
100
AcDbEntity
  8
PARTS
100
AcDbCircle
 10
20100.0
 20
6600.0
 30
0.0
 40
113.37589738977478
  0
CIRCLE
  5
15F
330
17
100
AcDbEntity
  8
PARTS
100
AcDbCircle
 10
21000.0
 20
6600.0
 30
0.0
 40
94.17212092172313
  0
CIRCLE
  5
160
330
17
100
AcDbEntity
  8
PARTS
100
AcDbCircle
 10
21900.0
 20
6600.0
 30
0.0
 40
111.14099067890423
  0
CIRCLE
  5
161
330
17
100
AcDbEntity
  8
PARTS
100
AcDbCircle
 10
22800.0
 20
6600.0
 30
0.0
 40
56.08496630779727
  0
CIRCLE
  5
162
330
17
100
AcDbEntity
  8
PARTS
100
AcDbCircle
 10
23700.0
 20
6600.0
 30
0.0
 40
63.49997994190426
  0
CIRCLE
  5
163
330
17
100
AcDbEntity
  8
PARTS
100
AcDbCircle
 10
24600.0
 20
6600.0
 30
0.0
 40
65.3609443836994
  0
CIRCLE
  5
164
330
17
100
AcDbEntity
  8
PARTS
100
AcDbCircle
 10
25500.0
 20
6600.0
 30
0.0
 40
119.89132552070522
  0
CIRCLE
  5
165
330
17
100
AcDbEntity
  8
PARTS
100
AcDbCircle
 10
26400.0
 20
6600.0
 30
0.0
 40
83.02589898464129
  0
CIRCLE
  5
166
330
17
100
AcDbEntity
  8
PARTS
100
AcDbCircle
 10
27300.0
 20
6600.0
 30
0.0
 40
62.46383915310646
  0
CIRCLE
  5
167
330
17
100
AcDbEntity
  8
PARTS
100
AcDbCircle
 10
28200.0
 20
6600.0
 30
0.0
 40
68.52474762506094
  0
CIRCLE
  5
168
330
17
100
AcDbEntity
  8
PARTS
100
AcDbCircle
 10
29100.0
 20
6600.0
 30
0.0
 40
54.76397273602316
  0
CIRCLE
  5
169
330
17
100
AcDbEntity
  8
PARTS
100
AcDbCircle
 10
30000.0
 20
6600.0
 30
0.0
 40
34.34412870747889
  0
CIRCLE
  5
16A
330
17
100
AcDbEntity
  8
PARTS
100
AcDbCircle
 10
30900.0
 20
6600.0
 30
0.0
 40
39.15388721708637
  0
CIRCLE
  5
16B
330
17
100
AcDbEntity
  8
PARTS
100
AcDbCircle
 10
31800.0
 20
6600.0
 30
0.0
 40
105.12083954794731
  0
CIRCLE
  5
16C
330
17
100
AcDbEntity
  8
PARTS
100
AcDbCircle
 10
32700.0
 20
6600.0
 30
0.0
 40
55.706087106069276
  0
CIRCLE
  5
16D
330
17
100
AcDbEntity
  8
PARTS
100
AcDbCircle
 10
33600.0
 20
6600.0
 30
0.0
 40
114.20308994801562
  0
CIRCLE
  5
16E
330
17
100
AcDbEntity
  8
PARTS
100
AcDbCircle
 10
34500.0
 20
6600.0
 30
0.0
 40
52.43922447706367
  0
CIRCLE
  5
16F
330
17
100
AcDbEntity
  8
PARTS
100
AcDbCircle
 10
35400.0
 20
6600.0
 30
0.0
 40
53.91552134798218
  0
CIRCLE
  5
170
330
17
100
AcDbEntity
  8
PARTS
100
AcDbCircle
 10
300.0
 20
7500.0
 30
0.0
 40
75.98666890266628
  0
CIRCLE
  5
171
330
17
100
AcDbEntity
  8
PARTS
100
AcDbCircle
 10
1200.0
 20
7500.0
 30
0.0
 40
47.08641424467062
  0
CIRCLE
  5
172
330
17
100
AcDbEntity
  8
PARTS
100
AcDbCircle
 10
2100.0
 20
7500.0
 30
0.0
 40
63.6014356513533
  0
CIRCLE
  5
173
330
17
100
AcDbEntity
  8
PARTS
100
AcDbCircle
 10
3000.0
 20
7500.0
 30
0.0
 40
116.05487382782464
  0
CIRCLE
  5
174
330
17
100
AcDbEntity
  8
PARTS
100
AcDbCircle
 10
3900.0
 20
7500.0
 30
0.0
 40
109.5839899972902
  0
CIRCLE
  5
175
330
17
100
AcDbEntity
  8
PARTS
100
AcDbCircle
 10
4800.0
 20
7500.0
 30
0.0
 40
103.0766040723695
  0
CIRCLE
  5
176
330
17
100
AcDbEntity
  8
PARTS
100
AcDbCircle
 10
5700.0
 20
7500.0
 30
0.0
 40
86.78062234821729
  0
CIRCLE
  5
177
330
17
100
AcDbEntity
  8
PARTS
100
AcDbCircle
 10
6600.0
 20
7500.0
 30
0.0
 40
112.20814987134466
  0
CIRCLE
  5
178
330
17
100
AcDbEntity
  8
PARTS
100
AcDbCircle
 10
7500.0
 20
7500.0
 30
0.0
 40
114.66293685044175
  0
CIRCLE
  5
179
330
17
100
AcDbEntity
  8
PARTS
100
AcDbCircle
 10
8400.0
 20
7500.0
 30
0.0
 40
79.43053333691674
  0
CIRCLE
  5
17A
330
17
100
AcDbEntity
  8
PARTS
100
AcDbCircle
 10
9300.0
 20
7500.0
 30
0.0
 40
94.76153237560332
  0
CIRCLE
  5
17B
330
17
100
AcDbEntity
  8
PARTS
100
AcDbCircle
 10
10200.0
 20
7500.0
 30
0.0
 40
34.452843099921054
  0
CIRCLE
  5
17C
330
17
100
AcDbEntity
  8
PARTS
100
AcDbCircle
 10
11100.0
 20
7500.0
 30
0.0
 40
95.91172216072485
  0
CIRCLE
  5
17D
330
17
100
AcDbEntity
  8
PARTS
100
AcDbCircle
 10
12000.0
 20
7500.0
 30
0.0
 40
70.57743806646963
  0
CIRCLE
  5
17E
330
17
100
AcDbEntity
  8
PARTS
100
AcDbCircle
 10
12900.0
 20
7500.0
 30
0.0
 40
97.74012083166485
  0
CIRCLE
  5
17F
330
17
100
AcDbEntity
  8
PARTS
100
AcDbCircle
 10
13800.0
 20
7500.0
 30
0.0
 40
88.00416393766623
  0
CIRCLE
  5
180
330
17
100
AcDbEntity
  8
PARTS
100
AcDbCircle
 10
14700.0
 20
7500.0
 30
0.0
 40
55.758748827142696
  0
CIRCLE
  5
181
330
17
100
AcDbEntity
  8
PARTS
100
AcDbCircle
 10
15600.0
 20
7500.0
 30
0.0
 40
34.40792144888245
  0
CIRCLE
  5
182
330
17
100
AcDbEntity
  8
PARTS
100
AcDbCircle
 10
16500.0
 20
7500.0
 30
0.0
 40
113.40993418924315
  0
CIRCLE
  5
183
330
17
100
AcDbEntity
  8
PARTS
100
AcDbCircle
 10
17400.0
 20
7500.0
 30
0.0
 40
41.45801883465537
  0
CIRCLE
  5
184
330
17
100
AcDbEntity
  8
PARTS
100
AcDbCircle
 10
18300.0
 20
7500.0
 30
0.0
 40
72.49656787021456
  0
CIRCLE
  5
185
330
17
100
AcDbEntity
  8
PARTS
100
AcDbCircle
 10
19200.0
 20
7500.0
 30
0.0
 40
60.929656739213634
  0
CIRCLE
  5
186
330
17
100
AcDbEntity
  8
PARTS
100
AcDbCircle
 10
20100.0
 20
7500.0
 30
0.0
 40
56.799467899030816
  0
CIRCLE
  5
187
330
17
100
AcDbEntity
  8
PARTS
100
AcDbCircle
 10
21000.0
 20
7500.0
 30
0.0
 40
96.51292544966246
  0
CIRCLE
  5
188
330
17
100
AcDbEntity
  8
PARTS
100
AcDbCircle
 10
21900.0
 20
7500.0
 30
0.0
 40
117.86665587688687
  0
CIRCLE
  5
189
330
17
100
AcDbEntity
  8
PARTS
100
AcDbCircle
 10
22800.0
 20
7500.0
 30
0.0
 40
53.41521491526689
  0
CIRCLE
  5
18A
330
17
100
AcDbEntity
  8
PARTS
100
AcDbCircle
 10
23700.0
 20
7500.0
 30
0.0
 40
89.0395793429006
  0
CIRCLE
  5
18B
330
17
100
AcDbEntity
  8
PARTS
100
AcDbCircle
 10
24600.0
 20
7500.0
 30
0.0
 40
57.07526619349704
  0
CIRCLE
  5
18C
330
17
100
AcDbEntity
  8
PARTS
100
AcDbCircle
 10
25500.0
 20
7500.0
 30
0.0
 40
80.15895322113363
  0
CIRCLE
  5
18D
330
17
100
AcDbEntity
  8
PARTS
100
AcDbCircle
 10
26400.0
 20
7500.0
 30
0.0
 40
65.49309999329466
  0
LWPOLYLINE
  5
18E
330
17
100
AcDbEntity
  8
PARTS
100
AcDbPolyline
 90
8
 70
1
 10
27000.0
 20
7230.0
 10
27000.0
 20
7360.414240351264
 42
0.41421356237309503
 10
27030.0
 20
7390.414240351264
 10
27161.833116939673
 20
7390.414240351264
 42
0.41421356237309503
 10
27191.833116939673
 20
7360.414240351264
 10
27191.833116939673
 20
7230.0
 42
0.41421356237309503
 10
27161.833116939673
 20
7200.0
 10
27030.0
 20
7200.0
 42
0.41421356237309503
  0
LWPOLYLINE
  5
18F
330
17
100
AcDbEntity
  8
PARTS
100
AcDbPolyline
 90
8
 70
1
 10
27900.0
 20
7230.0
 10
27900.0
 20
7546.4899775606145
 42
0.41421356237309503
 10
27930.0
 20
7576.4899775606145
 10
28071.968130284185
 20
7576.4899775606145
 42
0.41421356237309503
 10
28101.968130284185
 20
7546.4899775606145
 10
28101.968130284185
 20
7230.0
 42
0.41421356237309503
 10
28071.968130284185
 20
7200.0
 10
27930.0
 20
7200.0
 42
0.41421356237309503
  0
LWPOLYLINE
  5
190
330
17
100
AcDbEntity
  8
PARTS
100
AcDbPolyline
 90
8
 70
1
 10
28800.0
 20
7230.0
 10
28800.0
 20
7375.006313050139
 42
0.41421356237309503
 10
28830.0
 20
7405.006313050139
 10
29044.268946331715
 20
7405.006313050139
 42
0.41421356237309503
 10
29074.268946331715
 20
7375.006313050139
 10
29074.268946331715
 20
7230.0
 42
0.41421356237309503
 10
29044.268946331715
 20
7200.0
 10
28830.0
 20
7200.0
 42
0.41421356237309503
  0
LWPOLYLINE
  5
191
330
17
100
AcDbEntity
  8
PARTS
100
AcDbPolyline
 90
8
 70
1
 10
29700.0
 20
7230.0
 10
29700.0
 20
7569.118778406173
 42
0.41421356237309503
 10
29730.0
 20
7599.118778406173
 10
30046.56484755284
 20
7599.118778406173
 42
0.41421356237309503
 10
30076.56484755284
 20
7569.118778406173
 10
30076.56484755284
 20
7230.0
 42
0.41421356237309503
 10
30046.56484755284
 20
7200.0
 10
29730.0
 20
7200.0
 42
0.41421356237309503
  0
LWPOLYLINE
  5
192
330
17
100
AcDbEntity
  8
PARTS
100
AcDbPolyline
 90
8
 70
1
 10
30600.0
 20
7230.0
 10
30600.0
 20
7354.89901599993
 42
0.41421356237309503
 10
30630.0
 20
7384.89901599993
 10
30832.490110895455
 20
7384.89901599993
 42
0.41421356237309503
 10
30862.490110895455
 20
7354.89901599993
 10
30862.490110895455
 20
7230.0
 42
0.41421356237309503
 10
30832.490110895455
 20
7200.0
 10
30630.0
 20
7200.0
 42
0.41421356237309503
  0
LWPOLYLINE
  5
193
330
17
100
AcDbEntity
  8
PARTS
100
AcDbPolyline
 90
8
 70
1
 10
31500.0
 20
7230.0
 10
31500.0
 20
7342.678627026631
 42
0.41421356237309503
 10
31530.0
 20
7372.678627026631
 10
31668.101773940187
 20
7372.678627026631
 42
0.41421356237309503
 10
31698.101773940187
 20
7342.678627026631
 10
31698.101773940187
 20
7230.0
 42
0.41421356237309503
 10
31668.101773940187
 20
7200.0
 10
31530.0
 20
7200.0
 42
0.41421356237309503
  0
LWPOLYLINE
  5
194
330
17
100
AcDbEntity
  8
PARTS
100
AcDbPolyline
 90
8
 70
1
 10
32400.0
 20
7230.0
 10
32400.0
 20
7342.773584945663
 42
0.41421356237309503
 10
32430.0
 20
7372.773584945663
 10
32605.4888084454
 20
7372.773584945663
 42
0.41421356237309503
 10
32635.4888084454
 20
7342.773584945663
 10
32635.4888084454
 20
7230.0
 42
0.41421356237309503
 10
32605.4888084454
 20
7200.0
 10
32430.0
 20
7200.0
 42
0.41421356237309503
  0
LWPOLYLINE
  5
195
330
17
100
AcDbEntity
  8
PARTS
100
AcDbPolyline
 90
8
 70
1
 10
33300.0
 20
7230.0
 10
33300.0
 20
7384.58939203873
 42
0.41421356237309503
 10
33330.0
 20
7414.58939203873
 10
33479.78164517936
 20
7414.58939203873
 42
0.41421356237309503
 10
33509.78164517936
 20
7384.58939203873
 10
33509.78164517936
 20
7230.0
 42
0.41421356237309503
 10
33479.78164517936
 20
7200.0
 10
33330.0
 20
7200.0
 42
0.41421356237309503
  0
LWPOLYLINE
  5
196
330
17
100
AcDbEntity
  8
PARTS
100
AcDbPolyline
 90
8
 70
1
 10
34200.0
 20
7230.0
 10
34200.0
 20
7541.81286480293
 42
0.41421356237309503
 10
34230.0
 20
7571.81286480293
 10
34462.404435578996
 20
7571.81286480293
 42
0.41421356237309503
 10
34492.404435578996
 20
7541.81286480293
 10
34492.404435578996
 20
7230.0
 42
0.41421356237309503
 10
34462.404435578996
 20
7200.0
 10
34230.0
 20
7200.0
 42
0.41421356237309503
  0
LWPOLYLINE
  5
197
330
17
100
AcDbEntity
  8
PARTS
100
AcDbPolyline
 90
8
 70
1
 10
35100.0
 20
7230.0
 10
35100.0
 20
7423.195414660197
 42
0.41421356237309503
 10
35130.0
 20
7453.195414660197
 10
35407.41440190117
 20
7453.195414660197
 42
0.41421356237309503
 10
35437.41440190117
 20
7423.195414660197
 10
35437.41440190117
 20
7230.0
 42
0.41421356237309503
 10
35407.41440190117
 20
7200.0
 10
35130.0
 20
7200.0
 42
0.41421356237309503
  0
LWPOLYLINE
  5
198
330
17
100
AcDbEntity
  8
PARTS
100
AcDbPolyline
 90
8
 70
1
 10
0.0
 20
8130.0
 10
0.0
 20
8351.042035687724
 42
0.41421356237309503
 10
30.0
 20
8381.042035687724
 10
223.47089310333234
 20
8381.042035687724
 42
0.41421356237309503
 10
253.47089310333234
 20
8351.042035687724
 10
253.47089310333234
 20
8130.0
 42
0.41421356237309503
 10
223.47089310333234
 20
8100.0
 10
30.0
 20
8100.0
 42
0.41421356237309503
  0
LWPOLYLINE
  5
199
330
17
100
AcDbEntity
  8
PARTS
100
AcDbPolyline
 90
8
 70
1
 10
900.0
 20
8130.0
 10
900.0
 20
8304.55077512583
 42
0.41421356237309503
 10
930.0
 20
8334.55077512583
 10
1114.2164534148571
 20
8334.55077512583
 42
0.41421356237309503
 10
1144.2164534148571
 20
8304.55077512583
 10
1144.2164534148571
 20
8130.0
 42
0.41421356237309503
 10
1114.2164534148571
 20
8100.0
 10
930.0
 20
8100.0
 42
0.41421356237309503
  0
LWPOLYLINE
  5
19A
330
17
100
AcDbEntity
  8
PARTS
100
AcDbPolyline
 90
8
 70
1
 10
1800.0
 20
8130.0
 10
1800.0
 20
8289.379086744564
 42
0.41421356237309503
 10
1830.0
 20
8319.379086744564
 10
1935.5148794840013
 20
8319.379086744564
 42
0.41421356237309503
 10
1965.5148794840013
 20
8289.379086744564
 10
1965.5148794840013
 20
8130.0
 42
0.41421356237309503
 10
1935.5148794840013
 20
8100.0
 10
1830.0
 20
8100.0
 42
0.41421356237309503
  0
LWPOLYLINE
  5
19B
330
17
100
AcDbEntity
  8
PARTS
100
AcDbPolyline
 90
8
 70
1
 10
2700.0
 20
8130.0
 10
2700.0
 20
8251.468450439634
 42
0.41421356237309503
 10
2730.0
 20
8281.468450439634
 10
3061.9213156404817
 20
8281.468450439634
 42
0.41421356237309503
 10
3091.9213156404817
 20
8251.468450439634
 10
3091.9213156404817
 20
8130.0
 42
0.41421356237309503
 10
3061.9213156404817
 20
8100.0
 10
2730.0
 20
8100.0
 42
0.41421356237309503
  0
LWPOLYLINE
  5
19C
330
17
100
AcDbEntity
  8
PARTS
100
AcDbPolyline
 90
8
 70
1
 10
3600.0
 20
8130.0
 10
3600.0
 20
8377.406726461484
 42
0.41421356237309503
 10
3630.0
 20
8407.406726461484
 10
3845.8489369027793
 20
8407.406726461484
 42
0.41421356237309503
 10
3875.8489369027793
 20
8377.406726461484
 10
3875.8489369027793
 20
8130.0
 42
0.41421356237309503
 10
3845.8489369027793
 20
8100.0
 10
3630.0
 20
8100.0
 42
0.41421356237309503
  0
LWPOLYLINE
  5
19D
330
17
100
AcDbEntity
  8
PARTS
100
AcDbPolyline
 90
8
 70
1
 10
4500.0
 20
8130.0
 10
4500.0
 20
8273.99078520499
 42
0.41421356237309503
 10
4530.0
 20
8303.99078520499
 10
4835.715337262735
 20
8303.99078520499
 42
0.41421356237309503
 10
4865.715337262735
 20
8273.99078520499
 10
4865.715337262735
 20
8130.0
 42
0.41421356237309503
 10
4835.715337262735
 20
8100.0
 10
4530.0
 20
8100.0
 42
0.41421356237309503
  0
LWPOLYLINE
  5
19E
330
17
100
AcDbEntity
  8
PARTS
100
AcDbPolyline
 90
8
 70
1
 10
5400.0
 20
8130.0
 10
5400.0
 20
8282.113412440867
 42
0.41421356237309503
 10
5430.0
 20
8312.113412440867
 10
5587.755220265668
 20
8312.113412440867
 42
0.41421356237309503
 10
5617.755220265668
 20
8282.113412440867
 10
5617.755220265668
 20
8130.0
 42
0.41421356237309503
 10
5587.755220265668
 20
8100.0
 10
5430.0
 20
8100.0
 42
0.41421356237309503
  0
LWPOLYLINE
  5
19F
330
17
100
AcDbEntity
  8
PARTS
100
AcDbPolyline
 90
8
 70
1
 10
6300.0
 20
8130.0
 10
6300.0
 20
8331.464598089153
 42
0.41421356237309503
 10
6330.0
 20
8361.464598089153
 10
6519.939284186422
 20
8361.464598089153
 42
0.41421356237309503
 10
6549.939284186422
 20
8331.464598089153
 10
6549.939284186422
 20
8130.0
 42
0.41421356237309503
 10
6519.939284186422
 20
8100.0
 10
6330.0
 20
8100.0
 42
0.41421356237309503
  0
LWPOLYLINE
  5
1A0
330
17
100
AcDbEntity
  8
PARTS
100
AcDbPolyline
 90
8
 70
1
 10
7200.0
 20
8130.0
 10
7200.0
 20
8432.170919057613
 42
0.41421356237309503
 10
7230.0
 20
8462.170919057613
 10
7558.485893815786
 20
8462.170919057613
 42
0.41421356237309503
 10
7588.485893815786
 20
8432.170919057613
 10
7588.485893815786
 20
8130.0
 42
0.41421356237309503
 10
7558.485893815786
 20
8100.0
 10
7230.0
 20
8100.0
 42
0.41421356237309503
  0
LWPOLYLINE
  5
1A1
330
17
100
AcDbEntity
  8
PARTS
100
AcDbPolyline
 90
8
 70
1
 10
8100.0
 20
8130.0
 10
8100.0
 20
8225.452627553133
 42
0.41421356237309503
 10
8130.0
 20
8255.452627553133
 10
8438.222746566013
 20
8255.452627553133
 42
0.41421356237309503
 10
8468.222746566013
 20
8225.452627553133
 10
8468.222746566013
 20
8130.0
 42
0.41421356237309503
 10
8438.222746566013
 20
8100.0
 10
8130.0
 20
8100.0
 42
0.41421356237309503
  0
LWPOLYLINE
  5
1A2
330
17
100
AcDbEntity
  8
PARTS
100
AcDbPolyline
 90
8
 70
1
 10
9000.0
 20
8130.0
 10
9000.0
 20
8397.377946234663
 42
0.41421356237309503
 10
9030.0
 20
8427.377946234663
 10
9128.060873346776
 20
8427.377946234663
 42
0.41421356237309503
 10
9158.060873346776
 20
8397.377946234663
 10
9158.060873346776
 20
8130.0
 42
0.41421356237309503
 10
9128.060873346776
 20
8100.0
 10
9030.0
 20
8100.0
 42
0.41421356237309503
  0
LWPOLYLINE
  5
1A3
330
17
100
AcDbEntity
  8
PARTS
100
AcDbPolyline
 90
8
 70
1
 10
9900.0
 20
8130.0
 10
9900.0
 20
8338.317069426703
 42
0.41421356237309503
 10
9930.0
 20
8368.317069426703
 10
10243.924129836725
 20
8368.317069426703
 42
0.41421356237309503
 10
10273.924129836725
 20
8338.317069426703
 10
10273.924129836725
 20
8130.0
 42
0.41421356237309503
 10
10243.924129836725
 20
8100.0
 10
9930.0
 20
8100.0
 42
0.41421356237309503
  0
LWPOLYLINE
  5
1A4
330
17
100
AcDbEntity
  8
PARTS
100
AcDbPolyline
 90
8
 70
1
 10
10800.0
 20
8130.0
 10
10800.0
 20
8220.044671954844
 42
0.41421356237309503
 10
10830.0
 20
8250.044671954844
 10
11066.794122624815
 20
8250.044671954844
 42
0.41421356237309503
 10
11096.794122624815
 20
8220.044671954844
 10
11096.794122624815
 20
8130.0
 42
0.41421356237309503
 10
11066.794122624815
 20
8100.0
 10
10830.0
 20
8100.0
 42
0.41421356237309503
  0
LWPOLYLINE
  5
1A5
330
17
100
AcDbEntity
  8
PARTS
100
AcDbPolyline
 90
8
 70
1
 10
11700.0
 20
8130.0
 10
11700.0
 20
8451.706818431916
 42
0.41421356237309503
 10
11730.0
 20
8481.706818431916
 10
11917.880273927447
 20
8481.706818431916
 42
0.41421356237309503
 10
11947.880273927447
 20
8451.706818431916
 10
11947.880273927447
 20
8130.0
 42
0.41421356237309503
 10
11917.880273927447
 20
8100.0
 10
11730.0
 20
8100.0
 42
0.41421356237309503
  0
LWPOLYLINE
  5
1A6
330
17
100
AcDbEntity
  8
PARTS
100
AcDbPolyline
 90
8
 70
1
 10
12600.0
 20
8130.0
 10
12600.0
 20
8433.865668453558
 42
0.41421356237309503
 10
12630.0
 20
8463.865668453558
 10
12926.397301569323
 20
8463.865668453558
 42
0.41421356237309503
 10
12956.397301569323
 20
8433.865668453558
 10
12956.397301569323
 20
8130.0
 42
0.41421356237309503
 10
12926.397301569323
 20
8100.0
 10
12630.0
 20
8100.0
 42
0.41421356237309503
  0
LWPOLYLINE
  5
1A7
330
17
100
AcDbEntity
  8
PARTS
100
AcDbPolyline
 90
8
 70
1
 10
13500.0
 20
8130.0
 10
13500.0
 20
8282.116320772297
 42
0.41421356237309503
 10
13530.0
 20
8312.116320772297
 10
13863.06028047381
 20
8312.116320772297
 42
0.41421356237309503
 10
13893.06028047381
 20
8282.116320772297
 10
13893.06028047381
 20
8130.0
 42
0.41421356237309503
 10
13863.06028047381
 20
8100.0
 10
13530.0
 20
8100.0
 42
0.41421356237309503
  0
LWPOLYLINE
  5
1A8
330
17
100
AcDbEntity
  8
PARTS
100
AcDbPolyline
 90
8
 70
1
 10
14400.0
 20
8130.0
 10
14400.0
 20
8258.594596371182
 42
0.41421356237309503
 10
14430.0
 20
8288.594596371182
 10
14547.261499732362
 20
8288.594596371182
 42
0.41421356237309503
 10
14577.261499732362
 20
8258.594596371182
 10
14577.261499732362
 20
8130.0
 42
0.41421356237309503
 10
14547.261499732362
 20
8100.0
 10
14430.0
 20
8100.0
 42
0.41421356237309503
  0
LWPOLYLINE
  5
1A9
330
17
100
AcDbEntity
  8
PARTS
100
AcDbPolyline
 90
8
 70
1
 10
15300.0
 20
8130.0
 10
15300.0
 20
8390.518765428831
 42
0.41421356237309503
 10
15330.0
 20
8420.518765428831
 10
15550.591401777952
 20
8420.518765428831
 42
0.41421356237309503
 10
15580.591401777952
 20
8390.518765428831
 10
15580.591401777952
 20
8130.0
 42
0.41421356237309503
 10
15550.591401777952
 20
8100.0
 10
15330.0
 20
8100.0
 42
0.41421356237309503
  0
LWPOLYLINE
  5
1AA
330
17
100
AcDbEntity
  8
PARTS
100
AcDbPolyline
 90
8
 70
1
 10
16200.0
 20
8130.0
 10
16200.0
 20
8400.433822238825
 42
0.41421356237309503
 10
16230.0
 20
8430.433822238825
 10
16555.37263986728
 20
8430.433822238825
 42
0.41421356237309503
 10
16585.37263986728
 20
8400.433822238825
 10
16585.37263986728
 20
8130.0
 42
0.41421356237309503
 10
16555.37263986728
 20
8100.0
 10
16230.0
 20
8100.0
 42
0.41421356237309503
  0
LWPOLYLINE
  5
1AB
330
17
100
AcDbEntity
  8
PARTS
100
AcDbPolyline
 90
8
 70
1
 10
17100.0
 20
8130.0
 10
17100.0
 20
8411.200136942578
 42
0.41421356237309503
 10
17130.0
 20
8441.200136942578
 10
17381.83702991625
 20
8441.200136942578
 42
0.41421356237309503
 10
17411.83702991625
 20
8411.200136942578
 10
17411.83702991625
 20
8130.0
 42
0.41421356237309503
 10
17381.83702991625
 20
8100.0
 10
17130.0
 20
8100.0
 42
0.41421356237309503
  0
LWPOLYLINE
  5
1AC
330
17
100
AcDbEntity
  8
PARTS
100
AcDbPolyline
 90
8
 70
1
 10
18000.0
 20
8130.0
 10
18000.0
 20
8357.875228704626
 42
0.41421356237309503
 10
18030.0
 20
8387.875228704626
 10
18234.331260481857
 20
8387.875228704626
 42
0.41421356237309503
 10
18264.331260481857
 20
8357.875228704626
 10
18264.331260481857
 20
8130.0
 42
0.41421356237309503
 10
18234.331260481857
 20
8100.0
 10
18030.0
 20
8100.0
 42
0.41421356237309503
  0
LWPOLYLINE
  5
1AD
330
17
100
AcDbEntity
  8
PARTS
100
AcDbPolyline
 90
8
 70
1
 10
18900.0
 20
8130.0
 10
18900.0
 20
8415.574654500282
 42
0.41421356237309503
 10
18930.0
 20
8445.574654500282
 10
19029.886564689437
 20
8445.574654500282
 42
0.41421356237309503
 10
19059.886564689437
 20
8415.574654500282
 10
19059.886564689437
 20
8130.0
 42
0.41421356237309503
 10
19029.886564689437
 20
8100.0
 10
18930.0
 20
8100.0
 42
0.41421356237309503
  0
LWPOLYLINE
  5
1AE
330
17
100
AcDbEntity
  8
PARTS
100
AcDbPolyline
 90
8
 70
1
 10
19800.0
 20
8130.0
 10
19800.0
 20
8449.98002737312
 42
0.41421356237309503
 10
19830.0
 20
8479.98002737312
 10
19978.144207241727
 20
8479.98002737312
 42
0.41421356237309503
 10
20008.144207241727
 20
8449.98002737312
 10
20008.144207241727
 20
8130.0
 42
0.41421356237309503
 10
19978.144207241727
 20
8100.0
 10
19830.0
 20
8100.0
 42
0.41421356237309503
  0
LWPOLYLINE
  5
1AF
330
17
100
AcDbEntity
  8
PARTS
100
AcDbPolyline
 90
8
 70
1
 10
20700.0
 20
8130.0
 10
20700.0
 20
8295.945565407043
 42
0.41421356237309503
 10
20730.0
 20
8325.945565407043
 10
20981.37644409206
 20
8325.945565407043
 42
0.41421356237309503
 10
21011.37644409206
 20
8295.945565407043
 10
21011.37644409206
 20
8130.0
 42
0.41421356237309503
 10
20981.37644409206
 20
8100.0
 10
20730.0
 20
8100.0
 42
0.41421356237309503
  0
LWPOLYLINE
  5
1B0
330
17
100
AcDbEntity
  8
PARTS
100
AcDbPolyline
 90
8
 70
1
 10
21600.0
 20
8130.0
 10
21600.0
 20
8282.948486820334
 42
0.41421356237309503
 10
21630.0
 20
8312.948486820334
 10
21751.991712053255
 20
8312.948486820334
 42
0.41421356237309503
 10
21781.991712053255
 20
8282.948486820334
 10
21781.991712053255
 20
8130.0
 42
0.41421356237309503
 10
21751.991712053255
 20
8100.0
 10
21630.0
 20
8100.0
 42
0.41421356237309503
  0
LWPOLYLINE
  5
1B1
330
17
100
AcDbEntity
  8
PARTS
100
AcDbPolyline
 90
8
 70
1
 10
22500.0
 20
8130.0
 10
22500.0
 20
8394.64547932864
 42
0.41421356237309503
 10
22530.0
 20
8424.64547932864
 10
22779.072774345856
 20
8424.64547932864
 42
0.41421356237309503
 10
22809.072774345856
 20
8394.64547932864
 10
22809.072774345856
 20
8130.0
 42
0.41421356237309503
 10
22779.072774345856
 20
8100.0
 10
22530.0
 20
8100.0
 42
0.41421356237309503
  0
LWPOLYLINE
  5
1B2
330
17
100
AcDbEntity
  8
PARTS
100
AcDbPolyline
 90
8
 70
1
 10
23400.0
 20
8130.0
 10
23400.0
 20
8237.587977089639
 42
0.41421356237309503
 10
23430.0
 20
8267.587977089639
 10
23548.033171034316
 20
8267.587977089639
 42
0.41421356237309503
 10
23578.033171034316
 20
8237.587977089639
 10
23578.033171034316
 20
8130.0
 42
0.41421356237309503
 10
23548.033171034316
 20
8100.0
 10
23430.0
 20
8100.0
 42
0.41421356237309503
  0
LWPOLYLINE
  5
1B3
330
17
100
AcDbEntity
  8
PARTS
100
AcDbPolyline
 90
8
 70
1
 10
24300.0
 20
8130.0
 10
24300.0
 20
8365.722743480843
 42
0.41421356237309503
 10
24330.0
 20
8395.722743480843
 10
24551.10917051051
 20
8395.722743480843
 42
0.41421356237309503
 10
24581.10917051051
 20
8365.722743480843
 10
24581.10917051051
 20
8130.0
 42
0.41421356237309503
 10
24551.10917051051
 20
8100.0
 10
24330.0
 20
8100.0
 42
0.41421356237309503
  0
LWPOLYLINE
  5
1B4
330
17
100
AcDbEntity
  8
PARTS
100
AcDbPolyline
 90
8
 70
1
 10
25200.0
 20
8130.0
 10
25200.0
 20
8275.89575840251
 42
0.41421356237309503
 10
25230.0
 20
8305.89575840251
 10
25417.02048685566
 20
8305.89575840251
 42
0.41421356237309503
 10
25447.02048685566
 20
8275.89575840251
 10
25447.02048685566
 20
8130.0
 42
0.41421356237309503
 10
25417.02048685566
 20
8100.0
 10
25230.0
 20
8100.0
 42
0.41421356237309503
  0
LWPOLYLINE
  5
1B5
330
17
100
AcDbEntity
  8
PARTS
100
AcDbPolyline
 90
8
 70
1
 10
26100.0
 20
8130.0
 10
26100.0
 20
8222.615409973034
 42
0.41421356237309503
 10
26130.0
 20
8252.615409973034
 10
26370.26522428012
 20
8252.615409973034
 42
0.41421356237309503
 10
26400.26522428012
 20
8222.615409973034
 10
26400.26522428012
 20
8130.0
 42
0.41421356237309503
 10
26370.26522428012
 20
8100.0
 10
26130.0
 20
8100.0
 42
0.41421356237309503
  0
LWPOLYLINE
  5
1B6
330
17
100
AcDbEntity
  8
PARTS
100
AcDbPolyline
 90
8
 70
1
 10
27000.0
 20
8130.0
 10
27000.0
 20
8335.17265677192
 42
0.41421356237309503
 10
27030.0
 20
8365.17265677192
 10
27195.38032531063
 20
8365.17265677192
 42
0.41421356237309503
 10
27225.38032531063
 20
8335.17265677192
 10
27225.38032531063
 20
8130.0
 42
0.41421356237309503
 10
27195.38032531063
 20
8100.0
 10
27030.0
 20
8100.0
 42
0.41421356237309503
  0
LWPOLYLINE
  5
1B7
330
17
100
AcDbEntity
  8
PARTS
100
AcDbPolyline
 90
8
 70
1
 10
27900.0
 20
8130.0
 10
27900.0
 20
8381.143909840679
 42
0.41421356237309503
 10
27930.0
 20
8411.143909840679
 10
28259.734992974172
 20
8411.143909840679
 42
0.41421356237309503
 10
28289.734992974172
 20
8381.143909840679
 10
28289.734992974172
 20
8130.0
 42
0.41421356237309503
 10
28259.734992974172
 20
8100.0
 10
27930.0
 20
8100.0
 42
0.41421356237309503
  0
LWPOLYLINE
  5
1B8
330
17
100
AcDbEntity
  8
PARTS
100
AcDbPolyline
 90
8
 70
1
 10
28800.0
 20
8130.0
 10
28800.0
 20
8338.826055016885
 42
0.41421356237309503
 10
28830.0
 20
8368.826055016885
 10
29140.943507258515
 20
8368.826055016885
 42
0.41421356237309503
 10
29170.943507258515
 20
8338.826055016885
 10
29170.943507258515
 20
8130.0
 42
0.41421356237309503
 10
29140.943507258515
 20
8100.0
 10
28830.0
 20
8100.0
 42
0.41421356237309503
  0
LWPOLYLINE
  5
1B9
330
17
100
AcDbEntity
  8
PARTS
100
AcDbPolyline
 90
8
 70
1
 10
29700.0
 20
8130.0
 10
29700.0
 20
8281.764596084657
 42
0.41421356237309503
 10
29730.0
 20
8311.764596084657
 10
29878.692024176944
 20
8311.764596084657
 42
0.41421356237309503
 10
29908.692024176944
 20
8281.764596084657
 10
29908.692024176944
 20
8130.0
 42
0.41421356237309503
 10
29878.692024176944
 20
8100.0
 10
29730.0
 20
8100.0
 42
0.41421356237309503
  0
LWPOLYLINE
  5
1BA
330
17
100
AcDbEntity
  8
PARTS
100
AcDbPolyline
 90
8
 70
1
 10
30600.0
 20
8130.0
 10
30600.0
 20
8396.163415703271
 42
0.41421356237309503
 10
30630.0
 20
8426.163415703271
 10
30960.153557456677
 20
8426.163415703271
 42
0.41421356237309503
 10
30990.153557456677
 20
8396.163415703271
 10
30990.153557456677
 20
8130.0
 42
0.41421356237309503
 10
30960.153557456677
 20
8100.0
 10
30630.0
 20
8100.0
 42
0.41421356237309503
  0
LWPOLYLINE
  5
1BB
330
17
100
AcDbEntity
  8
PARTS
100
AcDbPolyline
 90
8
 70
1
 10
31500.0
 20
8130.0
 10
31500.0
 20
8225.446846027142
 42
0.41421356237309503
 10
31530.0
 20
8255.446846027142
 10
31696.849456979537
 20
8255.446846027142
 42
0.41421356237309503
 10
31726.849456979537
 20
8225.446846027142
 10
31726.849456979537
 20
8130.0
 42
0.41421356237309503
 10
31696.849456979537
 20
8100.0
 10
31530.0
 20
8100.0
 42
0.41421356237309503
  0
LWPOLYLINE
  5
1BC
330
17
100
AcDbEntity
  8
PARTS
100
AcDbPolyline
 90
8
 70
1
 10
32400.0
 20
8130.0
 10
32400.0
 20
8388.615815503836
 42
0.41421356237309503
 10
32430.0
 20
8418.615815503836
 10
32644.577561178892
 20
8418.615815503836
 42
0.41421356237309503
 10
32674.577561178892
 20
8388.615815503836
 10
32674.577561178892
 20
8130.0
 42
0.41421356237309503
 10
32644.577561178892
 20
8100.0
 10
32430.0
 20
8100.0
 42
0.41421356237309503
  0
LWPOLYLINE
  5
1BD
330
17
100
AcDbEntity
  8
PARTS
100
AcDbPolyline
 90
8
 70
1
 10
33300.0
 20
8130.0
 10
33300.0
 20
8284.314030535223
 42
0.41421356237309503
 10
33330.0
 20
8314.314030535223
 10
33525.00396803225
 20
8314.314030535223
 42
0.41421356237309503
 10
33555.00396803225
 20
8284.314030535223
 10
33555.00396803225
 20
8130.0
 42
0.41421356237309503
 10
33525.00396803225
 20
8100.0
 10
33330.0
 20
8100.0
 42
0.41421356237309503
  0
LWPOLYLINE
  5
1BE
330
17
100
AcDbEntity
  8
PARTS
100
AcDbPolyline
 90
8
 70
1
 10
34200.0
 20
8130.0
 10
34200.0
 20
8451.290207002718
 42
0.41421356237309503
 10
34230.0
 20
8481.290207002718
 10
34486.83876220942
 20
8481.290207002718
 42
0.41421356237309503
 10
34516.83876220942
 20
8451.290207002718
 10
34516.83876220942
 20
8130.0
 42
0.41421356237309503
 10
34486.83876220942
 20
8100.0
 10
34230.0
 20
8100.0
 42
0.41421356237309503
  0
LWPOLYLINE
  5
1BF
330
17
100
AcDbEntity
  8
PARTS
100
AcDbPolyline
 90
8
 70
1
 10
35100.0
 20
8130.0
 10
35100.0
 20
8228.524355843334
 42
0.41421356237309503
 10
35130.0
 20
8258.524355843334
 10
35276.696518311175
 20
8258.524355843334
 42
0.41421356237309503
 10
35306.696518311175
 20
8228.524355843334
 10
35306.696518311175
 20
8130.0
 42
0.41421356237309503
 10
35276.696518311175
 20
8100.0
 10
35130.0
 20
8100.0
 42
0.41421356237309503
  0
ENDSEC
  0
SECTION
  2
OBJECTS
  0
DICTIONARY
  5
A
330
0
100
AcDbDictionary
281
1
  3
ACAD_COLOR
350
B
  3
ACAD_GROUP
350
C
  3
ACAD_LAYOUT
350
D
  3
ACAD_MATERIAL
350
E
  3
ACAD_MLEADERSTYLE
350
F
  3
ACAD_MLINESTYLE
350
10
  3
ACAD_PLOTSETTINGS
350
11
  3
ACAD_PLOTSTYLENAME
350
12
  3
ACAD_SCALELIST
350
14
  3
ACAD_TABLESTYLE
350
15
  3
ACAD_VISUALSTYLE
350
16
  3
EZDXF_META
350
2D
  0
DICTIONARY
  5
B
330
A
100
AcDbDictionary
281
1
  0
DICTIONARY
  5
C
330
A
100
AcDbDictionary
281
1
  0
DICTIONARY
  5
D
330
A
100
AcDbDictionary
281
1
  3
Model
350
1A
  3
Layout1
350
1E
  0
DICTIONARY
  5
E
330
A
100
AcDbDictionary
281
1
  3
ByBlock
350
1F
  3
ByLayer
350
20
  3
Global
350
21
  0
DICTIONARY
  5
F
330
A
100
AcDbDictionary
281
1
  3
Standard
350
2C
  0
DICTIONARY
  5
10
330
A
100
AcDbDictionary
281
1
  3
Standard
350
22
  0
DICTIONARY
  5
11
330
A
100
AcDbDictionary
281
1
  0
ACDBDICTIONARYWDFLT
  5
12
330
A
100
AcDbDictionary
281
1
  3
Normal
350
13
100
AcDbDictionaryWithDefault
340
13
  0
ACDBPLACEHOLDER
  5
13
330
12
  0
DICTIONARY
  5
14
330
A
100
AcDbDictionary
281
1
  0
DICTIONARY
  5
15
330
A
100
AcDbDictionary
281
1
  0
DICTIONARY
  5
16
330
A
100
AcDbDictionary
281
1
  0
LAYOUT
  5
1A
330
D
100
AcDbPlotSettings
  1

  4
A3
  6

 40
7.5
 41
20.0
 42
7.5
 43
20.0
 44
420.0
 45
297.0
 46
0.0
 47
0.0
 48
0.0
 49
0.0
140
0.0
141
0.0
142
1.0
143
1.0
 70
1024
 72
1
 73
0
 74
5
  7

 75
16
 76
0
 77
2
 78
300
147
1.0
148
0.0
149
0.0
100
AcDbLayout
  1
Model
 70
1
 71
0
 10
0.0
 20
0.0
 11
420.0
 21
297.0
 12
0.0
 22
0.0
 32
0.0
 14
1e+20
 24
1e+20
 34
1e+20
 15
-1e+20
 25
-1e+20
 35
-1e+20
146
0.0
 13
0.0
 23
0.0
 33
0.0
 16
1.0
 26
0.0
 36
0.0
 17
0.0
 27
1.0
 37
0.0
 76
1
330
17
  0
LAYOUT
  5
1E
330
D
100
AcDbPlotSettings
  1

  4
A3
  6

 40
7.5
 41
20.0
 42
7.5
 43
20.0
 44
420.0
 45
297.0
 46
0.0
 47
0.0
 48
0.0
 49
0.0
140
0.0
141
0.0
142
1.0
143
1.0
 70
0
 72
1
 73
0
 74
5
  7

 75
16
 76
0
 77
2
 78
300
147
1.0
148
0.0
149
0.0
100
AcDbLayout
  1
Layout1
 70
1
 71
1
 10
0.0
 20
0.0
 11
420.0
 21
297.0
 12
0.0
 22
0.0
 32
0.0
 14
1e+20
 24
1e+20
 34
1e+20
 15
-1e+20
 25
-1e+20
 35
-1e+20
146
0.0
 13
0.0
 23
0.0
 33
0.0
 16
1.0
 26
0.0
 36
0.0
 17
0.0
 27
1.0
 37
0.0
 76
1
330
1B
  0
MATERIAL
  5
1F
102
{ACAD_REACTORS
330
E
102
}
330
E
100
AcDbMaterial
  1
ByBlock
  2

 70
0
 40
1.0
 71
1
 41
1.0
 91
-1023410177
 42
1.0
 72
1
  3

 73
1
 74
1
 75
1
 44
0.5
 73
0
 45
1.0
 46
1.0
 77
1
  4

 78
1
 79
1
170
1
 48
1.0
171
1
  6

172
1
173
1
174
1
140
1.0
141
1.0
175
1
  7

176
1
177
1
178
1
143
1.0
179
1
  8

270
1
271
1
272
1
145
1.0
146
1.0
273
1
  9

274
1
275
1
276
1
 42
1.0
 72
1
  3

 73
1
 74
1
 75
1
 94
63
  0
MATERIAL
  5
20
102
{ACAD_REACTORS
330
E
102
}
330
E
100
AcDbMaterial
  1
ByLayer
  2

 70
0
 40
1.0
 71
1
 41
1.0
 91
-1023410177
 42
1.0
 72
1
  3

 73
1
 74
1
 75
1
 44
0.5
 73
0
 45
1.0
 46
1.0
 77
1
  4

 78
1
 79
1
170
1
 48
1.0
171
1
  6

172
1
173
1
174
1
140
1.0
141
1.0
175
1
  7

176
1
177
1
178
1
143
1.0
179
1
  8

270
1
271
1
272
1
145
1.0
146
1.0
273
1
  9

274
1
275
1
276
1
 42
1.0
 72
1
  3

 73
1
 74
1
 75
1
 94
63
  0
MATERIAL
  5
21
102
{ACAD_REACTORS
330
E
102
}
330
E
100
AcDbMaterial
  1
Global
  2

 70
0
 40
1.0
 71
1
 41
1.0
 91
-1023410177
 42
1.0
 72
1
  3

 73
1
 74
1
 75
1
 44
0.5
 73
0
 45
1.0
 46
1.0
 77
1
  4

 78
1
 79
1
170
1
 48
1.0
171
1
  6

172
1
173
1
174
1
140
1.0
141
1.0
175
1
  7

176
1
177
1
178
1
143
1.0
179
1
  8

270
1
271
1
272
1
145
1.0
146
1.0
273
1
  9

274
1
275
1
276
1
 42
1.0
 72
1
  3

 73
1
 74
1
 75
1
 94
63
  0
MLINESTYLE
  5
22
102
{ACAD_REACTORS
330
10
102
}
330
10
100
AcDbMlineStyle
  2
Standard
 70
0
  3

 62
256
 51
90.0
 52
90.0
 71
2
 49
0.5
 62
256
  6
BYLAYER
 49
-0.5
 62
256
  6
BYLAYER
  0
MLEADERSTYLE
  5
2C
102
{ACAD_REACTORS
330
F
102
}
330
F
100
AcDbMLeaderStyle
179
2
170
2
171
1
172
0
 90
2
 40
0.0
 41
0.0
173
1
 91
-1056964608
 92
-2
290
1
 42
2.0
291
1
 43
8.0
  3
Standard
 44
4.0
300

342
29
174
1
175
1
176
0
178
1
 93
-1056964608
 45
4.0
292
0
297
0
 46
4.0
 94
-1056964608
 47
1.0
 49
1.0
140
1.0
294
1
141
0.0
177
0
142
1.0
295
0
296
0
143
3.75
271
0
272
9
273
9
  0
DICTIONARY
  5
2D
330
A
100
AcDbDictionary
280
1
281
1
  3
CREATED_BY_EZDXF
350
2E
  3
WRITTEN_BY_EZDXF
350
1C2
  0
DICTIONARYVAR
  5
2E
330
2D
100
DictionaryVariables
280
0
  1
1.4.4 @ 2026-09-17T09:33:51.900799+00:00
  0
DICTIONARYVAR
  5
1C2
330
2D
100
DictionaryVariables
280
0
  1
1.4.4 @ 2026-09-17T09:33:51.919787+00:00
  0
ENDSEC
  0
EOF
