  0
SECTION
  2
HEADER
  9
$ACADVER
  1
AC1032
  9
$ACADMAINTVER
 90
4
  9
$DWGCODEPAGE
  3
ANSI_1252
  9
$LASTSAVEDBY
  1
ezdxf
  9
$REQUIREDVERSIONS
160
0
  9
$INSBASE
 10
0.0
 20
0.0
 30
0.0
  9
$EXTMIN
 10
1e+20
 20
1e+20
 30
1e+20
  9
$EXTMAX
 10
-1e+20
 20
-1e+20
 30
-1e+20
  9
$LIMMIN
 10
0.0
 20
0.0
  9
$LIMMAX
 10
420.0
 20
297.0
  9
$ORTHOMODE
 70
0
  9
$REGENMODE
 70
1
  9
$FILLMODE
 70
1
  9
$QTEXTMODE
 70
0
  9
$MIRRTEXT
 70
1
  9
$LTSCALE
 40
1.0
  9
$ATTMODE
 70
1
  9
$TEXTSIZE
 40
2.5
  9
$TRACEWID
 40
1.0
  9
$TEXTSTYLE
  7
Standard
  9
$CLAYER
  8
0
  9
$CELTYPE
  6
ByLayer
  9
$CECOLOR
 62
256
  9
$CELTSCALE
 40
1.0
  9
$DISPSILH
 70
0
  9
$DIMSCALE
 40
1.0
  9
$DIMASZ
 40
2.5
  9
$DIMEXO
 40
0.625
  9
$DIMDLI
 40
3.75
  9
$DIMRND
 40
0.0
  9
$DIMDLE
 40
0.0
  9
$DIMEXE
 40
1.25
  9
$DIMTP
 40
0.0
  9
$DIMTM
 40
0.0
  9
$DIMTXT
 40
2.5
  9
$DIMCEN
 40
2.5
  9
$DIMTSZ
 40
0.0
  9
$DIMTOL
 70
0
  9
$DIMLIM
 70
0
  9
$DIMTIH
 70
0
  9
$DIMTOH
 70
0
  9
$DIMSE1
 70
0
  9
$DIMSE2
 70
0
  9
$DIMTAD
 70
1
  9
$DIMZIN
 70
8
  9
$DIMBLK
  1

  9
$DIMASO
 70
1
  9
$DIMSHO
 70
1
  9
$DIMPOST
  1

  9
$DIMAPOST
  1

  9
$DIMALT
 70
0
  9
$DIMALTD
 70
3
  9
$DIMALTF
 40
0.03937007874
  9
$DIMLFAC
 40
1.0
  9
$DIMTOFL
 70
1
  9
$DIMTVP
 40
0.0
  9
$DIMTIX
 70
0
  9
$DIMSOXD
 70
0
  9
$DIMSAH
 70
0
  9
$DIMBLK1
  1

  9
$DIMBLK2
  1

  9
$DIMSTYLE
  2
ISO-25
  9
$DIMCLRD
 70
0
  9
$DIMCLRE
 70
0
  9
$DIMCLRT
 70
0
  9
$DIMTFAC
 40
1.0
  9
$DIMGAP
 40
0.625
  9
$DIMJUST
 70
0
  9
$DIMSD1
 70
0
  9
$DIMSD2
 70
0
  9
$DIMTOLJ
 70
0
  9
$DIMTZIN
 70
8
  9
$DIMALTZ
 70
0
  9
$DIMALTTZ
 70
0
  9
$DIMUPT
 70
0
  9
$DIMDEC
 70
2
  9
$DIMTDEC
 70
2
  9
$DIMALTU
 70
2
  9
$DIMALTTD
 70
3
  9
$DIMTXSTY
  7
Standard
  9
$DIMAUNIT
 70
0
  9
$DIMADEC
 70
0
  9
$DIMALTRND
 40
0.0
  9
$DIMAZIN
 70
0
  9
$DIMDSEP
 70
44
  9
$DIMATFIT
 70
3
  9
$DIMFRAC
 70
0
  9
$DIMLDRBLK
  1

  9
$DIMLUNIT
 70
2
  9
$DIMLWD
 70
-2
  9
$DIMLWE
 70
-2
  9
$DIMTMOVE
 70
0
  9
$DIMFXL
 40
1.0
  9
$DIMFXLON
 70
0
  9
$DIMJOGANG
 40
0.785398163397
  9
$DIMTFILL
 70
0
  9
$DIMTFILLCLR
 70
0
  9
$DIMARCSYM
 70
0
  9
$DIMLTYPE
  6

  9
$DIMLTEX1
  6

  9
$DIMLTEX2
  6

  9
$DIMTXTDIRECTION
 70
0
  9
$LUNITS
 70
2
  9
$LUPREC
 70
4
  9
$SKETCHINC
 40
1.0
  9
$FILLETRAD
 40
10.0
  9
$AUNITS
 70
0
  9
$AUPREC
 70
2
  9
$MENU
  1
.
  9
$ELEVATION
 40
0.0
  9
$PELEVATION
 40
0.0
  9
$THICKNESS
 40
0.0
  9
$LIMCHECK
 70
0
  9
$CHAMFERA
 40
0.0
  9
$CHAMFERB
 40
0.0
  9
$CHAMFERC
 40
0.0
  9
$CHAMFERD
 40
0.0
  9
$SKPOLY
 70
0
  9
$TDCREATE
 40
2461301.4407175924
  9
$TDUCREATE
 40
2458532.153996898
  9
$TDUPDATE
 40
2461301.4407175924
  9
$TDUUPDATE
 40
2458532.1544311
  9
$TDINDWG
 40
0.0
  9
$TDUSRTIMER
 40
0.0
  9
$USRTIMER
 70
1
  9
$ANGBASE
 50
0.0
  9
$ANGDIR
 70
0
  9
$PDMODE
 70
0
  9
$PDSIZE
 40
0.0
  9
$PLINEWID
 40
0.0
  9
$SPLFRAME
 70
0
  9
$SPLINETYPE
 70
6
  9
$SPLINESEGS
 70
8
  9
$HANDSEED
  5
67
  9
$SURFTAB1
 70
6
  9
$SURFTAB2
 70
6
  9
$SURFTYPE
 70
6
  9
$SURFU
 70
6
  9
$SURFV
 70
6
  9
$UCSBASE
  2

  9
$UCSNAME
  2

  9
$UCSORG
 10
0.0
 20
0.0
 30
0.0
  9
$UCSXDIR
 10
1.0
 20
0.0
 30
0.0
  9
$UCSYDIR
 10
0.0
 20
1.0
 30
0.0
  9
$UCSORTHOREF
  2

  9
$UCSORTHOVIEW
 70
0
  9
$UCSORGTOP
 10
0.0
 20
0.0
 30
0.0
  9
$UCSORGBOTTOM
 10
0.0
 20
0.0
 30
0.0
  9
$UCSORGLEFT
 10
0.0
 20
0.0
 30
0.0
  9
$UCSORGRIGHT
 10
0.0
 20
0.0
 30
0.0
  9
$UCSORGFRONT
 10
0.0
 20
0.0
 30
0.0
  9
$UCSORGBACK
 10
0.0
 20
0.0
 30
0.0
  9
$PUCSBASE
  2

  9
$PUCSNAME
  2

  9
$PUCSORG
 10
0.0
 20
0.0
 30
0.0
  9
$PUCSXDIR
 10
1.0
 20
0.0
 30
0.0
  9
$PUCSYDIR
 10
0.0
 20
1.0
 30
0.0
  9
$PUCSORTHOREF
  2

  9
$PUCSORTHOVIEW
 70
0
  9
$PUCSORGTOP
 10
0.0
 20
0.0
 30
0.0
  9
$PUCSORGBOTTOM
 10
0.0
 20
0.0
 30
0.0
  9
$PUCSORGLEFT
 10
0.0
 20
0.0
 30
0.0
  9
$PUCSORGRIGHT
 10
0.0
 20
0.0
 30
0.0
  9
$PUCSORGFRONT
 10
0.0
 20
0.0
 30
0.0
  9
$PUCSORGBACK
 10
0.0
 20
0.0
 30
0.0
  9
$USERI1
 70
0
  9
$USERI2
 70
0
  9
$USERI3
 70
0
  9
$USERI4
 70
0
  9
$USERI5
 70
0
  9
$USERR1
 40
0.0
  9
$USERR2
 40
0.0
  9
$USERR3
 40
0.0
  9
$USERR4
 40
0.0
  9
$USERR5
 40
0.0
  9
$WORLDVIEW
 70
1
  9
$SHADEDGE
 70
3
  9
$SHADEDIF
 70
70
  9
$TILEMODE
 70
1
  9
$MAXACTVP
 70
64
  9
$PINSBASE
 10
0.0
 20
0.0
 30
0.0
  9
$PLIMCHECK
 70
0
  9
$PEXTMIN
 10
1e+20
 20
1e+20
 30
1e+20
  9
$PEXTMAX
 10
-1e+20
 20
-1e+20
 30
-1e+20
  9
$PLIMMIN
 10
0.0
 20
0.0
  9
$PLIMMAX
 10
420.0
 20
297.0
  9
$UNITMODE
 70
0
  9
$VISRETAIN
 70
1
  9
$PLINEGEN
 70
0
  9
$PSLTSCALE
 70
1
  9
$TREEDEPTH
 70
3020
  9
$CMLSTYLE
  2
Standard
  9
$CMLJUST
 70
0
  9
$CMLSCALE
 40
20.0
  9
$PROXYGRAPHICS
 70
1
  9
$MEASUREMENT
 70
1
  9
$CELWEIGHT
370
-1
  9
$ENDCAPS
280
0
  9
$JOINSTYLE
280
0
  9
$LWDISPLAY
290
0
  9
$INSUNITS
 70
4
  9
$HYPERLINKBASE
  1

  9
$STYLESHEET
  1

  9
$XEDIT
290
1
  9
$CEPSNTYPE
380
0
  9
$PSTYLEMODE
290
1
  9
$FINGERPRINTGUID
  2
{6D078957-8AAF-46DE-836F-8F99650E90E8}
  9
$VERSIONGUID
  2
{2506EE00-2832-4349-829E-DBD6D0EF398A}
  9
$EXTNAMES
290
1
  9
$PSVPSCALE
 40
0.0
  9
$OLESTARTUP
290
0
  9
$SORTENTS
280
127
  9
$INDEXCTL
280
0
  9
$HIDETEXT
280
1
  9
$XCLIPFRAME
280
1
  9
$HALOGAP
280
0
  9
$OBSCOLOR
 70
257
  9
$OBSLTYPE
280
0
  9
$INTERSECTIONDISPLAY
280
0
  9
$INTERSECTIONCOLOR
 70
257
  9
$DIMASSOC
280
2
  9
$PROJECTNAME
  1

  9
$CAMERADISPLAY
290
0
  9
$LENSLENGTH
 40
50.0
  9
$CAMERAHEIGHT
 40
0.0
  9
$STEPSPERSEC
 40
24.0
  9
$STEPSIZE
 40
100.0
  9
$3DDWFPREC
 40
2.0
  9
$PSOLWIDTH
 40
0.005
  9
$PSOLHEIGHT
 40
0.08
  9
$LOFTANG1
 40
1.570796326795
  9
$LOFTANG2
 40
1.570796326795
  9
$LOFTMAG1
 40
0.0
  9
$LOFTMAG2
 40
0.0
  9
$LOFTPARAM
 70
7
  9
$LOFTNORMALS
280
1
  9
$LATITUDE
 40
37.795
  9
$LONGITUDE
 40
-122.394
  9
$NORTHDIRECTION
 40
0.0
  9
$TIMEZONE
 70
-8000
  9
$LIGHTGLYPHDISPLAY
280
1
  9
$TILEMODELIGHTSYNCH
280
1
  9
$CMATERIAL
347
20
  9
$SOLIDHIST
280
0
  9
$SHOWHIST
280
1
  9
$DWFFRAME
280
2
  9
$DGNFRAME
280
2
  9
$REALWORLDSCALE
290
1
  9
$INTERFERECOLOR
 62
256
  9
$CSHADOW
280
0
  9
$SHADOWPLANELOCATION
 40
0.0
  0
ENDSEC
  0
SECTION
  2
CLASSES
  0
CLASS
  1
ACDBDICTIONARYWDFLT
  2
AcDbDictionaryWithDefault
  3
ObjectDBX Classes
 90
0
 91
0
280
0
281
0
  0
CLASS
  1
SUN
  2
AcDbSun
  3
SCENEOE
 90
1153
 91
0
280
0
281
0
  0
CLASS
  1
VISUALSTYLE
  2
AcDbVisualStyle
  3
ObjectDBX Classes
 90
4095
 91
0
280
0
281
0
  0
CLASS
  1
MATERIAL
  2
AcDbMaterial
  3
ObjectDBX Classes
 90
1153
 91
0
280
0
281
0
  0
CLASS
  1
SCALE
  2
AcDbScale
  3
ObjectDBX Classes
 90
1153
 91
0
280
0
281
0
  0
CLASS
  1
TABLESTYLE
  2
AcDbTableStyle
  3
ObjectDBX Classes
 90
4095
 91
0
280
0
281
0
  0
CLASS
  1
MLEADERSTYLE
  2
AcDbMLeaderStyle
  3
ACDB_MLEADERSTYLE_CLASS
 90
4095
 91
0
280
0
281
0
  0
CLASS
  1
DICTIONARYVAR
  2
AcDbDictionaryVar
  3
ObjectDBX Classes
 90
0
 91
0
280
0
281
0
  0
CLASS
  1
CELLSTYLEMAP
  2
AcDbCellStyleMap
  3
ObjectDBX Classes
 90
1152
 91
0
280
0
281
0
  0
CLASS
  1
MENTALRAYRENDERSETTINGS
  2
AcDbMentalRayRenderSettings
  3
SCENEOE
 90
1024
 91
0
280
0
281
0
  0
CLASS
  1
ACDBDETAILVIEWSTYLE
  2
AcDbDetailViewStyle
  3
ObjectDBX Classes
 90
1025
 91
0
280
0
281
0
  0
CLASS
  1
ACDBSECTIONVIEWSTYLE
  2
AcDbSectionViewStyle
  3
ObjectDBX Classes
 90
1025
 91
0
280
0
281
0
  0
CLASS
  1
RASTERVARIABLES
  2
AcDbRasterVariables
  3
ISM
 90
0
 91
0
280
0
281
0
  0
CLASS
  1
ACDBPLACEHOLDER
  2
AcDbPlaceHolder
  3
ObjectDBX Classes
 90
0
 91
0
280
0
281
0
  0
CLASS
  1
LAYOUT
  2
AcDbLayout
  3
ObjectDBX Classes
 90
0
 91
0
280
0
281
0
  0
ENDSEC
  0
SECTION
  2
TABLES
  0
TABLE
  2
VPORT
  5
8
330
0
100
AcDbSymbolTable
 70
1
  0
VPORT
  5
23
330
8
100
AcDbSymbolTableRecord
100
AcDbViewportTableRecord
  2
*Active
 70
0
 10
0.0
 20
0.0
 11
1.0
 21
1.0
 12
0.0
 22
0.0
 13
0.0
 23
0.0
 14
0.5
 24
0.5
 15
0.5
 25
0.5
 16
0.0
 26
0.0
 36
1.0
 17
0.0
 27
0.0
 37
0.0
 40
1000.0
 41
1.34
 42
50.0
 43
0.0
 44
0.0
 50
0.0
 51
0.0
 71
0
 72
1000
 73
1
 74
3
 75
0
 76
0
 77
0
 78
0
281
0
 65
0
146
0.0
  0
ENDTAB
  0
TABLE
  2
LTYPE
  5
2
330
0
100
AcDbSymbolTable
 70
3
  0
LTYPE
  5
24
330
2
100
AcDbSymbolTableRecord
100
AcDbLinetypeTableRecord
  2
ByBlock
 70
0
  3

 72
65
 73
0
 40
0.0
  0
LTYPE
  5
25
330
2
100
AcDbSymbolTableRecord
100
AcDbLinetypeTableRecord
  2
ByLayer
 70
0
  3

 72
65
 73
0
 40
0.0
  0
LTYPE
  5
26
330
2
100
AcDbSymbolTableRecord
100
AcDbLinetypeTableRecord
  2
Continuous
 70
0
  3

 72
65
 73
0
 40
0.0
  0
ENDTAB
  0
TABLE
  2
LAYER
  5
1
330
0
100
AcDbSymbolTable
 70
7
  0
LAYER
  5
27
330
1
100
AcDbSymbolTableRecord
100
AcDbLayerTableRecord
  2
0
 70
0
 62
7
  6
Continuous
370
-3
390
13
347
21
  0
LAYER
  5
28
330
1
100
AcDbSymbolTableRecord
100
AcDbLayerTableRecord
  2
Defpoints
 70
0
 62
7
  6
Continuous
290
0
370
-3
390
13
347
21
  0
LAYER
  5
2F
330
1
100
AcDbSymbolTableRecord
100
AcDbLayerTableRecord
  2
CNC_BOUNDARY
 70
0
 62
1
  6
Continuous
370
-3
390
13
347
21
  0
LAYER
  5
30
330
1
100
AcDbSymbolTableRecord
100
AcDbLayerTableRecord
  2
CUT
 70
0
 62
7
  6
Continuous
370
-3
390
13
347
21
  0
LAYER
  5
31
330
1
100
AcDbSymbolTableRecord
100
AcDbLayerTableRecord
  2
ETCH
 70
0
 62
2
  6
Continuous
370
-3
390
13
347
21
  0
LAYER
  5
32
330
1
100
AcDbSymbolTableRecord
100
AcDbLayerTableRecord
  2
OFFCUT
 70
0
 62
4
  6
Continuous
370
-3
390
13
347
21
  0
LAYER
  5
33
330
1
100
AcDbSymbolTableRecord
100
AcDbLayerTableRecord
  2
INFO
 70
0
 62
8
  6
Continuous
370
-3
390
13
347
21
  0
ENDTAB
  0
TABLE
  2
STYLE
  5
5
330
0
100
AcDbSymbolTable
 70
1
  0
STYLE
  5
29
330
5
100
AcDbSymbolTableRecord
100
AcDbTextStyleTableRecord
  2
Standard
 70
0
 40
0.0
 41
1.0
 50
0.0
 71
0
 42
2.5
  3
txt
  4

  0
ENDTAB
  0
TABLE
  2
VIEW
  5
7
330
0
100
AcDbSymbolTable
 70
0
  0
ENDTAB
  0
TABLE
  2
UCS
  5
6
330
0
100
AcDbSymbolTable
 70
0
  0
ENDTAB
  0
TABLE
  2
APPID
  5
3
330
0
100
AcDbSymbolTable
 70
3
  0
APPID
  5
2A
330
3
100
AcDbSymbolTableRecord
100
AcDbRegAppTableRecord
  2
ACAD
 70
0
  0
APPID
  5
64
330
3
100
AcDbSymbolTableRecord
100
AcDbRegAppTableRecord
  2
HATCHBACKGROUNDCOLOR
 70
0
  0
APPID
  5
65
330
3
100
AcDbSymbolTableRecord
100
AcDbRegAppTableRecord
  2
EZDXF
 70
0
  0
ENDTAB
  0
TABLE
  2
DIMSTYLE
  5
4
330
0
100
AcDbSymbolTable
 70
1
100
AcDbDimStyleTable
  0
DIMSTYLE
105
2B
330
4
100
AcDbSymbolTableRecord
100
AcDbDimStyleTableRecord
  2
Standard
 70
0
 40
1.0
 41
2.5
 42
0.625
 43
3.75
 44
1.25
 45
0.0
 46
0.0
 47
0.0
 48
0.0
 49
2.5
140
2.5
141
2.5
142
0.0
143
0.03937007874
144
1.0
145
0.0
146
1.0
147
0.625
148
0.0
 69
0
 70
0
 71
0
 72
0
 73
0
 74
0
 75
0
 76
0
 77
1
 78
8
 79
3
170
0
171
3
172
1
173
0
174
0
175
0
176
0
177
0
178
0
179
2
271
2
272
2
273
2
274
3
275
0
276
0
277
2
278
44
279
0
280
0
281
0
282
0
283
0
284
8
285
0
286
0
288
0
289
3
290
0
371
-2
372
-2
  0
ENDTAB
  0
TABLE
  2
BLOCK_RECORD
  5
9
330
0
100
AcDbSymbolTable
 70
2
  0
BLOCK_RECORD
  5
17
330
9
100
AcDbSymbolTableRecord
100
AcDbBlockTableRecord
  2
*Model_Space
340
1A
 70
0
280
1
281
0
  0
BLOCK_RECORD
  5
1B
330
9
100
AcDbSymbolTableRecord
100
AcDbBlockTableRecord
  2
*Paper_Space
340
1E
 70
0
280
1
281
0
  0
ENDTAB
  0
ENDSEC
  0
SECTION
  2
BLOCKS
  0
BLOCK
  5
18
330
17
100
AcDbEntity
  8
0
100
AcDbBlockBegin
  2
*Model_Space
 70
0
 10
0.0
 20
0.0
 30
0.0
  3
*Model_Space
  1

  0
ENDBLK
  5
19
330
17
100
AcDbEntity
  8
0
100
AcDbBlockEnd
  0
BLOCK
  5
1C
330
1B
100
AcDbEntity
  8
0
100
AcDbBlockBegin
  2
*Paper_Space
 70
0
 10
0.0
 20
0.0
 30
0.0
  3
*Paper_Space
  1

  0
ENDBLK
  5
1D
330
1B
100
AcDbEntity
  8
0
100
AcDbBlockEnd
  0
ENDSEC
  0
SECTION
  2
ENTITIES
  0
LWPOLYLINE
  5
34
330
17
100
AcDbEntity
  8
CNC_BOUNDARY
100
AcDbPolyline
 90
4
 70
1
 10
0.0
 20
0.0
 10
1220.0
 20
0.0
 10
1220.0
 20
2440.0
 10
0.0
 20
2440.0
  0
LWPOLYLINE
  5
35
330
17
100
AcDbEntity
  8
CUT
100
AcDbPolyline
 90
129
 70
1
 10
410.0
 20
210.0
 10
409.7398
 20
199.708
 10
408.9674
 20
189.5512
 10
407.6956
 20
179.542
 10
405.9367
 20
169.693
 10
403.7035
 20
160.0169
 10
401.0084
 20
150.5261
 10
397.8641
 20
141.2333
 10
394.283
 20
132.151
 10
390.2778
 20
123.2917
 10
385.8611
 20
114.6681
 10
381.0453
 20
106.2927
 10
375.8431
 20
98.1781
 10
370.2671
 20
90.3368
 10
364.3297
 20
82.7814
 10
358.0436
 20
75.5245
 10
351.4214
 20
68.5786
 10
344.4755
 20
61.9564
 10
337.2186
 20
55.6703
 10
329.6632
 20
49.7329
 10
321.8219
 20
44.1569
 10
313.7073
 20
38.9547
 10
305.3319
 20
34.1389
 10
296.7083
 20
29.7222
 10
287.849
 20
25.717
 10
278.7667
 20
22.1359
 10
269.4739
 20
18.9916
 10
259.9831
 20
16.2965
 10
250.307
 20
14.0633
 10
240.458
 20
12.3044
 10
230.4488
 20
11.0326
 10
220.292
 20
10.2602
 10
210.0
 20
10.0
 10
199.708
 20
10.2602
 10
189.5512
 20
11.0326
 10
179.542
 20
12.3044
 10
169.693
 20
14.0633
 10
160.0169
 20
16.2965
 10
150.5261
 20
18.9916
 10
141.2333
 20
22.1359
 10
132.151
 20
25.717
 10
123.2917
 20
29.7222
 10
114.6681
 20
34.1389
 10
106.2927
 20
38.9547
 10
98.1781
 20
44.1569
 10
90.3368
 20
49.7329
 10
82.7814
 20
55.6703
 10
75.5245
 20
61.9564
 10
68.5786
 20
68.5786
 10
61.9564
 20
75.5245
 10
55.6703
 20
82.7814
 10
49.7329
 20
90.3368
 10
44.1569
 20
98.1781
 10
38.9547
 20
106.2927
 10
34.1389
 20
114.6681
 10
29.7222
 20
123.2917
 10
25.717
 20
132.151
 10
22.1359
 20
141.2333
 10
18.9916
 20
150.5261
 10
16.2965
 20
160.0169
 10
14.0633
 20
169.693
 10
12.3044
 20
179.542
 10
11.0326
 20
189.5512
 10
10.2602
 20
199.708
 10
10.0
 20
210.0
 10
10.2602
 20
220.292
 10
11.0326
 20
230.4488
 10
12.3044
 20
240.458
 10
14.0633
 20
250.307
 10
16.2965
 20
259.9831
 10
18.9916
 20
269.4739
 10
22.1359
 20
278.7667
 10
25.717
 20
287.849
 10
29.7222
 20
296.7083
 10
34.1389
 20
305.3319
 10
38.9547
 20
313.7073
 10
44.1569
 20
321.8219
 10
49.7329
 20
329.6632
 10
55.6703
 20
337.2186
 10
61.9564
 20
344.4755
 10
68.5786
 20
351.4214
 10
75.5245
 20
358.0436
 10
82.7814
 20
364.3297
 10
90.3368
 20
370.2671
 10
98.1781
 20
375.8431
 10
106.2927
 20
381.0453
 10
114.6681
 20
385.8611
 10
123.2917
 20
390.2778
 10
132.151
 20
394.283
 10
141.2333
 20
397.8641
 10
150.5261
 20
401.0084
 10
160.0169
 20
403.7035
 10
169.693
 20
405.9367
 10
179.542
 20
407.6956
 10
189.5512
 20
408.9674
 10
199.708
 20
409.7398
 10
210.0
 20
410.0
 10
220.292
 20
409.7398
 10
230.4488
 20
408.9674
 10
240.458
 20
407.6956
 10
250.307
 20
405.9367
 10
259.9831
 20
403.7035
 10
269.4739
 20
401.0084
 10
278.7667
 20
397.8641
 10
287.849
 20
394.283
 10
296.7083
 20
390.2778
 10
305.3319
 20
385.8611
 10
313.7073
 20
381.0453
 10
321.8219
 20
375.8431
 10
329.6632
 20
370.2671
 10
337.2186
 20
364.3297
 10
344.4755
 20
358.0436
 10
351.4214
 20
351.4214
 10
358.0436
 20
344.4755
 10
364.3297
 20
337.2186
 10
370.2671
 20
329.6632
 10
375.8431
 20
321.8219
 10
381.0453
 20
313.7073
 10
385.8611
 20
305.3319
 10
390.2778
 20
296.7083
 10
394.283
 20
287.849
 10
397.8641
 20
278.7667
 10
401.0084
 20
269.4739
 10
403.7035
 20
259.9831
 10
405.9367
 20
250.307
 10
407.6956
 20
240.458
 10
408.9674
 20
230.4488
 10
409.7398
 20
220.292
 10
410.0
 20
210.0
  0
LWPOLYLINE
  5
36
330
17
100
AcDbEntity
  8
CUT
100
AcDbPolyline
 90
129
 70
1
 10
330.0
 20
210.0
 10
329.8439
 20
203.8248
 10
329.3805
 20
197.7307
 10
328.6173
 20
191.7252
 10
327.562
 20
185.8158
 10
326.2221
 20
180.0101
 10
324.605
 20
174.3157
 10
322.7184
 20
168.74
 10
320.5698
 20
163.2906
 10
318.1667
 20
157.975
 10
315.5166
 20
152.8009
 10
312.6272
 20
147.7756
 10
309.5059
 20
142.9069
 10
306.1603
 20
138.2021
 10
302.5978
 20
133.6689
 10
298.8262
 20
129.3147
 10
294.8528
 20
125.1472
 10
290.6853
 20
121.1738
 10
286.3311
 20
117.4022
 10
281.7979
 20
113.8397
 10
277.0931
 20
110.4941
 10
272.2244
 20
107.3728
 10
267.1991
 20
104.4834
 10
262.025
 20
101.8333
 10
256.7094
 20
99.4302
 10
251.26
 20
97.2816
 10
245.6843
 20
95.395
 10
239.9899
 20
93.7779
 10
234.1842
 20
92.438
 10
228.2748
 20
91.3827
 10
222.2693
 20
90.6195
 10
216.1752
 20
90.1561
 10
210.0
 20
90.0
 10
203.8248
 20
90.1561
 10
197.7307
 20
90.6195
 10
191.7252
 20
91.3827
 10
185.8158
 20
92.438
 10
180.0101
 20
93.7779
 10
174.3157
 20
95.395
 10
168.74
 20
97.2816
 10
163.2906
 20
99.4302
 10
157.975
 20
101.8333
 10
152.8009
 20
104.4834
 10
147.7756
 20
107.3728
 10
142.9069
 20
110.4941
 10
138.2021
 20
113.8397
 10
133.6689
 20
117.4022
 10
129.3147
 20
121.1738
 10
125.1472
 20
125.1472
 10
121.1738
 20
129.3147
 10
117.4022
 20
133.6689
 10
113.8397
 20
138.2021
 10
110.4941
 20
142.9069
 10
107.3728
 20
147.7756
 10
104.4834
 20
152.8009
 10
101.8333
 20
157.975
 10
99.4302
 20
163.2906
 10
97.2816
 20
168.74
 10
95.395
 20
174.3157
 10
93.7779
 20
180.0101
 10
92.438
 20
185.8158
 10
91.3827
 20
191.7252
 10
90.6195
 20
197.7307
 10
90.1561
 20
203.8248
 10
90.0
 20
210.0
 10
90.1561
 20
216.1752
 10
90.6195
 20
222.2693
 10
91.3827
 20
228.2748
 10
92.438
 20
234.1842
 10
93.7779
 20
239.9899
 10
95.395
 20
245.6843
 10
97.2816
 20
251.26
 10
99.4302
 20
256.7094
 10
101.8333
 20
262.025
 10
104.4834
 20
267.1991
 10
107.3728
 20
272.2244
 10
110.4941
 20
277.0931
 10
113.8397
 20
281.7979
 10
117.4022
 20
286.3311
 10
121.1738
 20
290.6853
 10
125.1472
 20
294.8528
 10
129.3147
 20
298.8262
 10
133.6689
 20
302.5978
 10
138.2021
 20
306.1603
 10
142.9069
 20
309.5059
 10
147.7756
 20
312.6272
 10
152.8009
 20
315.5166
 10
157.975
 20
318.1667
 10
163.2906
 20
320.5698
 10
168.74
 20
322.7184
 10
174.3157
 20
324.605
 10
180.0101
 20
326.2221
 10
185.8158
 20
327.562
 10
191.7252
 20
328.6173
 10
197.7307
 20
329.3805
 10
203.8248
 20
329.8439
 10
210.0
 20
330.0
 10
216.1752
 20
329.8439
 10
222.2693
 20
329.3805
 10
228.2748
 20
328.6173
 10
234.1842
 20
327.562
 10
239.9899
 20
326.2221
 10
245.6843
 20
324.605
 10
251.26
 20
322.7184
 10
256.7094
 20
320.5698
 10
262.025
 20
318.1667
 10
267.1991
 20
315.5166
 10
272.2244
 20
312.6272
 10
277.0931
 20
309.5059
 10
281.7979
 20
306.1603
 10
286.3311
 20
302.5978
 10
290.6853
 20
298.8262
 10
294.8528
 20
294.8528
 10
298.8262
 20
290.6853
 10
302.5978
 20
286.3311
 10
306.1603
 20
281.7979
 10
309.5059
 20
277.0931
 10
312.6272
 20
272.2244
 10
315.5166
 20
267.1991
 10
318.1667
 20
262.025
 10
320.5698
 20
256.7094
 10
322.7184
 20
251.26
 10
324.605
 20
245.6843
 10
326.2221
 20
239.9899
 10
327.562
 20
234.1842
 10
328.6173
 20
228.2748
 10
329.3805
 20
222.2693
 10
329.8439
 20
216.1752
 10
330.0
 20
210.0
  0
TEXT
  5
37
330
17
100
AcDbEntity
  8
ETCH
100
AcDbText
 10
210.0
 20
210.0
 30
0.0
 40
24.0
  1
P007
 72
1
 11
210.0
 21
210.0
 31
0.0
100
AcDbText
 73
2
  0
LWPOLYLINE
  5
38
330
17
100
AcDbEntity
  8
CUT
100
AcDbPolyline
 90
129
 70
1
 10
824.0
 20
210.0
 10
823.7398
 20
199.708
 10
822.9674
 20
189.5512
 10
821.6956
 20
179.542
 10
819.9367
 20
169.693
 10
817.7035
 20
160.0169
 10
815.0084
 20
150.5261
 10
811.8641
 20
141.2333
 10
808.283
 20
132.151
 10
804.2778
 20
123.2917
 10
799.8611
 20
114.6681
 10
795.0453
 20
106.2927
 10
789.8431
 20
98.1781
 10
784.2671
 20
90.3368
 10
778.3297
 20
82.7814
 10
772.0436
 20
75.5245
 10
765.4214
 20
68.5786
 10
758.4755
 20
61.9564
 10
751.2186
 20
55.6703
 10
743.6632
 20
49.7329
 10
735.8219
 20
44.1569
 10
727.7073
 20
38.9547
 10
719.3319
 20
34.1389
 10
710.7083
 20
29.7222
 10
701.849
 20
25.717
 10
692.7667
 20
22.1359
 10
683.4739
 20
18.9916
 10
673.9831
 20
16.2965
 10
664.307
 20
14.0633
 10
654.458
 20
12.3044
 10
644.4488
 20
11.0326
 10
634.292
 20
10.2602
 10
624.0
 20
10.0
 10
613.708
 20
10.2602
 10
603.5512
 20
11.0326
 10
593.542
 20
12.3044
 10
583.693
 20
14.0633
 10
574.0169
 20
16.2965
 10
564.5261
 20
18.9916
 10
555.2333
 20
22.1359
 10
546.151
 20
25.717
 10
537.2917
 20
29.7222
 10
528.6681
 20
34.1389
 10
520.2927
 20
38.9547
 10
512.1781
 20
44.1569
 10
504.3368
 20
49.7329
 10
496.7814
 20
55.6703
 10
489.5245
 20
61.9564
 10
482.5786
 20
68.5786
 10
475.9564
 20
75.5245
 10
469.6703
 20
82.7814
 10
463.7329
 20
90.3368
 10
458.1569
 20
98.1781
 10
452.9547
 20
106.2927
 10
448.1389
 20
114.6681
 10
443.7222
 20
123.2917
 10
439.717
 20
132.151
 10
436.1359
 20
141.2333
 10
432.9916
 20
150.5261
 10
430.2965
 20
160.0169
 10
428.0633
 20
169.693
 10
426.3044
 20
179.542
 10
425.0326
 20
189.5512
 10
424.2602
 20
199.708
 10
424.0
 20
210.0
 10
424.2602
 20
220.292
 10
425.0326
 20
230.4488
 10
426.3044
 20
240.458
 10
428.0633
 20
250.307
 10
430.2965
 20
259.9831
 10
432.9916
 20
269.4739
 10
436.1359
 20
278.7667
 10
439.717
 20
287.849
 10
443.7222
 20
296.7083
 10
448.1389
 20
305.3319
 10
452.9547
 20
313.7073
 10
458.1569
 20
321.8219
 10
463.7329
 20
329.6632
 10
469.6703
 20
337.2186
 10
475.9564
 20
344.4755
 10
482.5786
 20
351.4214
 10
489.5245
 20
358.0436
 10
496.7814
 20
364.3297
 10
504.3368
 20
370.2671
 10
512.1781
 20
375.8431
 10
520.2927
 20
381.0453
 10
528.6681
 20
385.8611
 10
537.2917
 20
390.2778
 10
546.151
 20
394.283
 10
555.2333
 20
397.8641
 10
564.5261
 20
401.0084
 10
574.0169
 20
403.7035
 10
583.693
 20
405.9367
 10
593.542
 20
407.6956
 10
603.5512
 20
408.9674
 10
613.708
 20
409.7398
 10
624.0
 20
410.0
 10
634.292
 20
409.7398
 10
644.4488
 20
408.9674
 10
654.458
 20
407.6956
 10
664.307
 20
405.9367
 10
673.9831
 20
403.7035
 10
683.4739
 20
401.0084
 10
692.7667
 20
397.8641
 10
701.849
 20
394.283
 10
710.7083
 20
390.2778
 10
719.3319
 20
385.8611
 10
727.7073
 20
381.0453
 10
735.8219
 20
375.8431
 10
743.6632
 20
370.2671
 10
751.2186
 20
364.3297
 10
758.4755
 20
358.0436
 10
765.4214
 20
351.4214
 10
772.0436
 20
344.4755
 10
778.3297
 20
337.2186
 10
784.2671
 20
329.6632
 10
789.8431
 20
321.8219
 10
795.0453
 20
313.7073
 10
799.8611
 20
305.3319
 10
804.2778
 20
296.7083
 10
808.283
 20
287.849
 10
811.8641
 20
278.7667
 10
815.0084
 20
269.4739
 10
817.7035
 20
259.9831
 10
819.9367
 20
250.307
 10
821.6956
 20
240.458
 10
822.9674
 20
230.4488
 10
823.7398
 20
220.292
 10
824.0
 20
210.0
  0
LWPOLYLINE
  5
39
330
17
100
AcDbEntity
  8
CUT
100
AcDbPolyline
 90
129
 70
1
 10
744.0
 20
210.0
 10
743.8439
 20
203.8248
 10
743.3805
 20
197.7307
 10
742.6173
 20
191.7252
 10
741.562
 20
185.8158
 10
740.2221
 20
180.0101
 10
738.605
 20
174.3157
 10
736.7184
 20
168.74
 10
734.5698
 20
163.2906
 10
732.1667
 20
157.975
 10
729.5166
 20
152.8009
 10
726.6272
 20
147.7756
 10
723.5059
 20
142.9069
 10
720.1603
 20
138.2021
 10
716.5978
 20
133.6689
 10
712.8262
 20
129.3147
 10
708.8528
 20
125.1472
 10
704.6853
 20
121.1738
 10
700.3311
 20
117.4022
 10
695.7979
 20
113.8397
 10
691.0931
 20
110.4941
 10
686.2244
 20
107.3728
 10
681.1991
 20
104.4834
 10
676.025
 20
101.8333
 10
670.7094
 20
99.4302
 10
665.26
 20
97.2816
 10
659.6843
 20
95.395
 10
653.9899
 20
93.7779
 10
648.1842
 20
92.438
 10
642.2748
 20
91.3827
 10
636.2693
 20
90.6195
 10
630.1752
 20
90.1561
 10
624.0
 20
90.0
 10
617.8248
 20
90.1561
 10
611.7307
 20
90.6195
 10
605.7252
 20
91.3827
 10
599.8158
 20
92.438
 10
594.0101
 20
93.7779
 10
588.3157
 20
95.395
 10
582.74
 20
97.2816
 10
577.2906
 20
99.4302
 10
571.975
 20
101.8333
 10
566.8009
 20
104.4834
 10
561.7756
 20
107.3728
 10
556.9069
 20
110.4941
 10
552.2021
 20
113.8397
 10
547.6689
 20
117.4022
 10
543.3147
 20
121.1738
 10
539.1472
 20
125.1472
 10
535.1738
 20
129.3147
 10
531.4022
 20
133.6689
 10
527.8397
 20
138.2021
 10
524.4941
 20
142.9069
 10
521.3728
 20
147.7756
 10
518.4834
 20
152.8009
 10
515.8333
 20
157.975
 10
513.4302
 20
163.2906
 10
511.2816
 20
168.74
 10
509.395
 20
174.3157
 10
507.7779
 20
180.0101
 10
506.438
 20
185.8158
 10
505.3827
 20
191.7252
 10
504.6195
 20
197.7307
 10
504.1561
 20
203.8248
 10
504.0
 20
210.0
 10
504.1561
 20
216.1752
 10
504.6195
 20
222.2693
 10
505.3827
 20
228.2748
 10
506.438
 20
234.1842
 10
507.7779
 20
239.9899
 10
509.395
 20
245.6843
 10
511.2816
 20
251.26
 10
513.4302
 20
256.7094
 10
515.8333
 20
262.025
 10
518.4834
 20
267.1991
 10
521.3728
 20
272.2244
 10
524.4941
 20
277.0931
 10
527.8397
 20
281.7979
 10
531.4022
 20
286.3311
 10
535.1738
 20
290.6853
 10
539.1472
 20
294.8528
 10
543.3147
 20
298.8262
 10
547.6689
 20
302.5978
 10
552.2021
 20
306.1603
 10
556.9069
 20
309.5059
 10
561.7756
 20
312.6272
 10
566.8009
 20
315.5166
 10
571.975
 20
318.1667
 10
577.2906
 20
320.5698
 10
582.74
 20
322.7184
 10
588.3157
 20
324.605
 10
594.0101
 20
326.2221
 10
599.8158
 20
327.562
 10
605.7252
 20
328.6173
 10
611.7307
 20
329.3805
 10
617.8248
 20
329.8439
 10
624.0
 20
330.0
 10
630.1752
 20
329.8439
 10
636.2693
 20
329.3805
 10
642.2748
 20
328.6173
 10
648.1842
 20
327.562
 10
653.9899
 20
326.2221
 10
659.6843
 20
324.605
 10
665.26
 20
322.7184
 10
670.7094
 20
320.5698
 10
676.025
 20
318.1667
 10
681.1991
 20
315.5166
 10
686.2244
 20
312.6272
 10
691.0931
 20
309.5059
 10
695.7979
 20
306.1603
 10
700.3311
 20
302.5978
 10
704.6853
 20
298.8262
 10
708.8528
 20
294.8528
 10
712.8262
 20
290.6853
 10
716.5978
 20
286.3311
 10
720.1603
 20
281.7979
 10
723.5059
 20
277.0931
 10
726.6272
 20
272.2244
 10
729.5166
 20
267.1991
 10
732.1667
 20
262.025
 10
734.5698
 20
256.7094
 10
736.7184
 20
251.26
 10
738.605
 20
245.6843
 10
740.2221
 20
239.9899
 10
741.562
 20
234.1842
 10
742.6173
 20
228.2748
 10
743.3805
 20
222.2693
 10
743.8439
 20
216.1752
 10
744.0
 20
210.0
  0
TEXT
  5
3A
330
17
100
AcDbEntity
  8
ETCH
100
AcDbText
 10
624.0
 20
210.0
 30
0.0
 40
24.0
  1
P007
 72
1
 11
624.0
 21
210.0
 31
0.0
100
AcDbText
 73
2
  0
LWPOLYLINE
  5
3B
330
17
100
AcDbEntity
  8
CUT
100
AcDbPolyline
 90
7
 70
1
 10
838.0
 20
10.0
 10
1138.0
 20
10.0
 10
1138.0
 20
50.0
 10
878.0
 20
50.0
 10
878.0
 20
310.0
 10
838.0
 20
310.0
 10
838.0
 20
10.0
  0
TEXT
  5
3C
330
17
100
AcDbEntity
  8
ETCH
100
AcDbText
 10
858.0
 20
180.0
 30
0.0
 40
24.0
  1
P002
 72
1
 11
858.0
 21
180.0
 31
0.0
100
AcDbText
 73
2
  0
LWPOLYLINE
  5
3D
330
17
100
AcDbEntity
  8
CUT
100
AcDbPolyline
 90
129
 70
1
 10
310.0
 20
574.0
 10
309.8048
 20
566.281
 10
309.2256
 20
558.6634
 10
308.2717
 20
551.1565
 10
306.9525
 20
543.7698
 10
305.2776
 20
536.5127
 10
303.2563
 20
529.3946
 10
300.898
 20
522.425
 10
298.2123
 20
515.6132
 10
295.2084
 20
508.9688
 10
291.8958
 20
502.5011
 10
288.284
 20
496.2195
 10
284.3824
 20
490.1336
 10
280.2003
 20
484.2526
 10
275.7473
 20
478.5861
 10
271.0327
 20
473.1434
 10
266.066
 20
467.934
 10
260.8566
 20
462.9673
 10
255.4139
 20
458.2527
 10
249.7474
 20
453.7997
 10
243.8664
 20
449.6176
 10
237.7805
 20
445.716
 10
231.4989
 20
442.1042
 10
225.0312
 20
438.7916
 10
218.3868
 20
435.7877
 10
211.575
 20
433.102
 10
204.6054
 20
430.7437
 10
197.4873
 20
428.7224
 10
190.2302
 20
427.0475
 10
182.8435
 20
425.7283
 10
175.3366
 20
424.7744
 10
167.719
 20
424.1952
 10
160.0
 20
424.0
 10
152.281
 20
424.1952
 10
144.6634
 20
424.7744
 10
137.1565
 20
425.7283
 10
129.7698
 20
427.0475
 10
122.5127
 20
428.7224
 10
115.3946
 20
430.7437
 10
108.425
 20
433.102
 10
101.6132
 20
435.7877
 10
94.9688
 20
438.7916
 10
88.5011
 20
442.1042
 10
82.2195
 20
445.716
 10
76.1336
 20
449.6176
 10
70.2526
 20
453.7997
 10
64.5861
 20
458.2527
 10
59.1434
 20
462.9673
 10
53.934
 20
467.934
 10
48.9673
 20
473.1434
 10
44.2527
 20
478.5861
 10
39.7997
 20
484.2526
 10
35.6176
 20
490.1336
 10
31.716
 20
496.2195
 10
28.1042
 20
502.5011
 10
24.7916
 20
508.9688
 10
21.7877
 20
515.6132
 10
19.102
 20
522.425
 10
16.7437
 20
529.3946
 10
14.7224
 20
536.5127
 10
13.0475
 20
543.7698
 10
11.7283
 20
551.1565
 10
10.7744
 20
558.6634
 10
10.1952
 20
566.281
 10
10.0
 20
574.0
 10
10.1952
 20
581.719
 10
10.7744
 20
589.3366
 10
11.7283
 20
596.8435
 10
13.0475
 20
604.2302
 10
14.7224
 20
611.4873
 10
16.7437
 20
618.6054
 10
19.102
 20
625.575
 10
21.7877
 20
632.3868
 10
24.7916
 20
639.0312
 10
28.1042
 20
645.4989
 10
31.716
 20
651.7805
 10
35.6176
 20
657.8664
 10
39.7997
 20
663.7474
 10
44.2527
 20
669.4139
 10
48.9673
 20
674.8566
 10
53.934
 20
680.066
 10
59.1434
 20
685.0327
 10
64.5861
 20
689.7473
 10
70.2526
 20
694.2003
 10
76.1336
 20
698.3824
 10
82.2195
 20
702.284
 10
88.5011
 20
705.8958
 10
94.9688
 20
709.2084
 10
101.6132
 20
712.2123
 10
108.425
 20
714.898
 10
115.3946
 20
717.2563
 10
122.5127
 20
719.2776
 10
129.7698
 20
720.9525
 10
137.1565
 20
722.2717
 10
144.6634
 20
723.2256
 10
152.281
 20
723.8048
 10
160.0
 20
724.0
 10
167.719
 20
723.8048
 10
175.3366
 20
723.2256
 10
182.8435
 20
722.2717
 10
190.2302
 20
720.9525
 10
197.4873
 20
719.2776
 10
204.6054
 20
717.2563
 10
211.575
 20
714.898
 10
218.3868
 20
712.2123
 10
225.0312
 20
709.2084
 10
231.4989
 20
705.8958
 10
237.7805
 20
702.284
 10
243.8664
 20
698.3824
 10
249.7474
 20
694.2003
 10
255.4139
 20
689.7473
 10
260.8566
 20
685.0327
 10
266.066
 20
680.066
 10
271.0327
 20
674.8566
 10
275.7473
 20
669.4139
 10
280.2003
 20
663.7474
 10
284.3824
 20
657.8664
 10
288.284
 20
651.7805
 10
291.8958
 20
645.4989
 10
295.2084
 20
639.0312
 10
298.2123
 20
632.3868
 10
300.898
 20
625.575
 10
303.2563
 20
618.6054
 10
305.2776
 20
611.4873
 10
306.9525
 20
604.2302
 10
308.2717
 20
596.8435
 10
309.2256
 20
589.3366
 10
309.8048
 20
581.719
 10
310.0
 20
574.0
  0
LWPOLYLINE
  5
3E
330
17
100
AcDbEntity
  8
CUT
100
AcDbPolyline
 90
41
 70
1
 10
80.0
 20
574.0
 10
79.8967
 20
571.9551
 10
79.5937
 20
569.9693
 10
78.4283
 20
566.2151
 10
76.5843
 20
562.8178
 10
74.1421
 20
559.8579
 10
71.1822
 20
557.4157
 10
67.7849
 20
555.5717
 10
64.0307
 20
554.4063
 10
62.0449
 20
554.1033
 10
60.0
 20
554.0
 10
57.9551
 20
554.1033
 10
55.9693
 20
554.4063
 10
52.2151
 20
555.5717
 10
48.8178
 20
557.4157
 10
45.8579
 20
559.8579
 10
43.4157
 20
562.8178
 10
41.5717
 20
566.2151
 10
40.4063
 20
569.9693
 10
40.1033
 20
571.9551
 10
40.0
 20
574.0
 10
40.1033
 20
576.0449
 10
40.4063
 20
578.0307
 10
41.5717
 20
581.7849
 10
43.4157
 20
585.1822
 10
45.8579
 20
588.1421
 10
48.8178
 20
590.5843
 10
52.2151
 20
592.4283
 10
55.9693
 20
593.5937
 10
57.9551
 20
593.8967
 10
60.0
 20
594.0
 10
62.0449
 20
593.8967
 10
64.0307
 20
593.5937
 10
67.7849
 20
592.4283
 10
71.1822
 20
590.5843
 10
74.1421
 20
588.1421
 10
76.5843
 20
585.1822
 10
78.4283
 20
581.7849
 10
79.5937
 20
578.0307
 10
79.8967
 20
576.0449
 10
80.0
 20
574.0
  0
LWPOLYLINE
  5
3F
330
17
100
AcDbEntity
  8
CUT
100
AcDbPolyline
 90
41
 70
1
 10
230.0
 20
487.3975
 10
229.8967
 20
485.3526
 10
229.5937
 20
483.3668
 10
228.4283
 20
479.6126
 10
226.5843
 20
476.2153
 10
224.1421
 20
473.2553
 10
221.1822
 20
470.8131
 10
217.7849
 20
468.9692
 10
214.0307
 20
467.8038
 10
212.0449
 20
467.5007
 10
210.0
 20
467.3975
 10
207.9551
 20
467.5007
 10
205.9693
 20
467.8038
 10
202.2151
 20
468.9692
 10
198.8178
 20
470.8131
 10
195.8579
 20
473.2553
 10
193.4157
 20
476.2153
 10
191.5717
 20
479.6126
 10
190.4063
 20
483.3668
 10
190.1033
 20
485.3526
 10
190.0
 20
487.3975
 10
190.1033
 20
489.4423
 10
190.4063
 20
491.4282
 10
191.5717
 20
495.1824
 10
193.4157
 20
498.5796
 10
195.8579
 20
501.5396
 10
198.8178
 20
503.9818
 10
202.2151
 20
505.8258
 10
205.9693
 20
506.9911
 10
207.9551
 20
507.2942
 10
210.0
 20
507.3975
 10
212.0449
 20
507.2942
 10
214.0307
 20
506.9911
 10
217.7849
 20
505.8258
 10
221.1822
 20
503.9818
 10
224.1421
 20
501.5396
 10
226.5843
 20
498.5796
 10
228.4283
 20
495.1824
 10
229.5937
 20
491.4282
 10
229.8967
 20
489.4423
 10
230.0
 20
487.3975
  0
LWPOLYLINE
  5
40
330
17
100
AcDbEntity
  8
CUT
100
AcDbPolyline
 90
41
 70
1
 10
230.0
 20
660.6025
 10
229.8967
 20
658.5577
 10
229.5937
 20
656.5718
 10
228.4283
 20
652.8176
 10
226.5843
 20
649.4204
 10
224.1421
 20
646.4604
 10
221.1822
 20
644.0182
 10
217.7849
 20
642.1742
 10
214.0307
 20
641.0089
 10
212.0449
 20
640.7058
 10
210.0
 20
640.6025
 10
207.9551
 20
640.7058
 10
205.9693
 20
641.0089
 10
202.2151
 20
642.1742
 10
198.8178
 20
644.0182
 10
195.8579
 20
646.4604
 10
193.4157
 20
649.4204
 10
191.5717
 20
652.8176
 10
190.4063
 20
656.5718
 10
190.1033
 20
658.5577
 10
190.0
 20
660.6025
 10
190.1033
 20
662.6474
 10
190.4063
 20
664.6332
 10
191.5717
 20
668.3874
 10
193.4157
 20
671.7847
 10
195.8579
 20
674.7447
 10
198.8178
 20
677.1869
 10
202.2151
 20
679.0308
 10
205.9693
 20
680.1962
 10
207.9551
 20
680.4993
 10
210.0
 20
680.6025
 10
212.0449
 20
680.4993
 10
214.0307
 20
680.1962
 10
217.7849
 20
679.0308
 10
221.1822
 20
677.1869
 10
224.1421
 20
674.7447
 10
226.5843
 20
671.7847
 10
228.4283
 20
668.3874
 10
229.5937
 20
664.6332
 10
229.8967
 20
662.6474
 10
230.0
 20
660.6025
  0
LWPOLYLINE
  5
41
330
17
100
AcDbEntity
  8
CUT
100
AcDbPolyline
 90
41
 70
1
 10
130.0
 20
660.6025
 10
129.8967
 20
658.5577
 10
129.5937
 20
656.5718
 10
128.4283
 20
652.8176
 10
126.5843
 20
649.4204
 10
124.1421
 20
646.4604
 10
121.1822
 20
644.0182
 10
117.7849
 20
642.1742
 10
114.0307
 20
641.0089
 10
112.0449
 20
640.7058
 10
110.0
 20
640.6025
 10
107.9551
 20
640.7058
 10
105.9693
 20
641.0089
 10
102.2151
 20
642.1742
 10
98.8178
 20
644.0182
 10
95.8579
 20
646.4604
 10
93.4157
 20
649.4204
 10
91.5717
 20
652.8176
 10
90.4063
 20
656.5718
 10
90.1033
 20
658.5577
 10
90.0
 20
660.6025
 10
90.1033
 20
662.6474
 10
90.4063
 20
664.6332
 10
91.5717
 20
668.3874
 10
93.4157
 20
671.7847
 10
95.8579
 20
674.7447
 10
98.8178
 20
677.1869
 10
102.2151
 20
679.0308
 10
105.9693
 20
680.1962
 10
107.9551
 20
680.4993
 10
110.0
 20
680.6025
 10
112.0449
 20
680.4993
 10
114.0307
 20
680.1962
 10
117.7849
 20
679.0308
 10
121.1822
 20
677.1869
 10
124.1421
 20
674.7447
 10
126.5843
 20
671.7847
 10
128.4283
 20
668.3874
 10
129.5937
 20
664.6332
 10
129.8967
 20
662.6474
 10
130.0
 20
660.6025
  0
LWPOLYLINE
  5
42
330
17
100
AcDbEntity
  8
CUT
100
AcDbPolyline
 90
41
 70
1
 10
130.0
 20
487.3975
 10
129.8967
 20
485.3526
 10
129.5937
 20
483.3668
 10
128.4283
 20
479.6126
 10
126.5843
 20
476.2153
 10
124.1421
 20
473.2553
 10
121.1822
 20
470.8131
 10
117.7849
 20
468.9692
 10
114.0307
 20
467.8038
 10
112.0449
 20
467.5007
 10
110.0
 20
467.3975
 10
107.9551
 20
467.5007
 10
105.9693
 20
467.8038
 10
102.2151
 20
468.9692
 10
98.8178
 20
470.8131
 10
95.8579
 20
473.2553
 10
93.4157
 20
476.2153
 10
91.5717
 20
479.6126
 10
90.4063
 20
483.3668
 10
90.1033
 20
485.3526
 10
90.0
 20
487.3975
 10
90.1033
 20
489.4423
 10
90.4063
 20
491.4282
 10
91.5717
 20
495.1824
 10
93.4157
 20
498.5796
 10
95.8579
 20
501.5396
 10
98.8178
 20
503.9818
 10
102.2151
 20
505.8258
 10
105.9693
 20
506.9911
 10
107.9551
 20
507.2942
 10
110.0
 20
507.3975
 10
112.0449
 20
507.2942
 10
114.0307
 20
506.9911
 10
117.7849
 20
505.8258
 10
121.1822
 20
503.9818
 10
124.1421
 20
501.5396
 10
126.5843
 20
498.5796
 10
128.4283
 20
495.1824
 10
129.5937
 20
491.4282
 10
129.8967
 20
489.4423
 10
130.0
 20
487.3975
  0
LWPOLYLINE
  5
43
330
17
100
AcDbEntity
  8
CUT
100
AcDbPolyline
 90
41
 70
1
 10
280.0
 20
574.0
 10
279.8967
 20
571.9551
 10
279.5937
 20
569.9693
 10
278.4283
 20
566.2151
 10
276.5843
 20
562.8178
 10
274.1421
 20
559.8579
 10
271.1822
 20
557.4157
 10
267.7849
 20
555.5717
 10
264.0307
 20
554.4063
 10
262.0449
 20
554.1033
 10
260.0
 20
554.0
 10
257.9551
 20
554.1033
 10
255.9693
 20
554.4063
 10
252.2151
 20
555.5717
 10
248.8178
 20
557.4157
 10
245.8579
 20
559.8579
 10
243.4157
 20
562.8178
 10
241.5717
 20
566.2151
 10
240.4063
 20
569.9693
 10
240.1033
 20
571.9551
 10
240.0
 20
574.0
 10
240.1033
 20
576.0449
 10
240.4063
 20
578.0307
 10
241.5717
 20
581.7849
 10
243.4157
 20
585.1822
 10
245.8579
 20
588.1421
 10
248.8178
 20
590.5843
 10
252.2151
 20
592.4283
 10
255.9693
 20
593.5937
 10
257.9551
 20
593.8967
 10
260.0
 20
594.0
 10
262.0449
 20
593.8967
 10
264.0307
 20
593.5937
 10
267.7849
 20
592.4283
 10
271.1822
 20
590.5843
 10
274.1421
 20
588.1421
 10
276.5843
 20
585.1822
 10
278.4283
 20
581.7849
 10
279.5937
 20
578.0307
 10
279.8967
 20
576.0449
 10
280.0
 20
574.0
  0
TEXT
  5
44
330
17
100
AcDbEntity
  8
ETCH
100
AcDbText
 10
160.0000000000001
 20
577.8594900522511
 30
0.0
 40
24.0
  1
P005
 72
1
 11
160.0000000000001
 21
577.8594900522511
 31
0.0
100
AcDbText
 73
2
  0
LWPOLYLINE
  5
45
330
17
100
AcDbEntity
  8
CUT
100
AcDbPolyline
 90
131
 70
1
 10
424.0
 20
424.0
 10
724.0
 20
424.0
 10
729.146
 20
424.1301
 10
734.2244
 20
424.5163
 10
739.229
 20
425.1522
 10
744.1535
 20
426.0316
 10
748.9916
 20
427.1483
 10
753.7369
 20
428.4958
 10
758.3834
 20
430.068
 10
762.9245
 20
431.8585
 10
767.3541
 20
433.8611
 10
771.6659
 20
436.0695
 10
775.8536
 20
438.4773
 10
779.911
 20
441.0784
 10
783.8316
 20
443.8665
 10
787.6093
 20
446.8351
 10
791.2377
 20
449.9782
 10
794.7107
 20
453.2893
 10
798.0218
 20
456.7623
 10
801.1649
 20
460.3907
 10
804.1335
 20
464.1684
 10
806.9216
 20
468.089
 10
809.5227
 20
472.1464
 10
811.9305
 20
476.3341
 10
814.1389
 20
480.6459
 10
816.1415
 20
485.0755
 10
817.932
 20
489.6166
 10
819.5042
 20
494.2631
 10
820.8517
 20
499.0084
 10
821.9684
 20
503.8465
 10
822.8478
 20
508.771
 10
823.4837
 20
513.7756
 10
823.8699
 20
518.854
 10
824.0
 20
524.0
 10
823.8699
 20
529.146
 10
823.4837
 20
534.2244
 10
822.8478
 20
539.229
 10
821.9684
 20
544.1535
 10
820.8517
 20
548.9916
 10
819.5042
 20
553.7369
 10
817.932
 20
558.3834
 10
816.1415
 20
562.9245
 10
814.1389
 20
567.3541
 10
811.9305
 20
571.6659
 10
809.5227
 20
575.8536
 10
806.9216
 20
579.911
 10
804.1335
 20
583.8316
 10
801.1649
 20
587.6093
 10
798.0218
 20
591.2377
 10
794.7107
 20
594.7107
 10
791.2377
 20
598.0218
 10
787.6093
 20
601.1649
 10
783.8316
 20
604.1335
 10
779.911
 20
606.9216
 10
775.8536
 20
609.5227
 10
771.6659
 20
611.9305
 10
767.3541
 20
614.1389
 10
762.9245
 20
616.1415
 10
758.3834
 20
617.932
 10
753.7369
 20
619.5042
 10
748.9916
 20
620.8517
 10
744.1535
 20
621.9684
 10
739.229
 20
622.8478
 10
734.2244
 20
623.4837
 10
729.146
 20
623.8699
 10
724.0
 20
624.0
 10
424.0
 20
624.0
 10
418.854
 20
623.8699
 10
413.7756
 20
623.4837
 10
408.771
 20
622.8478
 10
403.8465
 20
621.9684
 10
399.0084
 20
620.8517
 10
394.2631
 20
619.5042
 10
389.6166
 20
617.932
 10
385.0755
 20
616.1415
 10
380.6459
 20
614.1389
 10
376.3341
 20
611.9305
 10
372.1464
 20
609.5227
 10
368.089
 20
606.9216
 10
364.1684
 20
604.1335
 10
360.3907
 20
601.1649
 10
356.7623
 20
598.0218
 10
353.2893
 20
594.7107
 10
349.9782
 20
591.2377
 10
346.8351
 20
587.6093
 10
343.8665
 20
583.8316
 10
341.0784
 20
579.911
 10
338.4773
 20
575.8536
 10
336.0695
 20
571.6659
 10
333.8611
 20
567.3541
 10
331.8585
 20
562.9245
 10
330.068
 20
558.3834
 10
328.4958
 20
553.7369
 10
327.1483
 20
548.9916
 10
326.0316
 20
544.1535
 10
325.1522
 20
539.229
 10
324.5163
 20
534.2244
 10
324.1301
 20
529.146
 10
324.0
 20
524.0
 10
324.1301
 20
518.854
 10
324.5163
 20
513.7756
 10
325.1522
 20
508.771
 10
326.0316
 20
503.8465
 10
327.1483
 20
499.0084
 10
328.4958
 20
494.2631
 10
330.068
 20
489.6166
 10
331.8585
 20
485.0755
 10
333.8611
 20
480.6459
 10
336.0695
 20
476.3341
 10
338.4773
 20
472.1464
 10
341.0784
 20
468.089
 10
343.8665
 20
464.1684
 10
346.8351
 20
460.3907
 10
349.9782
 20
456.7623
 10
353.2893
 20
453.2893
 10
356.7623
 20
449.9782
 10
360.3907
 20
446.8351
 10
364.1684
 20
443.8665
 10
368.089
 20
441.0784
 10
372.1464
 20
438.4773
 10
376.3341
 20
436.0695
 10
380.6459
 20
433.8611
 10
385.0755
 20
431.8585
 10
389.6166
 20
430.068
 10
394.2631
 20
428.4958
 10
399.0084
 20
427.1483
 10
403.8465
 20
426.0316
 10
408.771
 20
425.1522
 10
413.7756
 20
424.5163
 10
418.854
 20
424.1301
 10
424.0
 20
424.0
  0
TEXT
  5
46
330
17
100
AcDbEntity
  8
ETCH
100
AcDbText
 10
574.0
 20
526.5729933681673
 30
0.0
 40
24.0
  1
P001
 72
1
 11
574.0
 21
526.5729933681673
 31
0.0
100
AcDbText
 73
2
  0
LWPOLYLINE
  5
47
330
17
100
AcDbEntity
  8
CUT
100
AcDbPolyline
 90
5
 70
1
 10
10.0
 20
738.0
 10
210.0
 20
738.0
 10
270.0
 20
858.0
 10
70.0
 20
918.0
 10
10.0
 20
738.0
  0
TEXT
  5
48
330
17
100
AcDbEntity
  8
ETCH
100
AcDbText
 10
135.0
 20
798.0
 30
0.0
 40
21.599999999999998
  1
P006
 72
1
 11
135.0
 21
798.0
 31
0.0
100
AcDbText
 73
2
  0
LWPOLYLINE
  5
49
330
17
100
AcDbEntity
  8
CUT
100
AcDbPolyline
 90
5
 70
1
 10
544.0
 20
738.0
 10
344.0
 20
738.0
 10
284.0
 20
858.0
 10
484.0
 20
918.0
 10
544.0
 20
738.0
  0
TEXT
  5
4A
330
17
100
AcDbEntity
  8
ETCH
100
AcDbText
 10
419.0
 20
798.0
 30
0.0
 40
21.599999999999998
  1
P006
 72
1
 11
419.0
 21
798.0
 31
0.0
100
AcDbText
 73
2
  0
LWPOLYLINE
  5
4B
330
17
100
AcDbEntity
  8
CUT
100
AcDbPolyline
 90
63
 70
1
 10
558.0
 20
738.0
 10
561.8923
 20
754.362
 10
566.0091
 20
770.5943
 10
570.575
 20
786.5672
 10
573.0965
 20
794.4158
 10
575.8145
 20
802.1509
 10
578.7571
 20
809.7563
 10
581.9523
 20
817.2157
 10
585.4281
 20
824.5131
 10
589.2127
 20
831.632
 10
593.3341
 20
838.5564
 10
597.8205
 20
845.27
 10
602.6997
 20
851.7566
 10
608.0
 20
858.0
 10
613.1482
 20
863.3966
 10
618.6369
 20
868.5519
 10
624.4424
 20
873.4348
 10
630.5411
 20
878.0142
 10
636.9094
 20
882.2592
 10
643.5236
 20
886.1386
 10
650.3603
 20
889.6215
 10
657.3957
 20
892.6768
 10
664.6062
 20
895.2734
 10
671.9683
 20
897.3803
 10
679.4582
 20
898.9665
 10
687.0524
 20
900.0009
 10
694.7274
 20
900.4525
 10
702.4593
 20
900.2903
 10
710.2248
 20
899.4831
 10
718.0
 20
898.0
 10
725.4968
 20
895.9075
 10
732.9243
 20
893.2026
 10
740.2259
 20
889.9335
 10
747.3452
 20
886.1483
 10
754.2257
 20
881.8951
 10
760.811
 20
877.2222
 10
767.0445
 20
872.1777
 10
772.8699
 20
866.8097
 10
778.2305
 20
861.1664
 10
783.07
 20
855.296
 10
787.3319
 20
849.2466
 10
790.9596
 20
843.0663
 10
793.8968
 20
836.8034
 10
796.0869
 20
830.5059
 10
796.8841
 20
827.3593
 10
797.4734
 20
824.2221
 10
797.8478
 20
821.1003
 10
798.0
 20
818.0
 10
797.7182
 20
812.584
 10
796.765
 20
807.2485
 10
795.1854
 20
801.9881
 10
793.0241
 20
796.7975
 10
790.3257
 20
791.6714
 10
787.1351
 20
786.6043
 10
783.497
 20
781.5909
 10
779.4561
 20
776.6258
 10
775.0572
 20
771.7036
 10
770.3451
 20
766.819
 10
765.3644
 20
761.9666
 10
760.1601
 20
757.1411
 10
749.259
 20
747.5491
 10
738.0
 20
738.0
 10
558.0
 20
738.0
  0
TEXT
  5
4C
330
17
100
AcDbEntity
  8
ETCH
100
AcDbText
 10
690.4940383950491
 20
819.5501479235177
 30
0.0
 40
19.494305343223708
  1
P004
 72
1
 11
690.4940383950491
 21
819.5501479235177
 31
0.0
100
AcDbText
 73
2
  0
LWPOLYLINE
  5
4D
330
17
100
AcDbEntity
  8
CUT
100
AcDbPolyline
 90
129
 70
1
 10
1112.0
 20
818.0
 10
1111.8048
 20
813.8832
 10
1111.2256
 20
809.8205
 10
1110.2717
 20
805.8168
 10
1108.9525
 20
801.8772
 10
1107.2776
 20
798.0068
 10
1105.2563
 20
794.2104
 10
1102.898
 20
790.4933
 10
1100.2123
 20
786.8604
 10
1097.2084
 20
783.3167
 10
1093.8958
 20
779.8672
 10
1090.284
 20
776.5171
 10
1086.3824
 20
773.2712
 10
1082.2003
 20
770.1347
 10
1077.7473
 20
767.1126
 10
1073.0327
 20
764.2098
 10
1068.066
 20
761.4315
 10
1062.8566
 20
758.7826
 10
1057.4139
 20
756.2681
 10
1051.7474
 20
753.8932
 10
1045.8664
 20
751.6627
 10
1039.7805
 20
749.5819
 10
1033.4989
 20
747.6556
 10
1027.0312
 20
745.8889
 10
1020.3868
 20
744.2868
 10
1013.575
 20
742.8544
 10
1006.6054
 20
741.5966
 10
999.4873
 20
740.5186
 10
992.2302
 20
739.6253
 10
984.8435
 20
738.9218
 10
977.3366
 20
738.413
 10
969.719
 20
738.1041
 10
962.0
 20
738.0
 10
954.281
 20
738.1041
 10
946.6634
 20
738.413
 10
939.1565
 20
738.9218
 10
931.7698
 20
739.6253
 10
924.5127
 20
740.5186
 10
917.3946
 20
741.5966
 10
910.425
 20
742.8544
 10
903.6132
 20
744.2868
 10
896.9688
 20
745.8889
 10
890.5011
 20
747.6556
 10
884.2195
 20
749.5819
 10
878.1336
 20
751.6627
 10
872.2526
 20
753.8932
 10
866.5861
 20
756.2681
 10
861.1434
 20
758.7826
 10
855.934
 20
761.4315
 10
850.9673
 20
764.2098
 10
846.2527
 20
767.1126
 10
841.7997
 20
770.1347
 10
837.6176
 20
773.2712
 10
833.716
 20
776.5171
 10
830.1042
 20
779.8672
 10
826.7916
 20
783.3167
 10
823.7877
 20
786.8604
 10
821.102
 20
790.4933
 10
818.7437
 20
794.2104
 10
816.7224
 20
798.0068
 10
815.0475
 20
801.8772
 10
813.7283
 20
805.8168
 10
812.7744
 20
809.8205
 10
812.1952
 20
813.8832
 10
812.0
 20
818.0
 10
812.1952
 20
822.1168
 10
812.7744
 20
826.1795
 10
813.7283
 20
830.1832
 10
815.0475
 20
834.1228
 10
816.7224
 20
837.9932
 10
818.7437
 20
841.7896
 10
821.102
 20
845.5067
 10
823.7877
 20
849.1396
 10
826.7916
 20
852.6833
 10
830.1042
 20
856.1328
 10
833.716
 20
859.4829
 10
837.6176
 20
862.7288
 10
841.7997
 20
865.8653
 10
846.2527
 20
868.8874
 10
850.9673
 20
871.7902
 10
855.934
 20
874.5685
 10
861.1434
 20
877.2174
 10
866.5861
 20
879.7319
 10
872.2526
 20
882.1068
 10
878.1336
 20
884.3373
 10
884.2195
 20
886.4181
 10
890.5011
 20
888.3444
 10
896.9688
 20
890.1111
 10
903.6132
 20
891.7132
 10
910.425
 20
893.1456
 10
917.3946
 20
894.4034
 10
924.5127
 20
895.4814
 10
931.7698
 20
896.3747
 10
939.1565
 20
897.0782
 10
946.6634
 20
897.587
 10
954.281
 20
897.8959
 10
962.0
 20
898.0
 10
969.719
 20
897.8959
 10
977.3366
 20
897.587
 10
984.8435
 20
897.0782
 10
992.2302
 20
896.3747
 10
999.4873
 20
895.4814
 10
1006.6054
 20
894.4034
 10
1013.575
 20
893.1456
 10
1020.3868
 20
891.7132
 10
1027.0312
 20
890.1111
 10
1033.4989
 20
888.3444
 10
1039.7805
 20
886.4181
 10
1045.8664
 20
884.3373
 10
1051.7474
 20
882.1068
 10
1057.4139
 20
879.7319
 10
1062.8566
 20
877.2174
 10
1068.066
 20
874.5685
 10
1073.0327
 20
871.7902
 10
1077.7473
 20
868.8874
 10
1082.2003
 20
865.8653
 10
1086.3824
 20
862.7288
 10
1090.284
 20
859.4829
 10
1093.8958
 20
856.1328
 10
1097.2084
 20
852.6833
 10
1100.2123
 20
849.1396
 10
1102.898
 20
845.5067
 10
1105.2563
 20
841.7896
 10
1107.2776
 20
837.9932
 10
1108.9525
 20
834.1228
 10
1110.2717
 20
830.1832
 10
1111.2256
 20
826.1795
 10
1111.8048
 20
822.1168
 10
1112.0
 20
818.0
  0
TEXT
  5
4E
330
17
100
AcDbEntity
  8
ETCH
100
AcDbText
 10
961.9999999999991
 20
820.058394694534
 30
0.0
 40
19.2
  1
P003
 72
1
 11
961.9999999999991
 21
820.058394694534
 31
0.0
100
AcDbText
 73
2
  0
LWPOLYLINE
  5
4F
330
17
100
AcDbEntity
  8
CUT
100
AcDbPolyline
 90
129
 70
1
 10
310.0
 20
1012.0
 10
309.8048
 20
1007.8832
 10
309.2256
 20
1003.8205
 10
308.2717
 20
999.8168
 10
306.9525
 20
995.8772
 10
305.2776
 20
992.0068
 10
303.2563
 20
988.2104
 10
300.898
 20
984.4933
 10
298.2123
 20
980.8604
 10
295.2084
 20
977.3167
 10
291.8958
 20
973.8672
 10
288.284
 20
970.5171
 10
284.3824
 20
967.2712
 10
280.2003
 20
964.1347
 10
275.7473
 20
961.1126
 10
271.0327
 20
958.2098
 10
266.066
 20
955.4315
 10
260.8566
 20
952.7826
 10
255.4139
 20
950.2681
 10
249.7474
 20
947.8932
 10
243.8664
 20
945.6627
 10
237.7805
 20
943.5819
 10
231.4989
 20
941.6556
 10
225.0312
 20
939.8889
 10
218.3868
 20
938.2868
 10
211.575
 20
936.8544
 10
204.6054
 20
935.5966
 10
197.4873
 20
934.5186
 10
190.2302
 20
933.6253
 10
182.8435
 20
932.9218
 10
175.3366
 20
932.413
 10
167.719
 20
932.1041
 10
160.0
 20
932.0
 10
152.281
 20
932.1041
 10
144.6634
 20
932.413
 10
137.1565
 20
932.9218
 10
129.7698
 20
933.6253
 10
122.5127
 20
934.5186
 10
115.3946
 20
935.5966
 10
108.425
 20
936.8544
 10
101.6132
 20
938.2868
 10
94.9688
 20
939.8889
 10
88.5011
 20
941.6556
 10
82.2195
 20
943.5819
 10
76.1336
 20
945.6627
 10
70.2526
 20
947.8932
 10
64.5861
 20
950.2681
 10
59.1434
 20
952.7826
 10
53.934
 20
955.4315
 10
48.9673
 20
958.2098
 10
44.2527
 20
961.1126
 10
39.7997
 20
964.1347
 10
35.6176
 20
967.2712
 10
31.716
 20
970.5171
 10
28.1042
 20
973.8672
 10
24.7916
 20
977.3167
 10
21.7877
 20
980.8604
 10
19.102
 20
984.4933
 10
16.7437
 20
988.2104
 10
14.7224
 20
992.0068
 10
13.0475
 20
995.8772
 10
11.7283
 20
999.8168
 10
10.7744
 20
1003.8205
 10
10.1952
 20
1007.8832
 10
10.0
 20
1012.0
 10
10.1952
 20
1016.1168
 10
10.7744
 20
1020.1795
 10
11.7283
 20
1024.1832
 10
13.0475
 20
1028.1228
 10
14.7224
 20
1031.9932
 10
16.7437
 20
1035.7896
 10
19.102
 20
1039.5067
 10
21.7877
 20
1043.1396
 10
24.7916
 20
1046.6833
 10
28.1042
 20
1050.1328
 10
31.716
 20
1053.4829
 10
35.6176
 20
1056.7288
 10
39.7997
 20
1059.8653
 10
44.2527
 20
1062.8874
 10
48.9673
 20
1065.7902
 10
53.934
 20
1068.5685
 10
59.1434
 20
1071.2174
 10
64.5861
 20
1073.7319
 10
70.2526
 20
1076.1068
 10
76.1336
 20
1078.3373
 10
82.2195
 20
1080.4181
 10
88.5011
 20
1082.3444
 10
94.9688
 20
1084.1111
 10
101.6132
 20
1085.7132
 10
108.425
 20
1087.1456
 10
115.3946
 20
1088.4034
 10
122.5127
 20
1089.4814
 10
129.7698
 20
1090.3747
 10
137.1565
 20
1091.0782
 10
144.6634
 20
1091.587
 10
152.281
 20
1091.8959
 10
160.0
 20
1092.0
 10
167.719
 20
1091.8959
 10
175.3366
 20
1091.587
 10
182.8435
 20
1091.0782
 10
190.2302
 20
1090.3747
 10
197.4873
 20
1089.4814
 10
204.6054
 20
1088.4034
 10
211.575
 20
1087.1456
 10
218.3868
 20
1085.7132
 10
225.0312
 20
1084.1111
 10
231.4989
 20
1082.3444
 10
237.7805
 20
1080.4181
 10
243.8664
 20
1078.3373
 10
249.7474
 20
1076.1068
 10
255.4139
 20
1073.7319
 10
260.8566
 20
1071.2174
 10
266.066
 20
1068.5685
 10
271.0327
 20
1065.7902
 10
275.7473
 20
1062.8874
 10
280.2003
 20
1059.8653
 10
284.3824
 20
1056.7288
 10
288.284
 20
1053.4829
 10
291.8958
 20
1050.1328
 10
295.2084
 20
1046.6833
 10
298.2123
 20
1043.1396
 10
300.898
 20
1039.5067
 10
303.2563
 20
1035.7896
 10
305.2776
 20
1031.9932
 10
306.9525
 20
1028.1228
 10
308.2717
 20
1024.1832
 10
309.2256
 20
1020.1795
 10
309.8048
 20
1016.1168
 10
310.0
 20
1012.0
  0
TEXT
  5
50
330
17
100
AcDbEntity
  8
ETCH
100
AcDbText
 10
160.0
 20
1014.058394694534
 30
0.0
 40
19.2
  1
P003
 72
1
 11
160.0
 21
1014.058394694534
 31
0.0
100
AcDbText
 73
2
  0
LWPOLYLINE
  5
51
330
17
100
AcDbEntity
  8
OFFCUT
100
AcDbPolyline
 90
111
 70
1
 10
10.0
 20
2430.0
 10
1210.0
 20
2430.0
 10
1210.0
 20
10.0
 10
1138.0
 20
10.0
 10
1138.0
 20
50.0
 10
878.0
 20
50.0
 10
878.0
 20
310.0
 10
838.0
 20
310.0
 10
838.0
 20
10.0
 10
624.0
 20
10.0
 10
210.0
 20
10.0
 10
220.292
 20
10.2602
 10
230.4488
 20
11.0326
 10
240.458
 20
12.3044
 10
250.307
 20
14.0633
 10
259.9831
 20
16.2965
 10
269.4739
 20
18.9916
 10
278.7667
 20
22.1359
 10
287.849
 20
25.717
 10
296.7083
 20
29.7222
 10
305.3319
 20
34.1389
 10
313.7073
 20
38.9547
 10
321.8219
 20
44.1569
 10
329.6632
 20
49.7329
 10
337.2186
 20
55.6703
 10
344.4755
 20
61.9564
 10
351.4214
 20
68.5786
 10
358.0436
 20
75.5245
 10
364.3297
 20
82.7814
 10
370.2671
 20
90.3368
 10
375.8431
 20
98.1781
 10
381.0453
 20
106.2927
 10
385.8611
 20
114.6681
 10
390.2778
 20
123.2917
 10
394.283
 20
132.151
 10
397.8641
 20
141.2333
 10
401.0084
 20
150.5261
 10
403.7035
 20
160.0169
 10
405.9367
 20
169.693
 10
407.6956
 20
179.542
 10
408.9674
 20
189.5512
 10
409.7398
 20
199.708
 10
410.0
 20
210.0
 10
409.7398
 20
220.292
 10
408.9674
 20
230.4488
 10
407.6956
 20
240.458
 10
405.9367
 20
250.307
 10
403.7035
 20
259.9831
 10
401.0084
 20
269.4739
 10
397.8641
 20
278.7667
 10
394.283
 20
287.849
 10
390.2778
 20
296.7083
 10
385.8611
 20
305.3319
 10
381.0453
 20
313.7073
 10
375.8431
 20
321.8219
 10
370.2671
 20
329.6632
 10
364.3297
 20
337.2186
 10
358.0436
 20
344.4755
 10
351.4214
 20
351.4214
 10
344.4755
 20
358.0436
 10
337.2186
 20
364.3297
 10
329.6632
 20
370.2671
 10
321.8219
 20
375.8431
 10
313.7073
 20
381.0453
 10
305.3319
 20
385.8611
 10
296.7083
 20
390.2778
 10
287.849
 20
394.283
 10
278.7667
 20
397.8641
 10
269.4739
 20
401.0084
 10
259.9831
 20
403.7035
 10
250.307
 20
405.9367
 10
240.458
 20
407.6956
 10
230.4488
 20
408.9674
 10
220.292
 20
409.7398
 10
210.0
 20
410.0
 10
199.708
 20
409.7398
 10
189.5512
 20
408.9674
 10
179.542
 20
407.6956
 10
169.693
 20
405.9367
 10
160.0169
 20
403.7035
 10
150.5261
 20
401.0084
 10
141.2333
 20
397.8641
 10
132.151
 20
394.283
 10
123.2917
 20
390.2778
 10
114.6681
 20
385.8611
 10
106.2927
 20
381.0453
 10
98.1781
 20
375.8431
 10
90.3368
 20
370.2671
 10
82.7814
 20
364.3297
 10
75.5245
 20
358.0436
 10
68.5786
 20
351.4214
 10
61.9564
 20
344.4755
 10
55.6703
 20
337.2186
 10
49.7329
 20
329.6632
 10
44.1569
 20
321.8219
 10
38.9547
 20
313.7073
 10
34.1389
 20
305.3319
 10
29.7222
 20
296.7083
 10
25.717
 20
287.849
 10
22.1359
 20
278.7667
 10
18.9916
 20
269.4739
 10
16.2965
 20
259.9831
 10
14.0633
 20
250.307
 10
12.3044
 20
240.458
 10
11.0326
 20
230.4488
 10
10.2602
 20
220.292
 10
10.0
 20
210.0
 10
10.0
 20
574.0
 10
10.0
 20
738.0
 10
10.0
 20
1012.0
 10
10.0
 20
2430.0
  0
LWPOLYLINE
  5
52
330
17
100
AcDbEntity
  8
OFFCUT
100
AcDbPolyline
 90
129
 70
1
 10
634.292
 20
10.2602
 10
644.4488
 20
11.0326
 10
654.458
 20
12.3044
 10
664.307
 20
14.0633
 10
673.9831
 20
16.2965
 10
683.4739
 20
18.9916
 10
692.7667
 20
22.1359
 10
701.849
 20
25.717
 10
710.7083
 20
29.7222
 10
719.3319
 20
34.1389
 10
727.7073
 20
38.9547
 10
735.8219
 20
44.1569
 10
743.6632
 20
49.7329
 10
751.2186
 20
55.6703
 10
758.4755
 20
61.9564
 10
765.4214
 20
68.5786
 10
772.0436
 20
75.5245
 10
778.3297
 20
82.7814
 10
784.2671
 20
90.3368
 10
789.8431
 20
98.1781
 10
795.0453
 20
106.2927
 10
799.8611
 20
114.6681
 10
804.2778
 20
123.2917
 10
808.283
 20
132.151
 10
811.8641
 20
141.2333
 10
815.0084
 20
150.5261
 10
817.7035
 20
160.0169
 10
819.9367
 20
169.693
 10
821.6956
 20
179.542
 10
822.9674
 20
189.5512
 10
823.7398
 20
199.708
 10
824.0
 20
210.0
 10
823.7398
 20
220.292
 10
822.9674
 20
230.4488
 10
821.6956
 20
240.458
 10
819.9367
 20
250.307
 10
817.7035
 20
259.9831
 10
815.0084
 20
269.4739
 10
811.8641
 20
278.7667
 10
808.283
 20
287.849
 10
804.2778
 20
296.7083
 10
799.8611
 20
305.3319
 10
795.0453
 20
313.7073
 10
789.8431
 20
321.8219
 10
784.2671
 20
329.6632
 10
778.3297
 20
337.2186
 10
772.0436
 20
344.4755
 10
765.4214
 20
351.4214
 10
758.4755
 20
358.0436
 10
751.2186
 20
364.3297
 10
743.6632
 20
370.2671
 10
735.8219
 20
375.8431
 10
727.7073
 20
381.0453
 10
719.3319
 20
385.8611
 10
710.7083
 20
390.2778
 10
701.849
 20
394.283
 10
692.7667
 20
397.8641
 10
683.4739
 20
401.0084
 10
673.9831
 20
403.7035
 10
664.307
 20
405.9367
 10
654.458
 20
407.6956
 10
644.4488
 20
408.9674
 10
634.292
 20
409.7398
 10
624.0
 20
410.0
 10
613.708
 20
409.7398
 10
603.5512
 20
408.9674
 10
593.542
 20
407.6956
 10
583.693
 20
405.9367
 10
574.0169
 20
403.7035
 10
564.5261
 20
401.0084
 10
555.2333
 20
397.8641
 10
546.151
 20
394.283
 10
537.2917
 20
390.2778
 10
528.6681
 20
385.8611
 10
520.2927
 20
381.0453
 10
512.1781
 20
375.8431
 10
504.3368
 20
370.2671
 10
496.7814
 20
364.3297
 10
489.5245
 20
358.0436
 10
482.5786
 20
351.4214
 10
475.9564
 20
344.4755
 10
469.6703
 20
337.2186
 10
463.7329
 20
329.6632
 10
458.1569
 20
321.8219
 10
452.9547
 20
313.7073
 10
448.1389
 20
305.3319
 10
443.7222
 20
296.7083
 10
439.717
 20
287.849
 10
436.1359
 20
278.7667
 10
432.9916
 20
269.4739
 10
430.2965
 20
259.9831
 10
428.0633
 20
250.307
 10
426.3044
 20
240.458
 10
425.0326
 20
230.4488
 10
424.2602
 20
220.292
 10
424.0
 20
210.0
 10
424.2602
 20
199.708
 10
425.0326
 20
189.5512
 10
426.3044
 20
179.542
 10
428.0633
 20
169.693
 10
430.2965
 20
160.0169
 10
432.9916
 20
150.5261
 10
436.1359
 20
141.2333
 10
439.717
 20
132.151
 10
443.7222
 20
123.2917
 10
448.1389
 20
114.6681
 10
452.9547
 20
106.2927
 10
458.1569
 20
98.1781
 10
463.7329
 20
90.3368
 10
469.6703
 20
82.7814
 10
475.9564
 20
75.5245
 10
482.5786
 20
68.5786
 10
489.5245
 20
61.9564
 10
496.7814
 20
55.6703
 10
504.3368
 20
49.7329
 10
512.1781
 20
44.1569
 10
520.2927
 20
38.9547
 10
528.6681
 20
34.1389
 10
537.2917
 20
29.7222
 10
546.151
 20
25.717
 10
555.2333
 20
22.1359
 10
564.5261
 20
18.9916
 10
574.0169
 20
16.2965
 10
583.693
 20
14.0633
 10
593.542
 20
12.3044
 10
603.5512
 20
11.0326
 10
613.708
 20
10.2602
 10
624.0
 20
10.0
 10
634.292
 20
10.2602
  0
LWPOLYLINE
  5
53
330
17
100
AcDbEntity
  8
OFFCUT
100
AcDbPolyline
 90
129
 70
1
 10
10.1952
 20
566.281
 10
10.7744
 20
558.6634
 10
11.7283
 20
551.1565
 10
13.0475
 20
543.7698
 10
14.7224
 20
536.5127
 10
16.7437
 20
529.3946
 10
19.102
 20
522.425
 10
21.7877
 20
515.6132
 10
24.7916
 20
508.9688
 10
28.1042
 20
502.5011
 10
31.716
 20
496.2195
 10
35.6176
 20
490.1336
 10
39.7997
 20
484.2526
 10
44.2527
 20
478.5861
 10
48.9673
 20
473.1434
 10
53.934
 20
467.934
 10
59.1434
 20
462.9673
 10
64.5861
 20
458.2527
 10
70.2526
 20
453.7997
 10
76.1336
 20
449.6176
 10
82.2195
 20
445.716
 10
88.5011
 20
442.1042
 10
94.9688
 20
438.7916
 10
101.6132
 20
435.7877
 10
108.425
 20
433.102
 10
115.3946
 20
430.7437
 10
122.5127
 20
428.7224
 10
129.7698
 20
427.0475
 10
137.1565
 20
425.7283
 10
144.6634
 20
424.7744
 10
152.281
 20
424.1952
 10
160.0
 20
424.0
 10
167.719
 20
424.1952
 10
175.3366
 20
424.7744
 10
182.8435
 20
425.7283
 10
190.2302
 20
427.0475
 10
197.4873
 20
428.7224
 10
204.6054
 20
430.7437
 10
211.575
 20
433.102
 10
218.3868
 20
435.7877
 10
225.0312
 20
438.7916
 10
231.4989
 20
442.1042
 10
237.7805
 20
445.716
 10
243.8664
 20
449.6176
 10
249.7474
 20
453.7997
 10
255.4139
 20
458.2527
 10
260.8566
 20
462.9673
 10
266.066
 20
467.934
 10
271.0327
 20
473.1434
 10
275.7473
 20
478.5861
 10
280.2003
 20
484.2526
 10
284.3824
 20
490.1336
 10
288.284
 20
496.2195
 10
291.8958
 20
502.5011
 10
295.2084
 20
508.9688
 10
298.2123
 20
515.6132
 10
300.898
 20
522.425
 10
303.2563
 20
529.3946
 10
305.2776
 20
536.5127
 10
306.9525
 20
543.7698
 10
308.2717
 20
551.1565
 10
309.2256
 20
558.6634
 10
309.8048
 20
566.281
 10
310.0
 20
574.0
 10
309.8048
 20
581.719
 10
309.2256
 20
589.3366
 10
308.2717
 20
596.8435
 10
306.9525
 20
604.2302
 10
305.2776
 20
611.4873
 10
303.2563
 20
618.6054
 10
300.898
 20
625.575
 10
298.2123
 20
632.3868
 10
295.2084
 20
639.0312
 10
291.8958
 20
645.4989
 10
288.284
 20
651.7805
 10
284.3824
 20
657.8664
 10
280.2003
 20
663.7474
 10
275.7473
 20
669.4139
 10
271.0327
 20
674.8566
 10
266.066
 20
680.066
 10
260.8566
 20
685.0327
 10
255.4139
 20
689.7473
 10
249.7474
 20
694.2003
 10
243.8664
 20
698.3824
 10
237.7805
 20
702.284
 10
231.4989
 20
705.8958
 10
225.0312
 20
709.2084
 10
218.3868
 20
712.2123
 10
211.575
 20
714.898
 10
204.6054
 20
717.2563
 10
197.4873
 20
719.2776
 10
190.2302
 20
720.9525
 10
182.8435
 20
722.2717
 10
175.3366
 20
723.2256
 10
167.719
 20
723.8048
 10
160.0
 20
724.0
 10
152.281
 20
723.8048
 10
144.6634
 20
723.2256
 10
137.1565
 20
722.2717
 10
129.7698
 20
720.9525
 10
122.5127
 20
719.2776
 10
115.3946
 20
717.2563
 10
108.425
 20
714.898
 10
101.6132
 20
712.2123
 10
94.9688
 20
709.2084
 10
88.5011
 20
705.8958
 10
82.2195
 20
702.284
 10
76.1336
 20
698.3824
 10
70.2526
 20
694.2003
 10
64.5861
 20
689.7473
 10
59.1434
 20
685.0327
 10
53.934
 20
680.066
 10
48.9673
 20
674.8566
 10
44.2527
 20
669.4139
 10
39.7997
 20
663.7474
 10
35.6176
 20
657.8664
 10
31.716
 20
651.7805
 10
28.1042
 20
645.4989
 10
24.7916
 20
639.0312
 10
21.7877
 20
632.3868
 10
19.102
 20
625.575
 10
16.7437
 20
618.6054
 10
14.7224
 20
611.4873
 10
13.0475
 20
604.2302
 10
11.7283
 20
596.8435
 10
10.7744
 20
589.3366
 10
10.1952
 20
581.719
 10
10.0
 20
574.0
 10
10.1952
 20
566.281
  0
LWPOLYLINE
  5
54
330
17
100
AcDbEntity
  8
OFFCUT
100
AcDbPolyline
 90
5
 70
1
 10
210.0
 20
738.0
 10
270.0
 20
858.0
 10
70.0
 20
918.0
 10
10.0
 20
738.0
 10
210.0
 20
738.0
  0
LWPOLYLINE
  5
55
330
17
100
AcDbEntity
  8
OFFCUT
100
AcDbPolyline
 90
129
 70
1
 10
10.1952
 20
1007.8832
 10
10.7744
 20
1003.8205
 10
11.7283
 20
999.8168
 10
13.0475
 20
995.8772
 10
14.7224
 20
992.0068
 10
16.7437
 20
988.2104
 10
19.102
 20
984.4933
 10
21.7877
 20
980.8604
 10
24.7916
 20
977.3167
 10
28.1042
 20
973.8672
 10
31.716
 20
970.5171
 10
35.6176
 20
967.2712
 10
39.7997
 20
964.1347
 10
44.2527
 20
961.1126
 10
48.9673
 20
958.2098
 10
53.934
 20
955.4315
 10
59.1434
 20
952.7826
 10
64.5861
 20
950.2681
 10
70.2526
 20
947.8932
 10
76.1336
 20
945.6627
 10
82.2195
 20
943.5819
 10
88.5011
 20
941.6556
 10
94.9688
 20
939.8889
 10
101.6132
 20
938.2868
 10
108.425
 20
936.8544
 10
115.3946
 20
935.5966
 10
122.5127
 20
934.5186
 10
129.7698
 20
933.6253
 10
137.1565
 20
932.9218
 10
144.6634
 20
932.413
 10
152.281
 20
932.1041
 10
160.0
 20
932.0
 10
167.719
 20
932.1041
 10
175.3366
 20
932.413
 10
182.8435
 20
932.9218
 10
190.2302
 20
933.6253
 10
197.4873
 20
934.5186
 10
204.6054
 20
935.5966
 10
211.575
 20
936.8544
 10
218.3868
 20
938.2868
 10
225.0312
 20
939.8889
 10
231.4989
 20
941.6556
 10
237.7805
 20
943.5819
 10
243.8664
 20
945.6627
 10
249.7474
 20
947.8932
 10
255.4139
 20
950.2681
 10
260.8566
 20
952.7826
 10
266.066
 20
955.4315
 10
271.0327
 20
958.2098
 10
275.7473
 20
961.1126
 10
280.2003
 20
964.1347
 10
284.3824
 20
967.2712
 10
288.284
 20
970.5171
 10
291.8958
 20
973.8672
 10
295.2084
 20
977.3167
 10
298.2123
 20
980.8604
 10
300.898
 20
984.4933
 10
303.2563
 20
988.2104
 10
305.2776
 20
992.0068
 10
306.9525
 20
995.8772
 10
308.2717
 20
999.8168
 10
309.2256
 20
1003.8205
 10
309.8048
 20
1007.8832
 10
310.0
 20
1012.0
 10
309.8048
 20
1016.1168
 10
309.2256
 20
1020.1795
 10
308.2717
 20
1024.1832
 10
306.9525
 20
1028.1228
 10
305.2776
 20
1031.9932
 10
303.2563
 20
1035.7896
 10
300.898
 20
1039.5067
 10
298.2123
 20
1043.1396
 10
295.2084
 20
1046.6833
 10
291.8958
 20
1050.1328
 10
288.284
 20
1053.4829
 10
284.3824
 20
1056.7288
 10
280.2003
 20
1059.8653
 10
275.7473
 20
1062.8874
 10
271.0327
 20
1065.7902
 10
266.066
 20
1068.5685
 10
260.8566
 20
1071.2174
 10
255.4139
 20
1073.7319
 10
249.7474
 20
1076.1068
 10
243.8664
 20
1078.3373
 10
237.7805
 20
1080.4181
 10
231.4989
 20
1082.3444
 10
225.0312
 20
1084.1111
 10
218.3868
 20
1085.7132
 10
211.575
 20
1087.1456
 10
204.6054
 20
1088.4034
 10
197.4873
 20
1089.4814
 10
190.2302
 20
1090.3747
 10
182.8435
 20
1091.0782
 10
175.3366
 20
1091.587
 10
167.719
 20
1091.8959
 10
160.0
 20
1092.0
 10
152.281
 20
1091.8959
 10
144.6634
 20
1091.587
 10
137.1565
 20
1091.0782
 10
129.7698
 20
1090.3747
 10
122.5127
 20
1089.4814
 10
115.3946
 20
1088.4034
 10
108.425
 20
1087.1456
 10
101.6132
 20
1085.7132
 10
94.9688
 20
1084.1111
 10
88.5011
 20
1082.3444
 10
82.2195
 20
1080.4181
 10
76.1336
 20
1078.3373
 10
70.2526
 20
1076.1068
 10
64.5861
 20
1073.7319
 10
59.1434
 20
1071.2174
 10
53.934
 20
1068.5685
 10
48.9673
 20
1065.7902
 10
44.2527
 20
1062.8874
 10
39.7997
 20
1059.8653
 10
35.6176
 20
1056.7288
 10
31.716
 20
1053.4829
 10
28.1042
 20
1050.1328
 10
24.7916
 20
1046.6833
 10
21.7877
 20
1043.1396
 10
19.102
 20
1039.5067
 10
16.7437
 20
1035.7896
 10
14.7224
 20
1031.9932
 10
13.0475
 20
1028.1228
 10
11.7283
 20
1024.1832
 10
10.7744
 20
1020.1795
 10
10.1952
 20
1016.1168
 10
10.0
 20
1012.0
 10
10.1952
 20
1007.8832
  0
LWPOLYLINE
  5
56
330
17
100
AcDbEntity
  8
OFFCUT
100
AcDbPolyline
 90
131
 70
1
 10
408.771
 20
425.1522
 10
413.7756
 20
424.5163
 10
418.854
 20
424.1301
 10
424.0
 20
424.0
 10
724.0
 20
424.0
 10
729.146
 20
424.1301
 10
734.2244
 20
424.5163
 10
739.229
 20
425.1522
 10
744.1535
 20
426.0316
 10
748.9916
 20
427.1483
 10
753.7369
 20
428.4958
 10
758.3834
 20
430.068
 10
762.9245
 20
431.8585
 10
767.3541
 20
433.8611
 10
771.6659
 20
436.0695
 10
775.8536
 20
438.4773
 10
779.911
 20
441.0784
 10
783.8316
 20
443.8665
 10
787.6093
 20
446.8351
 10
791.2377
 20
449.9782
 10
794.7107
 20
453.2893
 10
798.0218
 20
456.7623
 10
801.1649
 20
460.3907
 10
804.1335
 20
464.1684
 10
806.9216
 20
468.089
 10
809.5227
 20
472.1464
 10
811.9305
 20
476.3341
 10
814.1389
 20
480.6459
 10
816.1415
 20
485.0755
 10
817.932
 20
489.6166
 10
819.5042
 20
494.2631
 10
820.8517
 20
499.0084
 10
821.9684
 20
503.8465
 10
822.8478
 20
508.771
 10
823.4837
 20
513.7756
 10
823.8699
 20
518.854
 10
824.0
 20
524.0
 10
823.8699
 20
529.146
 10
823.4837
 20
534.2244
 10
822.8478
 20
539.229
 10
821.9684
 20
544.1535
 10
820.8517
 20
548.9916
 10
819.5042
 20
553.7369
 10
817.932
 20
558.3834
 10
816.1415
 20
562.9245
 10
814.1389
 20
567.3541
 10
811.9305
 20
571.6659
 10
809.5227
 20
575.8536
 10
806.9216
 20
579.911
 10
804.1335
 20
583.8316
 10
801.1649
 20
587.6093
 10
798.0218
 20
591.2377
 10
794.7107
 20
594.7107
 10
791.2377
 20
598.0218
 10
787.6093
 20
601.1649
 10
783.8316
 20
604.1335
 10
779.911
 20
606.9216
 10
775.8536
 20
609.5227
 10
771.6659
 20
611.9305
 10
767.3541
 20
614.1389
 10
762.9245
 20
616.1415
 10
758.3834
 20
617.932
 10
753.7369
 20
619.5042
 10
748.9916
 20
620.8517
 10
744.1535
 20
621.9684
 10
739.229
 20
622.8478
 10
734.2244
 20
623.4837
 10
729.146
 20
623.8699
 10
724.0
 20
624.0
 10
424.0
 20
624.0
 10
418.854
 20
623.8699
 10
413.7756
 20
623.4837
 10
408.771
 20
622.8478
 10
403.8465
 20
621.9684
 10
399.0084
 20
620.8517
 10
394.2631
 20
619.5042
 10
389.6166
 20
617.932
 10
385.0755
 20
616.1415
 10
380.6459
 20
614.1389
 10
376.3341
 20
611.9305
 10
372.1464
 20
609.5227
 10
368.089
 20
606.9216
 10
364.1684
 20
604.1335
 10
360.3907
 20
601.1649
 10
356.7623
 20
598.0218
 10
353.2893
 20
594.7107
 10
349.9782
 20
591.2377
 10
346.8351
 20
587.6093
 10
343.8665
 20
583.8316
 10
341.0784
 20
579.911
 10
338.4773
 20
575.8536
 10
336.0695
 20
571.6659
 10
333.8611
 20
567.3541
 10
331.8585
 20
562.9245
 10
330.068
 20
558.3834
 10
328.4958
 20
553.7369
 10
327.1483
 20
548.9916
 10
326.0316
 20
544.1535
 10
325.1522
 20
539.229
 10
324.5163
 20
534.2244
 10
324.1301
 20
529.146
 10
324.0
 20
524.0
 10
324.1301
 20
518.854
 10
324.5163
 20
513.7756
 10
325.1522
 20
508.771
 10
326.0316
 20
503.8465
 10
327.1483
 20
499.0084
 10
328.4958
 20
494.2631
 10
330.068
 20
489.6166
 10
331.8585
 20
485.0755
 10
333.8611
 20
480.6459
 10
336.0695
 20
476.3341
 10
338.4773
 20
472.1464
 10
341.0784
 20
468.089
 10
343.8665
 20
464.1684
 10
346.8351
 20
460.3907
 10
349.9782
 20
456.7623
 10
353.2893
 20
453.2893
 10
356.7623
 20
449.9782
 10
360.3907
 20
446.8351
 10
364.1684
 20
443.8665
 10
368.089
 20
441.0784
 10
372.1464
 20
438.4773
 10
376.3341
 20
436.0695
 10
380.6459
 20
433.8611
 10
385.0755
 20
431.8585
 10
389.6166
 20
430.068
 10
394.2631
 20
428.4958
 10
399.0084
 20
427.1483
 10
403.8465
 20
426.0316
 10
408.771
 20
425.1522
  0
LWPOLYLINE
  5
57
330
17
100
AcDbEntity
  8
OFFCUT
100
AcDbPolyline
 90
129
 70
1
 10
1111.2256
 20
809.8205
 10
1111.8048
 20
813.8832
 10
1112.0
 20
818.0
 10
1111.8048
 20
822.1168
 10
1111.2256
 20
826.1795
 10
1110.2717
 20
830.1832
 10
1108.9525
 20
834.1228
 10
1107.2776
 20
837.9932
 10
1105.2563
 20
841.7896
 10
1102.898
 20
845.5067
 10
1100.2123
 20
849.1396
 10
1097.2084
 20
852.6833
 10
1093.8958
 20
856.1328
 10
1090.284
 20
859.4829
 10
1086.3824
 20
862.7288
 10
1082.2003
 20
865.8653
 10
1077.7473
 20
868.8874
 10
1073.0327
 20
871.7902
 10
1068.066
 20
874.5685
 10
1062.8566
 20
877.2174
 10
1057.4139
 20
879.7319
 10
1051.7474
 20
882.1068
 10
1045.8664
 20
884.3373
 10
1039.7805
 20
886.4181
 10
1033.4989
 20
888.3444
 10
1027.0312
 20
890.1111
 10
1020.3868
 20
891.7132
 10
1013.575
 20
893.1456
 10
1006.6054
 20
894.4034
 10
999.4873
 20
895.4814
 10
992.2302
 20
896.3747
 10
984.8435
 20
897.0782
 10
977.3366
 20
897.587
 10
969.719
 20
897.8959
 10
962.0
 20
898.0
 10
954.281
 20
897.8959
 10
946.6634
 20
897.587
 10
939.1565
 20
897.0782
 10
931.7698
 20
896.3747
 10
924.5127
 20
895.4814
 10
917.3946
 20
894.4034
 10
910.425
 20
893.1456
 10
903.6132
 20
891.7132
 10
896.9688
 20
890.1111
 10
890.5011
 20
888.3444
 10
884.2195
 20
886.4181
 10
878.1336
 20
884.3373
 10
872.2526
 20
882.1068
 10
866.5861
 20
879.7319
 10
861.1434
 20
877.2174
 10
855.934
 20
874.5685
 10
850.9673
 20
871.7902
 10
846.2527
 20
868.8874
 10
841.7997
 20
865.8653
 10
837.6176
 20
862.7288
 10
833.716
 20
859.4829
 10
830.1042
 20
856.1328
 10
826.7916
 20
852.6833
 10
823.7877
 20
849.1396
 10
821.102
 20
845.5067
 10
818.7437
 20
841.7896
 10
816.7224
 20
837.9932
 10
815.0475
 20
834.1228
 10
813.7283
 20
830.1832
 10
812.7744
 20
826.1795
 10
812.1952
 20
822.1168
 10
812.0
 20
818.0
 10
812.1952
 20
813.8832
 10
812.7744
 20
809.8205
 10
813.7283
 20
805.8168
 10
815.0475
 20
801.8772
 10
816.7224
 20
798.0068
 10
818.7437
 20
794.2104
 10
821.102
 20
790.4933
 10
823.7877
 20
786.8604
 10
826.7916
 20
783.3167
 10
830.1042
 20
779.8672
 10
833.716
 20
776.5171
 10
837.6176
 20
773.2712
 10
841.7997
 20
770.1347
 10
846.2527
 20
767.1126
 10
850.9673
 20
764.2098
 10
855.934
 20
761.4315
 10
861.1434
 20
758.7826
 10
866.5861
 20
756.2681
 10
872.2526
 20
753.8932
 10
878.1336
 20
751.6627
 10
884.2195
 20
749.5819
 10
890.5011
 20
747.6556
 10
896.9688
 20
745.8889
 10
903.6132
 20
744.2868
 10
910.425
 20
742.8544
 10
917.3946
 20
741.5966
 10
924.5127
 20
740.5186
 10
931.7698
 20
739.6253
 10
939.1565
 20
738.9218
 10
946.6634
 20
738.413
 10
954.281
 20
738.1041
 10
962.0
 20
738.0
 10
969.719
 20
738.1041
 10
977.3366
 20
738.413
 10
984.8435
 20
738.9218
 10
992.2302
 20
739.6253
 10
999.4873
 20
740.5186
 10
1006.6054
 20
741.5966
 10
1013.575
 20
742.8544
 10
1020.3868
 20
744.2868
 10
1027.0312
 20
745.8889
 10
1033.4989
 20
747.6556
 10
1039.7805
 20
749.5819
 10
1045.8664
 20
751.6627
 10
1051.7474
 20
753.8932
 10
1057.4139
 20
756.2681
 10
1062.8566
 20
758.7826
 10
1068.066
 20
761.4315
 10
1073.0327
 20
764.2098
 10
1077.7473
 20
767.1126
 10
1082.2003
 20
770.1347
 10
1086.3824
 20
773.2712
 10
1090.284
 20
776.5171
 10
1093.8958
 20
779.8672
 10
1097.2084
 20
783.3167
 10
1100.2123
 20
786.8604
 10
1102.898
 20
790.4933
 10
1105.2563
 20
794.2104
 10
1107.2776
 20
798.0068
 10
1108.9525
 20
801.8772
 10
1110.2717
 20
805.8168
 10
1111.2256
 20
809.8205
  0
LWPOLYLINE
  5
58
330
17
100
AcDbEntity
  8
OFFCUT
100
AcDbPolyline
 90
63
 70
1
 10
566.0091
 20
770.5943
 10
561.8923
 20
754.362
 10
558.0
 20
738.0
 10
738.0
 20
738.0
 10
749.259
 20
747.5491
 10
760.1601
 20
757.1411
 10
765.3644
 20
761.9666
 10
770.3451
 20
766.819
 10
775.0572
 20
771.7036
 10
779.4561
 20
776.6258
 10
783.497
 20
781.5909
 10
787.1351
 20
786.6043
 10
790.3257
 20
791.6714
 10
793.0241
 20
796.7975
 10
795.1854
 20
801.9881
 10
796.765
 20
807.2485
 10
797.7182
 20
812.584
 10
798.0
 20
818.0
 10
797.8478
 20
821.1003
 10
797.4734
 20
824.2221
 10
796.8841
 20
827.3593
 10
796.0869
 20
830.5059
 10
793.8968
 20
836.8034
 10
790.9596
 20
843.0663
 10
787.3319
 20
849.2466
 10
783.07
 20
855.296
 10
778.2305
 20
861.1664
 10
772.8699
 20
866.8097
 10
767.0445
 20
872.1777
 10
760.811
 20
877.2222
 10
754.2257
 20
881.8951
 10
747.3452
 20
886.1483
 10
740.2259
 20
889.9335
 10
732.9243
 20
893.2026
 10
725.4968
 20
895.9075
 10
718.0
 20
898.0
 10
710.2248
 20
899.4831
 10
702.4593
 20
900.2903
 10
694.7274
 20
900.4525
 10
687.0524
 20
900.0009
 10
679.4582
 20
898.9665
 10
671.9683
 20
897.3803
 10
664.6062
 20
895.2734
 10
657.3957
 20
892.6768
 10
650.3603
 20
889.6215
 10
643.5236
 20
886.1386
 10
636.9094
 20
882.2592
 10
630.5411
 20
878.0142
 10
624.4424
 20
873.4348
 10
618.6369
 20
868.5519
 10
613.1482
 20
863.3966
 10
608.0
 20
858.0
 10
602.6997
 20
851.7566
 10
597.8205
 20
845.27
 10
593.3341
 20
838.5564
 10
589.2127
 20
831.632
 10
585.4281
 20
824.5131
 10
581.9523
 20
817.2157
 10
578.7571
 20
809.7563
 10
575.8145
 20
802.1509
 10
573.0965
 20
794.4158
 10
570.575
 20
786.5672
 10
566.0091
 20
770.5943
  0
LWPOLYLINE
  5
59
330
17
100
AcDbEntity
  8
OFFCUT
100
AcDbPolyline
 90
5
 70
1
 10
484.0
 20
918.0
 10
284.0
 20
858.0
 10
344.0
 20
738.0
 10
544.0
 20
738.0
 10
484.0
 20
918.0
  0
LWPOLYLINE
  5
5A
330
17
100
AcDbEntity
  8
OFFCUT
100
AcDbPolyline
 90
129
 70
1
 10
634.292
 20
10.2602
 10
644.4488
 20
11.0326
 10
654.458
 20
12.3044
 10
664.307
 20
14.0633
 10
673.9831
 20
16.2965
 10
683.4739
 20
18.9916
 10
692.7667
 20
22.1359
 10
701.849
 20
25.717
 10
710.7083
 20
29.7222
 10
719.3319
 20
34.1389
 10
727.7073
 20
38.9547
 10
735.8219
 20
44.1569
 10
743.6632
 20
49.7329
 10
751.2186
 20
55.6703
 10
758.4755
 20
61.9564
 10
765.4214
 20
68.5786
 10
772.0436
 20
75.5245
 10
778.3297
 20
82.7814
 10
784.2671
 20
90.3368
 10
789.8431
 20
98.1781
 10
795.0453
 20
106.2927
 10
799.8611
 20
114.6681
 10
804.2778
 20
123.2917
 10
808.283
 20
132.151
 10
811.8641
 20
141.2333
 10
815.0084
 20
150.5261
 10
817.7035
 20
160.0169
 10
819.9367
 20
169.693
 10
821.6956
 20
179.542
 10
822.9674
 20
189.5512
 10
823.7398
 20
199.708
 10
824.0
 20
210.0
 10
823.7398
 20
220.292
 10
822.9674
 20
230.4488
 10
821.6956
 20
240.458
 10
819.9367
 20
250.307
 10
817.7035
 20
259.9831
 10
815.0084
 20
269.4739
 10
811.8641
 20
278.7667
 10
808.283
 20
287.849
 10
804.2778
 20
296.7083
 10
799.8611
 20
305.3319
 10
795.0453
 20
313.7073
 10
789.8431
 20
321.8219
 10
784.2671
 20
329.6632
 10
778.3297
 20
337.2186
 10
772.0436
 20
344.4755
 10
765.4214
 20
351.4214
 10
758.4755
 20
358.0436
 10
751.2186
 20
364.3297
 10
743.6632
 20
370.2671
 10
735.8219
 20
375.8431
 10
727.7073
 20
381.0453
 10
719.3319
 20
385.8611
 10
710.7083
 20
390.2778
 10
701.849
 20
394.283
 10
692.7667
 20
397.8641
 10
683.4739
 20
401.0084
 10
673.9831
 20
403.7035
 10
664.307
 20
405.9367
 10
654.458
 20
407.6956
 10
644.4488
 20
408.9674
 10
634.292
 20
409.7398
 10
624.0
 20
410.0
 10
613.708
 20
409.7398
 10
603.5512
 20
408.9674
 10
593.542
 20
407.6956
 10
583.693
 20
405.9367
 10
574.0169
 20
403.7035
 10
564.5261
 20
401.0084
 10
555.2333
 20
397.8641
 10
546.151
 20
394.283
 10
537.2917
 20
390.2778
 10
528.6681
 20
385.8611
 10
520.2927
 20
381.0453
 10
512.1781
 20
375.8431
 10
504.3368
 20
370.2671
 10
496.7814
 20
364.3297
 10
489.5245
 20
358.0436
 10
482.5786
 20
351.4214
 10
475.9564
 20
344.4755
 10
469.6703
 20
337.2186
 10
463.7329
 20
329.6632
 10
458.1569
 20
321.8219
 10
452.9547
 20
313.7073
 10
448.1389
 20
305.3319
 10
443.7222
 20
296.7083
 10
439.717
 20
287.849
 10
436.1359
 20
278.7667
 10
432.9916
 20
269.4739
 10
430.2965
 20
259.9831
 10
428.0633
 20
250.307
 10
426.3044
 20
240.458
 10
425.0326
 20
230.4488
 10
424.2602
 20
220.292
 10
424.0
 20
210.0
 10
424.2602
 20
199.708
 10
425.0326
 20
189.5512
 10
426.3044
 20
179.542
 10
428.0633
 20
169.693
 10
430.2965
 20
160.0169
 10
432.9916
 20
150.5261
 10
436.1359
 20
141.2333
 10
439.717
 20
132.151
 10
443.7222
 20
123.2917
 10
448.1389
 20
114.6681
 10
452.9547
 20
106.2927
 10
458.1569
 20
98.1781
 10
463.7329
 20
90.3368
 10
469.6703
 20
82.7814
 10
475.9564
 20
75.5245
 10
482.5786
 20
68.5786
 10
489.5245
 20
61.9564
 10
496.7814
 20
55.6703
 10
504.3368
 20
49.7329
 10
512.1781
 20
44.1569
 10
520.2927
 20
38.9547
 10
528.6681
 20
34.1389
 10
537.2917
 20
29.7222
 10
546.151
 20
25.717
 10
555.2333
 20
22.1359
 10
564.5261
 20
18.9916
 10
574.0169
 20
16.2965
 10
583.693
 20
14.0633
 10
593.542
 20
12.3044
 10
603.5512
 20
11.0326
 10
613.708
 20
10.2602
 10
624.0
 20
10.0
 10
634.292
 20
10.2602
  0
LWPOLYLINE
  5
5B
330
17
100
AcDbEntity
  8
OFFCUT
100
AcDbPolyline
 90
129
 70
1
 10
10.1952
 20
566.281
 10
10.7744
 20
558.6634
 10
11.7283
 20
551.1565
 10
13.0475
 20
543.7698
 10
14.7224
 20
536.5127
 10
16.7437
 20
529.3946
 10
19.102
 20
522.425
 10
21.7877
 20
515.6132
 10
24.7916
 20
508.9688
 10
28.1042
 20
502.5011
 10
31.716
 20
496.2195
 10
35.6176
 20
490.1336
 10
39.7997
 20
484.2526
 10
44.2527
 20
478.5861
 10
48.9673
 20
473.1434
 10
53.934
 20
467.934
 10
59.1434
 20
462.9673
 10
64.5861
 20
458.2527
 10
70.2526
 20
453.7997
 10
76.1336
 20
449.6176
 10
82.2195
 20
445.716
 10
88.5011
 20
442.1042
 10
94.9688
 20
438.7916
 10
101.6132
 20
435.7877
 10
108.425
 20
433.102
 10
115.3946
 20
430.7437
 10
122.5127
 20
428.7224
 10
129.7698
 20
427.0475
 10
137.1565
 20
425.7283
 10
144.6634
 20
424.7744
 10
152.281
 20
424.1952
 10
160.0
 20
424.0
 10
167.719
 20
424.1952
 10
175.3366
 20
424.7744
 10
182.8435
 20
425.7283
 10
190.2302
 20
427.0475
 10
197.4873
 20
428.7224
 10
204.6054
 20
430.7437
 10
211.575
 20
433.102
 10
218.3868
 20
435.7877
 10
225.0312
 20
438.7916
 10
231.4989
 20
442.1042
 10
237.7805
 20
445.716
 10
243.8664
 20
449.6176
 10
249.7474
 20
453.7997
 10
255.4139
 20
458.2527
 10
260.8566
 20
462.9673
 10
266.066
 20
467.934
 10
271.0327
 20
473.1434
 10
275.7473
 20
478.5861
 10
280.2003
 20
484.2526
 10
284.3824
 20
490.1336
 10
288.284
 20
496.2195
 10
291.8958
 20
502.5011
 10
295.2084
 20
508.9688
 10
298.2123
 20
515.6132
 10
300.898
 20
522.425
 10
303.2563
 20
529.3946
 10
305.2776
 20
536.5127
 10
306.9525
 20
543.7698
 10
308.2717
 20
551.1565
 10
309.2256
 20
558.6634
 10
309.8048
 20
566.281
 10
310.0
 20
574.0
 10
309.8048
 20
581.719
 10
309.2256
 20
589.3366
 10
308.2717
 20
596.8435
 10
306.9525
 20
604.2302
 10
305.2776
 20
611.4873
 10
303.2563
 20
618.6054
 10
300.898
 20
625.575
 10
298.2123
 20
632.3868
 10
295.2084
 20
639.0312
 10
291.8958
 20
645.4989
 10
288.284
 20
651.7805
 10
284.3824
 20
657.8664
 10
280.2003
 20
663.7474
 10
275.7473
 20
669.4139
 10
271.0327
 20
674.8566
 10
266.066
 20
680.066
 10
260.8566
 20
685.0327
 10
255.4139
 20
689.7473
 10
249.7474
 20
694.2003
 10
243.8664
 20
698.3824
 10
237.7805
 20
702.284
 10
231.4989
 20
705.8958
 10
225.0312
 20
709.2084
 10
218.3868
 20
712.2123
 10
211.575
 20
714.898
 10
204.6054
 20
717.2563
 10
197.4873
 20
719.2776
 10
190.2302
 20
720.9525
 10
182.8435
 20
722.2717
 10
175.3366
 20
723.2256
 10
167.719
 20
723.8048
 10
160.0
 20
724.0
 10
152.281
 20
723.8048
 10
144.6634
 20
723.2256
 10
137.1565
 20
722.2717
 10
129.7698
 20
720.9525
 10
122.5127
 20
719.2776
 10
115.3946
 20
717.2563
 10
108.425
 20
714.898
 10
101.6132
 20
712.2123
 10
94.9688
 20
709.2084
 10
88.5011
 20
705.8958
 10
82.2195
 20
702.284
 10
76.1336
 20
698.3824
 10
70.2526
 20
694.2003
 10
64.5861
 20
689.7473
 10
59.1434
 20
685.0327
 10
53.934
 20
680.066
 10
48.9673
 20
674.8566
 10
44.2527
 20
669.4139
 10
39.7997
 20
663.7474
 10
35.6176
 20
657.8664
 10
31.716
 20
651.7805
 10
28.1042
 20
645.4989
 10
24.7916
 20
639.0312
 10
21.7877
 20
632.3868
 10
19.102
 20
625.575
 10
16.7437
 20
618.6054
 10
14.7224
 20
611.4873
 10
13.0475
 20
604.2302
 10
11.7283
 20
596.8435
 10
10.7744
 20
589.3366
 10
10.1952
 20
581.719
 10
10.0
 20
574.0
 10
10.1952
 20
566.281
  0
LWPOLYLINE
  5
5C
330
17
100
AcDbEntity
  8
OFFCUT
100
AcDbPolyline
 90
5
 70
1
 10
210.0
 20
738.0
 10
270.0
 20
858.0
 10
70.0
 20
918.0
 10
10.0
 20
738.0
 10
210.0
 20
738.0
  0
LWPOLYLINE
  5
5D
330
17
100
AcDbEntity
  8
OFFCUT
100
AcDbPolyline
 90
129
 70
1
 10
10.1952
 20
1007.8832
 10
10.7744
 20
1003.8205
 10
11.7283
 20
999.8168
 10
13.0475
 20
995.8772
 10
14.7224
 20
992.0068
 10
16.7437
 20
988.2104
 10
19.102
 20
984.4933
 10
21.7877
 20
980.8604
 10
24.7916
 20
977.3167
 10
28.1042
 20
973.8672
 10
31.716
 20
970.5171
 10
35.6176
 20
967.2712
 10
39.7997
 20
964.1347
 10
44.2527
 20
961.1126
 10
48.9673
 20
958.2098
 10
53.934
 20
955.4315
 10
59.1434
 20
952.7826
 10
64.5861
 20
950.2681
 10
70.2526
 20
947.8932
 10
76.1336
 20
945.6627
 10
82.2195
 20
943.5819
 10
88.5011
 20
941.6556
 10
94.9688
 20
939.8889
 10
101.6132
 20
938.2868
 10
108.425
 20
936.8544
 10
115.3946
 20
935.5966
 10
122.5127
 20
934.5186
 10
129.7698
 20
933.6253
 10
137.1565
 20
932.9218
 10
144.6634
 20
932.413
 10
152.281
 20
932.1041
 10
160.0
 20
932.0
 10
167.719
 20
932.1041
 10
175.3366
 20
932.413
 10
182.8435
 20
932.9218
 10
190.2302
 20
933.6253
 10
197.4873
 20
934.5186
 10
204.6054
 20
935.5966
 10
211.575
 20
936.8544
 10
218.3868
 20
938.2868
 10
225.0312
 20
939.8889
 10
231.4989
 20
941.6556
 10
237.7805
 20
943.5819
 10
243.8664
 20
945.6627
 10
249.7474
 20
947.8932
 10
255.4139
 20
950.2681
 10
260.8566
 20
952.7826
 10
266.066
 20
955.4315
 10
271.0327
 20
958.2098
 10
275.7473
 20
961.1126
 10
280.2003
 20
964.1347
 10
284.3824
 20
967.2712
 10
288.284
 20
970.5171
 10
291.8958
 20
973.8672
 10
295.2084
 20
977.3167
 10
298.2123
 20
980.8604
 10
300.898
 20
984.4933
 10
303.2563
 20
988.2104
 10
305.2776
 20
992.0068
 10
306.9525
 20
995.8772
 10
308.2717
 20
999.8168
 10
309.2256
 20
1003.8205
 10
309.8048
 20
1007.8832
 10
310.0
 20
1012.0
 10
309.8048
 20
1016.1168
 10
309.2256
 20
1020.1795
 10
308.2717
 20
1024.1832
 10
306.9525
 20
1028.1228
 10
305.2776
 20
1031.9932
 10
303.2563
 20
1035.7896
 10
300.898
 20
1039.5067
 10
298.2123
 20
1043.1396
 10
295.2084
 20
1046.6833
 10
291.8958
 20
1050.1328
 10
288.284
 20
1053.4829
 10
284.3824
 20
1056.7288
 10
280.2003
 20
1059.8653
 10
275.7473
 20
1062.8874
 10
271.0327
 20
1065.7902
 10
266.066
 20
1068.5685
 10
260.8566
 20
1071.2174
 10
255.4139
 20
1073.7319
 10
249.7474
 20
1076.1068
 10
243.8664
 20
1078.3373
 10
237.7805
 20
1080.4181
 10
231.4989
 20
1082.3444
 10
225.0312
 20
1084.1111
 10
218.3868
 20
1085.7132
 10
211.575
 20
1087.1456
 10
204.6054
 20
1088.4034
 10
197.4873
 20
1089.4814
 10
190.2302
 20
1090.3747
 10
182.8435
 20
1091.0782
 10
175.3366
 20
1091.587
 10
167.719
 20
1091.8959
 10
160.0
 20
1092.0
 10
152.281
 20
1091.8959
 10
144.6634
 20
1091.587
 10
137.1565
 20
1091.0782
 10
129.7698
 20
1090.3747
 10
122.5127
 20
1089.4814
 10
115.3946
 20
1088.4034
 10
108.425
 20
1087.1456
 10
101.6132
 20
1085.7132
 10
94.9688
 20
1084.1111
 10
88.5011
 20
1082.3444
 10
82.2195
 20
1080.4181
 10
76.1336
 20
1078.3373
 10
70.2526
 20
1076.1068
 10
64.5861
 20
1073.7319
 10
59.1434
 20
1071.2174
 10
53.934
 20
1068.5685
 10
48.9673
 20
1065.7902
 10
44.2527
 20
1062.8874
 10
39.7997
 20
1059.8653
 10
35.6176
 20
1056.7288
 10
31.716
 20
1053.4829
 10
28.1042
 20
1050.1328
 10
24.7916
 20
1046.6833
 10
21.7877
 20
1043.1396
 10
19.102
 20
1039.5067
 10
16.7437
 20
1035.7896
 10
14.7224
 20
1031.9932
 10
13.0475
 20
1028.1228
 10
11.7283
 20
1024.1832
 10
10.7744
 20
1020.1795
 10
10.1952
 20
1016.1168
 10
10.0
 20
1012.0
 10
10.1952
 20
1007.8832
  0
LWPOLYLINE
  5
5E
330
17
100
AcDbEntity
  8
OFFCUT
100
AcDbPolyline
 90
131
 70
1
 10
408.771
 20
425.1522
 10
413.7756
 20
424.5163
 10
418.854
 20
424.1301
 10
424.0
 20
424.0
 10
724.0
 20
424.0
 10
729.146
 20
424.1301
 10
734.2244
 20
424.5163
 10
739.229
 20
425.1522
 10
744.1535
 20
426.0316
 10
748.9916
 20
427.1483
 10
753.7369
 20
428.4958
 10
758.3834
 20
430.068
 10
762.9245
 20
431.8585
 10
767.3541
 20
433.8611
 10
771.6659
 20
436.0695
 10
775.8536
 20
438.4773
 10
779.911
 20
441.0784
 10
783.8316
 20
443.8665
 10
787.6093
 20
446.8351
 10
791.2377
 20
449.9782
 10
794.7107
 20
453.2893
 10
798.0218
 20
456.7623
 10
801.1649
 20
460.3907
 10
804.1335
 20
464.1684
 10
806.9216
 20
468.089
 10
809.5227
 20
472.1464
 10
811.9305
 20
476.3341
 10
814.1389
 20
480.6459
 10
816.1415
 20
485.0755
 10
817.932
 20
489.6166
 10
819.5042
 20
494.2631
 10
820.8517
 20
499.0084
 10
821.9684
 20
503.8465
 10
822.8478
 20
508.771
 10
823.4837
 20
513.7756
 10
823.8699
 20
518.854
 10
824.0
 20
524.0
 10
823.8699
 20
529.146
 10
823.4837
 20
534.2244
 10
822.8478
 20
539.229
 10
821.9684
 20
544.1535
 10
820.8517
 20
548.9916
 10
819.5042
 20
553.7369
 10
817.932
 20
558.3834
 10
816.1415
 20
562.9245
 10
814.1389
 20
567.3541
 10
811.9305
 20
571.6659
 10
809.5227
 20
575.8536
 10
806.9216
 20
579.911
 10
804.1335
 20
583.8316
 10
801.1649
 20
587.6093
 10
798.0218
 20
591.2377
 10
794.7107
 20
594.7107
 10
791.2377
 20
598.0218
 10
787.6093
 20
601.1649
 10
783.8316
 20
604.1335
 10
779.911
 20
606.9216
 10
775.8536
 20
609.5227
 10
771.6659
 20
611.9305
 10
767.3541
 20
614.1389
 10
762.9245
 20
616.1415
 10
758.3834
 20
617.932
 10
753.7369
 20
619.5042
 10
748.9916
 20
620.8517
 10
744.1535
 20
621.9684
 10
739.229
 20
622.8478
 10
734.2244
 20
623.4837
 10
729.146
 20
623.8699
 10
724.0
 20
624.0
 10
424.0
 20
624.0
 10
418.854
 20
623.8699
 10
413.7756
 20
623.4837
 10
408.771
 20
622.8478
 10
403.8465
 20
621.9684
 10
399.0084
 20
620.8517
 10
394.2631
 20
619.5042
 10
389.6166
 20
617.932
 10
385.0755
 20
616.1415
 10
380.6459
 20
614.1389
 10
376.3341
 20
611.9305
 10
372.1464
 20
609.5227
 10
368.089
 20
606.9216
 10
364.1684
 20
604.1335
 10
360.3907
 20
601.1649
 10
356.7623
 20
598.0218
 10
353.2893
 20
594.7107
 10
349.9782
 20
591.2377
 10
346.8351
 20
587.6093
 10
343.8665
 20
583.8316
 10
341.0784
 20
579.911
 10
338.4773
 20
575.8536
 10
336.0695
 20
571.6659
 10
333.8611
 20
567.3541
 10
331.8585
 20
562.9245
 10
330.068
 20
558.3834
 10
328.4958
 20
553.7369
 10
327.1483
 20
548.9916
 10
326.0316
 20
544.1535
 10
325.1522
 20
539.229
 10
324.5163
 20
534.2244
 10
324.1301
 20
529.146
 10
324.0
 20
524.0
 10
324.1301
 20
518.854
 10
324.5163
 20
513.7756
 10
325.1522
 20
508.771
 10
326.0316
 20
503.8465
 10
327.1483
 20
499.0084
 10
328.4958
 20
494.2631
 10
330.068
 20
489.6166
 10
331.8585
 20
485.0755
 10
333.8611
 20
480.6459
 10
336.0695
 20
476.3341
 10
338.4773
 20
472.1464
 10
341.0784
 20
468.089
 10
343.8665
 20
464.1684
 10
346.8351
 20
460.3907
 10
349.9782
 20
456.7623
 10
353.2893
 20
453.2893
 10
356.7623
 20
449.9782
 10
360.3907
 20
446.8351
 10
364.1684
 20
443.8665
 10
368.089
 20
441.0784
 10
372.1464
 20
438.4773
 10
376.3341
 20
436.0695
 10
380.6459
 20
433.8611
 10
385.0755
 20
431.8585
 10
389.6166
 20
430.068
 10
394.2631
 20
428.4958
 10
399.0084
 20
427.1483
 10
403.8465
 20
426.0316
 10
408.771
 20
425.1522
  0
LWPOLYLINE
  5
5F
330
17
100
AcDbEntity
  8
OFFCUT
100
AcDbPolyline
 90
129
 70
1
 10
1111.2256
 20
809.8205
 10
1111.8048
 20
813.8832
 10
1112.0
 20
818.0
 10
1111.8048
 20
822.1168
 10
1111.2256
 20
826.1795
 10
1110.2717
 20
830.1832
 10
1108.9525
 20
834.1228
 10
1107.2776
 20
837.9932
 10
1105.2563
 20
841.7896
 10
1102.898
 20
845.5067
 10
1100.2123
 20
849.1396
 10
1097.2084
 20
852.6833
 10
1093.8958
 20
856.1328
 10
1090.284
 20
859.4829
 10
1086.3824
 20
862.7288
 10
1082.2003
 20
865.8653
 10
1077.7473
 20
868.8874
 10
1073.0327
 20
871.7902
 10
1068.066
 20
874.5685
 10
1062.8566
 20
877.2174
 10
1057.4139
 20
879.7319
 10
1051.7474
 20
882.1068
 10
1045.8664
 20
884.3373
 10
1039.7805
 20
886.4181
 10
1033.4989
 20
888.3444
 10
1027.0312
 20
890.1111
 10
1020.3868
 20
891.7132
 10
1013.575
 20
893.1456
 10
1006.6054
 20
894.4034
 10
999.4873
 20
895.4814
 10
992.2302
 20
896.3747
 10
984.8435
 20
897.0782
 10
977.3366
 20
897.587
 10
969.719
 20
897.8959
 10
962.0
 20
898.0
 10
954.281
 20
897.8959
 10
946.6634
 20
897.587
 10
939.1565
 20
897.0782
 10
931.7698
 20
896.3747
 10
924.5127
 20
895.4814
 10
917.3946
 20
894.4034
 10
910.425
 20
893.1456
 10
903.6132
 20
891.7132
 10
896.9688
 20
890.1111
 10
890.5011
 20
888.3444
 10
884.2195
 20
886.4181
 10
878.1336
 20
884.3373
 10
872.2526
 20
882.1068
 10
866.5861
 20
879.7319
 10
861.1434
 20
877.2174
 10
855.934
 20
874.5685
 10
850.9673
 20
871.7902
 10
846.2527
 20
868.8874
 10
841.7997
 20
865.8653
 10
837.6176
 20
862.7288
 10
833.716
 20
859.4829
 10
830.1042
 20
856.1328
 10
826.7916
 20
852.6833
 10
823.7877
 20
849.1396
 10
821.102
 20
845.5067
 10
818.7437
 20
841.7896
 10
816.7224
 20
837.9932
 10
815.0475
 20
834.1228
 10
813.7283
 20
830.1832
 10
812.7744
 20
826.1795
 10
812.1952
 20
822.1168
 10
812.0
 20
818.0
 10
812.1952
 20
813.8832
 10
812.7744
 20
809.8205
 10
813.7283
 20
805.8168
 10
815.0475
 20
801.8772
 10
816.7224
 20
798.0068
 10
818.7437
 20
794.2104
 10
821.102
 20
790.4933
 10
823.7877
 20
786.8604
 10
826.7916
 20
783.3167
 10
830.1042
 20
779.8672
 10
833.716
 20
776.5171
 10
837.6176
 20
773.2712
 10
841.7997
 20
770.1347
 10
846.2527
 20
767.1126
 10
850.9673
 20
764.2098
 10
855.934
 20
761.4315
 10
861.1434
 20
758.7826
 10
866.5861
 20
756.2681
 10
872.2526
 20
753.8932
 10
878.1336
 20
751.6627
 10
884.2195
 20
749.5819
 10
890.5011
 20
747.6556
 10
896.9688
 20
745.8889
 10
903.6132
 20
744.2868
 10
910.425
 20
742.8544
 10
917.3946
 20
741.5966
 10
924.5127
 20
740.5186
 10
931.7698
 20
739.6253
 10
939.1565
 20
738.9218
 10
946.6634
 20
738.413
 10
954.281
 20
738.1041
 10
962.0
 20
738.0
 10
969.719
 20
738.1041
 10
977.3366
 20
738.413
 10
984.8435
 20
738.9218
 10
992.2302
 20
739.6253
 10
999.4873
 20
740.5186
 10
1006.6054
 20
741.5966
 10
1013.575
 20
742.8544
 10
1020.3868
 20
744.2868
 10
1027.0312
 20
745.8889
 10
1033.4989
 20
747.6556
 10
1039.7805
 20
749.5819
 10
1045.8664
 20
751.6627
 10
1051.7474
 20
753.8932
 10
1057.4139
 20
756.2681
 10
1062.8566
 20
758.7826
 10
1068.066
 20
761.4315
 10
1073.0327
 20
764.2098
 10
1077.7473
 20
767.1126
 10
1082.2003
 20
770.1347
 10
1086.3824
 20
773.2712
 10
1090.284
 20
776.5171
 10
1093.8958
 20
779.8672
 10
1097.2084
 20
783.3167
 10
1100.2123
 20
786.8604
 10
1102.898
 20
790.4933
 10
1105.2563
 20
794.2104
 10
1107.2776
 20
798.0068
 10
1108.9525
 20
801.8772
 10
1110.2717
 20
805.8168
 10
1111.2256
 20
809.8205
  0
LWPOLYLINE
  5
60
330
17
100
AcDbEntity
  8
OFFCUT
100
AcDbPolyline
 90
63
 70
1
 10
566.0091
 20
770.5943
 10
561.8923
 20
754.362
 10
558.0
 20
738.0
 10
738.0
 20
738.0
 10
749.259
 20
747.5491
 10
760.1601
 20
757.1411
 10
765.3644
 20
761.9666
 10
770.3451
 20
766.819
 10
775.0572
 20
771.7036
 10
779.4561
 20
776.6258
 10
783.497
 20
781.5909
 10
787.1351
 20
786.6043
 10
790.3257
 20
791.6714
 10
793.0241
 20
796.7975
 10
795.1854
 20
801.9881
 10
796.765
 20
807.2485
 10
797.7182
 20
812.584
 10
798.0
 20
818.0
 10
797.8478
 20
821.1003
 10
797.4734
 20
824.2221
 10
796.8841
 20
827.3593
 10
796.0869
 20
830.5059
 10
793.8968
 20
836.8034
 10
790.9596
 20
843.0663
 10
787.3319
 20
849.2466
 10
783.07
 20
855.296
 10
778.2305
 20
861.1664
 10
772.8699
 20
866.8097
 10
767.0445
 20
872.1777
 10
760.811
 20
877.2222
 10
754.2257
 20
881.8951
 10
747.3452
 20
886.1483
 10
740.2259
 20
889.9335
 10
732.9243
 20
893.2026
 10
725.4968
 20
895.9075
 10
718.0
 20
898.0
 10
710.2248
 20
899.4831
 10
702.4593
 20
900.2903
 10
694.7274
 20
900.4525
 10
687.0524
 20
900.0009
 10
679.4582
 20
898.9665
 10
671.9683
 20
897.3803
 10
664.6062
 20
895.2734
 10
657.3957
 20
892.6768
 10
650.3603
 20
889.6215
 10
643.5236
 20
886.1386
 10
636.9094
 20
882.2592
 10
630.5411
 20
878.0142
 10
624.4424
 20
873.4348
 10
618.6369
 20
868.5519
 10
613.1482
 20
863.3966
 10
608.0
 20
858.0
 10
602.6997
 20
851.7566
 10
597.8205
 20
845.27
 10
593.3341
 20
838.5564
 10
589.2127
 20
831.632
 10
585.4281
 20
824.5131
 10
581.9523
 20
817.2157
 10
578.7571
 20
809.7563
 10
575.8145
 20
802.1509
 10
573.0965
 20
794.4158
 10
570.575
 20
786.5672
 10
566.0091
 20
770.5943
  0
LWPOLYLINE
  5
61
330
17
100
AcDbEntity
  8
OFFCUT
100
AcDbPolyline
 90
5
 70
1
 10
484.0
 20
918.0
 10
284.0
 20
858.0
 10
344.0
 20
738.0
 10
544.0
 20
738.0
 10
484.0
 20
918.0
  0
LWPOLYLINE
  5
62
330
17
100
AcDbEntity
  8
OFFCUT
100
AcDbPolyline
 90
35
 70
1
 10
10.0
 20
10.0
 10
10.0
 20
210.0
 10
10.2602
 20
199.708
 10
11.0326
 20
189.5512
 10
12.3044
 20
179.542
 10
14.0633
 20
169.693
 10
16.2965
 20
160.0169
 10
18.9916
 20
150.5261
 10
22.1359
 20
141.2333
 10
25.717
 20
132.151
 10
29.7222
 20
123.2917
 10
34.1389
 20
114.6681
 10
38.9547
 20
106.2927
 10
44.1569
 20
98.1781
 10
49.7329
 20
90.3368
 10
55.6703
 20
82.7814
 10
61.9564
 20
75.5245
 10
68.5786
 20
68.5786
 10
75.5245
 20
61.9564
 10
82.7814
 20
55.6703
 10
90.3368
 20
49.7329
 10
98.1781
 20
44.1569
 10
106.2927
 20
38.9547
 10
114.6681
 20
34.1389
 10
123.2917
 20
29.7222
 10
132.151
 20
25.717
 10
141.2333
 20
22.1359
 10
150.5261
 20
18.9916
 10
160.0169
 20
16.2965
 10
169.693
 20
14.0633
 10
179.542
 20
12.3044
 10
189.5512
 20
11.0326
 10
199.708
 20
10.2602
 10
210.0
 20
10.0
 10
10.0
 20
10.0
  0
TEXT
  5
63
330
17
100
AcDbEntity
  8
INFO
100
AcDbText
 10
0.0
 20
2480.0
 30
0.0
 40
25.0
  1
SYMMETRY-FIRST - SHEET 1 - mixed_curved.dxf
 11
0.0
 21
2480.0
 31
0.0
100
AcDbText
  0
ENDSEC
  0
SECTION
  2
OBJECTS
  0
DICTIONARY
  5
A
330
0
100
AcDbDictionary
281
1
  3
ACAD_COLOR
350
B
  3
ACAD_GROUP
350
C
  3
ACAD_LAYOUT
350
D
  3
ACAD_MATERIAL
350
E
  3
ACAD_MLEADERSTYLE
350
F
  3
ACAD_MLINESTYLE
350
10
  3
ACAD_PLOTSETTINGS
350
11
  3
ACAD_PLOTSTYLENAME
350
12
  3
ACAD_SCALELIST
350
14
  3
ACAD_TABLESTYLE
350
15
  3
ACAD_VISUALSTYLE
350
16
  3
EZDXF_META
350
2D
  0
DICTIONARY
  5
B
330
A
100
AcDbDictionary
281
1
  0
DICTIONARY
  5
C
330
A
100
AcDbDictionary
281
1
  0
DICTIONARY
  5
D
330
A
100
AcDbDictionary
281
1
  3
Model
350
1A
  3
Layout1
350
1E
  0
DICTIONARY
  5
E
330
A
100
AcDbDictionary
281
1
  3
ByBlock
350
1F
  3
ByLayer
350
20
  3
Global
350
21
  0
DICTIONARY
  5
F
330
A
100
AcDbDictionary
281
1
  3
Standard
350
2C
  0
DICTIONARY
  5
10
330
A
100
AcDbDictionary
281
1
  3
Standard
350
22
  0
DICTIONARY
  5
11
330
A
100
AcDbDictionary
281
1
  0
ACDBDICTIONARYWDFLT
  5
12
330
A
100
AcDbDictionary
281
1
  3
Normal
350
13
100
AcDbDictionaryWithDefault
340
13
  0
ACDBPLACEHOLDER
  5
13
330
12
  0
DICTIONARY
  5
14
330
A
100
AcDbDictionary
281
1
  0
DICTIONARY
  5
15
330
A
100
AcDbDictionary
281
1
  0
DICTIONARY
  5
16
330
A
100
AcDbDictionary
281
1
  0
LAYOUT
  5
1A
330
D
100
AcDbPlotSettings
  1

  4
A3
  6

 40
7.5
 41
20.0
 42
7.5
 43
20.0
 44
420.0
 45
297.0
 46
0.0
 47
0.0
 48
0.0
 49
0.0
140
0.0
141
0.0
142
1.0
143
1.0
 70
1024
 72
1
 73
0
 74
5
  7

 75
16
 76
0
 77
2
 78
300
147
1.0
148
0.0
149
0.0
100
AcDbLayout
  1
Model
 70
1
 71
0
 10
0.0
 20
0.0
 11
420.0
 21
297.0
 12
0.0
 22
0.0
 32
0.0
 14
1e+20
 24
1e+20
 34
1e+20
 15
-1e+20
 25
-1e+20
 35
-1e+20
146
0.0
 13
0.0
 23
0.0
 33
0.0
 16
1.0
 26
0.0
 36
0.0
 17
0.0
 27
1.0
 37
0.0
 76
1
330
17
  0
LAYOUT
  5
1E
330
D
100
AcDbPlotSettings
  1

  4
A3
  6

 40
7.5
 41
20.0
 42
7.5
 43
20.0
 44
420.0
 45
297.0
 46
0.0
 47
0.0
 48
0.0
 49
0.0
140
0.0
141
0.0
142
1.0
143
1.0
 70
0
 72
1
 73
0
 74
5
  7

 75
16
 76
0
 77
2
 78
300
147
1.0
148
0.0
149
0.0
100
AcDbLayout
  1
Layout1
 70
1
 71
1
 10
0.0
 20
0.0
 11
420.0
 21
297.0
 12
0.0
 22
0.0
 32
0.0
 14
1e+20
 24
1e+20
 34
1e+20
 15
-1e+20
 25
-1e+20
 35
-1e+20
146
0.0
 13
0.0
 23
0.0
 33
0.0
 16
1.0
 26
0.0
 36
0.0
 17
0.0
 27
1.0
 37
0.0
 76
1
330
1B
  0
MATERIAL
  5
1F
102
{ACAD_REACTORS
330
E
102
}
330
E
100
AcDbMaterial
  1
ByBlock
  2

 70
0
 40
1.0
 71
1
 41
1.0
 91
-1023410177
 42
1.0
 72
1
  3

 73
1
 74
1
 75
1
 44
0.5
 73
0
 45
1.0
 46
1.0
 77
1
  4

 78
1
 79
1
170
1
 48
1.0
171
1
  6

172
1
173
1
174
1
140
1.0
141
1.0
175
1
  7

176
1
177
1
178
1
143
1.0
179
1
  8

270
1
271
1
272
1
145
1.0
146
1.0
273
1
  9

274
1
275
1
276
1
 42
1.0
 72
1
  3

 73
1
 74
1
 75
1
 94
63
  0
MATERIAL
  5
20
102
{ACAD_REACTORS
330
E
102
}
330
E
100
AcDbMaterial
  1
ByLayer
  2

 70
0
 40
1.0
 71
1
 41
1.0
 91
-1023410177
 42
1.0
 72
1
  3

 73
1
 74
1
 75
1
 44
0.5
 73
0
 45
1.0
 46
1.0
 77
1
  4

 78
1
 79
1
170
1
 48
1.0
171
1
  6

172
1
173
1
174
1
140
1.0
141
1.0
175
1
  7

176
1
177
1
178
1
143
1.0
179
1
  8

270
1
271
1
272
1
145
1.0
146
1.0
273
1
  9

274
1
275
1
276
1
 42
1.0
 72
1
  3

 73
1
 74
1
 75
1
 94
63
  0
MATERIAL
  5
21
102
{ACAD_REACTORS
330
E
102
}
330
E
100
AcDbMaterial
  1
Global
  2

 70
0
 40
1.0
 71
1
 41
1.0
 91
-1023410177
 42
1.0
 72
1
  3

 73
1
 74
1
 75
1
 44
0.5
 73
0
 45
1.0
 46
1.0
 77
1
  4

 78
1
 79
1
170
1
 48
1.0
171
1
  6

172
1
173
1
174
1
140
1.0
141
1.0
175
1
  7

176
1
177
1
178
1
143
1.0
179
1
  8

270
1
271
1
272
1
145
1.0
146
1.0
273
1
  9

274
1
275
1
276
1
 42
1.0
 72
1
  3

 73
1
 74
1
 75
1
 94
63
  0
MLINESTYLE
  5
22
102
{ACAD_REACTORS
330
10
102
}
330
10
100
AcDbMlineStyle
  2
Standard
 70
0
  3

 62
256
 51
90.0
 52
90.0
 71
2
 49
0.5
 62
256
  6
BYLAYER
 49
-0.5
 62
256
  6
BYLAYER
  0
MLEADERSTYLE
  5
2C
102
{ACAD_REACTORS
330
F
102
}
330
F
100
AcDbMLeaderStyle
179
2
170
2
171
1
172
0
 90
2
 40
0.0
 41
0.0
173
1
 91
-1056964608
 92
-2
290
1
 42
2.0
291
1
 43
8.0
  3
Standard
 44
4.0
300

342
29
174
1
175
1
176
0
178
1
 93
-1056964608
 45
4.0
292
0
297
0
 46
4.0
 94
-1056964608
 47
1.0
 49
1.0
140
1.0
294
1
141
0.0
177
0
142
1.0
295
0
296
0
143
3.75
271
0
272
9
273
9
  0
DICTIONARY
  5
2D
330
A
100
AcDbDictionary
280
1
281
1
  3
CREATED_BY_EZDXF
350
2E
  3
WRITTEN_BY_EZDXF
350
66
  0
DICTIONARYVAR
  5
2E
330
2D
100
DictionaryVariables
280
0
  1
1.4.4 @ 2026-09-17T10:34:38.390507+00:00
  0
DICTIONARYVAR
  5
66
330
2D
100
DictionaryVariables
280
0
  1
1.4.4 @ 2026-09-17T10:34:38.412562+00:00
  0
ENDSEC
  0
EOF
