  0
SECTION
  2
HEADER
  9
$ACADVER
  1
AC1032
  9
$ACADMAINTVER
 90
4
  9
$DWGCODEPAGE
  3
ANSI_1252
  9
$LASTSAVEDBY
  1
ezdxf
  9
$REQUIREDVERSIONS
160
0
  9
$INSBASE
 10
0.0
 20
0.0
 30
0.0
  9
$EXTMIN
 10
1e+20
 20
1e+20
 30
1e+20
  9
$EXTMAX
 10
-1e+20
 20
-1e+20
 30
-1e+20
  9
$LIMMIN
 10
0.0
 20
0.0
  9
$LIMMAX
 10
420.0
 20
297.0
  9
$ORTHOMODE
 70
0
  9
$REGENMODE
 70
1
  9
$FILLMODE
 70
1
  9
$QTEXTMODE
 70
0
  9
$MIRRTEXT
 70
1
  9
$LTSCALE
 40
1.0
  9
$ATTMODE
 70
1
  9
$TEXTSIZE
 40
2.5
  9
$TRACEWID
 40
1.0
  9
$TEXTSTYLE
  7
Standard
  9
$CLAYER
  8
0
  9
$CELTYPE
  6
ByLayer
  9
$CECOLOR
 62
256
  9
$CELTSCALE
 40
1.0
  9
$DISPSILH
 70
0
  9
$DIMSCALE
 40
1.0
  9
$DIMASZ
 40
2.5
  9
$DIMEXO
 40
0.625
  9
$DIMDLI
 40
3.75
  9
$DIMRND
 40
0.0
  9
$DIMDLE
 40
0.0
  9
$DIMEXE
 40
1.25
  9
$DIMTP
 40
0.0
  9
$DIMTM
 40
0.0
  9
$DIMTXT
 40
2.5
  9
$DIMCEN
 40
2.5
  9
$DIMTSZ
 40
0.0
  9
$DIMTOL
 70
0
  9
$DIMLIM
 70
0
  9
$DIMTIH
 70
0
  9
$DIMTOH
 70
0
  9
$DIMSE1
 70
0
  9
$DIMSE2
 70
0
  9
$DIMTAD
 70
1
  9
$DIMZIN
 70
8
  9
$DIMBLK
  1

  9
$DIMASO
 70
1
  9
$DIMSHO
 70
1
  9
$DIMPOST
  1

  9
$DIMAPOST
  1

  9
$DIMALT
 70
0
  9
$DIMALTD
 70
3
  9
$DIMALTF
 40
0.03937007874
  9
$DIMLFAC
 40
1.0
  9
$DIMTOFL
 70
1
  9
$DIMTVP
 40
0.0
  9
$DIMTIX
 70
0
  9
$DIMSOXD
 70
0
  9
$DIMSAH
 70
0
  9
$DIMBLK1
  1

  9
$DIMBLK2
  1

  9
$DIMSTYLE
  2
ISO-25
  9
$DIMCLRD
 70
0
  9
$DIMCLRE
 70
0
  9
$DIMCLRT
 70
0
  9
$DIMTFAC
 40
1.0
  9
$DIMGAP
 40
0.625
  9
$DIMJUST
 70
0
  9
$DIMSD1
 70
0
  9
$DIMSD2
 70
0
  9
$DIMTOLJ
 70
0
  9
$DIMTZIN
 70
8
  9
$DIMALTZ
 70
0
  9
$DIMALTTZ
 70
0
  9
$DIMUPT
 70
0
  9
$DIMDEC
 70
2
  9
$DIMTDEC
 70
2
  9
$DIMALTU
 70
2
  9
$DIMALTTD
 70
3
  9
$DIMTXSTY
  7
Standard
  9
$DIMAUNIT
 70
0
  9
$DIMADEC
 70
0
  9
$DIMALTRND
 40
0.0
  9
$DIMAZIN
 70
0
  9
$DIMDSEP
 70
44
  9
$DIMATFIT
 70
3
  9
$DIMFRAC
 70
0
  9
$DIMLDRBLK
  1

  9
$DIMLUNIT
 70
2
  9
$DIMLWD
 70
-2
  9
$DIMLWE
 70
-2
  9
$DIMTMOVE
 70
0
  9
$DIMFXL
 40
1.0
  9
$DIMFXLON
 70
0
  9
$DIMJOGANG
 40
0.785398163397
  9
$DIMTFILL
 70
0
  9
$DIMTFILLCLR
 70
0
  9
$DIMARCSYM
 70
0
  9
$DIMLTYPE
  6

  9
$DIMLTEX1
  6

  9
$DIMLTEX2
  6

  9
$DIMTXTDIRECTION
 70
0
  9
$LUNITS
 70
2
  9
$LUPREC
 70
4
  9
$SKETCHINC
 40
1.0
  9
$FILLETRAD
 40
10.0
  9
$AUNITS
 70
0
  9
$AUPREC
 70
2
  9
$MENU
  1
.
  9
$ELEVATION
 40
0.0
  9
$PELEVATION
 40
0.0
  9
$THICKNESS
 40
0.0
  9
$LIMCHECK
 70
0
  9
$CHAMFERA
 40
0.0
  9
$CHAMFERB
 40
0.0
  9
$CHAMFERC
 40
0.0
  9
$CHAMFERD
 40
0.0
  9
$SKPOLY
 70
0
  9
$TDCREATE
 40
2461301.4407175924
  9
$TDUCREATE
 40
2458532.153996898
  9
$TDUPDATE
 40
2461301.4407175924
  9
$TDUUPDATE
 40
2458532.1544311
  9
$TDINDWG
 40
0.0
  9
$TDUSRTIMER
 40
0.0
  9
$USRTIMER
 70
1
  9
$ANGBASE
 50
0.0
  9
$ANGDIR
 70
0
  9
$PDMODE
 70
0
  9
$PDSIZE
 40
0.0
  9
$PLINEWID
 40
0.0
  9
$SPLFRAME
 70
0
  9
$SPLINETYPE
 70
6
  9
$SPLINESEGS
 70
8
  9
$HANDSEED
  5
6A
  9
$SURFTAB1
 70
6
  9
$SURFTAB2
 70
6
  9
$SURFTYPE
 70
6
  9
$SURFU
 70
6
  9
$SURFV
 70
6
  9
$UCSBASE
  2

  9
$UCSNAME
  2

  9
$UCSORG
 10
0.0
 20
0.0
 30
0.0
  9
$UCSXDIR
 10
1.0
 20
0.0
 30
0.0
  9
$UCSYDIR
 10
0.0
 20
1.0
 30
0.0
  9
$UCSORTHOREF
  2

  9
$UCSORTHOVIEW
 70
0
  9
$UCSORGTOP
 10
0.0
 20
0.0
 30
0.0
  9
$UCSORGBOTTOM
 10
0.0
 20
0.0
 30
0.0
  9
$UCSORGLEFT
 10
0.0
 20
0.0
 30
0.0
  9
$UCSORGRIGHT
 10
0.0
 20
0.0
 30
0.0
  9
$UCSORGFRONT
 10
0.0
 20
0.0
 30
0.0
  9
$UCSORGBACK
 10
0.0
 20
0.0
 30
0.0
  9
$PUCSBASE
  2

  9
$PUCSNAME
  2

  9
$PUCSORG
 10
0.0
 20
0.0
 30
0.0
  9
$PUCSXDIR
 10
1.0
 20
0.0
 30
0.0
  9
$PUCSYDIR
 10
0.0
 20
1.0
 30
0.0
  9
$PUCSORTHOREF
  2

  9
$PUCSORTHOVIEW
 70
0
  9
$PUCSORGTOP
 10
0.0
 20
0.0
 30
0.0
  9
$PUCSORGBOTTOM
 10
0.0
 20
0.0
 30
0.0
  9
$PUCSORGLEFT
 10
0.0
 20
0.0
 30
0.0
  9
$PUCSORGRIGHT
 10
0.0
 20
0.0
 30
0.0
  9
$PUCSORGFRONT
 10
0.0
 20
0.0
 30
0.0
  9
$PUCSORGBACK
 10
0.0
 20
0.0
 30
0.0
  9
$USERI1
 70
0
  9
$USERI2
 70
0
  9
$USERI3
 70
0
  9
$USERI4
 70
0
  9
$USERI5
 70
0
  9
$USERR1
 40
0.0
  9
$USERR2
 40
0.0
  9
$USERR3
 40
0.0
  9
$USERR4
 40
0.0
  9
$USERR5
 40
0.0
  9
$WORLDVIEW
 70
1
  9
$SHADEDGE
 70
3
  9
$SHADEDIF
 70
70
  9
$TILEMODE
 70
1
  9
$MAXACTVP
 70
64
  9
$PINSBASE
 10
0.0
 20
0.0
 30
0.0
  9
$PLIMCHECK
 70
0
  9
$PEXTMIN
 10
1e+20
 20
1e+20
 30
1e+20
  9
$PEXTMAX
 10
-1e+20
 20
-1e+20
 30
-1e+20
  9
$PLIMMIN
 10
0.0
 20
0.0
  9
$PLIMMAX
 10
420.0
 20
297.0
  9
$UNITMODE
 70
0
  9
$VISRETAIN
 70
1
  9
$PLINEGEN
 70
0
  9
$PSLTSCALE
 70
1
  9
$TREEDEPTH
 70
3020
  9
$CMLSTYLE
  2
Standard
  9
$CMLJUST
 70
0
  9
$CMLSCALE
 40
20.0
  9
$PROXYGRAPHICS
 70
1
  9
$MEASUREMENT
 70
1
  9
$CELWEIGHT
370
-1
  9
$ENDCAPS
280
0
  9
$JOINSTYLE
280
0
  9
$LWDISPLAY
290
0
  9
$INSUNITS
 70
4
  9
$HYPERLINKBASE
  1

  9
$STYLESHEET
  1

  9
$XEDIT
290
1
  9
$CEPSNTYPE
380
0
  9
$PSTYLEMODE
290
1
  9
$FINGERPRINTGUID
  2
{67C84095-B3B3-4A5A-8969-BCCF6E8983B2}
  9
$VERSIONGUID
  2
{76DA8F19-D94A-4C77-B409-A027CBE440E2}
  9
$EXTNAMES
290
1
  9
$PSVPSCALE
 40
0.0
  9
$OLESTARTUP
290
0
  9
$SORTENTS
280
127
  9
$INDEXCTL
280
0
  9
$HIDETEXT
280
1
  9
$XCLIPFRAME
280
1
  9
$HALOGAP
280
0
  9
$OBSCOLOR
 70
257
  9
$OBSLTYPE
280
0
  9
$INTERSECTIONDISPLAY
280
0
  9
$INTERSECTIONCOLOR
 70
257
  9
$DIMASSOC
280
2
  9
$PROJECTNAME
  1

  9
$CAMERADISPLAY
290
0
  9
$LENSLENGTH
 40
50.0
  9
$CAMERAHEIGHT
 40
0.0
  9
$STEPSPERSEC
 40
24.0
  9
$STEPSIZE
 40
100.0
  9
$3DDWFPREC
 40
2.0
  9
$PSOLWIDTH
 40
0.005
  9
$PSOLHEIGHT
 40
0.08
  9
$LOFTANG1
 40
1.570796326795
  9
$LOFTANG2
 40
1.570796326795
  9
$LOFTMAG1
 40
0.0
  9
$LOFTMAG2
 40
0.0
  9
$LOFTPARAM
 70
7
  9
$LOFTNORMALS
280
1
  9
$LATITUDE
 40
37.795
  9
$LONGITUDE
 40
-122.394
  9
$NORTHDIRECTION
 40
0.0
  9
$TIMEZONE
 70
-8000
  9
$LIGHTGLYPHDISPLAY
280
1
  9
$TILEMODELIGHTSYNCH
280
1
  9
$CMATERIAL
347
20
  9
$SOLIDHIST
280
0
  9
$SHOWHIST
280
1
  9
$DWFFRAME
280
2
  9
$DGNFRAME
280
2
  9
$REALWORLDSCALE
290
1
  9
$INTERFERECOLOR
 62
256
  9
$CSHADOW
280
0
  9
$SHADOWPLANELOCATION
 40
0.0
  0
ENDSEC
  0
SECTION
  2
CLASSES
  0
CLASS
  1
ACDBDICTIONARYWDFLT
  2
AcDbDictionaryWithDefault
  3
ObjectDBX Classes
 90
0
 91
0
280
0
281
0
  0
CLASS
  1
SUN
  2
AcDbSun
  3
SCENEOE
 90
1153
 91
0
280
0
281
0
  0
CLASS
  1
VISUALSTYLE
  2
AcDbVisualStyle
  3
ObjectDBX Classes
 90
4095
 91
0
280
0
281
0
  0
CLASS
  1
MATERIAL
  2
AcDbMaterial
  3
ObjectDBX Classes
 90
1153
 91
0
280
0
281
0
  0
CLASS
  1
SCALE
  2
AcDbScale
  3
ObjectDBX Classes
 90
1153
 91
0
280
0
281
0
  0
CLASS
  1
TABLESTYLE
  2
AcDbTableStyle
  3
ObjectDBX Classes
 90
4095
 91
0
280
0
281
0
  0
CLASS
  1
MLEADERSTYLE
  2
AcDbMLeaderStyle
  3
ACDB_MLEADERSTYLE_CLASS
 90
4095
 91
0
280
0
281
0
  0
CLASS
  1
DICTIONARYVAR
  2
AcDbDictionaryVar
  3
ObjectDBX Classes
 90
0
 91
0
280
0
281
0
  0
CLASS
  1
CELLSTYLEMAP
  2
AcDbCellStyleMap
  3
ObjectDBX Classes
 90
1152
 91
0
280
0
281
0
  0
CLASS
  1
MENTALRAYRENDERSETTINGS
  2
AcDbMentalRayRenderSettings
  3
SCENEOE
 90
1024
 91
0
280
0
281
0
  0
CLASS
  1
ACDBDETAILVIEWSTYLE
  2
AcDbDetailViewStyle
  3
ObjectDBX Classes
 90
1025
 91
0
280
0
281
0
  0
CLASS
  1
ACDBSECTIONVIEWSTYLE
  2
AcDbSectionViewStyle
  3
ObjectDBX Classes
 90
1025
 91
0
280
0
281
0
  0
CLASS
  1
RASTERVARIABLES
  2
AcDbRasterVariables
  3
ISM
 90
0
 91
0
280
0
281
0
  0
CLASS
  1
ACDBPLACEHOLDER
  2
AcDbPlaceHolder
  3
ObjectDBX Classes
 90
0
 91
0
280
0
281
0
  0
CLASS
  1
LAYOUT
  2
AcDbLayout
  3
ObjectDBX Classes
 90
0
 91
0
280
0
281
0
  0
ENDSEC
  0
SECTION
  2
TABLES
  0
TABLE
  2
VPORT
  5
8
330
0
100
AcDbSymbolTable
 70
1
  0
VPORT
  5
23
330
8
100
AcDbSymbolTableRecord
100
AcDbViewportTableRecord
  2
*Active
 70
0
 10
0.0
 20
0.0
 11
1.0
 21
1.0
 12
0.0
 22
0.0
 13
0.0
 23
0.0
 14
0.5
 24
0.5
 15
0.5
 25
0.5
 16
0.0
 26
0.0
 36
1.0
 17
0.0
 27
0.0
 37
0.0
 40
1000.0
 41
1.34
 42
50.0
 43
0.0
 44
0.0
 50
0.0
 51
0.0
 71
0
 72
1000
 73
1
 74
3
 75
0
 76
0
 77
0
 78
0
281
0
 65
0
146
0.0
  0
ENDTAB
  0
TABLE
  2
LTYPE
  5
2
330
0
100
AcDbSymbolTable
 70
3
  0
LTYPE
  5
24
330
2
100
AcDbSymbolTableRecord
100
AcDbLinetypeTableRecord
  2
ByBlock
 70
0
  3

 72
65
 73
0
 40
0.0
  0
LTYPE
  5
25
330
2
100
AcDbSymbolTableRecord
100
AcDbLinetypeTableRecord
  2
ByLayer
 70
0
  3

 72
65
 73
0
 40
0.0
  0
LTYPE
  5
26
330
2
100
AcDbSymbolTableRecord
100
AcDbLinetypeTableRecord
  2
Continuous
 70
0
  3

 72
65
 73
0
 40
0.0
  0
ENDTAB
  0
TABLE
  2
LAYER
  5
1
330
0
100
AcDbSymbolTable
 70
7
  0
LAYER
  5
27
330
1
100
AcDbSymbolTableRecord
100
AcDbLayerTableRecord
  2
0
 70
0
 62
7
  6
Continuous
370
-3
390
13
347
21
  0
LAYER
  5
28
330
1
100
AcDbSymbolTableRecord
100
AcDbLayerTableRecord
  2
Defpoints
 70
0
 62
7
  6
Continuous
290
0
370
-3
390
13
347
21
  0
LAYER
  5
2F
330
1
100
AcDbSymbolTableRecord
100
AcDbLayerTableRecord
  2
CNC_BOUNDARY
 70
0
 62
1
  6
Continuous
370
-3
390
13
347
21
  0
LAYER
  5
30
330
1
100
AcDbSymbolTableRecord
100
AcDbLayerTableRecord
  2
CUT
 70
0
 62
7
  6
Continuous
370
-3
390
13
347
21
  0
LAYER
  5
31
330
1
100
AcDbSymbolTableRecord
100
AcDbLayerTableRecord
  2
ETCH
 70
0
 62
2
  6
Continuous
370
-3
390
13
347
21
  0
LAYER
  5
32
330
1
100
AcDbSymbolTableRecord
100
AcDbLayerTableRecord
  2
OFFCUT
 70
0
 62
4
  6
Continuous
370
-3
390
13
347
21
  0
LAYER
  5
33
330
1
100
AcDbSymbolTableRecord
100
AcDbLayerTableRecord
  2
INFO
 70
0
 62
8
  6
Continuous
370
-3
390
13
347
21
  0
ENDTAB
  0
TABLE
  2
STYLE
  5
5
330
0
100
AcDbSymbolTable
 70
1
  0
STYLE
  5
29
330
5
100
AcDbSymbolTableRecord
100
AcDbTextStyleTableRecord
  2
Standard
 70
0
 40
0.0
 41
1.0
 50
0.0
 71
0
 42
2.5
  3
txt
  4

  0
ENDTAB
  0
TABLE
  2
VIEW
  5
7
330
0
100
AcDbSymbolTable
 70
0
  0
ENDTAB
  0
TABLE
  2
UCS
  5
6
330
0
100
AcDbSymbolTable
 70
0
  0
ENDTAB
  0
TABLE
  2
APPID
  5
3
330
0
100
AcDbSymbolTable
 70
3
  0
APPID
  5
2A
330
3
100
AcDbSymbolTableRecord
100
AcDbRegAppTableRecord
  2
ACAD
 70
0
  0
APPID
  5
67
330
3
100
AcDbSymbolTableRecord
100
AcDbRegAppTableRecord
  2
HATCHBACKGROUNDCOLOR
 70
0
  0
APPID
  5
68
330
3
100
AcDbSymbolTableRecord
100
AcDbRegAppTableRecord
  2
EZDXF
 70
0
  0
ENDTAB
  0
TABLE
  2
DIMSTYLE
  5
4
330
0
100
AcDbSymbolTable
 70
1
100
AcDbDimStyleTable
  0
DIMSTYLE
105
2B
330
4
100
AcDbSymbolTableRecord
100
AcDbDimStyleTableRecord
  2
Standard
 70
0
 40
1.0
 41
2.5
 42
0.625
 43
3.75
 44
1.25
 45
0.0
 46
0.0
 47
0.0
 48
0.0
 49
2.5
140
2.5
141
2.5
142
0.0
143
0.03937007874
144
1.0
145
0.0
146
1.0
147
0.625
148
0.0
 69
0
 70
0
 71
0
 72
0
 73
0
 74
0
 75
0
 76
0
 77
1
 78
8
 79
3
170
0
171
3
172
1
173
0
174
0
175
0
176
0
177
0
178
0
179
2
271
2
272
2
273
2
274
3
275
0
276
0
277
2
278
44
279
0
280
0
281
0
282
0
283
0
284
8
285
0
286
0
288
0
289
3
290
0
371
-2
372
-2
  0
ENDTAB
  0
TABLE
  2
BLOCK_RECORD
  5
9
330
0
100
AcDbSymbolTable
 70
2
  0
BLOCK_RECORD
  5
17
330
9
100
AcDbSymbolTableRecord
100
AcDbBlockTableRecord
  2
*Model_Space
340
1A
 70
0
280
1
281
0
  0
BLOCK_RECORD
  5
1B
330
9
100
AcDbSymbolTableRecord
100
AcDbBlockTableRecord
  2
*Paper_Space
340
1E
 70
0
280
1
281
0
  0
ENDTAB
  0
ENDSEC
  0
SECTION
  2
BLOCKS
  0
BLOCK
  5
18
330
17
100
AcDbEntity
  8
0
100
AcDbBlockBegin
  2
*Model_Space
 70
0
 10
0.0
 20
0.0
 30
0.0
  3
*Model_Space
  1

  0
ENDBLK
  5
19
330
17
100
AcDbEntity
  8
0
100
AcDbBlockEnd
  0
BLOCK
  5
1C
330
1B
100
AcDbEntity
  8
0
100
AcDbBlockBegin
  2
*Paper_Space
 70
0
 10
0.0
 20
0.0
 30
0.0
  3
*Paper_Space
  1

  0
ENDBLK
  5
1D
330
1B
100
AcDbEntity
  8
0
100
AcDbBlockEnd
  0
ENDSEC
  0
SECTION
  2
ENTITIES
  0
LWPOLYLINE
  5
34
330
17
100
AcDbEntity
  8
CNC_BOUNDARY
100
AcDbPolyline
 90
4
 70
1
 10
0.0
 20
0.0
 10
1220.0
 20
0.0
 10
1220.0
 20
2440.0
 10
0.0
 20
2440.0
  0
LWPOLYLINE
  5
35
330
17
100
AcDbEntity
  8
CUT
100
AcDbPolyline
 90
131
 70
1
 10
117.0
 20
17.0
 10
417.0
 20
17.0
 10
422.146
 20
17.1301
 10
427.2244
 20
17.5163
 10
432.229
 20
18.1522
 10
437.1535
 20
19.0316
 10
441.9916
 20
20.1483
 10
446.7369
 20
21.4958
 10
451.3834
 20
23.068
 10
455.9245
 20
24.8585
 10
460.3541
 20
26.8611
 10
464.6659
 20
29.0695
 10
468.8536
 20
31.4773
 10
472.911
 20
34.0784
 10
476.8316
 20
36.8665
 10
480.6093
 20
39.8351
 10
484.2377
 20
42.9782
 10
487.7107
 20
46.2893
 10
491.0218
 20
49.7623
 10
494.1649
 20
53.3907
 10
497.1335
 20
57.1684
 10
499.9216
 20
61.089
 10
502.5227
 20
65.1464
 10
504.9305
 20
69.3341
 10
507.1389
 20
73.6459
 10
509.1415
 20
78.0755
 10
510.932
 20
82.6166
 10
512.5042
 20
87.2631
 10
513.8517
 20
92.0084
 10
514.9684
 20
96.8465
 10
515.8478
 20
101.771
 10
516.4837
 20
106.7756
 10
516.8699
 20
111.854
 10
517.0
 20
117.0
 10
516.8699
 20
122.146
 10
516.4837
 20
127.2244
 10
515.8478
 20
132.229
 10
514.9684
 20
137.1535
 10
513.8517
 20
141.9916
 10
512.5042
 20
146.7369
 10
510.932
 20
151.3834
 10
509.1415
 20
155.9245
 10
507.1389
 20
160.3541
 10
504.9305
 20
164.6659
 10
502.5227
 20
168.8536
 10
499.9216
 20
172.911
 10
497.1335
 20
176.8316
 10
494.1649
 20
180.6093
 10
491.0218
 20
184.2377
 10
487.7107
 20
187.7107
 10
484.2377
 20
191.0218
 10
480.6093
 20
194.1649
 10
476.8316
 20
197.1335
 10
472.911
 20
199.9216
 10
468.8536
 20
202.5227
 10
464.6659
 20
204.9305
 10
460.3541
 20
207.1389
 10
455.9245
 20
209.1415
 10
451.3834
 20
210.932
 10
446.7369
 20
212.5042
 10
441.9916
 20
213.8517
 10
437.1535
 20
214.9684
 10
432.229
 20
215.8478
 10
427.2244
 20
216.4837
 10
422.146
 20
216.8699
 10
417.0
 20
217.0
 10
117.0
 20
217.0
 10
111.854
 20
216.8699
 10
106.7756
 20
216.4837
 10
101.771
 20
215.8478
 10
96.8465
 20
214.9684
 10
92.0084
 20
213.8517
 10
87.2631
 20
212.5042
 10
82.6166
 20
210.932
 10
78.0755
 20
209.1415
 10
73.6459
 20
207.1389
 10
69.3341
 20
204.9305
 10
65.1464
 20
202.5227
 10
61.089
 20
199.9216
 10
57.1684
 20
197.1335
 10
53.3907
 20
194.1649
 10
49.7623
 20
191.0218
 10
46.2893
 20
187.7107
 10
42.9782
 20
184.2377
 10
39.8351
 20
180.6093
 10
36.8665
 20
176.8316
 10
34.0784
 20
172.911
 10
31.4773
 20
168.8536
 10
29.0695
 20
164.6659
 10
26.8611
 20
160.3541
 10
24.8585
 20
155.9245
 10
23.068
 20
151.3834
 10
21.4958
 20
146.7369
 10
20.1483
 20
141.9916
 10
19.0316
 20
137.1535
 10
18.1522
 20
132.229
 10
17.5163
 20
127.2244
 10
17.1301
 20
122.146
 10
17.0
 20
117.0
 10
17.1301
 20
111.854
 10
17.5163
 20
106.7756
 10
18.1522
 20
101.771
 10
19.0316
 20
96.8465
 10
20.1483
 20
92.0084
 10
21.4958
 20
87.2631
 10
23.068
 20
82.6166
 10
24.8585
 20
78.0755
 10
26.8611
 20
73.6459
 10
29.0695
 20
69.3341
 10
31.4773
 20
65.1464
 10
34.0784
 20
61.089
 10
36.8665
 20
57.1684
 10
39.8351
 20
53.3907
 10
42.9782
 20
49.7623
 10
46.2893
 20
46.2893
 10
49.7623
 20
42.9782
 10
53.3907
 20
39.8351
 10
57.1684
 20
36.8665
 10
61.089
 20
34.0784
 10
65.1464
 20
31.4773
 10
69.3341
 20
29.0695
 10
73.6459
 20
26.8611
 10
78.0755
 20
24.8585
 10
82.6166
 20
23.068
 10
87.2631
 20
21.4958
 10
92.0084
 20
20.1483
 10
96.8465
 20
19.0316
 10
101.771
 20
18.1522
 10
106.7756
 20
17.5163
 10
111.854
 20
17.1301
 10
117.0
 20
17.0
  0
TEXT
  5
36
330
17
100
AcDbEntity
  8
ETCH
100
AcDbText
 10
267.0
 20
117.0
 30
0.0
 40
24.0
  1
P001
 72
1
 11
267.0
 21
117.0
 31
0.0
100
AcDbText
 73
2
  0
LWPOLYLINE
  5
37
330
17
100
AcDbEntity
  8
CUT
100
AcDbPolyline
 90
129
 70
1
 10
931.0
 20
217.0
 10
930.7398
 20
206.708
 10
929.9674
 20
196.5512
 10
928.6956
 20
186.542
 10
926.9367
 20
176.693
 10
924.7035
 20
167.0169
 10
922.0084
 20
157.5261
 10
918.8641
 20
148.2333
 10
915.283
 20
139.151
 10
911.2778
 20
130.2917
 10
906.8611
 20
121.6681
 10
902.0453
 20
113.2927
 10
896.8431
 20
105.1781
 10
891.2671
 20
97.3368
 10
885.3297
 20
89.7814
 10
879.0436
 20
82.5245
 10
872.4214
 20
75.5786
 10
865.4755
 20
68.9564
 10
858.2186
 20
62.6703
 10
850.6632
 20
56.7329
 10
842.8219
 20
51.1569
 10
834.7073
 20
45.9547
 10
826.3319
 20
41.1389
 10
817.7083
 20
36.7222
 10
808.849
 20
32.717
 10
799.7667
 20
29.1359
 10
790.4739
 20
25.9916
 10
780.9831
 20
23.2965
 10
771.307
 20
21.0633
 10
761.458
 20
19.3044
 10
751.4488
 20
18.0326
 10
741.292
 20
17.2602
 10
731.0
 20
17.0
 10
720.708
 20
17.2602
 10
710.5512
 20
18.0326
 10
700.542
 20
19.3044
 10
690.693
 20
21.0633
 10
681.0169
 20
23.2965
 10
671.5261
 20
25.9916
 10
662.2333
 20
29.1359
 10
653.151
 20
32.717
 10
644.2917
 20
36.7222
 10
635.6681
 20
41.1389
 10
627.2927
 20
45.9547
 10
619.1781
 20
51.1569
 10
611.3368
 20
56.7329
 10
603.7814
 20
62.6703
 10
596.5245
 20
68.9564
 10
589.5786
 20
75.5786
 10
582.9564
 20
82.5245
 10
576.6703
 20
89.7814
 10
570.7329
 20
97.3368
 10
565.1569
 20
105.1781
 10
559.9547
 20
113.2927
 10
555.1389
 20
121.6681
 10
550.7222
 20
130.2917
 10
546.717
 20
139.151
 10
543.1359
 20
148.2333
 10
539.9916
 20
157.5261
 10
537.2965
 20
167.0169
 10
535.0633
 20
176.693
 10
533.3044
 20
186.542
 10
532.0326
 20
196.5512
 10
531.2602
 20
206.708
 10
531.0
 20
217.0
 10
531.2602
 20
227.292
 10
532.0326
 20
237.4488
 10
533.3044
 20
247.458
 10
535.0633
 20
257.307
 10
537.2965
 20
266.9831
 10
539.9916
 20
276.4739
 10
543.1359
 20
285.7667
 10
546.717
 20
294.849
 10
550.7222
 20
303.7083
 10
555.1389
 20
312.3319
 10
559.9547
 20
320.7073
 10
565.1569
 20
328.8219
 10
570.7329
 20
336.6632
 10
576.6703
 20
344.2186
 10
582.9564
 20
351.4755
 10
589.5786
 20
358.4214
 10
596.5245
 20
365.0436
 10
603.7814
 20
371.3297
 10
611.3368
 20
377.2671
 10
619.1781
 20
382.8431
 10
627.2927
 20
388.0453
 10
635.6681
 20
392.8611
 10
644.2917
 20
397.2778
 10
653.151
 20
401.283
 10
662.2333
 20
404.8641
 10
671.5261
 20
408.0084
 10
681.0169
 20
410.7035
 10
690.693
 20
412.9367
 10
700.542
 20
414.6956
 10
710.5512
 20
415.9674
 10
720.708
 20
416.7398
 10
731.0
 20
417.0
 10
741.292
 20
416.7398
 10
751.4488
 20
415.9674
 10
761.458
 20
414.6956
 10
771.307
 20
412.9367
 10
780.9831
 20
410.7035
 10
790.4739
 20
408.0084
 10
799.7667
 20
404.8641
 10
808.849
 20
401.283
 10
817.7083
 20
397.2778
 10
826.3319
 20
392.8611
 10
834.7073
 20
388.0453
 10
842.8219
 20
382.8431
 10
850.6632
 20
377.2671
 10
858.2186
 20
371.3297
 10
865.4755
 20
365.0436
 10
872.4214
 20
358.4214
 10
879.0436
 20
351.4755
 10
885.3297
 20
344.2186
 10
891.2671
 20
336.6632
 10
896.8431
 20
328.8219
 10
902.0453
 20
320.7073
 10
906.8611
 20
312.3319
 10
911.2778
 20
303.7083
 10
915.283
 20
294.849
 10
918.8641
 20
285.7667
 10
922.0084
 20
276.4739
 10
924.7035
 20
266.9831
 10
926.9367
 20
257.307
 10
928.6956
 20
247.458
 10
929.9674
 20
237.4488
 10
930.7398
 20
227.292
 10
931.0
 20
217.0
  0
LWPOLYLINE
  5
38
330
17
100
AcDbEntity
  8
CUT
100
AcDbPolyline
 90
129
 70
1
 10
851.0
 20
217.0
 10
850.8439
 20
210.8248
 10
850.3805
 20
204.7307
 10
849.6173
 20
198.7252
 10
848.562
 20
192.8158
 10
847.2221
 20
187.0101
 10
845.605
 20
181.3157
 10
843.7184
 20
175.74
 10
841.5698
 20
170.2906
 10
839.1667
 20
164.975
 10
836.5166
 20
159.8009
 10
833.6272
 20
154.7756
 10
830.5059
 20
149.9069
 10
827.1603
 20
145.2021
 10
823.5978
 20
140.6689
 10
819.8262
 20
136.3147
 10
815.8528
 20
132.1472
 10
811.6853
 20
128.1738
 10
807.3311
 20
124.4022
 10
802.7979
 20
120.8397
 10
798.0931
 20
117.4941
 10
793.2244
 20
114.3728
 10
788.1991
 20
111.4834
 10
783.025
 20
108.8333
 10
777.7094
 20
106.4302
 10
772.26
 20
104.2816
 10
766.6843
 20
102.395
 10
760.9899
 20
100.7779
 10
755.1842
 20
99.438
 10
749.2748
 20
98.3827
 10
743.2693
 20
97.6195
 10
737.1752
 20
97.1561
 10
731.0
 20
97.0
 10
724.8248
 20
97.1561
 10
718.7307
 20
97.6195
 10
712.7252
 20
98.3827
 10
706.8158
 20
99.438
 10
701.0101
 20
100.7779
 10
695.3157
 20
102.395
 10
689.74
 20
104.2816
 10
684.2906
 20
106.4302
 10
678.975
 20
108.8333
 10
673.8009
 20
111.4834
 10
668.7756
 20
114.3728
 10
663.9069
 20
117.4941
 10
659.2021
 20
120.8397
 10
654.6689
 20
124.4022
 10
650.3147
 20
128.1738
 10
646.1472
 20
132.1472
 10
642.1738
 20
136.3147
 10
638.4022
 20
140.6689
 10
634.8397
 20
145.2021
 10
631.4941
 20
149.9069
 10
628.3728
 20
154.7756
 10
625.4834
 20
159.8009
 10
622.8333
 20
164.975
 10
620.4302
 20
170.2906
 10
618.2816
 20
175.74
 10
616.395
 20
181.3157
 10
614.7779
 20
187.0101
 10
613.438
 20
192.8158
 10
612.3827
 20
198.7252
 10
611.6195
 20
204.7307
 10
611.1561
 20
210.8248
 10
611.0
 20
217.0
 10
611.1561
 20
223.1752
 10
611.6195
 20
229.2693
 10
612.3827
 20
235.2748
 10
613.438
 20
241.1842
 10
614.7779
 20
246.9899
 10
616.395
 20
252.6843
 10
618.2816
 20
258.26
 10
620.4302
 20
263.7094
 10
622.8333
 20
269.025
 10
625.4834
 20
274.1991
 10
628.3728
 20
279.2244
 10
631.4941
 20
284.0931
 10
634.8397
 20
288.7979
 10
638.4022
 20
293.3311
 10
642.1738
 20
297.6853
 10
646.1472
 20
301.8528
 10
650.3147
 20
305.8262
 10
654.6689
 20
309.5978
 10
659.2021
 20
313.1603
 10
663.9069
 20
316.5059
 10
668.7756
 20
319.6272
 10
673.8009
 20
322.5166
 10
678.975
 20
325.1667
 10
684.2906
 20
327.5698
 10
689.74
 20
329.7184
 10
695.3157
 20
331.605
 10
701.0101
 20
333.2221
 10
706.8158
 20
334.562
 10
712.7252
 20
335.6173
 10
718.7307
 20
336.3805
 10
724.8248
 20
336.8439
 10
731.0
 20
337.0
 10
737.1752
 20
336.8439
 10
743.2693
 20
336.3805
 10
749.2748
 20
335.6173
 10
755.1842
 20
334.562
 10
760.9899
 20
333.2221
 10
766.6843
 20
331.605
 10
772.26
 20
329.7184
 10
777.7094
 20
327.5698
 10
783.025
 20
325.1667
 10
788.1991
 20
322.5166
 10
793.2244
 20
319.6272
 10
798.0931
 20
316.5059
 10
802.7979
 20
313.1603
 10
807.3311
 20
309.5978
 10
811.6853
 20
305.8262
 10
815.8528
 20
301.8528
 10
819.8262
 20
297.6853
 10
823.5978
 20
293.3311
 10
827.1603
 20
288.7979
 10
830.5059
 20
284.0931
 10
833.6272
 20
279.2244
 10
836.5166
 20
274.1991
 10
839.1667
 20
269.025
 10
841.5698
 20
263.7094
 10
843.7184
 20
258.26
 10
845.605
 20
252.6843
 10
847.2221
 20
246.9899
 10
848.562
 20
241.1842
 10
849.6173
 20
235.2748
 10
850.3805
 20
229.2693
 10
850.8439
 20
223.1752
 10
851.0
 20
217.0
  0
TEXT
  5
39
330
17
100
AcDbEntity
  8
ETCH
100
AcDbText
 10
731.0
 20
217.0
 30
0.0
 40
24.0
  1
P007
 72
1
 11
731.0
 21
217.0
 31
0.0
100
AcDbText
 73
2
  0
LWPOLYLINE
  5
3A
330
17
100
AcDbEntity
  8
CUT
100
AcDbPolyline
 90
129
 70
1
 10
417.0
 20
431.0
 10
416.7398
 20
420.708
 10
415.9674
 20
410.5512
 10
414.6956
 20
400.542
 10
412.9367
 20
390.693
 10
410.7035
 20
381.0169
 10
408.0084
 20
371.5261
 10
404.8641
 20
362.2333
 10
401.283
 20
353.151
 10
397.2778
 20
344.2917
 10
392.8611
 20
335.6681
 10
388.0453
 20
327.2927
 10
382.8431
 20
319.1781
 10
377.2671
 20
311.3368
 10
371.3297
 20
303.7814
 10
365.0436
 20
296.5245
 10
358.4214
 20
289.5786
 10
351.4755
 20
282.9564
 10
344.2186
 20
276.6703
 10
336.6632
 20
270.7329
 10
328.8219
 20
265.1569
 10
320.7073
 20
259.9547
 10
312.3319
 20
255.1389
 10
303.7083
 20
250.7222
 10
294.849
 20
246.717
 10
285.7667
 20
243.1359
 10
276.4739
 20
239.9916
 10
266.9831
 20
237.2965
 10
257.307
 20
235.0633
 10
247.458
 20
233.3044
 10
237.4488
 20
232.0326
 10
227.292
 20
231.2602
 10
217.0
 20
231.0
 10
206.708
 20
231.2602
 10
196.5512
 20
232.0326
 10
186.542
 20
233.3044
 10
176.693
 20
235.0633
 10
167.0169
 20
237.2965
 10
157.5261
 20
239.9916
 10
148.2333
 20
243.1359
 10
139.151
 20
246.717
 10
130.2917
 20
250.7222
 10
121.6681
 20
255.1389
 10
113.2927
 20
259.9547
 10
105.1781
 20
265.1569
 10
97.3368
 20
270.7329
 10
89.7814
 20
276.6703
 10
82.5245
 20
282.9564
 10
75.5786
 20
289.5786
 10
68.9564
 20
296.5245
 10
62.6703
 20
303.7814
 10
56.7329
 20
311.3368
 10
51.1569
 20
319.1781
 10
45.9547
 20
327.2927
 10
41.1389
 20
335.6681
 10
36.7222
 20
344.2917
 10
32.717
 20
353.151
 10
29.1359
 20
362.2333
 10
25.9916
 20
371.5261
 10
23.2965
 20
381.0169
 10
21.0633
 20
390.693
 10
19.3044
 20
400.542
 10
18.0326
 20
410.5512
 10
17.2602
 20
420.708
 10
17.0
 20
431.0
 10
17.2602
 20
441.292
 10
18.0326
 20
451.4488
 10
19.3044
 20
461.458
 10
21.0633
 20
471.307
 10
23.2965
 20
480.9831
 10
25.9916
 20
490.4739
 10
29.1359
 20
499.7667
 10
32.717
 20
508.849
 10
36.7222
 20
517.7083
 10
41.1389
 20
526.3319
 10
45.9547
 20
534.7073
 10
51.1569
 20
542.8219
 10
56.7329
 20
550.6632
 10
62.6703
 20
558.2186
 10
68.9564
 20
565.4755
 10
75.5786
 20
572.4214
 10
82.5245
 20
579.0436
 10
89.7814
 20
585.3297
 10
97.3368
 20
591.2671
 10
105.1781
 20
596.8431
 10
113.2927
 20
602.0453
 10
121.6681
 20
606.8611
 10
130.2917
 20
611.2778
 10
139.151
 20
615.283
 10
148.2333
 20
618.8641
 10
157.5261
 20
622.0084
 10
167.0169
 20
624.7035
 10
176.693
 20
626.9367
 10
186.542
 20
628.6956
 10
196.5512
 20
629.9674
 10
206.708
 20
630.7398
 10
217.0
 20
631.0
 10
227.292
 20
630.7398
 10
237.4488
 20
629.9674
 10
247.458
 20
628.6956
 10
257.307
 20
626.9367
 10
266.9831
 20
624.7035
 10
276.4739
 20
622.0084
 10
285.7667
 20
618.8641
 10
294.849
 20
615.283
 10
303.7083
 20
611.2778
 10
312.3319
 20
606.8611
 10
320.7073
 20
602.0453
 10
328.8219
 20
596.8431
 10
336.6632
 20
591.2671
 10
344.2186
 20
585.3297
 10
351.4755
 20
579.0436
 10
358.4214
 20
572.4214
 10
365.0436
 20
565.4755
 10
371.3297
 20
558.2186
 10
377.2671
 20
550.6632
 10
382.8431
 20
542.8219
 10
388.0453
 20
534.7073
 10
392.8611
 20
526.3319
 10
397.2778
 20
517.7083
 10
401.283
 20
508.849
 10
404.8641
 20
499.7667
 10
408.0084
 20
490.4739
 10
410.7035
 20
480.9831
 10
412.9367
 20
471.307
 10
414.6956
 20
461.458
 10
415.9674
 20
451.4488
 10
416.7398
 20
441.292
 10
417.0
 20
431.0
  0
LWPOLYLINE
  5
3B
330
17
100
AcDbEntity
  8
CUT
100
AcDbPolyline
 90
129
 70
1
 10
337.0
 20
431.0
 10
336.8439
 20
424.8248
 10
336.3805
 20
418.7307
 10
335.6173
 20
412.7252
 10
334.562
 20
406.8158
 10
333.2221
 20
401.0101
 10
331.605
 20
395.3157
 10
329.7184
 20
389.74
 10
327.5698
 20
384.2906
 10
325.1667
 20
378.975
 10
322.5166
 20
373.8009
 10
319.6272
 20
368.7756
 10
316.5059
 20
363.9069
 10
313.1603
 20
359.2021
 10
309.5978
 20
354.6689
 10
305.8262
 20
350.3147
 10
301.8528
 20
346.1472
 10
297.6853
 20
342.1738
 10
293.3311
 20
338.4022
 10
288.7979
 20
334.8397
 10
284.0931
 20
331.4941
 10
279.2244
 20
328.3728
 10
274.1991
 20
325.4834
 10
269.025
 20
322.8333
 10
263.7094
 20
320.4302
 10
258.26
 20
318.2816
 10
252.6843
 20
316.395
 10
246.9899
 20
314.7779
 10
241.1842
 20
313.438
 10
235.2748
 20
312.3827
 10
229.2693
 20
311.6195
 10
223.1752
 20
311.1561
 10
217.0
 20
311.0
 10
210.8248
 20
311.1561
 10
204.7307
 20
311.6195
 10
198.7252
 20
312.3827
 10
192.8158
 20
313.438
 10
187.0101
 20
314.7779
 10
181.3157
 20
316.395
 10
175.74
 20
318.2816
 10
170.2906
 20
320.4302
 10
164.975
 20
322.8333
 10
159.8009
 20
325.4834
 10
154.7756
 20
328.3728
 10
149.9069
 20
331.4941
 10
145.2021
 20
334.8397
 10
140.6689
 20
338.4022
 10
136.3147
 20
342.1738
 10
132.1472
 20
346.1472
 10
128.1738
 20
350.3147
 10
124.4022
 20
354.6689
 10
120.8397
 20
359.2021
 10
117.4941
 20
363.9069
 10
114.3728
 20
368.7756
 10
111.4834
 20
373.8009
 10
108.8333
 20
378.975
 10
106.4302
 20
384.2906
 10
104.2816
 20
389.74
 10
102.395
 20
395.3157
 10
100.7779
 20
401.0101
 10
99.438
 20
406.8158
 10
98.3827
 20
412.7252
 10
97.6195
 20
418.7307
 10
97.1561
 20
424.8248
 10
97.0
 20
431.0
 10
97.1561
 20
437.1752
 10
97.6195
 20
443.2693
 10
98.3827
 20
449.2748
 10
99.438
 20
455.1842
 10
100.7779
 20
460.9899
 10
102.395
 20
466.6843
 10
104.2816
 20
472.26
 10
106.4302
 20
477.7094
 10
108.8333
 20
483.025
 10
111.4834
 20
488.1991
 10
114.3728
 20
493.2244
 10
117.4941
 20
498.0931
 10
120.8397
 20
502.7979
 10
124.4022
 20
507.3311
 10
128.1738
 20
511.6853
 10
132.1472
 20
515.8528
 10
136.3147
 20
519.8262
 10
140.6689
 20
523.5978
 10
145.2021
 20
527.1603
 10
149.9069
 20
530.5059
 10
154.7756
 20
533.6272
 10
159.8009
 20
536.5166
 10
164.975
 20
539.1667
 10
170.2906
 20
541.5698
 10
175.74
 20
543.7184
 10
181.3157
 20
545.605
 10
187.0101
 20
547.2221
 10
192.8158
 20
548.562
 10
198.7252
 20
549.6173
 10
204.7307
 20
550.3805
 10
210.8248
 20
550.8439
 10
217.0
 20
551.0
 10
223.1752
 20
550.8439
 10
229.2693
 20
550.3805
 10
235.2748
 20
549.6173
 10
241.1842
 20
548.562
 10
246.9899
 20
547.2221
 10
252.6843
 20
545.605
 10
258.26
 20
543.7184
 10
263.7094
 20
541.5698
 10
269.025
 20
539.1667
 10
274.1991
 20
536.5166
 10
279.2244
 20
533.6272
 10
284.0931
 20
530.5059
 10
288.7979
 20
527.1603
 10
293.3311
 20
523.5978
 10
297.6853
 20
519.8262
 10
301.8528
 20
515.8528
 10
305.8262
 20
511.6853
 10
309.5978
 20
507.3311
 10
313.1603
 20
502.7979
 10
316.5059
 20
498.0931
 10
319.6272
 20
493.2244
 10
322.5166
 20
488.1991
 10
325.1667
 20
483.025
 10
327.5698
 20
477.7094
 10
329.7184
 20
472.26
 10
331.605
 20
466.6843
 10
333.2221
 20
460.9899
 10
334.562
 20
455.1842
 10
335.6173
 20
449.2748
 10
336.3805
 20
443.2693
 10
336.8439
 20
437.1752
 10
337.0
 20
431.0
  0
TEXT
  5
3C
330
17
100
AcDbEntity
  8
ETCH
100
AcDbText
 10
217.0
 20
436.14598673633475
 30
0.0
 40
24.0
  1
P007
 72
1
 11
217.0
 21
436.14598673633475
 31
0.0
100
AcDbText
 73
2
  0
LWPOLYLINE
  5
3D
330
17
100
AcDbEntity
  8
CUT
100
AcDbPolyline
 90
129
 70
1
 10
731.0
 20
581.0
 10
730.8048
 20
573.281
 10
730.2256
 20
565.6634
 10
729.2717
 20
558.1565
 10
727.9525
 20
550.7698
 10
726.2776
 20
543.5127
 10
724.2563
 20
536.3946
 10
721.898
 20
529.425
 10
719.2123
 20
522.6132
 10
716.2084
 20
515.9688
 10
712.8958
 20
509.5011
 10
709.284
 20
503.2195
 10
705.3824
 20
497.1336
 10
701.2003
 20
491.2526
 10
696.7473
 20
485.5861
 10
692.0327
 20
480.1434
 10
687.066
 20
474.934
 10
681.8566
 20
469.9673
 10
676.4139
 20
465.2527
 10
670.7474
 20
460.7997
 10
664.8664
 20
456.6176
 10
658.7805
 20
452.716
 10
652.4989
 20
449.1042
 10
646.0312
 20
445.7916
 10
639.3868
 20
442.7877
 10
632.575
 20
440.102
 10
625.6054
 20
437.7437
 10
618.4873
 20
435.7224
 10
611.2302
 20
434.0475
 10
603.8435
 20
432.7283
 10
596.3366
 20
431.7744
 10
588.719
 20
431.1952
 10
581.0
 20
431.0
 10
573.281
 20
431.1952
 10
565.6634
 20
431.7744
 10
558.1565
 20
432.7283
 10
550.7698
 20
434.0475
 10
543.5127
 20
435.7224
 10
536.3946
 20
437.7437
 10
529.425
 20
440.102
 10
522.6132
 20
442.7877
 10
515.9688
 20
445.7916
 10
509.5011
 20
449.1042
 10
503.2195
 20
452.716
 10
497.1336
 20
456.6176
 10
491.2526
 20
460.7997
 10
485.5861
 20
465.2527
 10
480.1434
 20
469.9673
 10
474.934
 20
474.934
 10
469.9673
 20
480.1434
 10
465.2527
 20
485.5861
 10
460.7997
 20
491.2526
 10
456.6176
 20
497.1336
 10
452.716
 20
503.2195
 10
449.1042
 20
509.5011
 10
445.7916
 20
515.9688
 10
442.7877
 20
522.6132
 10
440.102
 20
529.425
 10
437.7437
 20
536.3946
 10
435.7224
 20
543.5127
 10
434.0475
 20
550.7698
 10
432.7283
 20
558.1565
 10
431.7744
 20
565.6634
 10
431.1952
 20
573.281
 10
431.0
 20
581.0
 10
431.1952
 20
588.719
 10
431.7744
 20
596.3366
 10
432.7283
 20
603.8435
 10
434.0475
 20
611.2302
 10
435.7224
 20
618.4873
 10
437.7437
 20
625.6054
 10
440.102
 20
632.575
 10
442.7877
 20
639.3868
 10
445.7916
 20
646.0312
 10
449.1042
 20
652.4989
 10
452.716
 20
658.7805
 10
456.6176
 20
664.8664
 10
460.7997
 20
670.7474
 10
465.2527
 20
676.4139
 10
469.9673
 20
681.8566
 10
474.934
 20
687.066
 10
480.1434
 20
692.0327
 10
485.5861
 20
696.7473
 10
491.2526
 20
701.2003
 10
497.1336
 20
705.3824
 10
503.2195
 20
709.284
 10
509.5011
 20
712.8958
 10
515.9688
 20
716.2084
 10
522.6132
 20
719.2123
 10
529.425
 20
721.898
 10
536.3946
 20
724.2563
 10
543.5127
 20
726.2776
 10
550.7698
 20
727.9525
 10
558.1565
 20
729.2717
 10
565.6634
 20
730.2256
 10
573.281
 20
730.8048
 10
581.0
 20
731.0
 10
588.719
 20
730.8048
 10
596.3366
 20
730.2256
 10
603.8435
 20
729.2717
 10
611.2302
 20
727.9525
 10
618.4873
 20
726.2776
 10
625.6054
 20
724.2563
 10
632.575
 20
721.898
 10
639.3868
 20
719.2123
 10
646.0312
 20
716.2084
 10
652.4989
 20
712.8958
 10
658.7805
 20
709.284
 10
664.8664
 20
705.3824
 10
670.7474
 20
701.2003
 10
676.4139
 20
696.7473
 10
681.8566
 20
692.0327
 10
687.066
 20
687.066
 10
692.0327
 20
681.8566
 10
696.7473
 20
676.4139
 10
701.2003
 20
670.7474
 10
705.3824
 20
664.8664
 10
709.284
 20
658.7805
 10
712.8958
 20
652.4989
 10
716.2084
 20
646.0312
 10
719.2123
 20
639.3868
 10
721.898
 20
632.575
 10
724.2563
 20
625.6054
 10
726.2776
 20
618.4873
 10
727.9525
 20
611.2302
 10
729.2717
 20
603.8435
 10
730.2256
 20
596.3366
 10
730.8048
 20
588.719
 10
731.0
 20
581.0
  0
LWPOLYLINE
  5
3E
330
17
100
AcDbEntity
  8
CUT
100
AcDbPolyline
 90
41
 70
1
 10
501.0
 20
581.0
 10
500.8967
 20
578.9551
 10
500.5937
 20
576.9693
 10
499.4283
 20
573.2151
 10
497.5843
 20
569.8178
 10
495.1421
 20
566.8579
 10
492.1822
 20
564.4157
 10
488.7849
 20
562.5717
 10
485.0307
 20
561.4063
 10
483.0449
 20
561.1033
 10
481.0
 20
561.0
 10
478.9551
 20
561.1033
 10
476.9693
 20
561.4063
 10
473.2151
 20
562.5717
 10
469.8178
 20
564.4157
 10
466.8579
 20
566.8579
 10
464.4157
 20
569.8178
 10
462.5717
 20
573.2151
 10
461.4063
 20
576.9693
 10
461.1033
 20
578.9551
 10
461.0
 20
581.0
 10
461.1033
 20
583.0449
 10
461.4063
 20
585.0307
 10
462.5717
 20
588.7849
 10
464.4157
 20
592.1822
 10
466.8579
 20
595.1421
 10
469.8178
 20
597.5843
 10
473.2151
 20
599.4283
 10
476.9693
 20
600.5937
 10
478.9551
 20
600.8967
 10
481.0
 20
601.0
 10
483.0449
 20
600.8967
 10
485.0307
 20
600.5937
 10
488.7849
 20
599.4283
 10
492.1822
 20
597.5843
 10
495.1421
 20
595.1421
 10
497.5843
 20
592.1822
 10
499.4283
 20
588.7849
 10
500.5937
 20
585.0307
 10
500.8967
 20
583.0449
 10
501.0
 20
581.0
  0
LWPOLYLINE
  5
3F
330
17
100
AcDbEntity
  8
CUT
100
AcDbPolyline
 90
41
 70
1
 10
651.0
 20
494.3975
 10
650.8967
 20
492.3526
 10
650.5937
 20
490.3668
 10
649.4283
 20
486.6126
 10
647.5843
 20
483.2153
 10
645.1421
 20
480.2553
 10
642.1822
 20
477.8131
 10
638.7849
 20
475.9692
 10
635.0307
 20
474.8038
 10
633.0449
 20
474.5007
 10
631.0
 20
474.3975
 10
628.9551
 20
474.5007
 10
626.9693
 20
474.8038
 10
623.2151
 20
475.9692
 10
619.8178
 20
477.8131
 10
616.8579
 20
480.2553
 10
614.4157
 20
483.2153
 10
612.5717
 20
486.6126
 10
611.4063
 20
490.3668
 10
611.1033
 20
492.3526
 10
611.0
 20
494.3975
 10
611.1033
 20
496.4423
 10
611.4063
 20
498.4282
 10
612.5717
 20
502.1824
 10
614.4157
 20
505.5796
 10
616.8579
 20
508.5396
 10
619.8178
 20
510.9818
 10
623.2151
 20
512.8258
 10
626.9693
 20
513.9911
 10
628.9551
 20
514.2942
 10
631.0
 20
514.3975
 10
633.0449
 20
514.2942
 10
635.0307
 20
513.9911
 10
638.7849
 20
512.8258
 10
642.1822
 20
510.9818
 10
645.1421
 20
508.5396
 10
647.5843
 20
505.5796
 10
649.4283
 20
502.1824
 10
650.5937
 20
498.4282
 10
650.8967
 20
496.4423
 10
651.0
 20
494.3975
  0
LWPOLYLINE
  5
40
330
17
100
AcDbEntity
  8
CUT
100
AcDbPolyline
 90
41
 70
1
 10
651.0
 20
667.6025
 10
650.8967
 20
665.5577
 10
650.5937
 20
663.5718
 10
649.4283
 20
659.8176
 10
647.5843
 20
656.4204
 10
645.1421
 20
653.4604
 10
642.1822
 20
651.0182
 10
638.7849
 20
649.1742
 10
635.0307
 20
648.0089
 10
633.0449
 20
647.7058
 10
631.0
 20
647.6025
 10
628.9551
 20
647.7058
 10
626.9693
 20
648.0089
 10
623.2151
 20
649.1742
 10
619.8178
 20
651.0182
 10
616.8579
 20
653.4604
 10
614.4157
 20
656.4204
 10
612.5717
 20
659.8176
 10
611.4063
 20
663.5718
 10
611.1033
 20
665.5577
 10
611.0
 20
667.6025
 10
611.1033
 20
669.6474
 10
611.4063
 20
671.6332
 10
612.5717
 20
675.3874
 10
614.4157
 20
678.7847
 10
616.8579
 20
681.7447
 10
619.8178
 20
684.1869
 10
623.2151
 20
686.0308
 10
626.9693
 20
687.1962
 10
628.9551
 20
687.4993
 10
631.0
 20
687.6025
 10
633.0449
 20
687.4993
 10
635.0307
 20
687.1962
 10
638.7849
 20
686.0308
 10
642.1822
 20
684.1869
 10
645.1421
 20
681.7447
 10
647.5843
 20
678.7847
 10
649.4283
 20
675.3874
 10
650.5937
 20
671.6332
 10
650.8967
 20
669.6474
 10
651.0
 20
667.6025
  0
LWPOLYLINE
  5
41
330
17
100
AcDbEntity
  8
CUT
100
AcDbPolyline
 90
41
 70
1
 10
551.0
 20
667.6025
 10
550.8967
 20
665.5577
 10
550.5937
 20
663.5718
 10
549.4283
 20
659.8176
 10
547.5843
 20
656.4204
 10
545.1421
 20
653.4604
 10
542.1822
 20
651.0182
 10
538.7849
 20
649.1742
 10
535.0307
 20
648.0089
 10
533.0449
 20
647.7058
 10
531.0
 20
647.6025
 10
528.9551
 20
647.7058
 10
526.9693
 20
648.0089
 10
523.2151
 20
649.1742
 10
519.8178
 20
651.0182
 10
516.8579
 20
653.4604
 10
514.4157
 20
656.4204
 10
512.5717
 20
659.8176
 10
511.4063
 20
663.5718
 10
511.1033
 20
665.5577
 10
511.0
 20
667.6025
 10
511.1033
 20
669.6474
 10
511.4063
 20
671.6332
 10
512.5717
 20
675.3874
 10
514.4157
 20
678.7847
 10
516.8579
 20
681.7447
 10
519.8178
 20
684.1869
 10
523.2151
 20
686.0308
 10
526.9693
 20
687.1962
 10
528.9551
 20
687.4993
 10
531.0
 20
687.6025
 10
533.0449
 20
687.4993
 10
535.0307
 20
687.1962
 10
538.7849
 20
686.0308
 10
542.1822
 20
684.1869
 10
545.1421
 20
681.7447
 10
547.5843
 20
678.7847
 10
549.4283
 20
675.3874
 10
550.5937
 20
671.6332
 10
550.8967
 20
669.6474
 10
551.0
 20
667.6025
  0
LWPOLYLINE
  5
42
330
17
100
AcDbEntity
  8
CUT
100
AcDbPolyline
 90
41
 70
1
 10
551.0
 20
494.3975
 10
550.8967
 20
492.3526
 10
550.5937
 20
490.3668
 10
549.4283
 20
486.6126
 10
547.5843
 20
483.2153
 10
545.1421
 20
480.2553
 10
542.1822
 20
477.8131
 10
538.7849
 20
475.9692
 10
535.0307
 20
474.8038
 10
533.0449
 20
474.5007
 10
531.0
 20
474.3975
 10
528.9551
 20
474.5007
 10
526.9693
 20
474.8038
 10
523.2151
 20
475.9692
 10
519.8178
 20
477.8131
 10
516.8579
 20
480.2553
 10
514.4157
 20
483.2153
 10
512.5717
 20
486.6126
 10
511.4063
 20
490.3668
 10
511.1033
 20
492.3526
 10
511.0
 20
494.3975
 10
511.1033
 20
496.4423
 10
511.4063
 20
498.4282
 10
512.5717
 20
502.1824
 10
514.4157
 20
505.5796
 10
516.8579
 20
508.5396
 10
519.8178
 20
510.9818
 10
523.2151
 20
512.8258
 10
526.9693
 20
513.9911
 10
528.9551
 20
514.2942
 10
531.0
 20
514.3975
 10
533.0449
 20
514.2942
 10
535.0307
 20
513.9911
 10
538.7849
 20
512.8258
 10
542.1822
 20
510.9818
 10
545.1421
 20
508.5396
 10
547.5843
 20
505.5796
 10
549.4283
 20
502.1824
 10
550.5937
 20
498.4282
 10
550.8967
 20
496.4423
 10
551.0
 20
494.3975
  0
LWPOLYLINE
  5
43
330
17
100
AcDbEntity
  8
CUT
100
AcDbPolyline
 90
41
 70
1
 10
701.0
 20
581.0
 10
700.8967
 20
578.9551
 10
700.5937
 20
576.9693
 10
699.4283
 20
573.2151
 10
697.5843
 20
569.8178
 10
695.1421
 20
566.8579
 10
692.1822
 20
564.4157
 10
688.7849
 20
562.5717
 10
685.0307
 20
561.4063
 10
683.0449
 20
561.1033
 10
681.0
 20
561.0
 10
678.9551
 20
561.1033
 10
676.9693
 20
561.4063
 10
673.2151
 20
562.5717
 10
669.8178
 20
564.4157
 10
666.8579
 20
566.8579
 10
664.4157
 20
569.8178
 10
662.5717
 20
573.2151
 10
661.4063
 20
576.9693
 10
661.1033
 20
578.9551
 10
661.0
 20
581.0
 10
661.1033
 20
583.0449
 10
661.4063
 20
585.0307
 10
662.5717
 20
588.7849
 10
664.4157
 20
592.1822
 10
666.8579
 20
595.1421
 10
669.8178
 20
597.5843
 10
673.2151
 20
599.4283
 10
676.9693
 20
600.5937
 10
678.9551
 20
600.8967
 10
681.0
 20
601.0
 10
683.0449
 20
600.8967
 10
685.0307
 20
600.5937
 10
688.7849
 20
599.4283
 10
692.1822
 20
597.5843
 10
695.1421
 20
595.1421
 10
697.5843
 20
592.1822
 10
699.4283
 20
588.7849
 10
700.5937
 20
585.0307
 10
700.8967
 20
583.0449
 10
701.0
 20
581.0
  0
TEXT
  5
44
330
17
100
AcDbEntity
  8
ETCH
100
AcDbText
 10
581.0000000000001
 20
584.8594900522511
 30
0.0
 40
24.0
  1
P005
 72
1
 11
581.0000000000001
 21
584.8594900522511
 31
0.0
100
AcDbText
 73
2
  0
LWPOLYLINE
  5
45
330
17
100
AcDbEntity
  8
CUT
100
AcDbPolyline
 90
129
 70
1
 10
1025.0
 20
317.0
 10
1029.1168
 20
316.8048
 10
1033.1795
 20
316.2256
 10
1037.1832
 20
315.2717
 10
1041.1228
 20
313.9525
 10
1044.9932
 20
312.2776
 10
1048.7896
 20
310.2563
 10
1052.5067
 20
307.898
 10
1056.1396
 20
305.2123
 10
1059.6833
 20
302.2084
 10
1063.1328
 20
298.8958
 10
1066.4829
 20
295.284
 10
1069.7288
 20
291.3824
 10
1072.8653
 20
287.2003
 10
1075.8874
 20
282.7473
 10
1078.7902
 20
278.0327
 10
1081.5685
 20
273.066
 10
1084.2174
 20
267.8566
 10
1086.7319
 20
262.4139
 10
1089.1068
 20
256.7474
 10
1091.3373
 20
250.8664
 10
1093.4181
 20
244.7805
 10
1095.3444
 20
238.4989
 10
1097.1111
 20
232.0312
 10
1098.7132
 20
225.3868
 10
1100.1456
 20
218.575
 10
1101.4034
 20
211.6054
 10
1102.4814
 20
204.4873
 10
1103.3747
 20
197.2302
 10
1104.0782
 20
189.8435
 10
1104.587
 20
182.3366
 10
1104.8959
 20
174.719
 10
1105.0
 20
167.0
 10
1104.8959
 20
159.281
 10
1104.587
 20
151.6634
 10
1104.0782
 20
144.1565
 10
1103.3747
 20
136.7698
 10
1102.4814
 20
129.5127
 10
1101.4034
 20
122.3946
 10
1100.1456
 20
115.425
 10
1098.7132
 20
108.6132
 10
1097.1111
 20
101.9688
 10
1095.3444
 20
95.5011
 10
1093.4181
 20
89.2195
 10
1091.3373
 20
83.1336
 10
1089.1068
 20
77.2526
 10
1086.7319
 20
71.5861
 10
1084.2174
 20
66.1434
 10
1081.5685
 20
60.934
 10
1078.7902
 20
55.9673
 10
1075.8874
 20
51.2527
 10
1072.8653
 20
46.7997
 10
1069.7288
 20
42.6176
 10
1066.4829
 20
38.716
 10
1063.1328
 20
35.1042
 10
1059.6833
 20
31.7916
 10
1056.1396
 20
28.7877
 10
1052.5067
 20
26.102
 10
1048.7896
 20
23.7437
 10
1044.9932
 20
21.7224
 10
1041.1228
 20
20.0475
 10
1037.1832
 20
18.7283
 10
1033.1795
 20
17.7744
 10
1029.1168
 20
17.1952
 10
1025.0
 20
17.0
 10
1020.8832
 20
17.1952
 10
1016.8205
 20
17.7744
 10
1012.8168
 20
18.7283
 10
1008.8772
 20
20.0475
 10
1005.0068
 20
21.7224
 10
1001.2104
 20
23.7437
 10
997.4933
 20
26.102
 10
993.8604
 20
28.7877
 10
990.3167
 20
31.7916
 10
986.8672
 20
35.1042
 10
983.5171
 20
38.716
 10
980.2712
 20
42.6176
 10
977.1347
 20
46.7997
 10
974.1126
 20
51.2527
 10
971.2098
 20
55.9673
 10
968.4315
 20
60.934
 10
965.7826
 20
66.1434
 10
963.2681
 20
71.5861
 10
960.8932
 20
77.2526
 10
958.6627
 20
83.1336
 10
956.5819
 20
89.2195
 10
954.6556
 20
95.5011
 10
952.8889
 20
101.9688
 10
951.2868
 20
108.6132
 10
949.8544
 20
115.425
 10
948.5966
 20
122.3946
 10
947.5186
 20
129.5127
 10
946.6253
 20
136.7698
 10
945.9218
 20
144.1565
 10
945.413
 20
151.6634
 10
945.1041
 20
159.281
 10
945.0
 20
167.0
 10
945.1041
 20
174.719
 10
945.413
 20
182.3366
 10
945.9218
 20
189.8435
 10
946.6253
 20
197.2302
 10
947.5186
 20
204.4873
 10
948.5966
 20
211.6054
 10
949.8544
 20
218.575
 10
951.2868
 20
225.3868
 10
952.8889
 20
232.0312
 10
954.6556
 20
238.4989
 10
956.5819
 20
244.7805
 10
958.6627
 20
250.8664
 10
960.8932
 20
256.7474
 10
963.2681
 20
262.4139
 10
965.7826
 20
267.8566
 10
968.4315
 20
273.066
 10
971.2098
 20
278.0327
 10
974.1126
 20
282.7473
 10
977.1347
 20
287.2003
 10
980.2712
 20
291.3824
 10
983.5171
 20
295.284
 10
986.8672
 20
298.8958
 10
990.3167
 20
302.2084
 10
993.8604
 20
305.2123
 10
997.4933
 20
307.898
 10
1001.2104
 20
310.2563
 10
1005.0068
 20
312.2776
 10
1008.8772
 20
313.9525
 10
1012.8168
 20
315.2717
 10
1016.8205
 20
316.2256
 10
1020.8832
 20
316.8048
 10
1025.0
 20
317.0
  0
TEXT
  5
46
330
17
100
AcDbEntity
  8
ETCH
100
AcDbText
 10
1025.0
 20
170.85949005225098
 30
0.0
 40
19.2
  1
P003
 72
1
 11
1025.0
 21
170.85949005225098
 31
0.0
100
AcDbText
 73
2
  0
LWPOLYLINE
  5
47
330
17
100
AcDbEntity
  8
CUT
100
AcDbPolyline
 90
129
 70
1
 10
1025.0
 20
631.0
 10
1029.1168
 20
630.8048
 10
1033.1795
 20
630.2256
 10
1037.1832
 20
629.2717
 10
1041.1228
 20
627.9525
 10
1044.9932
 20
626.2776
 10
1048.7896
 20
624.2563
 10
1052.5067
 20
621.898
 10
1056.1396
 20
619.2123
 10
1059.6833
 20
616.2084
 10
1063.1328
 20
612.8958
 10
1066.4829
 20
609.284
 10
1069.7288
 20
605.3824
 10
1072.8653
 20
601.2003
 10
1075.8874
 20
596.7473
 10
1078.7902
 20
592.0327
 10
1081.5685
 20
587.066
 10
1084.2174
 20
581.8566
 10
1086.7319
 20
576.4139
 10
1089.1068
 20
570.7474
 10
1091.3373
 20
564.8664
 10
1093.4181
 20
558.7805
 10
1095.3444
 20
552.4989
 10
1097.1111
 20
546.0312
 10
1098.7132
 20
539.3868
 10
1100.1456
 20
532.575
 10
1101.4034
 20
525.6054
 10
1102.4814
 20
518.4873
 10
1103.3747
 20
511.2302
 10
1104.0782
 20
503.8435
 10
1104.587
 20
496.3366
 10
1104.8959
 20
488.719
 10
1105.0
 20
481.0
 10
1104.8959
 20
473.281
 10
1104.587
 20
465.6634
 10
1104.0782
 20
458.1565
 10
1103.3747
 20
450.7698
 10
1102.4814
 20
443.5127
 10
1101.4034
 20
436.3946
 10
1100.1456
 20
429.425
 10
1098.7132
 20
422.6132
 10
1097.1111
 20
415.9688
 10
1095.3444
 20
409.5011
 10
1093.4181
 20
403.2195
 10
1091.3373
 20
397.1336
 10
1089.1068
 20
391.2526
 10
1086.7319
 20
385.5861
 10
1084.2174
 20
380.1434
 10
1081.5685
 20
374.934
 10
1078.7902
 20
369.9673
 10
1075.8874
 20
365.2527
 10
1072.8653
 20
360.7997
 10
1069.7288
 20
356.6176
 10
1066.4829
 20
352.716
 10
1063.1328
 20
349.1042
 10
1059.6833
 20
345.7916
 10
1056.1396
 20
342.7877
 10
1052.5067
 20
340.102
 10
1048.7896
 20
337.7437
 10
1044.9932
 20
335.7224
 10
1041.1228
 20
334.0475
 10
1037.1832
 20
332.7283
 10
1033.1795
 20
331.7744
 10
1029.1168
 20
331.1952
 10
1025.0
 20
331.0
 10
1020.8832
 20
331.1952
 10
1016.8205
 20
331.7744
 10
1012.8168
 20
332.7283
 10
1008.8772
 20
334.0475
 10
1005.0068
 20
335.7224
 10
1001.2104
 20
337.7437
 10
997.4933
 20
340.102
 10
993.8604
 20
342.7877
 10
990.3167
 20
345.7916
 10
986.8672
 20
349.1042
 10
983.5171
 20
352.716
 10
980.2712
 20
356.6176
 10
977.1347
 20
360.7997
 10
974.1126
 20
365.2527
 10
971.2098
 20
369.9673
 10
968.4315
 20
374.934
 10
965.7826
 20
380.1434
 10
963.2681
 20
385.5861
 10
960.8932
 20
391.2526
 10
958.6627
 20
397.1336
 10
956.5819
 20
403.2195
 10
954.6556
 20
409.5011
 10
952.8889
 20
415.9688
 10
951.2868
 20
422.6132
 10
949.8544
 20
429.425
 10
948.5966
 20
436.3946
 10
947.5186
 20
443.5127
 10
946.6253
 20
450.7698
 10
945.9218
 20
458.1565
 10
945.413
 20
465.6634
 10
945.1041
 20
473.281
 10
945.0
 20
481.0
 10
945.1041
 20
488.719
 10
945.413
 20
496.3366
 10
945.9218
 20
503.8435
 10
946.6253
 20
511.2302
 10
947.5186
 20
518.4873
 10
948.5966
 20
525.6054
 10
949.8544
 20
532.575
 10
951.2868
 20
539.3868
 10
952.8889
 20
546.0312
 10
954.6556
 20
552.4989
 10
956.5819
 20
558.7805
 10
958.6627
 20
564.8664
 10
960.8932
 20
570.7474
 10
963.2681
 20
576.4139
 10
965.7826
 20
581.8566
 10
968.4315
 20
587.066
 10
971.2098
 20
592.0327
 10
974.1126
 20
596.7473
 10
977.1347
 20
601.2003
 10
980.2712
 20
605.3824
 10
983.5171
 20
609.284
 10
986.8672
 20
612.8958
 10
990.3167
 20
616.2084
 10
993.8604
 20
619.2123
 10
997.4933
 20
621.898
 10
1001.2104
 20
624.2563
 10
1005.0068
 20
626.2776
 10
1008.8772
 20
627.9525
 10
1012.8168
 20
629.2717
 10
1016.8205
 20
630.2256
 10
1020.8832
 20
630.8048
 10
1025.0
 20
631.0
  0
TEXT
  5
48
330
17
100
AcDbEntity
  8
ETCH
100
AcDbText
 10
1025.0
 20
484.859490052251
 30
0.0
 40
19.2
  1
P003
 72
1
 11
1025.0
 21
484.859490052251
 31
0.0
100
AcDbText
 73
2
  0
LWPOLYLINE
  5
49
330
17
100
AcDbEntity
  8
CUT
100
AcDbPolyline
 90
5
 70
1
 10
925.0
 20
431.0
 10
925.0
 20
631.0
 10
805.0
 20
691.0
 10
745.0
 20
491.0
 10
925.0
 20
431.0
  0
TEXT
  5
4A
330
17
100
AcDbEntity
  8
ETCH
100
AcDbText
 10
845.5
 20
561.0
 30
0.0
 40
21.599999999999998
  1
P006
 72
1
 11
845.5
 21
561.0
 31
0.0
100
AcDbText
 73
2
  0
LWPOLYLINE
  5
4B
330
17
100
AcDbEntity
  8
CUT
100
AcDbPolyline
 90
5
 70
1
 10
939.0
 20
645.0
 10
1139.0
 20
645.0
 10
1199.0
 20
765.0
 10
999.0
 20
825.0
 10
939.0
 20
645.0
  0
TEXT
  5
4C
330
17
100
AcDbEntity
  8
ETCH
100
AcDbText
 10
1064.0
 20
705.0
 30
0.0
 40
21.599999999999998
  1
P006
 72
1
 11
1064.0
 21
705.0
 31
0.0
100
AcDbText
 73
2
  0
LWPOLYLINE
  5
4D
330
17
100
AcDbEntity
  8
CUT
100
AcDbPolyline
 90
63
 70
1
 10
907.4525
 20
705.0
 10
891.0905
 20
708.8923
 10
874.8582
 20
713.0091
 10
858.8854
 20
717.575
 10
851.0368
 20
720.0965
 10
843.3017
 20
722.8145
 10
835.6963
 20
725.7571
 10
828.2368
 20
728.9523
 10
820.9395
 20
732.4281
 10
813.8205
 20
736.2127
 10
806.8961
 20
740.3341
 10
800.1825
 20
744.8205
 10
793.6959
 20
749.6997
 10
787.4525
 20
755.0
 10
782.0559
 20
760.1482
 10
776.9007
 20
765.6369
 10
772.0178
 20
771.4424
 10
767.4383
 20
777.5411
 10
763.1934
 20
783.9094
 10
759.3139
 20
790.5236
 10
755.831
 20
797.3603
 10
752.7758
 20
804.3957
 10
750.1792
 20
811.6062
 10
748.0722
 20
818.9683
 10
746.486
 20
826.4582
 10
745.4516
 20
834.0524
 10
745.0
 20
841.7274
 10
745.1623
 20
849.4593
 10
745.9694
 20
857.2248
 10
747.4525
 20
865.0
 10
749.5451
 20
872.4968
 10
752.2499
 20
879.9243
 10
755.5191
 20
887.2259
 10
759.3043
 20
894.3452
 10
763.5574
 20
901.2257
 10
768.2303
 20
907.811
 10
773.2749
 20
914.0445
 10
778.6428
 20
919.8699
 10
784.2861
 20
925.2305
 10
790.1565
 20
930.07
 10
796.206
 20
934.3319
 10
802.3862
 20
937.9596
 10
808.6492
 20
940.8968
 10
814.9466
 20
943.0869
 10
818.0933
 20
943.8841
 10
821.2305
 20
944.4734
 10
824.3522
 20
944.8478
 10
827.4525
 20
945.0
 10
832.8686
 20
944.7182
 10
838.2041
 20
943.765
 10
843.4644
 20
942.1854
 10
848.655
 20
940.0241
 10
853.7812
 20
937.3257
 10
858.8483
 20
934.1351
 10
863.8617
 20
930.497
 10
868.8268
 20
926.4561
 10
873.7489
 20
922.0572
 10
878.6335
 20
917.3451
 10
883.4859
 20
912.3644
 10
888.3114
 20
907.1601
 10
897.9035
 20
896.259
 10
907.4525
 20
885.0
 10
907.4525
 20
705.0
  0
TEXT
  5
4E
330
17
100
AcDbEntity
  8
ETCH
100
AcDbText
 10
827.3658325169054
 20
822.7132281416232
 30
0.0
 40
19.494305343223708
  1
P004
 72
1
 11
827.3658325169054
 21
822.7132281416232
 31
0.0
100
AcDbText
 73
2
  0
LWPOLYLINE
  5
4F
330
17
100
AcDbEntity
  8
CUT
100
AcDbPolyline
 90
7
 70
1
 10
17.0
 20
645.0
 10
317.0
 20
645.0
 10
317.0
 20
685.0
 10
57.0
 20
685.0
 10
57.0
 20
945.0
 10
17.0
 20
945.0
 10
17.0
 20
645.0
  0
TEXT
  5
50
330
17
100
AcDbEntity
  8
ETCH
100
AcDbText
 10
37.0
 20
815.0
 30
0.0
 40
24.0
  1
P002
 72
1
 11
37.0
 21
815.0
 31
0.0
100
AcDbText
 73
2
  0
LWPOLYLINE
  5
51
330
17
100
AcDbEntity
  8
OFFCUT
100
AcDbPolyline
 90
5
 70
1
 10
10.0
 20
10.0
 10
10.0
 20
2430.0
 10
1210.0
 20
2430.0
 10
1210.0
 20
10.0
 10
10.0
 20
10.0
  0
LWPOLYLINE
  5
52
330
17
100
AcDbEntity
  8
OFFCUT
100
AcDbPolyline
 90
131
 70
1
 10
106.7756
 20
17.5163
 10
111.854
 20
17.1301
 10
117.0
 20
17.0
 10
417.0
 20
17.0
 10
422.146
 20
17.1301
 10
427.2244
 20
17.5163
 10
432.229
 20
18.1522
 10
437.1535
 20
19.0316
 10
441.9916
 20
20.1483
 10
446.7369
 20
21.4958
 10
451.3834
 20
23.068
 10
455.9245
 20
24.8585
 10
460.3541
 20
26.8611
 10
464.6659
 20
29.0695
 10
468.8536
 20
31.4773
 10
472.911
 20
34.0784
 10
476.8316
 20
36.8665
 10
480.6093
 20
39.8351
 10
484.2377
 20
42.9782
 10
487.7107
 20
46.2893
 10
491.0218
 20
49.7623
 10
494.1649
 20
53.3907
 10
497.1335
 20
57.1684
 10
499.9216
 20
61.089
 10
502.5227
 20
65.1464
 10
504.9305
 20
69.3341
 10
507.1389
 20
73.6459
 10
509.1415
 20
78.0755
 10
510.932
 20
82.6166
 10
512.5042
 20
87.2631
 10
513.8517
 20
92.0084
 10
514.9684
 20
96.8465
 10
515.8478
 20
101.771
 10
516.4837
 20
106.7756
 10
516.8699
 20
111.854
 10
517.0
 20
117.0
 10
516.8699
 20
122.146
 10
516.4837
 20
127.2244
 10
515.8478
 20
132.229
 10
514.9684
 20
137.1535
 10
513.8517
 20
141.9916
 10
512.5042
 20
146.7369
 10
510.932
 20
151.3834
 10
509.1415
 20
155.9245
 10
507.1389
 20
160.3541
 10
504.9305
 20
164.6659
 10
502.5227
 20
168.8536
 10
499.9216
 20
172.911
 10
497.1335
 20
176.8316
 10
494.1649
 20
180.6093
 10
491.0218
 20
184.2377
 10
487.7107
 20
187.7107
 10
484.2377
 20
191.0218
 10
480.6093
 20
194.1649
 10
476.8316
 20
197.1335
 10
472.911
 20
199.9216
 10
468.8536
 20
202.5227
 10
464.6659
 20
204.9305
 10
460.3541
 20
207.1389
 10
455.9245
 20
209.1415
 10
451.3834
 20
210.932
 10
446.7369
 20
212.5042
 10
441.9916
 20
213.8517
 10
437.1535
 20
214.9684
 10
432.229
 20
215.8478
 10
427.2244
 20
216.4837
 10
422.146
 20
216.8699
 10
417.0
 20
217.0
 10
117.0
 20
217.0
 10
111.854
 20
216.8699
 10
106.7756
 20
216.4837
 10
101.771
 20
215.8478
 10
96.8465
 20
214.9684
 10
92.0084
 20
213.8517
 10
87.2631
 20
212.5042
 10
82.6166
 20
210.932
 10
78.0755
 20
209.1415
 10
73.6459
 20
207.1389
 10
69.3341
 20
204.9305
 10
65.1464
 20
202.5227
 10
61.089
 20
199.9216
 10
57.1684
 20
197.1335
 10
53.3907
 20
194.1649
 10
49.7623
 20
191.0218
 10
46.2893
 20
187.7107
 10
42.9782
 20
184.2377
 10
39.8351
 20
180.6093
 10
36.8665
 20
176.8316
 10
34.0784
 20
172.911
 10
31.4773
 20
168.8536
 10
29.0695
 20
164.6659
 10
26.8611
 20
160.3541
 10
24.8585
 20
155.9245
 10
23.068
 20
151.3834
 10
21.4958
 20
146.7369
 10
20.1483
 20
141.9916
 10
19.0316
 20
137.1535
 10
18.1522
 20
132.229
 10
17.5163
 20
127.2244
 10
17.1301
 20
122.146
 10
17.0
 20
117.0
 10
17.1301
 20
111.854
 10
17.5163
 20
106.7756
 10
18.1522
 20
101.771
 10
19.0316
 20
96.8465
 10
20.1483
 20
92.0084
 10
21.4958
 20
87.2631
 10
23.068
 20
82.6166
 10
24.8585
 20
78.0755
 10
26.8611
 20
73.6459
 10
29.0695
 20
69.3341
 10
31.4773
 20
65.1464
 10
34.0784
 20
61.089
 10
36.8665
 20
57.1684
 10
39.8351
 20
53.3907
 10
42.9782
 20
49.7623
 10
46.2893
 20
46.2893
 10
49.7623
 20
42.9782
 10
53.3907
 20
39.8351
 10
57.1684
 20
36.8665
 10
61.089
 20
34.0784
 10
65.1464
 20
31.4773
 10
69.3341
 20
29.0695
 10
73.6459
 20
26.8611
 10
78.0755
 20
24.8585
 10
82.6166
 20
23.068
 10
87.2631
 20
21.4958
 10
92.0084
 20
20.1483
 10
96.8465
 20
19.0316
 10
101.771
 20
18.1522
 10
106.7756
 20
17.5163
  0
LWPOLYLINE
  5
53
330
17
100
AcDbEntity
  8
OFFCUT
100
AcDbPolyline
 90
129
 70
1
 10
1033.1795
 20
316.2256
 10
1029.1168
 20
316.8048
 10
1025.0
 20
317.0
 10
1020.8832
 20
316.8048
 10
1016.8205
 20
316.2256
 10
1012.8168
 20
315.2717
 10
1008.8772
 20
313.9525
 10
1005.0068
 20
312.2776
 10
1001.2104
 20
310.2563
 10
997.4933
 20
307.898
 10
993.8604
 20
305.2123
 10
990.3167
 20
302.2084
 10
986.8672
 20
298.8958
 10
983.5171
 20
295.284
 10
980.2712
 20
291.3824
 10
977.1347
 20
287.2003
 10
974.1126
 20
282.7473
 10
971.2098
 20
278.0327
 10
968.4315
 20
273.066
 10
965.7826
 20
267.8566
 10
963.2681
 20
262.4139
 10
960.8932
 20
256.7474
 10
958.6627
 20
250.8664
 10
956.5819
 20
244.7805
 10
954.6556
 20
238.4989
 10
952.8889
 20
232.0312
 10
951.2868
 20
225.3868
 10
949.8544
 20
218.575
 10
948.5966
 20
211.6054
 10
947.5186
 20
204.4873
 10
946.6253
 20
197.2302
 10
945.9218
 20
189.8435
 10
945.413
 20
182.3366
 10
945.1041
 20
174.719
 10
945.0
 20
167.0
 10
945.1041
 20
159.281
 10
945.413
 20
151.6634
 10
945.9218
 20
144.1565
 10
946.6253
 20
136.7698
 10
947.5186
 20
129.5127
 10
948.5966
 20
122.3946
 10
949.8544
 20
115.425
 10
951.2868
 20
108.6132
 10
952.8889
 20
101.9688
 10
954.6556
 20
95.5011
 10
956.5819
 20
89.2195
 10
958.6627
 20
83.1336
 10
960.8932
 20
77.2526
 10
963.2681
 20
71.5861
 10
965.7826
 20
66.1434
 10
968.4315
 20
60.934
 10
971.2098
 20
55.9673
 10
974.1126
 20
51.2527
 10
977.1347
 20
46.7997
 10
980.2712
 20
42.6176
 10
983.5171
 20
38.716
 10
986.8672
 20
35.1042
 10
990.3167
 20
31.7916
 10
993.8604
 20
28.7877
 10
997.4933
 20
26.102
 10
1001.2104
 20
23.7437
 10
1005.0068
 20
21.7224
 10
1008.8772
 20
20.0475
 10
1012.8168
 20
18.7283
 10
1016.8205
 20
17.7744
 10
1020.8832
 20
17.1952
 10
1025.0
 20
17.0
 10
1029.1168
 20
17.1952
 10
1033.1795
 20
17.7744
 10
1037.1832
 20
18.7283
 10
1041.1228
 20
20.0475
 10
1044.9932
 20
21.7224
 10
1048.7896
 20
23.7437
 10
1052.5067
 20
26.102
 10
1056.1396
 20
28.7877
 10
1059.6833
 20
31.7916
 10
1063.1328
 20
35.1042
 10
1066.4829
 20
38.716
 10
1069.7288
 20
42.6176
 10
1072.8653
 20
46.7997
 10
1075.8874
 20
51.2527
 10
1078.7902
 20
55.9673
 10
1081.5685
 20
60.934
 10
1084.2174
 20
66.1434
 10
1086.7319
 20
71.5861
 10
1089.1068
 20
77.2526
 10
1091.3373
 20
83.1336
 10
1093.4181
 20
89.2195
 10
1095.3444
 20
95.5011
 10
1097.1111
 20
101.9688
 10
1098.7132
 20
108.6132
 10
1100.1456
 20
115.425
 10
1101.4034
 20
122.3946
 10
1102.4814
 20
129.5127
 10
1103.3747
 20
136.7698
 10
1104.0782
 20
144.1565
 10
1104.587
 20
151.6634
 10
1104.8959
 20
159.281
 10
1105.0
 20
167.0
 10
1104.8959
 20
174.719
 10
1104.587
 20
182.3366
 10
1104.0782
 20
189.8435
 10
1103.3747
 20
197.2302
 10
1102.4814
 20
204.4873
 10
1101.4034
 20
211.6054
 10
1100.1456
 20
218.575
 10
1098.7132
 20
225.3868
 10
1097.1111
 20
232.0312
 10
1095.3444
 20
238.4989
 10
1093.4181
 20
244.7805
 10
1091.3373
 20
250.8664
 10
1089.1068
 20
256.7474
 10
1086.7319
 20
262.4139
 10
1084.2174
 20
267.8566
 10
1081.5685
 20
273.066
 10
1078.7902
 20
278.0327
 10
1075.8874
 20
282.7473
 10
1072.8653
 20
287.2003
 10
1069.7288
 20
291.3824
 10
1066.4829
 20
295.284
 10
1063.1328
 20
298.8958
 10
1059.6833
 20
302.2084
 10
1056.1396
 20
305.2123
 10
1052.5067
 20
307.898
 10
1048.7896
 20
310.2563
 10
1044.9932
 20
312.2776
 10
1041.1228
 20
313.9525
 10
1037.1832
 20
315.2717
 10
1033.1795
 20
316.2256
  0
LWPOLYLINE
  5
54
330
17
100
AcDbEntity
  8
OFFCUT
100
AcDbPolyline
 90
129
 70
1
 10
929.9674
 20
196.5512
 10
930.7398
 20
206.708
 10
931.0
 20
217.0
 10
930.7398
 20
227.292
 10
929.9674
 20
237.4488
 10
928.6956
 20
247.458
 10
926.9367
 20
257.307
 10
924.7035
 20
266.9831
 10
922.0084
 20
276.4739
 10
918.8641
 20
285.7667
 10
915.283
 20
294.849
 10
911.2778
 20
303.7083
 10
906.8611
 20
312.3319
 10
902.0453
 20
320.7073
 10
896.8431
 20
328.8219
 10
891.2671
 20
336.6632
 10
885.3297
 20
344.2186
 10
879.0436
 20
351.4755
 10
872.4214
 20
358.4214
 10
865.4755
 20
365.0436
 10
858.2186
 20
371.3297
 10
850.6632
 20
377.2671
 10
842.8219
 20
382.8431
 10
834.7073
 20
388.0453
 10
826.3319
 20
392.8611
 10
817.7083
 20
397.2778
 10
808.849
 20
401.283
 10
799.7667
 20
404.8641
 10
790.4739
 20
408.0084
 10
780.9831
 20
410.7035
 10
771.307
 20
412.9367
 10
761.458
 20
414.6956
 10
751.4488
 20
415.9674
 10
741.292
 20
416.7398
 10
731.0
 20
417.0
 10
720.708
 20
416.7398
 10
710.5512
 20
415.9674
 10
700.542
 20
414.6956
 10
690.693
 20
412.9367
 10
681.0169
 20
410.7035
 10
671.5261
 20
408.0084
 10
662.2333
 20
404.8641
 10
653.151
 20
401.283
 10
644.2917
 20
397.2778
 10
635.6681
 20
392.8611
 10
627.2927
 20
388.0453
 10
619.1781
 20
382.8431
 10
611.3368
 20
377.2671
 10
603.7814
 20
371.3297
 10
596.5245
 20
365.0436
 10
589.5786
 20
358.4214
 10
582.9564
 20
351.4755
 10
576.6703
 20
344.2186
 10
570.7329
 20
336.6632
 10
565.1569
 20
328.8219
 10
559.9547
 20
320.7073
 10
555.1389
 20
312.3319
 10
550.7222
 20
303.7083
 10
546.717
 20
294.849
 10
543.1359
 20
285.7667
 10
539.9916
 20
276.4739
 10
537.2965
 20
266.9831
 10
535.0633
 20
257.307
 10
533.3044
 20
247.458
 10
532.0326
 20
237.4488
 10
531.2602
 20
227.292
 10
531.0
 20
217.0
 10
531.2602
 20
206.708
 10
532.0326
 20
196.5512
 10
533.3044
 20
186.542
 10
535.0633
 20
176.693
 10
537.2965
 20
167.0169
 10
539.9916
 20
157.5261
 10
543.1359
 20
148.2333
 10
546.717
 20
139.151
 10
550.7222
 20
130.2917
 10
555.1389
 20
121.6681
 10
559.9547
 20
113.2927
 10
565.1569
 20
105.1781
 10
570.7329
 20
97.3368
 10
576.6703
 20
89.7814
 10
582.9564
 20
82.5245
 10
589.5786
 20
75.5786
 10
596.5245
 20
68.9564
 10
603.7814
 20
62.6703
 10
611.3368
 20
56.7329
 10
619.1781
 20
51.1569
 10
627.2927
 20
45.9547
 10
635.6681
 20
41.1389
 10
644.2917
 20
36.7222
 10
653.151
 20
32.717
 10
662.2333
 20
29.1359
 10
671.5261
 20
25.9916
 10
681.0169
 20
23.2965
 10
690.693
 20
21.0633
 10
700.542
 20
19.3044
 10
710.5512
 20
18.0326
 10
720.708
 20
17.2602
 10
731.0
 20
17.0
 10
741.292
 20
17.2602
 10
751.4488
 20
18.0326
 10
761.458
 20
19.3044
 10
771.307
 20
21.0633
 10
780.9831
 20
23.2965
 10
790.4739
 20
25.9916
 10
799.7667
 20
29.1359
 10
808.849
 20
32.717
 10
817.7083
 20
36.7222
 10
826.3319
 20
41.1389
 10
834.7073
 20
45.9547
 10
842.8219
 20
51.1569
 10
850.6632
 20
56.7329
 10
858.2186
 20
62.6703
 10
865.4755
 20
68.9564
 10
872.4214
 20
75.5786
 10
879.0436
 20
82.5245
 10
885.3297
 20
89.7814
 10
891.2671
 20
97.3368
 10
896.8431
 20
105.1781
 10
902.0453
 20
113.2927
 10
906.8611
 20
121.6681
 10
911.2778
 20
130.2917
 10
915.283
 20
139.151
 10
918.8641
 20
148.2333
 10
922.0084
 20
157.5261
 10
924.7035
 20
167.0169
 10
926.9367
 20
176.693
 10
928.6956
 20
186.542
 10
929.9674
 20
196.5512
  0
LWPOLYLINE
  5
55
330
17
100
AcDbEntity
  8
OFFCUT
100
AcDbPolyline
 90
129
 70
1
 10
414.6956
 20
400.542
 10
415.9674
 20
410.5512
 10
416.7398
 20
420.708
 10
417.0
 20
431.0
 10
416.7398
 20
441.292
 10
415.9674
 20
451.4488
 10
414.6956
 20
461.458
 10
412.9367
 20
471.307
 10
410.7035
 20
480.9831
 10
408.0084
 20
490.4739
 10
404.8641
 20
499.7667
 10
401.283
 20
508.849
 10
397.2778
 20
517.7083
 10
392.8611
 20
526.3319
 10
388.0453
 20
534.7073
 10
382.8431
 20
542.8219
 10
377.2671
 20
550.6632
 10
371.3297
 20
558.2186
 10
365.0436
 20
565.4755
 10
358.4214
 20
572.4214
 10
351.4755
 20
579.0436
 10
344.2186
 20
585.3297
 10
336.6632
 20
591.2671
 10
328.8219
 20
596.8431
 10
320.7073
 20
602.0453
 10
312.3319
 20
606.8611
 10
303.7083
 20
611.2778
 10
294.849
 20
615.283
 10
285.7667
 20
618.8641
 10
276.4739
 20
622.0084
 10
266.9831
 20
624.7035
 10
257.307
 20
626.9367
 10
247.458
 20
628.6956
 10
237.4488
 20
629.9674
 10
227.292
 20
630.7398
 10
217.0
 20
631.0
 10
206.708
 20
630.7398
 10
196.5512
 20
629.9674
 10
186.542
 20
628.6956
 10
176.693
 20
626.9367
 10
167.0169
 20
624.7035
 10
157.5261
 20
622.0084
 10
148.2333
 20
618.8641
 10
139.151
 20
615.283
 10
130.2917
 20
611.2778
 10
121.6681
 20
606.8611
 10
113.2927
 20
602.0453
 10
105.1781
 20
596.8431
 10
97.3368
 20
591.2671
 10
89.7814
 20
585.3297
 10
82.5245
 20
579.0436
 10
75.5786
 20
572.4214
 10
68.9564
 20
565.4755
 10
62.6703
 20
558.2186
 10
56.7329
 20
550.6632
 10
51.1569
 20
542.8219
 10
45.9547
 20
534.7073
 10
41.1389
 20
526.3319
 10
36.7222
 20
517.7083
 10
32.717
 20
508.849
 10
29.1359
 20
499.7667
 10
25.9916
 20
490.4739
 10
23.2965
 20
480.9831
 10
21.0633
 20
471.307
 10
19.3044
 20
461.458
 10
18.0326
 20
451.4488
 10
17.2602
 20
441.292
 10
17.0
 20
431.0
 10
17.2602
 20
420.708
 10
18.0326
 20
410.5512
 10
19.3044
 20
400.542
 10
21.0633
 20
390.693
 10
23.2965
 20
381.0169
 10
25.9916
 20
371.5261
 10
29.1359
 20
362.2333
 10
32.717
 20
353.151
 10
36.7222
 20
344.2917
 10
41.1389
 20
335.6681
 10
45.9547
 20
327.2927
 10
51.1569
 20
319.1781
 10
56.7329
 20
311.3368
 10
62.6703
 20
303.7814
 10
68.9564
 20
296.5245
 10
75.5786
 20
289.5786
 10
82.5245
 20
282.9564
 10
89.7814
 20
276.6703
 10
97.3368
 20
270.7329
 10
105.1781
 20
265.1569
 10
113.2927
 20
259.9547
 10
121.6681
 20
255.1389
 10
130.2917
 20
250.7222
 10
139.151
 20
246.717
 10
148.2333
 20
243.1359
 10
157.5261
 20
239.9916
 10
167.0169
 20
237.2965
 10
176.693
 20
235.0633
 10
186.542
 20
233.3044
 10
196.5512
 20
232.0326
 10
206.708
 20
231.2602
 10
217.0
 20
231.0
 10
227.292
 20
231.2602
 10
237.4488
 20
232.0326
 10
247.458
 20
233.3044
 10
257.307
 20
235.0633
 10
266.9831
 20
237.2965
 10
276.4739
 20
239.9916
 10
285.7667
 20
243.1359
 10
294.849
 20
246.717
 10
303.7083
 20
250.7222
 10
312.3319
 20
255.1389
 10
320.7073
 20
259.9547
 10
328.8219
 20
265.1569
 10
336.6632
 20
270.7329
 10
344.2186
 20
276.6703
 10
351.4755
 20
282.9564
 10
358.4214
 20
289.5786
 10
365.0436
 20
296.5245
 10
371.3297
 20
303.7814
 10
377.2671
 20
311.3368
 10
382.8431
 20
319.1781
 10
388.0453
 20
327.2927
 10
392.8611
 20
335.6681
 10
397.2778
 20
344.2917
 10
401.283
 20
353.151
 10
404.8641
 20
362.2333
 10
408.0084
 20
371.5261
 10
410.7035
 20
381.0169
 10
412.9367
 20
390.693
 10
414.6956
 20
400.542
  0
LWPOLYLINE
  5
56
330
17
100
AcDbEntity
  8
OFFCUT
100
AcDbPolyline
 90
129
 70
1
 10
1037.1832
 20
629.2717
 10
1033.1795
 20
630.2256
 10
1029.1168
 20
630.8048
 10
1025.0
 20
631.0
 10
1020.8832
 20
630.8048
 10
1016.8205
 20
630.2256
 10
1012.8168
 20
629.2717
 10
1008.8772
 20
627.9525
 10
1005.0068
 20
626.2776
 10
1001.2104
 20
624.2563
 10
997.4933
 20
621.898
 10
993.8604
 20
619.2123
 10
990.3167
 20
616.2084
 10
986.8672
 20
612.8958
 10
983.5171
 20
609.284
 10
980.2712
 20
605.3824
 10
977.1347
 20
601.2003
 10
974.1126
 20
596.7473
 10
971.2098
 20
592.0327
 10
968.4315
 20
587.066
 10
965.7826
 20
581.8566
 10
963.2681
 20
576.4139
 10
960.8932
 20
570.7474
 10
958.6627
 20
564.8664
 10
956.5819
 20
558.7805
 10
954.6556
 20
552.4989
 10
952.8889
 20
546.0312
 10
951.2868
 20
539.3868
 10
949.8544
 20
532.575
 10
948.5966
 20
525.6054
 10
947.5186
 20
518.4873
 10
946.6253
 20
511.2302
 10
945.9218
 20
503.8435
 10
945.413
 20
496.3366
 10
945.1041
 20
488.719
 10
945.0
 20
481.0
 10
945.1041
 20
473.281
 10
945.413
 20
465.6634
 10
945.9218
 20
458.1565
 10
946.6253
 20
450.7698
 10
947.5186
 20
443.5127
 10
948.5966
 20
436.3946
 10
949.8544
 20
429.425
 10
951.2868
 20
422.6132
 10
952.8889
 20
415.9688
 10
954.6556
 20
409.5011
 10
956.5819
 20
403.2195
 10
958.6627
 20
397.1336
 10
960.8932
 20
391.2526
 10
963.2681
 20
385.5861
 10
965.7826
 20
380.1434
 10
968.4315
 20
374.934
 10
971.2098
 20
369.9673
 10
974.1126
 20
365.2527
 10
977.1347
 20
360.7997
 10
980.2712
 20
356.6176
 10
983.5171
 20
352.716
 10
986.8672
 20
349.1042
 10
990.3167
 20
345.7916
 10
993.8604
 20
342.7877
 10
997.4933
 20
340.102
 10
1001.2104
 20
337.7437
 10
1005.0068
 20
335.7224
 10
1008.8772
 20
334.0475
 10
1012.8168
 20
332.7283
 10
1016.8205
 20
331.7744
 10
1020.8832
 20
331.1952
 10
1025.0
 20
331.0
 10
1029.1168
 20
331.1952
 10
1033.1795
 20
331.7744
 10
1037.1832
 20
332.7283
 10
1041.1228
 20
334.0475
 10
1044.9932
 20
335.7224
 10
1048.7896
 20
337.7437
 10
1052.5067
 20
340.102
 10
1056.1396
 20
342.7877
 10
1059.6833
 20
345.7916
 10
1063.1328
 20
349.1042
 10
1066.4829
 20
352.716
 10
1069.7288
 20
356.6176
 10
1072.8653
 20
360.7997
 10
1075.8874
 20
365.2527
 10
1078.7902
 20
369.9673
 10
1081.5685
 20
374.934
 10
1084.2174
 20
380.1434
 10
1086.7319
 20
385.5861
 10
1089.1068
 20
391.2526
 10
1091.3373
 20
397.1336
 10
1093.4181
 20
403.2195
 10
1095.3444
 20
409.5011
 10
1097.1111
 20
415.9688
 10
1098.7132
 20
422.6132
 10
1100.1456
 20
429.425
 10
1101.4034
 20
436.3946
 10
1102.4814
 20
443.5127
 10
1103.3747
 20
450.7698
 10
1104.0782
 20
458.1565
 10
1104.587
 20
465.6634
 10
1104.8959
 20
473.281
 10
1105.0
 20
481.0
 10
1104.8959
 20
488.719
 10
1104.587
 20
496.3366
 10
1104.0782
 20
503.8435
 10
1103.3747
 20
511.2302
 10
1102.4814
 20
518.4873
 10
1101.4034
 20
525.6054
 10
1100.1456
 20
532.575
 10
1098.7132
 20
539.3868
 10
1097.1111
 20
546.0312
 10
1095.3444
 20
552.4989
 10
1093.4181
 20
558.7805
 10
1091.3373
 20
564.8664
 10
1089.1068
 20
570.7474
 10
1086.7319
 20
576.4139
 10
1084.2174
 20
581.8566
 10
1081.5685
 20
587.066
 10
1078.7902
 20
592.0327
 10
1075.8874
 20
596.7473
 10
1072.8653
 20
601.2003
 10
1069.7288
 20
605.3824
 10
1066.4829
 20
609.284
 10
1063.1328
 20
612.8958
 10
1059.6833
 20
616.2084
 10
1056.1396
 20
619.2123
 10
1052.5067
 20
621.898
 10
1048.7896
 20
624.2563
 10
1044.9932
 20
626.2776
 10
1041.1228
 20
627.9525
 10
1037.1832
 20
629.2717
  0
LWPOLYLINE
  5
57
330
17
100
AcDbEntity
  8
OFFCUT
100
AcDbPolyline
 90
5
 70
1
 10
805.0
 20
691.0
 10
745.0
 20
491.0
 10
925.0
 20
431.0
 10
925.0
 20
631.0
 10
805.0
 20
691.0
  0
LWPOLYLINE
  5
58
330
17
100
AcDbEntity
  8
OFFCUT
100
AcDbPolyline
 90
129
 70
1
 10
730.2256
 20
565.6634
 10
730.8048
 20
573.281
 10
731.0
 20
581.0
 10
730.8048
 20
588.719
 10
730.2256
 20
596.3366
 10
729.2717
 20
603.8435
 10
727.9525
 20
611.2302
 10
726.2776
 20
618.4873
 10
724.2563
 20
625.6054
 10
721.898
 20
632.575
 10
719.2123
 20
639.3868
 10
716.2084
 20
646.0312
 10
712.8958
 20
652.4989
 10
709.284
 20
658.7805
 10
705.3824
 20
664.8664
 10
701.2003
 20
670.7474
 10
696.7473
 20
676.4139
 10
692.0327
 20
681.8566
 10
687.066
 20
687.066
 10
681.8566
 20
692.0327
 10
676.4139
 20
696.7473
 10
670.7474
 20
701.2003
 10
664.8664
 20
705.3824
 10
658.7805
 20
709.284
 10
652.4989
 20
712.8958
 10
646.0312
 20
716.2084
 10
639.3868
 20
719.2123
 10
632.575
 20
721.898
 10
625.6054
 20
724.2563
 10
618.4873
 20
726.2776
 10
611.2302
 20
727.9525
 10
603.8435
 20
729.2717
 10
596.3366
 20
730.2256
 10
588.719
 20
730.8048
 10
581.0
 20
731.0
 10
573.281
 20
730.8048
 10
565.6634
 20
730.2256
 10
558.1565
 20
729.2717
 10
550.7698
 20
727.9525
 10
543.5127
 20
726.2776
 10
536.3946
 20
724.2563
 10
529.425
 20
721.898
 10
522.6132
 20
719.2123
 10
515.9688
 20
716.2084
 10
509.5011
 20
712.8958
 10
503.2195
 20
709.284
 10
497.1336
 20
705.3824
 10
491.2526
 20
701.2003
 10
485.5861
 20
696.7473
 10
480.1434
 20
692.0327
 10
474.934
 20
687.066
 10
469.9673
 20
681.8566
 10
465.2527
 20
676.4139
 10
460.7997
 20
670.7474
 10
456.6176
 20
664.8664
 10
452.716
 20
658.7805
 10
449.1042
 20
652.4989
 10
445.7916
 20
646.0312
 10
442.7877
 20
639.3868
 10
440.102
 20
632.575
 10
437.7437
 20
625.6054
 10
435.7224
 20
618.4873
 10
434.0475
 20
611.2302
 10
432.7283
 20
603.8435
 10
431.7744
 20
596.3366
 10
431.1952
 20
588.719
 10
431.0
 20
581.0
 10
431.1952
 20
573.281
 10
431.7744
 20
565.6634
 10
432.7283
 20
558.1565
 10
434.0475
 20
550.7698
 10
435.7224
 20
543.5127
 10
437.7437
 20
536.3946
 10
440.102
 20
529.425
 10
442.7877
 20
522.6132
 10
445.7916
 20
515.9688
 10
449.1042
 20
509.5011
 10
452.716
 20
503.2195
 10
456.6176
 20
497.1336
 10
460.7997
 20
491.2526
 10
465.2527
 20
485.5861
 10
469.9673
 20
480.1434
 10
474.934
 20
474.934
 10
480.1434
 20
469.9673
 10
485.5861
 20
465.2527
 10
491.2526
 20
460.7997
 10
497.1336
 20
456.6176
 10
503.2195
 20
452.716
 10
509.5011
 20
449.1042
 10
515.9688
 20
445.7916
 10
522.6132
 20
442.7877
 10
529.425
 20
440.102
 10
536.3946
 20
437.7437
 10
543.5127
 20
435.7224
 10
550.7698
 20
434.0475
 10
558.1565
 20
432.7283
 10
565.6634
 20
431.7744
 10
573.281
 20
431.1952
 10
581.0
 20
431.0
 10
588.719
 20
431.1952
 10
596.3366
 20
431.7744
 10
603.8435
 20
432.7283
 10
611.2302
 20
434.0475
 10
618.4873
 20
435.7224
 10
625.6054
 20
437.7437
 10
632.575
 20
440.102
 10
639.3868
 20
442.7877
 10
646.0312
 20
445.7916
 10
652.4989
 20
449.1042
 10
658.7805
 20
452.716
 10
664.8664
 20
456.6176
 10
670.7474
 20
460.7997
 10
676.4139
 20
465.2527
 10
681.8566
 20
469.9673
 10
687.066
 20
474.934
 10
692.0327
 20
480.1434
 10
696.7473
 20
485.5861
 10
701.2003
 20
491.2526
 10
705.3824
 20
497.1336
 10
709.284
 20
503.2195
 10
712.8958
 20
509.5011
 10
716.2084
 20
515.9688
 10
719.2123
 20
522.6132
 10
721.898
 20
529.425
 10
724.2563
 20
536.3946
 10
726.2776
 20
543.5127
 10
727.9525
 20
550.7698
 10
729.2717
 20
558.1565
 10
730.2256
 20
565.6634
  0
LWPOLYLINE
  5
59
330
17
100
AcDbEntity
  8
OFFCUT
100
AcDbPolyline
 90
5
 70
1
 10
1199.0
 20
765.0
 10
999.0
 20
825.0
 10
939.0
 20
645.0
 10
1139.0
 20
645.0
 10
1199.0
 20
765.0
  0
LWPOLYLINE
  5
5A
330
17
100
AcDbEntity
  8
OFFCUT
100
AcDbPolyline
 90
7
 70
1
 10
57.0
 20
685.0
 10
57.0
 20
945.0
 10
17.0
 20
945.0
 10
17.0
 20
645.0
 10
317.0
 20
645.0
 10
317.0
 20
685.0
 10
57.0
 20
685.0
  0
LWPOLYLINE
  5
5B
330
17
100
AcDbEntity
  8
OFFCUT
100
AcDbPolyline
 90
63
 70
1
 10
858.8854
 20
717.575
 10
874.8582
 20
713.0091
 10
891.0905
 20
708.8923
 10
907.4525
 20
705.0
 10
907.4525
 20
885.0
 10
897.9035
 20
896.259
 10
888.3114
 20
907.1601
 10
883.4859
 20
912.3644
 10
878.6335
 20
917.3451
 10
873.7489
 20
922.0572
 10
868.8268
 20
926.4561
 10
863.8617
 20
930.497
 10
858.8483
 20
934.1351
 10
853.7812
 20
937.3257
 10
848.655
 20
940.0241
 10
843.4644
 20
942.1854
 10
838.2041
 20
943.765
 10
832.8686
 20
944.7182
 10
827.4525
 20
945.0
 10
824.3522
 20
944.8478
 10
821.2305
 20
944.4734
 10
818.0933
 20
943.8841
 10
814.9466
 20
943.0869
 10
808.6492
 20
940.8968
 10
802.3862
 20
937.9596
 10
796.206
 20
934.3319
 10
790.1565
 20
930.07
 10
784.2861
 20
925.2305
 10
778.6428
 20
919.8699
 10
773.2749
 20
914.0445
 10
768.2303
 20
907.811
 10
763.5574
 20
901.2257
 10
759.3043
 20
894.3452
 10
755.5191
 20
887.2259
 10
752.2499
 20
879.9243
 10
749.5451
 20
872.4968
 10
747.4525
 20
865.0
 10
745.9694
 20
857.2248
 10
745.1623
 20
849.4593
 10
745.0
 20
841.7274
 10
745.4516
 20
834.0524
 10
746.486
 20
826.4582
 10
748.0722
 20
818.9683
 10
750.1792
 20
811.6062
 10
752.7758
 20
804.3957
 10
755.831
 20
797.3603
 10
759.3139
 20
790.5236
 10
763.1934
 20
783.9094
 10
767.4383
 20
777.5411
 10
772.0178
 20
771.4424
 10
776.9007
 20
765.6369
 10
782.0559
 20
760.1482
 10
787.4525
 20
755.0
 10
793.6959
 20
749.6997
 10
800.1825
 20
744.8205
 10
806.8961
 20
740.3341
 10
813.8205
 20
736.2127
 10
820.9395
 20
732.4281
 10
828.2368
 20
728.9523
 10
835.6963
 20
725.7571
 10
843.3017
 20
722.8145
 10
851.0368
 20
720.0965
 10
858.8854
 20
717.575
  0
LWPOLYLINE
  5
5C
330
17
100
AcDbEntity
  8
OFFCUT
100
AcDbPolyline
 90
131
 70
1
 10
106.7756
 20
17.5163
 10
111.854
 20
17.1301
 10
117.0
 20
17.0
 10
417.0
 20
17.0
 10
422.146
 20
17.1301
 10
427.2244
 20
17.5163
 10
432.229
 20
18.1522
 10
437.1535
 20
19.0316
 10
441.9916
 20
20.1483
 10
446.7369
 20
21.4958
 10
451.3834
 20
23.068
 10
455.9245
 20
24.8585
 10
460.3541
 20
26.8611
 10
464.6659
 20
29.0695
 10
468.8536
 20
31.4773
 10
472.911
 20
34.0784
 10
476.8316
 20
36.8665
 10
480.6093
 20
39.8351
 10
484.2377
 20
42.9782
 10
487.7107
 20
46.2893
 10
491.0218
 20
49.7623
 10
494.1649
 20
53.3907
 10
497.1335
 20
57.1684
 10
499.9216
 20
61.089
 10
502.5227
 20
65.1464
 10
504.9305
 20
69.3341
 10
507.1389
 20
73.6459
 10
509.1415
 20
78.0755
 10
510.932
 20
82.6166
 10
512.5042
 20
87.2631
 10
513.8517
 20
92.0084
 10
514.9684
 20
96.8465
 10
515.8478
 20
101.771
 10
516.4837
 20
106.7756
 10
516.8699
 20
111.854
 10
517.0
 20
117.0
 10
516.8699
 20
122.146
 10
516.4837
 20
127.2244
 10
515.8478
 20
132.229
 10
514.9684
 20
137.1535
 10
513.8517
 20
141.9916
 10
512.5042
 20
146.7369
 10
510.932
 20
151.3834
 10
509.1415
 20
155.9245
 10
507.1389
 20
160.3541
 10
504.9305
 20
164.6659
 10
502.5227
 20
168.8536
 10
499.9216
 20
172.911
 10
497.1335
 20
176.8316
 10
494.1649
 20
180.6093
 10
491.0218
 20
184.2377
 10
487.7107
 20
187.7107
 10
484.2377
 20
191.0218
 10
480.6093
 20
194.1649
 10
476.8316
 20
197.1335
 10
472.911
 20
199.9216
 10
468.8536
 20
202.5227
 10
464.6659
 20
204.9305
 10
460.3541
 20
207.1389
 10
455.9245
 20
209.1415
 10
451.3834
 20
210.932
 10
446.7369
 20
212.5042
 10
441.9916
 20
213.8517
 10
437.1535
 20
214.9684
 10
432.229
 20
215.8478
 10
427.2244
 20
216.4837
 10
422.146
 20
216.8699
 10
417.0
 20
217.0
 10
117.0
 20
217.0
 10
111.854
 20
216.8699
 10
106.7756
 20
216.4837
 10
101.771
 20
215.8478
 10
96.8465
 20
214.9684
 10
92.0084
 20
213.8517
 10
87.2631
 20
212.5042
 10
82.6166
 20
210.932
 10
78.0755
 20
209.1415
 10
73.6459
 20
207.1389
 10
69.3341
 20
204.9305
 10
65.1464
 20
202.5227
 10
61.089
 20
199.9216
 10
57.1684
 20
197.1335
 10
53.3907
 20
194.1649
 10
49.7623
 20
191.0218
 10
46.2893
 20
187.7107
 10
42.9782
 20
184.2377
 10
39.8351
 20
180.6093
 10
36.8665
 20
176.8316
 10
34.0784
 20
172.911
 10
31.4773
 20
168.8536
 10
29.0695
 20
164.6659
 10
26.8611
 20
160.3541
 10
24.8585
 20
155.9245
 10
23.068
 20
151.3834
 10
21.4958
 20
146.7369
 10
20.1483
 20
141.9916
 10
19.0316
 20
137.1535
 10
18.1522
 20
132.229
 10
17.5163
 20
127.2244
 10
17.1301
 20
122.146
 10
17.0
 20
117.0
 10
17.1301
 20
111.854
 10
17.5163
 20
106.7756
 10
18.1522
 20
101.771
 10
19.0316
 20
96.8465
 10
20.1483
 20
92.0084
 10
21.4958
 20
87.2631
 10
23.068
 20
82.6166
 10
24.8585
 20
78.0755
 10
26.8611
 20
73.6459
 10
29.0695
 20
69.3341
 10
31.4773
 20
65.1464
 10
34.0784
 20
61.089
 10
36.8665
 20
57.1684
 10
39.8351
 20
53.3907
 10
42.9782
 20
49.7623
 10
46.2893
 20
46.2893
 10
49.7623
 20
42.9782
 10
53.3907
 20
39.8351
 10
57.1684
 20
36.8665
 10
61.089
 20
34.0784
 10
65.1464
 20
31.4773
 10
69.3341
 20
29.0695
 10
73.6459
 20
26.8611
 10
78.0755
 20
24.8585
 10
82.6166
 20
23.068
 10
87.2631
 20
21.4958
 10
92.0084
 20
20.1483
 10
96.8465
 20
19.0316
 10
101.771
 20
18.1522
 10
106.7756
 20
17.5163
  0
LWPOLYLINE
  5
5D
330
17
100
AcDbEntity
  8
OFFCUT
100
AcDbPolyline
 90
129
 70
1
 10
1033.1795
 20
316.2256
 10
1029.1168
 20
316.8048
 10
1025.0
 20
317.0
 10
1020.8832
 20
316.8048
 10
1016.8205
 20
316.2256
 10
1012.8168
 20
315.2717
 10
1008.8772
 20
313.9525
 10
1005.0068
 20
312.2776
 10
1001.2104
 20
310.2563
 10
997.4933
 20
307.898
 10
993.8604
 20
305.2123
 10
990.3167
 20
302.2084
 10
986.8672
 20
298.8958
 10
983.5171
 20
295.284
 10
980.2712
 20
291.3824
 10
977.1347
 20
287.2003
 10
974.1126
 20
282.7473
 10
971.2098
 20
278.0327
 10
968.4315
 20
273.066
 10
965.7826
 20
267.8566
 10
963.2681
 20
262.4139
 10
960.8932
 20
256.7474
 10
958.6627
 20
250.8664
 10
956.5819
 20
244.7805
 10
954.6556
 20
238.4989
 10
952.8889
 20
232.0312
 10
951.2868
 20
225.3868
 10
949.8544
 20
218.575
 10
948.5966
 20
211.6054
 10
947.5186
 20
204.4873
 10
946.6253
 20
197.2302
 10
945.9218
 20
189.8435
 10
945.413
 20
182.3366
 10
945.1041
 20
174.719
 10
945.0
 20
167.0
 10
945.1041
 20
159.281
 10
945.413
 20
151.6634
 10
945.9218
 20
144.1565
 10
946.6253
 20
136.7698
 10
947.5186
 20
129.5127
 10
948.5966
 20
122.3946
 10
949.8544
 20
115.425
 10
951.2868
 20
108.6132
 10
952.8889
 20
101.9688
 10
954.6556
 20
95.5011
 10
956.5819
 20
89.2195
 10
958.6627
 20
83.1336
 10
960.8932
 20
77.2526
 10
963.2681
 20
71.5861
 10
965.7826
 20
66.1434
 10
968.4315
 20
60.934
 10
971.2098
 20
55.9673
 10
974.1126
 20
51.2527
 10
977.1347
 20
46.7997
 10
980.2712
 20
42.6176
 10
983.5171
 20
38.716
 10
986.8672
 20
35.1042
 10
990.3167
 20
31.7916
 10
993.8604
 20
28.7877
 10
997.4933
 20
26.102
 10
1001.2104
 20
23.7437
 10
1005.0068
 20
21.7224
 10
1008.8772
 20
20.0475
 10
1012.8168
 20
18.7283
 10
1016.8205
 20
17.7744
 10
1020.8832
 20
17.1952
 10
1025.0
 20
17.0
 10
1029.1168
 20
17.1952
 10
1033.1795
 20
17.7744
 10
1037.1832
 20
18.7283
 10
1041.1228
 20
20.0475
 10
1044.9932
 20
21.7224
 10
1048.7896
 20
23.7437
 10
1052.5067
 20
26.102
 10
1056.1396
 20
28.7877
 10
1059.6833
 20
31.7916
 10
1063.1328
 20
35.1042
 10
1066.4829
 20
38.716
 10
1069.7288
 20
42.6176
 10
1072.8653
 20
46.7997
 10
1075.8874
 20
51.2527
 10
1078.7902
 20
55.9673
 10
1081.5685
 20
60.934
 10
1084.2174
 20
66.1434
 10
1086.7319
 20
71.5861
 10
1089.1068
 20
77.2526
 10
1091.3373
 20
83.1336
 10
1093.4181
 20
89.2195
 10
1095.3444
 20
95.5011
 10
1097.1111
 20
101.9688
 10
1098.7132
 20
108.6132
 10
1100.1456
 20
115.425
 10
1101.4034
 20
122.3946
 10
1102.4814
 20
129.5127
 10
1103.3747
 20
136.7698
 10
1104.0782
 20
144.1565
 10
1104.587
 20
151.6634
 10
1104.8959
 20
159.281
 10
1105.0
 20
167.0
 10
1104.8959
 20
174.719
 10
1104.587
 20
182.3366
 10
1104.0782
 20
189.8435
 10
1103.3747
 20
197.2302
 10
1102.4814
 20
204.4873
 10
1101.4034
 20
211.6054
 10
1100.1456
 20
218.575
 10
1098.7132
 20
225.3868
 10
1097.1111
 20
232.0312
 10
1095.3444
 20
238.4989
 10
1093.4181
 20
244.7805
 10
1091.3373
 20
250.8664
 10
1089.1068
 20
256.7474
 10
1086.7319
 20
262.4139
 10
1084.2174
 20
267.8566
 10
1081.5685
 20
273.066
 10
1078.7902
 20
278.0327
 10
1075.8874
 20
282.7473
 10
1072.8653
 20
287.2003
 10
1069.7288
 20
291.3824
 10
1066.4829
 20
295.284
 10
1063.1328
 20
298.8958
 10
1059.6833
 20
302.2084
 10
1056.1396
 20
305.2123
 10
1052.5067
 20
307.898
 10
1048.7896
 20
310.2563
 10
1044.9932
 20
312.2776
 10
1041.1228
 20
313.9525
 10
1037.1832
 20
315.2717
 10
1033.1795
 20
316.2256
  0
LWPOLYLINE
  5
5E
330
17
100
AcDbEntity
  8
OFFCUT
100
AcDbPolyline
 90
129
 70
1
 10
929.9674
 20
196.5512
 10
930.7398
 20
206.708
 10
931.0
 20
217.0
 10
930.7398
 20
227.292
 10
929.9674
 20
237.4488
 10
928.6956
 20
247.458
 10
926.9367
 20
257.307
 10
924.7035
 20
266.9831
 10
922.0084
 20
276.4739
 10
918.8641
 20
285.7667
 10
915.283
 20
294.849
 10
911.2778
 20
303.7083
 10
906.8611
 20
312.3319
 10
902.0453
 20
320.7073
 10
896.8431
 20
328.8219
 10
891.2671
 20
336.6632
 10
885.3297
 20
344.2186
 10
879.0436
 20
351.4755
 10
872.4214
 20
358.4214
 10
865.4755
 20
365.0436
 10
858.2186
 20
371.3297
 10
850.6632
 20
377.2671
 10
842.8219
 20
382.8431
 10
834.7073
 20
388.0453
 10
826.3319
 20
392.8611
 10
817.7083
 20
397.2778
 10
808.849
 20
401.283
 10
799.7667
 20
404.8641
 10
790.4739
 20
408.0084
 10
780.9831
 20
410.7035
 10
771.307
 20
412.9367
 10
761.458
 20
414.6956
 10
751.4488
 20
415.9674
 10
741.292
 20
416.7398
 10
731.0
 20
417.0
 10
720.708
 20
416.7398
 10
710.5512
 20
415.9674
 10
700.542
 20
414.6956
 10
690.693
 20
412.9367
 10
681.0169
 20
410.7035
 10
671.5261
 20
408.0084
 10
662.2333
 20
404.8641
 10
653.151
 20
401.283
 10
644.2917
 20
397.2778
 10
635.6681
 20
392.8611
 10
627.2927
 20
388.0453
 10
619.1781
 20
382.8431
 10
611.3368
 20
377.2671
 10
603.7814
 20
371.3297
 10
596.5245
 20
365.0436
 10
589.5786
 20
358.4214
 10
582.9564
 20
351.4755
 10
576.6703
 20
344.2186
 10
570.7329
 20
336.6632
 10
565.1569
 20
328.8219
 10
559.9547
 20
320.7073
 10
555.1389
 20
312.3319
 10
550.7222
 20
303.7083
 10
546.717
 20
294.849
 10
543.1359
 20
285.7667
 10
539.9916
 20
276.4739
 10
537.2965
 20
266.9831
 10
535.0633
 20
257.307
 10
533.3044
 20
247.458
 10
532.0326
 20
237.4488
 10
531.2602
 20
227.292
 10
531.0
 20
217.0
 10
531.2602
 20
206.708
 10
532.0326
 20
196.5512
 10
533.3044
 20
186.542
 10
535.0633
 20
176.693
 10
537.2965
 20
167.0169
 10
539.9916
 20
157.5261
 10
543.1359
 20
148.2333
 10
546.717
 20
139.151
 10
550.7222
 20
130.2917
 10
555.1389
 20
121.6681
 10
559.9547
 20
113.2927
 10
565.1569
 20
105.1781
 10
570.7329
 20
97.3368
 10
576.6703
 20
89.7814
 10
582.9564
 20
82.5245
 10
589.5786
 20
75.5786
 10
596.5245
 20
68.9564
 10
603.7814
 20
62.6703
 10
611.3368
 20
56.7329
 10
619.1781
 20
51.1569
 10
627.2927
 20
45.9547
 10
635.6681
 20
41.1389
 10
644.2917
 20
36.7222
 10
653.151
 20
32.717
 10
662.2333
 20
29.1359
 10
671.5261
 20
25.9916
 10
681.0169
 20
23.2965
 10
690.693
 20
21.0633
 10
700.542
 20
19.3044
 10
710.5512
 20
18.0326
 10
720.708
 20
17.2602
 10
731.0
 20
17.0
 10
741.292
 20
17.2602
 10
751.4488
 20
18.0326
 10
761.458
 20
19.3044
 10
771.307
 20
21.0633
 10
780.9831
 20
23.2965
 10
790.4739
 20
25.9916
 10
799.7667
 20
29.1359
 10
808.849
 20
32.717
 10
817.7083
 20
36.7222
 10
826.3319
 20
41.1389
 10
834.7073
 20
45.9547
 10
842.8219
 20
51.1569
 10
850.6632
 20
56.7329
 10
858.2186
 20
62.6703
 10
865.4755
 20
68.9564
 10
872.4214
 20
75.5786
 10
879.0436
 20
82.5245
 10
885.3297
 20
89.7814
 10
891.2671
 20
97.3368
 10
896.8431
 20
105.1781
 10
902.0453
 20
113.2927
 10
906.8611
 20
121.6681
 10
911.2778
 20
130.2917
 10
915.283
 20
139.151
 10
918.8641
 20
148.2333
 10
922.0084
 20
157.5261
 10
924.7035
 20
167.0169
 10
926.9367
 20
176.693
 10
928.6956
 20
186.542
 10
929.9674
 20
196.5512
  0
LWPOLYLINE
  5
5F
330
17
100
AcDbEntity
  8
OFFCUT
100
AcDbPolyline
 90
129
 70
1
 10
414.6956
 20
400.542
 10
415.9674
 20
410.5512
 10
416.7398
 20
420.708
 10
417.0
 20
431.0
 10
416.7398
 20
441.292
 10
415.9674
 20
451.4488
 10
414.6956
 20
461.458
 10
412.9367
 20
471.307
 10
410.7035
 20
480.9831
 10
408.0084
 20
490.4739
 10
404.8641
 20
499.7667
 10
401.283
 20
508.849
 10
397.2778
 20
517.7083
 10
392.8611
 20
526.3319
 10
388.0453
 20
534.7073
 10
382.8431
 20
542.8219
 10
377.2671
 20
550.6632
 10
371.3297
 20
558.2186
 10
365.0436
 20
565.4755
 10
358.4214
 20
572.4214
 10
351.4755
 20
579.0436
 10
344.2186
 20
585.3297
 10
336.6632
 20
591.2671
 10
328.8219
 20
596.8431
 10
320.7073
 20
602.0453
 10
312.3319
 20
606.8611
 10
303.7083
 20
611.2778
 10
294.849
 20
615.283
 10
285.7667
 20
618.8641
 10
276.4739
 20
622.0084
 10
266.9831
 20
624.7035
 10
257.307
 20
626.9367
 10
247.458
 20
628.6956
 10
237.4488
 20
629.9674
 10
227.292
 20
630.7398
 10
217.0
 20
631.0
 10
206.708
 20
630.7398
 10
196.5512
 20
629.9674
 10
186.542
 20
628.6956
 10
176.693
 20
626.9367
 10
167.0169
 20
624.7035
 10
157.5261
 20
622.0084
 10
148.2333
 20
618.8641
 10
139.151
 20
615.283
 10
130.2917
 20
611.2778
 10
121.6681
 20
606.8611
 10
113.2927
 20
602.0453
 10
105.1781
 20
596.8431
 10
97.3368
 20
591.2671
 10
89.7814
 20
585.3297
 10
82.5245
 20
579.0436
 10
75.5786
 20
572.4214
 10
68.9564
 20
565.4755
 10
62.6703
 20
558.2186
 10
56.7329
 20
550.6632
 10
51.1569
 20
542.8219
 10
45.9547
 20
534.7073
 10
41.1389
 20
526.3319
 10
36.7222
 20
517.7083
 10
32.717
 20
508.849
 10
29.1359
 20
499.7667
 10
25.9916
 20
490.4739
 10
23.2965
 20
480.9831
 10
21.0633
 20
471.307
 10
19.3044
 20
461.458
 10
18.0326
 20
451.4488
 10
17.2602
 20
441.292
 10
17.0
 20
431.0
 10
17.2602
 20
420.708
 10
18.0326
 20
410.5512
 10
19.3044
 20
400.542
 10
21.0633
 20
390.693
 10
23.2965
 20
381.0169
 10
25.9916
 20
371.5261
 10
29.1359
 20
362.2333
 10
32.717
 20
353.151
 10
36.7222
 20
344.2917
 10
41.1389
 20
335.6681
 10
45.9547
 20
327.2927
 10
51.1569
 20
319.1781
 10
56.7329
 20
311.3368
 10
62.6703
 20
303.7814
 10
68.9564
 20
296.5245
 10
75.5786
 20
289.5786
 10
82.5245
 20
282.9564
 10
89.7814
 20
276.6703
 10
97.3368
 20
270.7329
 10
105.1781
 20
265.1569
 10
113.2927
 20
259.9547
 10
121.6681
 20
255.1389
 10
130.2917
 20
250.7222
 10
139.151
 20
246.717
 10
148.2333
 20
243.1359
 10
157.5261
 20
239.9916
 10
167.0169
 20
237.2965
 10
176.693
 20
235.0633
 10
186.542
 20
233.3044
 10
196.5512
 20
232.0326
 10
206.708
 20
231.2602
 10
217.0
 20
231.0
 10
227.292
 20
231.2602
 10
237.4488
 20
232.0326
 10
247.458
 20
233.3044
 10
257.307
 20
235.0633
 10
266.9831
 20
237.2965
 10
276.4739
 20
239.9916
 10
285.7667
 20
243.1359
 10
294.849
 20
246.717
 10
303.7083
 20
250.7222
 10
312.3319
 20
255.1389
 10
320.7073
 20
259.9547
 10
328.8219
 20
265.1569
 10
336.6632
 20
270.7329
 10
344.2186
 20
276.6703
 10
351.4755
 20
282.9564
 10
358.4214
 20
289.5786
 10
365.0436
 20
296.5245
 10
371.3297
 20
303.7814
 10
377.2671
 20
311.3368
 10
382.8431
 20
319.1781
 10
388.0453
 20
327.2927
 10
392.8611
 20
335.6681
 10
397.2778
 20
344.2917
 10
401.283
 20
353.151
 10
404.8641
 20
362.2333
 10
408.0084
 20
371.5261
 10
410.7035
 20
381.0169
 10
412.9367
 20
390.693
 10
414.6956
 20
400.542
  0
LWPOLYLINE
  5
60
330
17
100
AcDbEntity
  8
OFFCUT
100
AcDbPolyline
 90
129
 70
1
 10
1037.1832
 20
629.2717
 10
1033.1795
 20
630.2256
 10
1029.1168
 20
630.8048
 10
1025.0
 20
631.0
 10
1020.8832
 20
630.8048
 10
1016.8205
 20
630.2256
 10
1012.8168
 20
629.2717
 10
1008.8772
 20
627.9525
 10
1005.0068
 20
626.2776
 10
1001.2104
 20
624.2563
 10
997.4933
 20
621.898
 10
993.8604
 20
619.2123
 10
990.3167
 20
616.2084
 10
986.8672
 20
612.8958
 10
983.5171
 20
609.284
 10
980.2712
 20
605.3824
 10
977.1347
 20
601.2003
 10
974.1126
 20
596.7473
 10
971.2098
 20
592.0327
 10
968.4315
 20
587.066
 10
965.7826
 20
581.8566
 10
963.2681
 20
576.4139
 10
960.8932
 20
570.7474
 10
958.6627
 20
564.8664
 10
956.5819
 20
558.7805
 10
954.6556
 20
552.4989
 10
952.8889
 20
546.0312
 10
951.2868
 20
539.3868
 10
949.8544
 20
532.575
 10
948.5966
 20
525.6054
 10
947.5186
 20
518.4873
 10
946.6253
 20
511.2302
 10
945.9218
 20
503.8435
 10
945.413
 20
496.3366
 10
945.1041
 20
488.719
 10
945.0
 20
481.0
 10
945.1041
 20
473.281
 10
945.413
 20
465.6634
 10
945.9218
 20
458.1565
 10
946.6253
 20
450.7698
 10
947.5186
 20
443.5127
 10
948.5966
 20
436.3946
 10
949.8544
 20
429.425
 10
951.2868
 20
422.6132
 10
952.8889
 20
415.9688
 10
954.6556
 20
409.5011
 10
956.5819
 20
403.2195
 10
958.6627
 20
397.1336
 10
960.8932
 20
391.2526
 10
963.2681
 20
385.5861
 10
965.7826
 20
380.1434
 10
968.4315
 20
374.934
 10
971.2098
 20
369.9673
 10
974.1126
 20
365.2527
 10
977.1347
 20
360.7997
 10
980.2712
 20
356.6176
 10
983.5171
 20
352.716
 10
986.8672
 20
349.1042
 10
990.3167
 20
345.7916
 10
993.8604
 20
342.7877
 10
997.4933
 20
340.102
 10
1001.2104
 20
337.7437
 10
1005.0068
 20
335.7224
 10
1008.8772
 20
334.0475
 10
1012.8168
 20
332.7283
 10
1016.8205
 20
331.7744
 10
1020.8832
 20
331.1952
 10
1025.0
 20
331.0
 10
1029.1168
 20
331.1952
 10
1033.1795
 20
331.7744
 10
1037.1832
 20
332.7283
 10
1041.1228
 20
334.0475
 10
1044.9932
 20
335.7224
 10
1048.7896
 20
337.7437
 10
1052.5067
 20
340.102
 10
1056.1396
 20
342.7877
 10
1059.6833
 20
345.7916
 10
1063.1328
 20
349.1042
 10
1066.4829
 20
352.716
 10
1069.7288
 20
356.6176
 10
1072.8653
 20
360.7997
 10
1075.8874
 20
365.2527
 10
1078.7902
 20
369.9673
 10
1081.5685
 20
374.934
 10
1084.2174
 20
380.1434
 10
1086.7319
 20
385.5861
 10
1089.1068
 20
391.2526
 10
1091.3373
 20
397.1336
 10
1093.4181
 20
403.2195
 10
1095.3444
 20
409.5011
 10
1097.1111
 20
415.9688
 10
1098.7132
 20
422.6132
 10
1100.1456
 20
429.425
 10
1101.4034
 20
436.3946
 10
1102.4814
 20
443.5127
 10
1103.3747
 20
450.7698
 10
1104.0782
 20
458.1565
 10
1104.587
 20
465.6634
 10
1104.8959
 20
473.281
 10
1105.0
 20
481.0
 10
1104.8959
 20
488.719
 10
1104.587
 20
496.3366
 10
1104.0782
 20
503.8435
 10
1103.3747
 20
511.2302
 10
1102.4814
 20
518.4873
 10
1101.4034
 20
525.6054
 10
1100.1456
 20
532.575
 10
1098.7132
 20
539.3868
 10
1097.1111
 20
546.0312
 10
1095.3444
 20
552.4989
 10
1093.4181
 20
558.7805
 10
1091.3373
 20
564.8664
 10
1089.1068
 20
570.7474
 10
1086.7319
 20
576.4139
 10
1084.2174
 20
581.8566
 10
1081.5685
 20
587.066
 10
1078.7902
 20
592.0327
 10
1075.8874
 20
596.7473
 10
1072.8653
 20
601.2003
 10
1069.7288
 20
605.3824
 10
1066.4829
 20
609.284
 10
1063.1328
 20
612.8958
 10
1059.6833
 20
616.2084
 10
1056.1396
 20
619.2123
 10
1052.5067
 20
621.898
 10
1048.7896
 20
624.2563
 10
1044.9932
 20
626.2776
 10
1041.1228
 20
627.9525
 10
1037.1832
 20
629.2717
  0
LWPOLYLINE
  5
61
330
17
100
AcDbEntity
  8
OFFCUT
100
AcDbPolyline
 90
5
 70
1
 10
805.0
 20
691.0
 10
745.0
 20
491.0
 10
925.0
 20
431.0
 10
925.0
 20
631.0
 10
805.0
 20
691.0
  0
LWPOLYLINE
  5
62
330
17
100
AcDbEntity
  8
OFFCUT
100
AcDbPolyline
 90
129
 70
1
 10
730.2256
 20
565.6634
 10
730.8048
 20
573.281
 10
731.0
 20
581.0
 10
730.8048
 20
588.719
 10
730.2256
 20
596.3366
 10
729.2717
 20
603.8435
 10
727.9525
 20
611.2302
 10
726.2776
 20
618.4873
 10
724.2563
 20
625.6054
 10
721.898
 20
632.575
 10
719.2123
 20
639.3868
 10
716.2084
 20
646.0312
 10
712.8958
 20
652.4989
 10
709.284
 20
658.7805
 10
705.3824
 20
664.8664
 10
701.2003
 20
670.7474
 10
696.7473
 20
676.4139
 10
692.0327
 20
681.8566
 10
687.066
 20
687.066
 10
681.8566
 20
692.0327
 10
676.4139
 20
696.7473
 10
670.7474
 20
701.2003
 10
664.8664
 20
705.3824
 10
658.7805
 20
709.284
 10
652.4989
 20
712.8958
 10
646.0312
 20
716.2084
 10
639.3868
 20
719.2123
 10
632.575
 20
721.898
 10
625.6054
 20
724.2563
 10
618.4873
 20
726.2776
 10
611.2302
 20
727.9525
 10
603.8435
 20
729.2717
 10
596.3366
 20
730.2256
 10
588.719
 20
730.8048
 10
581.0
 20
731.0
 10
573.281
 20
730.8048
 10
565.6634
 20
730.2256
 10
558.1565
 20
729.2717
 10
550.7698
 20
727.9525
 10
543.5127
 20
726.2776
 10
536.3946
 20
724.2563
 10
529.425
 20
721.898
 10
522.6132
 20
719.2123
 10
515.9688
 20
716.2084
 10
509.5011
 20
712.8958
 10
503.2195
 20
709.284
 10
497.1336
 20
705.3824
 10
491.2526
 20
701.2003
 10
485.5861
 20
696.7473
 10
480.1434
 20
692.0327
 10
474.934
 20
687.066
 10
469.9673
 20
681.8566
 10
465.2527
 20
676.4139
 10
460.7997
 20
670.7474
 10
456.6176
 20
664.8664
 10
452.716
 20
658.7805
 10
449.1042
 20
652.4989
 10
445.7916
 20
646.0312
 10
442.7877
 20
639.3868
 10
440.102
 20
632.575
 10
437.7437
 20
625.6054
 10
435.7224
 20
618.4873
 10
434.0475
 20
611.2302
 10
432.7283
 20
603.8435
 10
431.7744
 20
596.3366
 10
431.1952
 20
588.719
 10
431.0
 20
581.0
 10
431.1952
 20
573.281
 10
431.7744
 20
565.6634
 10
432.7283
 20
558.1565
 10
434.0475
 20
550.7698
 10
435.7224
 20
543.5127
 10
437.7437
 20
536.3946
 10
440.102
 20
529.425
 10
442.7877
 20
522.6132
 10
445.7916
 20
515.9688
 10
449.1042
 20
509.5011
 10
452.716
 20
503.2195
 10
456.6176
 20
497.1336
 10
460.7997
 20
491.2526
 10
465.2527
 20
485.5861
 10
469.9673
 20
480.1434
 10
474.934
 20
474.934
 10
480.1434
 20
469.9673
 10
485.5861
 20
465.2527
 10
491.2526
 20
460.7997
 10
497.1336
 20
456.6176
 10
503.2195
 20
452.716
 10
509.5011
 20
449.1042
 10
515.9688
 20
445.7916
 10
522.6132
 20
442.7877
 10
529.425
 20
440.102
 10
536.3946
 20
437.7437
 10
543.5127
 20
435.7224
 10
550.7698
 20
434.0475
 10
558.1565
 20
432.7283
 10
565.6634
 20
431.7744
 10
573.281
 20
431.1952
 10
581.0
 20
431.0
 10
588.719
 20
431.1952
 10
596.3366
 20
431.7744
 10
603.8435
 20
432.7283
 10
611.2302
 20
434.0475
 10
618.4873
 20
435.7224
 10
625.6054
 20
437.7437
 10
632.575
 20
440.102
 10
639.3868
 20
442.7877
 10
646.0312
 20
445.7916
 10
652.4989
 20
449.1042
 10
658.7805
 20
452.716
 10
664.8664
 20
456.6176
 10
670.7474
 20
460.7997
 10
676.4139
 20
465.2527
 10
681.8566
 20
469.9673
 10
687.066
 20
474.934
 10
692.0327
 20
480.1434
 10
696.7473
 20
485.5861
 10
701.2003
 20
491.2526
 10
705.3824
 20
497.1336
 10
709.284
 20
503.2195
 10
712.8958
 20
509.5011
 10
716.2084
 20
515.9688
 10
719.2123
 20
522.6132
 10
721.898
 20
529.425
 10
724.2563
 20
536.3946
 10
726.2776
 20
543.5127
 10
727.9525
 20
550.7698
 10
729.2717
 20
558.1565
 10
730.2256
 20
565.6634
  0
LWPOLYLINE
  5
63
330
17
100
AcDbEntity
  8
OFFCUT
100
AcDbPolyline
 90
5
 70
1
 10
1199.0
 20
765.0
 10
999.0
 20
825.0
 10
939.0
 20
645.0
 10
1139.0
 20
645.0
 10
1199.0
 20
765.0
  0
LWPOLYLINE
  5
64
330
17
100
AcDbEntity
  8
OFFCUT
100
AcDbPolyline
 90
7
 70
1
 10
57.0
 20
685.0
 10
57.0
 20
945.0
 10
17.0
 20
945.0
 10
17.0
 20
645.0
 10
317.0
 20
645.0
 10
317.0
 20
685.0
 10
57.0
 20
685.0
  0
LWPOLYLINE
  5
65
330
17
100
AcDbEntity
  8
OFFCUT
100
AcDbPolyline
 90
63
 70
1
 10
858.8854
 20
717.575
 10
874.8582
 20
713.0091
 10
891.0905
 20
708.8923
 10
907.4525
 20
705.0
 10
907.4525
 20
885.0
 10
897.9035
 20
896.259
 10
888.3114
 20
907.1601
 10
883.4859
 20
912.3644
 10
878.6335
 20
917.3451
 10
873.7489
 20
922.0572
 10
868.8268
 20
926.4561
 10
863.8617
 20
930.497
 10
858.8483
 20
934.1351
 10
853.7812
 20
937.3257
 10
848.655
 20
940.0241
 10
843.4644
 20
942.1854
 10
838.2041
 20
943.765
 10
832.8686
 20
944.7182
 10
827.4525
 20
945.0
 10
824.3522
 20
944.8478
 10
821.2305
 20
944.4734
 10
818.0933
 20
943.8841
 10
814.9466
 20
943.0869
 10
808.6492
 20
940.8968
 10
802.3862
 20
937.9596
 10
796.206
 20
934.3319
 10
790.1565
 20
930.07
 10
784.2861
 20
925.2305
 10
778.6428
 20
919.8699
 10
773.2749
 20
914.0445
 10
768.2303
 20
907.811
 10
763.5574
 20
901.2257
 10
759.3043
 20
894.3452
 10
755.5191
 20
887.2259
 10
752.2499
 20
879.9243
 10
749.5451
 20
872.4968
 10
747.4525
 20
865.0
 10
745.9694
 20
857.2248
 10
745.1623
 20
849.4593
 10
745.0
 20
841.7274
 10
745.4516
 20
834.0524
 10
746.486
 20
826.4582
 10
748.0722
 20
818.9683
 10
750.1792
 20
811.6062
 10
752.7758
 20
804.3957
 10
755.831
 20
797.3603
 10
759.3139
 20
790.5236
 10
763.1934
 20
783.9094
 10
767.4383
 20
777.5411
 10
772.0178
 20
771.4424
 10
776.9007
 20
765.6369
 10
782.0559
 20
760.1482
 10
787.4525
 20
755.0
 10
793.6959
 20
749.6997
 10
800.1825
 20
744.8205
 10
806.8961
 20
740.3341
 10
813.8205
 20
736.2127
 10
820.9395
 20
732.4281
 10
828.2368
 20
728.9523
 10
835.6963
 20
725.7571
 10
843.3017
 20
722.8145
 10
851.0368
 20
720.0965
 10
858.8854
 20
717.575
  0
TEXT
  5
66
330
17
100
AcDbEntity
  8
INFO
100
AcDbText
 10
0.0
 20
2480.0
 30
0.0
 40
25.0
  1
WASTE-FIRST - SHEET 1 - mixed_curved.dxf
 11
0.0
 21
2480.0
 31
0.0
100
AcDbText
  0
ENDSEC
  0
SECTION
  2
OBJECTS
  0
DICTIONARY
  5
A
330
0
100
AcDbDictionary
281
1
  3
ACAD_COLOR
350
B
  3
ACAD_GROUP
350
C
  3
ACAD_LAYOUT
350
D
  3
ACAD_MATERIAL
350
E
  3
ACAD_MLEADERSTYLE
350
F
  3
ACAD_MLINESTYLE
350
10
  3
ACAD_PLOTSETTINGS
350
11
  3
ACAD_PLOTSTYLENAME
350
12
  3
ACAD_SCALELIST
350
14
  3
ACAD_TABLESTYLE
350
15
  3
ACAD_VISUALSTYLE
350
16
  3
EZDXF_META
350
2D
  0
DICTIONARY
  5
B
330
A
100
AcDbDictionary
281
1
  0
DICTIONARY
  5
C
330
A
100
AcDbDictionary
281
1
  0
DICTIONARY
  5
D
330
A
100
AcDbDictionary
281
1
  3
Model
350
1A
  3
Layout1
350
1E
  0
DICTIONARY
  5
E
330
A
100
AcDbDictionary
281
1
  3
ByBlock
350
1F
  3
ByLayer
350
20
  3
Global
350
21
  0
DICTIONARY
  5
F
330
A
100
AcDbDictionary
281
1
  3
Standard
350
2C
  0
DICTIONARY
  5
10
330
A
100
AcDbDictionary
281
1
  3
Standard
350
22
  0
DICTIONARY
  5
11
330
A
100
AcDbDictionary
281
1
  0
ACDBDICTIONARYWDFLT
  5
12
330
A
100
AcDbDictionary
281
1
  3
Normal
350
13
100
AcDbDictionaryWithDefault
340
13
  0
ACDBPLACEHOLDER
  5
13
330
12
  0
DICTIONARY
  5
14
330
A
100
AcDbDictionary
281
1
  0
DICTIONARY
  5
15
330
A
100
AcDbDictionary
281
1
  0
DICTIONARY
  5
16
330
A
100
AcDbDictionary
281
1
  0
LAYOUT
  5
1A
330
D
100
AcDbPlotSettings
  1

  4
A3
  6

 40
7.5
 41
20.0
 42
7.5
 43
20.0
 44
420.0
 45
297.0
 46
0.0
 47
0.0
 48
0.0
 49
0.0
140
0.0
141
0.0
142
1.0
143
1.0
 70
1024
 72
1
 73
0
 74
5
  7

 75
16
 76
0
 77
2
 78
300
147
1.0
148
0.0
149
0.0
100
AcDbLayout
  1
Model
 70
1
 71
0
 10
0.0
 20
0.0
 11
420.0
 21
297.0
 12
0.0
 22
0.0
 32
0.0
 14
1e+20
 24
1e+20
 34
1e+20
 15
-1e+20
 25
-1e+20
 35
-1e+20
146
0.0
 13
0.0
 23
0.0
 33
0.0
 16
1.0
 26
0.0
 36
0.0
 17
0.0
 27
1.0
 37
0.0
 76
1
330
17
  0
LAYOUT
  5
1E
330
D
100
AcDbPlotSettings
  1

  4
A3
  6

 40
7.5
 41
20.0
 42
7.5
 43
20.0
 44
420.0
 45
297.0
 46
0.0
 47
0.0
 48
0.0
 49
0.0
140
0.0
141
0.0
142
1.0
143
1.0
 70
0
 72
1
 73
0
 74
5
  7

 75
16
 76
0
 77
2
 78
300
147
1.0
148
0.0
149
0.0
100
AcDbLayout
  1
Layout1
 70
1
 71
1
 10
0.0
 20
0.0
 11
420.0
 21
297.0
 12
0.0
 22
0.0
 32
0.0
 14
1e+20
 24
1e+20
 34
1e+20
 15
-1e+20
 25
-1e+20
 35
-1e+20
146
0.0
 13
0.0
 23
0.0
 33
0.0
 16
1.0
 26
0.0
 36
0.0
 17
0.0
 27
1.0
 37
0.0
 76
1
330
1B
  0
MATERIAL
  5
1F
102
{ACAD_REACTORS
330
E
102
}
330
E
100
AcDbMaterial
  1
ByBlock
  2

 70
0
 40
1.0
 71
1
 41
1.0
 91
-1023410177
 42
1.0
 72
1
  3

 73
1
 74
1
 75
1
 44
0.5
 73
0
 45
1.0
 46
1.0
 77
1
  4

 78
1
 79
1
170
1
 48
1.0
171
1
  6

172
1
173
1
174
1
140
1.0
141
1.0
175
1
  7

176
1
177
1
178
1
143
1.0
179
1
  8

270
1
271
1
272
1
145
1.0
146
1.0
273
1
  9

274
1
275
1
276
1
 42
1.0
 72
1
  3

 73
1
 74
1
 75
1
 94
63
  0
MATERIAL
  5
20
102
{ACAD_REACTORS
330
E
102
}
330
E
100
AcDbMaterial
  1
ByLayer
  2

 70
0
 40
1.0
 71
1
 41
1.0
 91
-1023410177
 42
1.0
 72
1
  3

 73
1
 74
1
 75
1
 44
0.5
 73
0
 45
1.0
 46
1.0
 77
1
  4

 78
1
 79
1
170
1
 48
1.0
171
1
  6

172
1
173
1
174
1
140
1.0
141
1.0
175
1
  7

176
1
177
1
178
1
143
1.0
179
1
  8

270
1
271
1
272
1
145
1.0
146
1.0
273
1
  9

274
1
275
1
276
1
 42
1.0
 72
1
  3

 73
1
 74
1
 75
1
 94
63
  0
MATERIAL
  5
21
102
{ACAD_REACTORS
330
E
102
}
330
E
100
AcDbMaterial
  1
Global
  2

 70
0
 40
1.0
 71
1
 41
1.0
 91
-1023410177
 42
1.0
 72
1
  3

 73
1
 74
1
 75
1
 44
0.5
 73
0
 45
1.0
 46
1.0
 77
1
  4

 78
1
 79
1
170
1
 48
1.0
171
1
  6

172
1
173
1
174
1
140
1.0
141
1.0
175
1
  7

176
1
177
1
178
1
143
1.0
179
1
  8

270
1
271
1
272
1
145
1.0
146
1.0
273
1
  9

274
1
275
1
276
1
 42
1.0
 72
1
  3

 73
1
 74
1
 75
1
 94
63
  0
MLINESTYLE
  5
22
102
{ACAD_REACTORS
330
10
102
}
330
10
100
AcDbMlineStyle
  2
Standard
 70
0
  3

 62
256
 51
90.0
 52
90.0
 71
2
 49
0.5
 62
256
  6
BYLAYER
 49
-0.5
 62
256
  6
BYLAYER
  0
MLEADERSTYLE
  5
2C
102
{ACAD_REACTORS
330
F
102
}
330
F
100
AcDbMLeaderStyle
179
2
170
2
171
1
172
0
 90
2
 40
0.0
 41
0.0
173
1
 91
-1056964608
 92
-2
290
1
 42
2.0
291
1
 43
8.0
  3
Standard
 44
4.0
300

342
29
174
1
175
1
176
0
178
1
 93
-1056964608
 45
4.0
292
0
297
0
 46
4.0
 94
-1056964608
 47
1.0
 49
1.0
140
1.0
294
1
141
0.0
177
0
142
1.0
295
0
296
0
143
3.75
271
0
272
9
273
9
  0
DICTIONARY
  5
2D
330
A
100
AcDbDictionary
280
1
281
1
  3
CREATED_BY_EZDXF
350
2E
  3
WRITTEN_BY_EZDXF
350
69
  0
DICTIONARYVAR
  5
2E
330
2D
100
DictionaryVariables
280
0
  1
1.4.4 @ 2026-09-17T10:34:38.493221+00:00
  0
DICTIONARYVAR
  5
69
330
2D
100
DictionaryVariables
280
0
  1
1.4.4 @ 2026-09-17T10:34:38.516569+00:00
  0
ENDSEC
  0
EOF
